<svg width="18" height="19" viewBox="0 0 18 19" fill="none" xmlns="http://www.w3.org/2000/svg">
<path fill-rule="evenodd" clip-rule="evenodd" d="M14.1583 2.33286C14.6353 1.89819 15.3649 1.8982 15.842 2.33288C15.8647 2.35359 15.8944 2.38348 15.9982 2.48972C16.0978 2.59163 16.1257 2.6206 16.1453 2.64312C16.5563 3.11403 16.5563 3.81614 16.1453 4.28704C16.1257 4.30956 16.0978 4.33853 15.9982 4.44044L15.1571 5.30111C14.0575 5.32768 13.1526 4.4023 13.2163 3.29371L14.0021 2.48969C14.1059 2.38346 14.1355 2.35357 14.1583 2.33286ZM11.9536 2.43961L2.99393 11.6076L2.92211 11.6811C2.23016 12.3888 1.78328 12.8459 1.47289 13.405C1.1625 13.9642 1.01091 14.5852 0.776175 15.5468L0.751801 15.6466L0.271446 17.6127C0.208916 17.8686 0.285262 18.1386 0.472563 18.3239C0.659863 18.5092 0.930648 18.5826 1.18589 18.5173L3.01397 18.0496L3.11592 18.0236C4.09748 17.7727 4.73142 17.6106 5.29801 17.2835C5.86458 16.9563 6.32181 16.4883 7.02976 15.7636L7.02977 15.7636L7.10332 15.6883L17.0709 5.48884L17.0855 5.474C17.1638 5.39391 17.2241 5.33217 17.2754 5.27341C18.1796 4.23743 18.1796 2.69279 17.2754 1.65679C17.2242 1.59804 17.1638 1.53632 17.0856 1.45625L17.0855 1.45622L17.071 1.44134L17.0557 1.42574L17.0557 1.42567C16.9742 1.34231 16.9116 1.27817 16.8522 1.2241C15.8027 0.267809 14.1976 0.267787 13.148 1.22405C13.0887 1.27814 13.026 1.3423 12.9445 1.4257L12.9293 1.44129L11.9729 2.4199C11.9664 2.42635 11.9599 2.43292 11.9536 2.43961ZM11.933 4.60686C12.2781 5.51237 13.0014 6.2356 13.9062 6.58109L6.03054 14.6399C5.22384 15.4653 4.91433 15.7729 4.54792 15.9845C4.1815 16.1961 3.76039 16.3104 2.64222 16.5964L2.0253 16.7543L2.20894 16.0026C2.47653 14.9073 2.58363 14.4947 2.78437 14.1331C2.98511 13.7715 3.27868 13.4623 4.06671 12.656L11.933 4.60686Z" fill="#0D4477"/>
</svg>
