<svg width="22" height="18" viewBox="0 0 22 18" fill="none" xmlns="http://www.w3.org/2000/svg">
<path fill-rule="evenodd" clip-rule="evenodd" d="M9 0.392884H8.94358C7.10582 0.392868 5.65019 0.392855 4.51098 0.546018C3.33856 0.703646 2.38961 1.03576 1.64124 1.78413C0.89288 2.53249 0.560763 3.48144 0.403135 4.65386C0.249972 5.79307 0.249984 7.24871 0.25 9.08647V9.14288V9.1993C0.249984 11.0371 0.249972 12.4927 0.403135 13.6319C0.560763 14.8043 0.89288 15.7533 1.64124 16.5016C2.38961 17.25 3.33856 17.5821 4.51098 17.7397C5.65018 17.8929 7.1058 17.8929 8.94354 17.8929H8.94359H9H13H13.0564H13.0565C14.8942 17.8929 16.3498 17.8929 17.489 17.7397C18.6614 17.5821 19.6104 17.25 20.3588 16.5016C21.1071 15.7533 21.4392 14.8043 21.5969 13.6319C21.75 12.4927 21.75 11.0371 21.75 9.19934V9.19929V9.14288V9.08647V9.08643C21.75 7.24869 21.75 5.79307 21.5969 4.65386C21.4392 3.48144 21.1071 2.53249 20.3588 1.78413C19.6104 1.03576 18.6614 0.703646 17.489 0.546018C16.3498 0.392855 14.8942 0.392868 13.0564 0.392884H13H9ZM2.7019 2.84479C3.12511 2.42158 3.70476 2.16791 4.71085 2.03264C5.73851 1.89448 7.09318 1.89288 9 1.89288H13C14.9068 1.89288 16.2615 1.89448 17.2892 2.03264C18.2952 2.16791 18.8749 2.42158 19.2981 2.84479C19.7213 3.268 19.975 3.84764 20.1102 4.85373C20.2484 5.8814 20.25 7.23606 20.25 9.14288C20.25 11.0497 20.2484 12.4044 20.1102 13.432C19.975 14.4381 19.7213 15.0178 19.2981 15.441C18.8749 15.8642 18.2952 16.1179 17.2892 16.2531C16.2615 16.3913 14.9068 16.3929 13 16.3929H9C7.09318 16.3929 5.73851 16.3913 4.71085 16.2531C3.70476 16.1179 3.12511 15.8642 2.7019 15.441C2.27869 15.0178 2.02502 14.4381 1.88976 13.432C1.75159 12.4044 1.75 11.0497 1.75 9.14288C1.75 7.23606 1.75159 5.8814 1.88976 4.85373C2.02502 3.84764 2.27869 3.268 2.7019 2.84479ZM5.41603 4.51885C5.07138 4.28908 4.60573 4.38221 4.37596 4.72686C4.1462 5.07151 4.23933 5.53716 4.58398 5.76692L10.584 9.76692C10.8359 9.93487 11.1641 9.93487 11.416 9.76692L17.416 5.76692C17.7607 5.53716 17.8538 5.07151 17.624 4.72686C17.3943 4.38221 16.9286 4.28908 16.584 4.51885L11 8.2415L5.41603 4.51885Z" fill="#0D4477"/>
</svg>
