<svg width="24" height="25" viewBox="0 0 24 25" fill="none" xmlns="http://www.w3.org/2000/svg">
<path d="M18.0001 8.01715C17.9401 8.00715 17.8701 8.00715 17.8101 8.01715C16.4301 7.96715 15.3301 6.83715 15.3301 5.43715C15.3301 4.00715 16.4801 2.85715 17.9101 2.85715C19.3401 2.85715 20.4901 4.01715 20.4901 5.43715C20.4801 6.83715 19.3801 7.96715 18.0001 8.01715Z" stroke="#0D4477" stroke-width="1.5" stroke-linecap="round" stroke-linejoin="round"/>
<path d="M16.9702 15.2972C18.3402 15.5272 19.8502 15.2872 20.9102 14.5772C22.3202 13.6372 22.3202 12.0972 20.9102 11.1572C19.8402 10.4472 18.3102 10.2072 16.9402 10.4472" stroke="#0D4477" stroke-width="1.5" stroke-linecap="round" stroke-linejoin="round"/>
<path d="M5.96998 8.01715C6.02998 8.00715 6.09998 8.00715 6.15998 8.01715C7.53998 7.96715 8.63998 6.83715 8.63998 5.43715C8.63998 4.00715 7.48998 2.85715 6.05998 2.85715C4.62998 2.85715 3.47998 4.01715 3.47998 5.43715C3.48998 6.83715 4.58998 7.96715 5.96998 8.01715Z" stroke="#0D4477" stroke-width="1.5" stroke-linecap="round" stroke-linejoin="round"/>
<path d="M6.99994 15.2972C5.62994 15.5272 4.11994 15.2872 3.05994 14.5772C1.64994 13.6372 1.64994 12.0972 3.05994 11.1572C4.12994 10.4472 5.65994 10.2072 7.02994 10.4472" stroke="#0D4477" stroke-width="1.5" stroke-linecap="round" stroke-linejoin="round"/>
<path d="M12.0001 15.4872C11.9401 15.4772 11.8701 15.4772 11.8101 15.4872C10.4301 15.4372 9.33008 14.3072 9.33008 12.9072C9.33008 11.4772 10.4801 10.3271 11.9101 10.3271C13.3401 10.3271 14.4901 11.4872 14.4901 12.9072C14.4801 14.3072 13.3801 15.4472 12.0001 15.4872Z" stroke="#0D4477" stroke-width="1.5" stroke-linecap="round" stroke-linejoin="round"/>
<path d="M14.91 18.6372C13.32 17.5772 10.69 17.5772 9.08997 18.6372C7.67997 19.5772 7.67997 21.1172 9.08997 22.0572C10.69 23.1272 13.31 23.1272 14.91 22.0572" stroke="#0D4477" stroke-width="1.5" stroke-linecap="round" stroke-linejoin="round"/>
</svg>
