<svg width="20" height="21" viewBox="0 0 20 21" fill="none" xmlns="http://www.w3.org/2000/svg">
<path fill-rule="evenodd" clip-rule="evenodd" d="M3.46154 0.964256C3.48307 0.964267 3.50485 0.964279 3.52691 0.964279C3.54724 0.964279 3.56731 0.96427 3.58711 0.964262C3.91925 0.964115 4.17758 0.964002 4.41628 1.00612C5.31569 1.16485 6.07763 1.75975 6.44975 2.59381C6.54851 2.81516 6.61105 3.06581 6.69147 3.38807C6.69626 3.40728 6.70112 3.42675 6.70605 3.44648L7.11967 5.10095L7.12872 5.13715C7.26881 5.69742 7.3877 6.17293 7.44488 6.5758C7.50576 7.0047 7.50752 7.41445 7.37061 7.83497C7.23371 8.25548 6.99105 8.58566 6.68934 8.89651C6.40593 9.1885 6.02987 9.50287 5.58678 9.87329L5.55817 9.89721L3.94594 11.2451C5.24925 13.6045 7.10973 15.4649 9.46912 16.7683L10.817 15.156L10.8409 15.1274C11.2113 14.6843 11.5257 14.3083 11.8177 14.0249C12.1285 13.7232 12.4587 13.4805 12.8792 13.3436C13.2998 13.2067 13.7095 13.2084 14.1384 13.2693C14.5413 13.3265 15.0168 13.4454 15.5771 13.5855L15.6132 13.5945L17.2677 14.0081C17.2874 14.0131 17.3069 14.0179 17.3261 14.0227C17.6484 14.1031 17.899 14.1657 18.1204 14.2644C18.9545 14.6366 19.5494 15.3985 19.7081 16.2979C19.7502 16.5366 19.7501 16.795 19.7499 17.1271C19.7499 17.1469 19.7499 17.167 19.7499 17.1873C19.7499 17.2093 19.7499 17.2311 19.7499 17.2527C19.7501 17.6357 19.7503 17.9379 19.6838 18.2357C19.4417 19.3197 18.4383 20.2299 17.336 20.3656C17.0336 20.4029 16.7737 20.3774 16.4505 20.3457C16.435 20.3442 16.4194 20.3427 16.4037 20.3411C13.764 20.0836 11.3883 19.4242 9.31907 18.3844C6.24492 16.8398 3.87438 14.4693 2.32976 11.3951C1.29005 9.32587 0.630602 6.95019 0.373058 4.31053C0.371522 4.29478 0.369994 4.27919 0.36848 4.26375C0.336793 3.94051 0.311318 3.68065 0.348551 3.37824C0.484272 2.27588 1.39448 1.27254 2.47845 1.03042C2.7763 0.963888 3.07852 0.96405 3.46154 0.964256ZM10.8576 17.4461C12.538 18.1663 14.4398 18.6424 16.5493 18.8482C16.9358 18.8859 17.0315 18.8918 17.1527 18.8769C17.6254 18.8187 18.116 18.3736 18.2199 17.9088C18.2458 17.7927 18.2499 17.6657 18.2499 17.1873C18.2499 16.7667 18.2471 16.6506 18.2309 16.5586C18.1588 16.1498 17.8883 15.8034 17.5092 15.6343C17.4239 15.5962 17.312 15.5654 16.9039 15.4634L15.2494 15.0497C14.6432 14.8982 14.2439 14.7993 13.9276 14.7544C13.6287 14.712 13.4696 14.7289 13.3436 14.7699C13.2175 14.8109 13.079 14.891 12.8624 15.1012C12.6332 15.3237 12.3686 15.6387 11.9678 16.1181L10.8576 17.4461ZM3.2681 9.85662L4.59606 8.7464C5.07547 8.34561 5.39051 8.08099 5.61297 7.85179C5.82321 7.63518 5.90326 7.49666 5.9443 7.3706C5.98534 7.24455 6.00219 7.08546 5.95977 6.78659C5.91488 6.47034 5.81601 6.07097 5.66446 5.46476L5.25084 3.81028C5.14882 3.40221 5.11796 3.29028 5.07991 3.20498C4.91076 2.82586 4.56442 2.55545 4.1556 2.4833C4.06362 2.46707 3.94754 2.46428 3.52691 2.46428C3.04848 2.46428 2.92154 2.46841 2.80545 2.49434C2.34055 2.59818 1.89552 3.08876 1.83731 3.56153C1.8224 3.68267 1.82826 3.7784 1.86597 4.16487C2.07179 6.27441 2.54795 8.17617 3.2681 9.85662Z" fill="#0D4477"/>
</svg>
