<svg width="52" height="52" viewBox="0 0 52 52" fill="none" xmlns="http://www.w3.org/2000/svg">
<mask id="mask0_2_13726" style="mask-type:alpha" maskUnits="userSpaceOnUse" x="0" y="0" width="52" height="52">
<circle cx="26" cy="26" r="26" fill="#C4C4C4"/>
</mask>
<g mask="url(#mask0_2_13726)">
<path d="M69 -8H-16V77H69V-8Z" fill="#C5C5FF"/>
<path d="M21.3046 26.8926C19.6471 30.3436 17.9985 34.8945 17.1285 35.6051C15.4035 37.0125 13.4364 37.507 11.6318 37.47C11.6318 37.47 10.3181 34.9893 9.38908 35.4323C8.96408 35.6348 8.50742 36.2889 9.27815 37.7105C9.31003 37.769 9.36018 37.8187 9.40565 37.8744C9.40565 37.8744 7.99062 37.7994 6.72815 36.5968C5.32905 35.264 5.0069 36.2961 4.90065 36.9236C4.7944 37.5512 4.5751 41.0187 6.95191 42.5277C9.3402 44.0439 14.9283 44.852 19.211 40.5361L22.3499 36.0129L21.3046 26.8926Z" fill="white"/>
<path d="M43.506 46.114C41.4713 48.6783 36.2988 47.6933 36.2988 47.6933L36.4837 34.3133L36.5417 30.1421L36.547 29.7596L36.5908 26.5972C36.5908 26.5972 38.5246 26.6798 40.4456 27.2228C40.7643 27.3127 41.0856 27.4157 41.3958 27.5343C41.5265 27.5832 41.6551 27.6352 41.7817 27.6894C42.8576 28.1548 43.7652 28.8157 44.094 29.7483C45.2361 32.9924 45.1788 44.006 43.506 46.114Z" fill="white"/>
<g opacity="0.35">
<path opacity="0.35" d="M44.8685 37.0854C44.8748 40.9353 44.445 44.9301 43.5061 46.1139C41.4717 48.6786 36.2983 47.6932 36.2983 47.6932L36.5187 43.055C36.5187 43.055 41.692 44.0404 43.7265 41.4757C44.2775 40.7806 44.6532 39.118 44.8685 37.0854Z" fill="#371A45"/>
</g>
<path d="M38.542 48.2675C37.2562 48.2675 36.2734 48.0834 36.2258 48.0745C36.1757 48.065 36.1281 48.0457 36.0855 48.0178C36.0429 47.9898 36.0062 47.9538 35.9776 47.9117C35.9489 47.8696 35.9289 47.8222 35.9185 47.7724C35.9081 47.7225 35.9077 47.6711 35.9172 47.621C35.9267 47.571 35.946 47.5233 35.974 47.4808C36.0019 47.4382 36.038 47.4015 36.0801 47.3728C36.1222 47.3442 36.1695 47.3241 36.2194 47.3138C36.2692 47.3034 36.3207 47.303 36.3707 47.3125C36.392 47.3165 37.3378 47.4897 38.5518 47.4897C40.1243 47.4897 42.1499 47.1992 43.2019 45.873C43.4455 45.5662 43.7955 44.8294 44.0806 43.0623C44.2916 41.7554 44.4251 40.1253 44.467 38.3482C44.552 34.7769 44.2545 31.3727 43.7275 29.8771C43.2636 28.5596 41.3802 27.8435 39.8812 27.4758C38.1884 27.0591 36.5898 26.9856 36.5736 26.9847C36.4722 26.9785 36.3772 26.9327 36.3092 26.8572C36.2411 26.7817 36.2055 26.6824 36.2099 26.5809C36.2143 26.4793 36.2584 26.3835 36.3327 26.3142C36.407 26.2448 36.5056 26.2074 36.6072 26.21C36.675 26.2127 38.2887 26.2865 40.055 26.72C41.1056 26.9777 41.9911 27.3105 42.6868 27.7089C43.6006 28.2323 44.1956 28.8756 44.4587 29.6214C44.8176 30.6414 45.008 32.2103 45.1045 33.3468C45.2334 34.8698 45.2825 36.6531 45.2419 38.3684C45.1969 40.2843 44.967 44.8976 43.8091 46.3571C43.2991 47.0005 42.5717 47.4897 41.6481 47.811C40.931 48.0605 40.0929 48.2099 39.1572 48.2547C38.9471 48.263 38.7401 48.2675 38.542 48.2675Z" fill="#371A45"/>
<path d="M44.4611 38.6975L40.9215 38.9049C40.7678 38.9136 40.6214 38.9731 40.5053 39.0741C40.3892 39.1751 40.3099 39.3118 40.2799 39.4627C40.0549 40.5998 39.6713 43.2531 40.7663 44.1494C41.6752 44.8932 43.1716 44.8324 44.0601 44.1052C45.0537 43.292 45.1923 40.6857 45.1976 39.3945C45.198 39.2995 45.179 39.2054 45.1416 39.118C45.1042 39.0306 45.0493 38.9518 44.9803 38.8865C44.9113 38.8212 44.8296 38.7707 44.7403 38.7382C44.651 38.7057 44.5559 38.6919 44.4611 38.6975Z" fill="white"/>
<g opacity="0.35">
<path opacity="0.35" d="M40.2802 39.4631C40.0545 40.5997 39.6716 43.2532 40.7666 44.1491C41.6757 44.8929 43.1717 44.8323 44.0603 44.1049C44.6711 43.6045 44.9588 42.4262 45.0907 41.2927C44.9222 41.8571 44.6647 42.3127 44.3487 42.6102C42.5382 44.3123 41.2417 42.2489 41.2417 42.2489C41.2417 42.2489 41.0027 42.7409 40.8182 42.7657C40.0471 42.8705 40.2445 40.4648 40.3773 39.2223C40.3296 39.2955 40.2967 39.3773 40.2802 39.4631Z" fill="#371A45"/>
</g>
<path d="M42.3636 45.0682C41.6913 45.0682 41.0249 44.8624 40.5208 44.4493C39.9539 43.9852 39.6577 43.1282 39.6404 41.9017C39.6275 40.9716 39.7743 40.0209 39.8997 39.3872C39.9464 39.1521 40.0698 38.9392 40.2506 38.7819C40.4313 38.6245 40.6592 38.5316 40.8984 38.5176L44.4381 38.3102C44.5858 38.3015 44.7338 38.3232 44.8728 38.3738C45.0119 38.4245 45.1391 38.5031 45.2466 38.6049C45.3542 38.7066 45.4397 38.8292 45.498 38.9653C45.5563 39.1013 45.5861 39.2479 45.5856 39.3959C45.5828 40.0644 45.5452 41.0579 45.3816 41.9956C45.1722 43.1958 44.8203 43.9842 44.3059 44.4054C43.7666 44.8465 43.0615 45.0682 42.3636 45.0682ZM44.484 39.0846L40.9441 39.292C40.8763 39.2958 40.8116 39.322 40.7603 39.3665C40.709 39.411 40.6738 39.4712 40.6604 39.5378C40.5423 40.135 40.404 41.0281 40.4161 41.8909C40.4297 42.8639 40.6358 43.5411 41.0121 43.8492C41.7559 44.4589 43.0402 44.4387 43.8144 43.805C44.4283 43.3025 44.8004 41.6531 44.8097 39.3927C44.8099 39.3507 44.8015 39.3091 44.785 39.2704C44.7684 39.2318 44.7441 39.1969 44.7136 39.1681C44.6831 39.1392 44.6469 39.1169 44.6074 39.1025C44.5679 39.0882 44.5259 39.082 44.484 39.0846Z" fill="#371A45"/>
<path d="M41.4081 40.176C41.4351 40.3885 41.4477 40.6036 41.4619 40.8171C41.4761 41.0307 41.4895 41.244 41.5091 41.4546C41.5477 41.8775 41.6075 42.2968 41.7231 42.6897C41.7784 42.8825 41.8521 43.0696 41.943 43.2483C42.0291 43.4177 42.1384 43.5742 42.2679 43.7133C42.3915 43.8445 42.5361 43.9541 42.6957 44.0378C42.8555 44.1194 43.0262 44.1779 43.2025 44.2114C43.2551 44.2219 43.3049 44.2431 43.3489 44.2737C43.3929 44.3043 43.4301 44.3437 43.4582 44.3893C43.4863 44.435 43.5046 44.486 43.5121 44.5391C43.5196 44.5922 43.516 44.6462 43.5016 44.6979C43.4871 44.7495 43.4622 44.7976 43.4284 44.8392C43.3945 44.8807 43.3524 44.9148 43.3047 44.9394C43.2571 44.9639 43.2048 44.9783 43.1513 44.9817C43.0978 44.9852 43.0442 44.9775 42.9938 44.9592L42.9866 44.9564C42.7515 44.8724 42.5296 44.7551 42.3278 44.6081C42.1275 44.4601 41.9532 44.2799 41.8119 44.0748C41.6772 43.8773 41.5707 43.662 41.4955 43.4351C41.4238 43.2187 41.3729 42.9959 41.3433 42.7698C41.2836 42.3257 41.2896 41.8881 41.3148 41.4576C41.3278 41.2423 41.3463 41.0284 41.3648 40.815C41.3833 40.6017 41.4028 40.3902 41.4081 40.176Z" fill="#371A45"/>
<path d="M42.293 29.674C42.2413 29.6295 42.1831 29.5933 42.1204 29.5665C42.0589 29.5391 41.9956 29.516 41.9309 29.4974C41.8015 29.46 41.67 29.4305 41.5371 29.4092C41.2713 29.3672 41.0032 29.3411 40.7343 29.331C40.4657 29.3198 40.1973 29.3215 39.9306 29.3342C39.6648 29.3468 39.4 29.3737 39.1371 29.415C39.0064 29.4362 38.8768 29.4602 38.7485 29.4885C38.6201 29.5168 38.4935 29.5501 38.3691 29.5871C38.2448 29.6241 38.1218 29.6657 38.0022 29.7125C37.8825 29.7592 37.7659 29.8109 37.6532 29.8687C37.5411 29.9249 37.4325 29.9878 37.3279 30.0569L37.2516 30.1099L37.1774 30.1651C37.1288 30.2027 37.081 30.241 37.0355 30.2815C36.9452 30.3622 36.8609 30.4494 36.7835 30.5425C36.707 30.6353 36.6378 30.7339 36.5767 30.8375L36.5748 30.8409C36.5372 30.9055 36.4758 30.9529 36.4037 30.9728C36.3316 30.9928 36.2546 30.9838 36.1891 30.9477C36.1235 30.9116 36.0747 30.8514 36.0531 30.7798C36.0314 30.7082 36.0386 30.631 36.0731 30.5646C36.1437 30.4266 36.2276 30.2958 36.3236 30.174C36.4187 30.0526 36.5246 29.9399 36.6398 29.8374C36.6966 29.786 36.7558 29.738 36.816 29.6912L36.908 29.6241L37.0021 29.5603C37.1282 29.4793 37.2592 29.4062 37.3944 29.3414C37.6599 29.2162 37.9376 29.1185 38.2232 29.0501C38.5032 28.9818 38.7881 28.9355 39.0753 28.9116C39.6418 28.8611 40.2126 28.8861 40.7725 28.9862C41.0516 29.0357 41.3256 29.1105 41.5911 29.2097C41.7242 29.2601 41.8531 29.3212 41.9763 29.3925C42.0381 29.4285 42.0969 29.4694 42.1521 29.5149C42.1797 29.5375 42.2056 29.5622 42.2296 29.5886C42.2539 29.6146 42.2751 29.6432 42.293 29.674Z" fill="#371A45"/>
<g opacity="0.35">
<path opacity="0.35" d="M41.3962 27.534C40.063 28.4843 38.4093 29.2479 36.5474 29.7594L36.5911 26.5969C36.5911 26.5969 38.5249 26.6796 40.4459 27.2225C40.7649 27.3124 41.0855 27.4155 41.3962 27.534Z" fill="#371A45"/>
</g>
<g opacity="0.35">
<path opacity="0.35" d="M22.3493 36.0119L19.2113 40.535C14.929 44.8511 9.33983 44.0425 6.95218 42.5265C6.09475 41.9825 5.57518 41.182 5.26685 40.3533C5.50973 40.6391 5.06455 37.801 5.40858 38.0194C5.53608 38.1002 5.61492 39.2844 6.63981 40.4748C7.13812 41.0535 7.90716 41.5172 8.84343 41.8119C9.11968 41.899 8.9023 42.177 9.20936 42.2112C14.7981 42.8332 16.3532 40.6491 17.2703 38.5094L20.7866 28.0075C20.9589 27.6275 21.1325 27.254 21.3061 26.8927L22.3493 36.0119Z" fill="#371A45"/>
</g>
<path d="M11.663 44.1292C10.8272 44.1302 9.99422 44.0329 9.18118 43.8394C8.25064 43.6169 7.40744 43.2762 6.74274 42.8542C6.14157 42.4717 5.64794 41.9479 5.27649 41.2949C4.97495 40.7662 4.75225 40.1525 4.61455 39.471C4.38229 38.321 4.44986 37.2587 4.51807 36.8573C4.56206 36.5982 4.69594 35.8101 5.31601 35.6035C5.78224 35.4488 6.33176 35.6811 6.99625 36.3141C7.47303 36.7683 8.04475 37.1109 8.67011 37.3171C8.45761 36.7595 8.41745 36.2708 8.55154 35.8587C8.66523 35.5089 8.90365 35.2325 9.22261 35.0803C9.45934 34.9675 9.84672 34.9035 10.3489 35.2397C10.607 35.4131 10.8816 35.6834 11.1649 36.0432C11.4204 36.3732 11.6531 36.7202 11.8614 37.0819C13.2165 37.0746 15.1197 36.7419 16.8847 35.3026C17.0258 35.1874 17.3061 34.8187 17.8391 33.7159C18.252 32.8618 18.7229 31.7685 19.2203 30.6108C19.7822 29.3059 20.3633 27.9567 20.9556 26.7233C20.992 26.6476 21.0521 26.5857 21.1268 26.547C21.2014 26.5083 21.2867 26.495 21.3696 26.5089C21.4525 26.5229 21.5286 26.5635 21.5865 26.6245C21.6444 26.6855 21.6808 26.7637 21.6904 26.8472L22.7348 35.9667C22.7456 36.0602 22.722 36.1545 22.6683 36.2319L19.5293 40.7554C19.5167 40.7739 19.5024 40.7913 19.4868 40.8074C17.0039 43.309 14.2599 43.9813 12.3957 44.105C12.151 44.1211 11.9068 44.1292 11.663 44.1292ZM5.60225 36.3354C5.58789 36.3349 5.57355 36.3367 5.55975 36.3407C5.53 36.3507 5.377 36.4282 5.2818 36.9875C5.23377 37.2706 5.15643 38.2413 5.37381 39.3174C5.64284 40.6487 6.24315 41.6183 7.15881 42.1993C8.17605 42.8451 10.0724 43.4815 12.3438 43.3311C14.0689 43.2167 16.6059 42.595 18.9101 40.2859L21.946 35.9108L21.0748 28.3046C20.6872 29.1624 20.3049 30.0505 19.9309 30.9183C18.7381 33.6887 17.9759 35.4116 17.3726 35.9042C15.3269 37.573 13.1169 37.8872 11.6226 37.8564C11.5535 37.855 11.486 37.8351 11.4272 37.7988C11.3683 37.7625 11.3202 37.7112 11.2879 37.6501C11.2847 37.6444 10.9664 37.0474 10.5476 36.5168C10.0686 35.9099 9.70371 35.7093 9.55496 35.7809C9.4825 35.8156 9.35118 35.9029 9.28743 36.0997C9.18118 36.428 9.29784 36.9338 9.61723 37.5234C9.6236 37.5332 9.64421 37.557 9.65973 37.5744C9.67524 37.5919 9.69054 37.6099 9.70563 37.6284C9.75311 37.6866 9.78266 37.7574 9.7907 37.8321C9.79874 37.9067 9.78491 37.9821 9.75091 38.0491C9.7169 38.1161 9.66418 38.1718 9.59914 38.2093C9.5341 38.2469 9.45955 38.2648 9.38454 38.2608C9.32079 38.2574 7.81204 38.1635 6.46011 36.8768C5.95415 36.3944 5.69745 36.3354 5.60225 36.3354Z" fill="#371A45"/>
<path d="M4.83119 40.3034C4.74442 40.0136 4.69732 39.7133 4.69116 39.4109C4.68312 39.1058 4.71498 38.8009 4.78593 38.5041C4.80378 38.4288 4.82539 38.3534 4.85075 38.278C4.86371 38.2404 4.87561 38.2028 4.89091 38.1652C4.90621 38.1276 4.9196 38.0902 4.93702 38.053C5.00519 37.8951 5.09432 37.7472 5.20201 37.6131L5.24791 37.5606L5.27107 37.5347L5.29678 37.5094C5.314 37.4926 5.331 37.4758 5.34863 37.4593L5.40643 37.4119C5.41621 37.4042 5.42534 37.3961 5.43576 37.3887L5.46784 37.3675C5.48909 37.3532 5.51035 37.3386 5.53308 37.325C5.55582 37.3114 5.57983 37.2995 5.60342 37.2873L5.62106 37.2782L5.63997 37.2704L5.67801 37.2548C5.78021 37.2129 5.88929 37.1903 5.99973 37.1881H6.04074H6.06199L6.07921 37.1892C6.10237 37.1909 6.12468 37.1917 6.14848 37.1947C6.19658 37.1998 6.24434 37.2077 6.2915 37.2185C6.39297 37.2413 6.4903 37.2797 6.58007 37.3322C6.66884 37.3854 6.7483 37.4528 6.81531 37.5317C6.87401 37.6011 6.92475 37.6769 6.96661 37.7576C7.00306 37.8281 7.03528 37.9007 7.06308 37.975C7.11621 38.1148 7.15531 38.2457 7.19653 38.3705C7.2347 38.4908 7.27947 38.609 7.33062 38.7245C7.4516 39.0071 7.65706 39.2454 7.91882 39.4066C7.97258 39.4404 8.02911 39.4716 8.08712 39.501C8.20639 39.5589 8.3295 39.6086 8.45559 39.6497C8.46845 39.6539 8.47937 39.6625 8.48632 39.6741C8.49327 39.6857 8.49579 39.6994 8.4934 39.7128C8.49102 39.7261 8.48389 39.738 8.47335 39.7465C8.4628 39.7549 8.44955 39.7593 8.43605 39.7587C8.29455 39.7534 8.15384 39.7351 8.01572 39.7039C7.87267 39.6719 7.73402 39.6227 7.60283 39.5573C7.53536 39.5237 7.47019 39.4858 7.40776 39.4436C7.34497 39.4003 7.28506 39.3529 7.22841 39.3018C7.11603 39.1991 7.01617 39.0834 6.93091 38.9572C6.76091 38.7098 6.64446 38.4391 6.52503 38.223C6.46511 38.1167 6.40221 38.026 6.34292 37.9775C6.31777 37.9559 6.289 37.939 6.25792 37.9274C6.22741 37.9165 6.19549 37.9101 6.16314 37.9083C6.1434 37.9072 6.12361 37.9072 6.10386 37.9083C6.09387 37.9083 6.08261 37.9098 6.07135 37.9102H6.06306L6.05796 37.9117L6.04818 37.914C6.03549 37.9165 6.02299 37.9199 6.01078 37.9242C5.99885 37.9296 5.98728 37.9358 5.97615 37.9427C5.93046 37.9682 5.87924 38.0232 5.82909 38.0959C5.77564 38.181 5.73194 38.2718 5.69883 38.3666C5.68927 38.3915 5.68098 38.4183 5.67248 38.4446C5.66398 38.471 5.65655 38.4982 5.64868 38.5254C5.64082 38.5526 5.63466 38.5806 5.62743 38.6082C5.62021 38.6359 5.61468 38.6648 5.60852 38.6932C5.56276 38.9278 5.53906 39.1661 5.53776 39.4051C5.53679 39.6473 5.55334 39.8893 5.58727 40.1291L5.58854 40.1387C5.60206 40.2355 5.57857 40.3339 5.52275 40.4142C5.46693 40.4945 5.38288 40.5508 5.28738 40.5719C5.19188 40.593 5.09195 40.5773 5.00751 40.528C4.92307 40.4786 4.86034 40.3992 4.83183 40.3057L4.83119 40.3034Z" fill="#371A45"/>
<path d="M27.2787 65.8261C26.2691 66.4366 24.5601 66.9653 22.1419 66.9634C18.76 66.9613 15.9996 66.8062 16.0281 64.3724C16.0506 62.441 19.3815 61.5704 19.3815 61.5704C17.8972 56.1478 17.5523 51.4528 17.6686 47.196C17.7085 45.767 17.7992 44.3868 17.9168 43.0444L29.2173 45.139C28.4791 48.1791 28.2066 51.1315 28.128 53.8152C27.9423 60.0993 28.8201 64.8952 27.2787 65.8261Z" fill="white"/>
<g opacity="0.35">
<path opacity="0.35" d="M29.2173 45.139C29.1682 45.3403 29.1213 45.5402 29.0775 45.7404C29.058 45.8241 29.0395 45.9078 29.0223 45.9916C28.9979 46.1026 28.9744 46.2139 28.9519 46.3254C28.9213 46.4722 28.8916 46.6182 28.8639 46.7632C28.8548 46.8101 28.8457 46.8571 28.8376 46.904C28.8191 47.002 28.8008 47.0991 28.7834 47.196C28.759 47.3318 28.7343 47.4676 28.712 47.6034C28.6967 47.6911 28.6823 47.7789 28.668 47.8667C28.608 48.2414 28.5532 48.614 28.5038 48.9846C28.4732 49.2133 28.4455 49.4409 28.4188 49.6674C28.4045 49.7889 28.3911 49.9094 28.378 50.0299C28.3667 50.134 28.3554 50.2382 28.3463 50.3423C28.3289 50.5123 28.3125 50.6823 28.2983 50.8523C28.2881 50.9677 28.277 51.0831 28.2687 51.1974C28.2553 51.3595 28.2443 51.5219 28.232 51.6832C28.2247 51.7864 28.2177 51.8884 28.2126 51.9904C28.2054 52.0876 28.2003 52.1834 28.1941 52.2794C28.1839 52.4469 28.1759 52.6141 28.1676 52.7797C28.1676 52.7909 28.1665 52.8009 28.1657 52.8132C28.1504 53.1511 28.137 53.486 28.1278 53.8158C27.9421 60.0999 28.82 64.8958 27.2778 65.8267C26.2683 66.4372 24.5593 66.966 22.1411 66.964C19.4389 66.9619 17.1329 66.8629 16.3315 65.5817C17.4525 65.9931 19.0796 66.0382 20.8844 66.039C23.3028 66.0401 25.0126 65.5114 26.0222 64.9019C27.087 64.2587 26.9971 61.7712 26.9007 58.2229C26.835 55.8078 25.366 53.6318 23.1245 52.7304C20.4258 51.6449 18.2995 49.7794 17.6677 47.1967C17.7077 45.7676 17.7984 44.3874 17.9159 43.045L27.8057 44.8785L29.2173 45.139Z" fill="#371A45"/>
</g>
<path d="M22.1505 67.3525H22.1411C19.5856 67.3512 17.3828 67.2613 16.3076 66.1727C15.856 65.7156 15.6314 65.1087 15.6401 64.369C15.6514 63.431 16.3036 62.5802 17.5265 61.9083C17.9685 61.669 18.4307 61.469 18.9077 61.3107C18.0437 58.0622 17.531 54.8866 17.3418 51.616C17.1882 48.9577 17.2477 46.2236 17.529 43.0117C17.5384 42.9096 17.5879 42.8153 17.6667 42.7496C17.7454 42.6838 17.8469 42.6519 17.9491 42.6609C18.0513 42.6699 18.1458 42.7189 18.2118 42.7974C18.2779 42.8758 18.3102 42.9773 18.3017 43.0795C17.8724 47.9795 17.709 53.9962 19.7541 61.4694L19.8576 61.8479L19.4781 61.9469C19.4702 61.9491 18.6706 62.1618 17.8867 62.5948C17.2205 62.9629 16.4243 63.5709 16.4147 64.3781C16.4083 64.9105 16.5535 65.3191 16.8582 65.6276C17.722 66.5021 19.8495 66.5756 22.1405 66.5769H22.1494C24.879 66.5769 26.4084 65.8996 27.0773 65.4957C27.4401 65.2766 27.6634 64.6597 27.7603 63.6097C27.8606 62.5239 27.8208 61.0619 27.7747 59.3691C27.6721 55.6 27.5314 50.4384 28.8387 45.0489C28.863 44.949 28.926 44.8628 29.0138 44.8092C29.1016 44.7557 29.2071 44.7393 29.3071 44.7635C29.407 44.7878 29.4932 44.8508 29.5468 44.9386C29.6003 45.0264 29.6167 45.1319 29.5925 45.2319C28.3096 50.5206 28.4486 55.6231 28.5499 59.3478C28.6496 62.9999 28.7153 65.4126 27.4783 66.1595C26.7414 66.6043 25.0679 67.3525 22.1505 67.3525Z" fill="#371A45"/>
<path d="M8.12504 43.108C8.12504 43.108 6.33749 42.3797 6.48497 41.1058C6.62479 39.8971 7.4665 39.3656 7.8558 39.4364C8.44443 39.5426 8.22704 41.2093 8.22704 41.2093C8.22704 41.2093 9.80995 40.8457 10.437 41.1944" fill="white"/>
<g opacity="0.35">
<path opacity="0.35" d="M9.20819 42.2114L8.12444 43.1078C8.12444 43.1078 6.33689 42.3797 6.48394 41.1058C6.52772 40.725 6.64119 40.4126 6.78909 40.1636C6.78909 40.1901 6.78718 40.2167 6.78718 40.2443C6.78357 41.8204 8.65782 42.15 9.20819 42.2114Z" fill="#371A45"/>
</g>
<g opacity="0.35">
<path opacity="0.35" d="M27.3655 52.8466C27.3829 52.5087 27.4047 52.1593 27.4309 51.7983C27.4054 52.1587 27.3829 52.5087 27.3655 52.8466Z" fill="#371A45"/>
</g>
<g opacity="0.35">
<path opacity="0.35" d="M27.4536 51.5042C27.4689 51.3073 27.4856 51.1065 27.5036 50.902C27.4861 51.1062 27.4689 51.3072 27.4536 51.5042Z" fill="#371A45"/>
</g>
<g opacity="0.35">
<path opacity="0.35" d="M27.5952 49.9577C27.6148 49.7698 27.6362 49.5779 27.659 49.3839C27.6362 49.5779 27.6156 49.7698 27.5952 49.9577Z" fill="#371A45"/>
</g>
<g opacity="0.35">
<path opacity="0.35" d="M27.6687 49.2942C27.6942 49.0736 27.7218 48.8511 27.7505 48.6235C27.7218 48.8512 27.6945 49.0747 27.6687 49.2942Z" fill="#371A45"/>
</g>
<path d="M39.1437 44.3704C39.1193 44.7188 39.0708 45.065 38.9985 45.4066C38.5667 47.4443 37.3198 48.9826 35.6217 50.0463C29.0767 54.152 15.8379 51.2049 16.8957 42.6443C17.4397 38.2445 19.127 33.7518 20.3756 29.2846C20.5881 28.5292 20.7851 27.7759 20.9636 27.0226C23.0886 22.1236 35.9249 24.098 36.5671 25.677C36.7598 26.1518 36.9468 26.6887 37.1253 27.2778C37.355 28.0249 37.5705 28.8539 37.7715 29.739C38.6179 33.4732 39.1874 38.2056 39.2119 41.9941C39.2172 42.8402 39.1959 43.6395 39.1437 44.3704Z" fill="white"/>
<g opacity="0.35">
<path opacity="0.35" d="M39.1437 44.3704C38.9618 46.9296 37.5961 48.8089 35.6218 50.0463C29.1273 54.1204 16.0443 51.2508 16.8744 42.8426C17.6307 50.0875 29.5275 52.3791 35.6218 48.5563C37.5961 47.3191 38.9618 45.4397 39.1437 42.8804C39.1754 42.4435 39.1958 41.9811 39.206 41.4991C39.2245 42.53 39.2062 43.4988 39.1437 44.3704Z" fill="#371A45"/>
</g>
<path d="M28.4905 52.2651C27.9971 52.2651 27.5001 52.2438 26.9996 52.2013C24.2091 51.9644 21.6355 51.0793 19.7534 49.7093C18.5846 48.8593 17.7102 47.8474 17.1528 46.7029C16.5451 45.4549 16.3294 44.0734 16.5117 42.5972C16.8729 39.6776 17.7204 36.7534 18.6318 33.7646C18.7186 33.4794 18.8058 33.1942 18.8934 32.9091C19.495 30.9456 20.117 28.9151 20.5864 26.9331L20.5942 26.8996L20.608 26.8681C21.1346 25.6543 22.2711 24.7527 23.9855 24.1881C25.3649 23.734 27.1305 23.5062 29.0868 23.5293C30.8117 23.5506 32.6604 23.7699 34.1592 24.1339C34.8683 24.306 35.4822 24.5075 35.9344 24.7161C36.4818 24.9688 36.8067 25.2357 36.927 25.5321C38.6531 29.78 39.9186 38.949 39.531 44.3989C39.4228 45.9196 38.9124 47.2768 38.0139 48.4326C37.1935 49.4879 36.0704 50.3517 34.6756 51.0005C32.8937 51.8284 30.7394 52.2651 28.4905 52.2651ZM21.3327 27.1476C20.8586 29.1427 20.2366 31.1734 19.6348 33.1373C19.5474 33.4223 19.4603 33.7071 19.3734 33.9918C18.4722 36.9466 17.6343 39.8355 17.2814 42.6932C16.8825 45.9232 18.6537 47.9507 20.2096 49.0833C23.8714 51.7485 30.0819 52.282 34.3483 50.2977C36.2287 49.4233 38.5199 47.6806 38.757 44.3445C39.1381 38.987 37.8994 29.9868 36.2083 25.8247C36.1622 25.7113 35.6531 25.2956 33.976 24.8883C32.531 24.5374 30.746 24.3251 29.0777 24.3056C27.2043 24.2843 25.527 24.4981 24.228 24.9259C22.7479 25.4121 21.774 26.1594 21.3327 27.1463V27.1476Z" fill="#371A45"/>
<path d="M17.8375 43.531C18.749 43.531 19.4878 42.7922 19.4878 41.8807C19.4878 40.9693 18.749 40.2305 17.8375 40.2305C16.9261 40.2305 16.1873 40.9693 16.1873 41.8807C16.1873 42.7922 16.9261 43.531 17.8375 43.531Z" fill="white"/>
<g opacity="0.35">
<path opacity="0.35" d="M16.1874 41.8804C16.1849 42.0987 16.2257 42.3154 16.3076 42.5178C16.3894 42.7202 16.5106 42.9043 16.6641 43.0596C16.8176 43.2148 17.0003 43.3381 17.2018 43.4222C17.4033 43.5063 17.6194 43.5496 17.8377 43.5496C18.0561 43.5496 18.2722 43.5063 18.4737 43.4222C18.6751 43.3381 18.8579 43.2148 19.0114 43.0596C19.1649 42.9043 19.2861 42.7202 19.3679 42.5178C19.4497 42.3154 19.4906 42.0987 19.4881 41.8804C19.4887 41.6364 19.4345 41.3953 19.3296 41.1749C19.1959 41.4574 18.9847 41.6961 18.7206 41.8633C18.4565 42.0304 18.1504 42.1192 17.8379 42.1192C17.5253 42.1192 17.2192 42.0304 16.9551 41.8633C16.691 41.6961 16.4798 41.4574 16.3461 41.1749C16.2411 41.3953 16.1869 41.6364 16.1874 41.8804Z" fill="#371A45"/>
</g>
<path d="M17.8373 43.8749C17.4429 43.875 17.0574 43.758 16.7294 43.539C16.4015 43.3199 16.1458 43.0084 15.9949 42.6441C15.8439 42.2797 15.8044 41.8787 15.8813 41.4919C15.9582 41.1051 16.1481 40.7498 16.427 40.4708C16.7059 40.1919 17.0612 40.002 17.448 39.9251C17.8348 39.8481 18.2358 39.8876 18.6002 40.0385C18.9646 40.1894 19.276 40.445 19.4951 40.7729C19.7143 41.1009 19.8312 41.4864 19.8312 41.8808C19.8303 42.4094 19.62 42.916 19.2462 43.2898C18.8725 43.6636 18.3659 43.874 17.8373 43.8749ZM17.8373 40.5744C17.5789 40.5744 17.3262 40.651 17.1114 40.7946C16.8965 40.9382 16.729 41.1423 16.6301 41.381C16.5312 41.6198 16.5054 41.8826 16.5558 42.136C16.6062 42.3895 16.7307 42.6223 16.9135 42.8051C17.0962 42.9878 17.3291 43.1122 17.5825 43.1626C17.836 43.213 18.0988 43.1871 18.3375 43.0882C18.5763 42.9892 18.7803 42.8217 18.9239 42.6068C19.0674 42.3919 19.144 42.1393 19.144 41.8808C19.1436 41.5344 19.0058 41.2023 18.7608 40.9574C18.5159 40.7125 18.1837 40.5747 17.8373 40.5744Z" fill="#371A45"/>
<g opacity="0.35">
<path opacity="0.35" d="M39.1438 44.3704C39.1195 44.7187 39.071 45.065 38.9986 45.4066C38.3076 45.6159 36.1424 46.0496 30.8546 45.6159L30.828 46.0558C30.7668 47.0879 29.8718 47.8811 28.8416 47.8195L20.1318 47.3021C19.1018 47.2398 18.3067 46.3458 18.3681 45.3146L18.4252 44.3509L18.6445 40.6799C18.7049 39.6478 19.5991 38.8548 20.6312 38.9162L29.3388 39.4336C29.4648 39.4411 29.5897 39.4613 29.7115 39.494C30.1292 39.6067 30.4955 39.8597 30.7488 40.2104C31.0021 40.5611 31.1271 40.9883 31.1028 41.4203L31.0558 42.2155C32.2114 42.3593 36.2988 42.7841 39.1612 42.003C39.1776 41.9989 39.195 41.9949 39.2111 41.9919C39.2173 42.8402 39.1961 43.6394 39.1438 44.3704Z" fill="#371A45"/>
</g>
<path d="M19.5575 45.9751L28.2666 46.4932C29.2972 46.5548 30.1917 45.7613 30.2533 44.7294L30.5295 40.095C30.5833 39.1915 29.9815 38.395 29.1381 38.1685C29.0164 38.1356 28.8916 38.1155 28.7658 38.1084L20.0582 37.5903C19.0261 37.5287 18.1316 38.3219 18.0713 39.354L17.8511 43.0243L17.7933 43.988C17.7321 45.0201 18.5269 45.9133 19.5575 45.9751Z" fill="white"/>
<g opacity="0.35">
<path opacity="0.35" d="M19.5577 45.9751L28.2668 46.4931C29.2974 46.5548 30.1918 45.7613 30.2534 44.7294L30.5297 40.095C30.5834 39.1914 29.9816 38.395 29.1382 38.1685C28.6242 38.4677 28.2978 38.6589 28.2978 38.6589C27.6524 42.3539 26.4828 44.1459 21.859 43.9465C19.863 43.8601 18.6224 43.481 17.8528 43.0247L17.795 43.9884C17.7323 45.0201 18.527 45.9132 19.5577 45.9751Z" fill="#371A45"/>
</g>
<path d="M28.3795 46.8843C28.3343 46.8843 28.2888 46.8829 28.243 46.8802L19.5348 46.3622C18.9353 46.3251 18.3748 46.0521 17.9761 45.6029C17.5773 45.1537 17.3727 44.5648 17.407 43.9652L17.6833 39.3299C17.7196 38.7301 17.9924 38.1691 18.4418 37.7702C18.8912 37.3713 19.4806 37.167 20.0805 37.2021L28.7887 37.7204C29.3885 37.7568 29.9494 38.0296 30.3483 38.4789C30.7472 38.9283 30.9515 39.5176 30.9165 40.1174L30.6403 44.7525C30.6046 45.3284 30.3511 45.8692 29.9313 46.2651C29.5115 46.6611 28.9567 46.8824 28.3797 46.8843H28.3795ZM19.9443 37.9737C19.5644 37.9744 19.1991 38.1198 18.9228 38.3804C18.6464 38.6409 18.4798 38.9971 18.4568 39.3762L18.1805 44.0115C18.1586 44.4058 18.2934 44.7928 18.5556 45.0881C18.8178 45.3834 19.1861 45.5631 19.5803 45.588L28.2885 46.1063C28.6828 46.1283 29.0699 45.9935 29.3652 45.7313C29.6605 45.4691 29.8402 45.1007 29.8651 44.7066L30.1413 40.0715C30.1634 39.6772 30.0286 39.2901 29.7664 38.9948C29.5043 38.6994 29.1359 38.5197 28.7418 38.4948L20.0335 37.9767C20.0038 37.9746 19.9738 37.9737 19.9443 37.9737Z" fill="#371A45"/>
<path d="M19.2112 45.9198C19.3247 45.9503 19.4412 45.9688 19.5586 45.9749L28.2677 46.4929C28.6278 46.5133 28.9863 46.4299 29.3003 46.2525C29.6144 46.0751 29.8709 45.8112 30.0393 45.4923C30.165 45.2563 30.2379 44.9959 30.2531 44.729L30.3764 42.6701L30.4169 41.9901L30.5298 40.0937C30.5914 39.0616 29.7967 38.1687 28.766 38.107L26.8841 37.9955C27.7418 38.2105 28.3568 39.0144 28.303 39.9271L28.1542 42.4306L28.0267 44.563C27.9651 45.5936 27.0705 46.3884 26.0401 46.3268L19.2112 45.9198Z" fill="white"/>
<g opacity="0.35">
<path opacity="0.35" d="M19.2112 45.9198C19.3247 45.9503 19.4412 45.9687 19.5586 45.9748L28.2677 46.4929C28.7646 46.5211 29.2525 46.3514 29.6245 46.0209C29.9966 45.6904 30.2226 45.2259 30.2531 44.7292L30.4169 41.9911C30.1692 42.4618 29.7403 43.0323 29.1069 43.0572C28.7594 43.0716 28.4341 42.8022 28.1549 42.4316L28.0274 44.564C27.9658 45.5947 27.0711 46.3894 26.0407 46.3278L19.2112 45.9198Z" fill="#371A45"/>
</g>
<path d="M28.3807 46.8842C28.335 46.8842 28.2892 46.8829 28.2435 46.8802L19.5358 46.3619C19.3923 46.3541 19.2499 46.3317 19.1108 46.2952L19.2326 45.5329L26.063 45.9401C26.4572 45.9621 26.8441 45.8273 27.1393 45.5651C27.4345 45.3029 27.614 44.9346 27.6387 44.5406L27.9149 39.9053C27.935 39.5586 27.8335 39.2157 27.6279 38.9357C27.4224 38.6558 27.1256 38.4563 26.7887 38.3717L26.9062 37.6084L28.7872 37.72C29.3868 37.7571 29.9473 38.0302 30.346 38.4796C30.7448 38.9289 30.9494 39.5178 30.915 40.1176L30.6388 44.7522C30.6034 45.328 30.3502 45.8687 29.9307 46.2647C29.5112 46.6606 28.9567 46.8821 28.3799 46.8842H28.3807ZM27.7324 46.0727L28.2898 46.1058C28.684 46.1279 29.0709 45.9931 29.3661 45.731C29.6614 45.4688 29.8409 45.1006 29.8657 44.7065L30.1419 40.0715C30.164 39.6771 30.0293 39.29 29.767 38.9945C29.5048 38.6991 29.1364 38.5194 28.7422 38.4945L28.2449 38.465C28.5642 38.8927 28.7218 39.4197 28.6897 39.9525L28.4135 44.5875C28.381 45.1506 28.1379 45.6807 27.7324 46.0727Z" fill="#371A45"/>
<path d="M24.7281 42.0793C24.719 42.2508 24.8856 43.6475 24.8856 43.6475L25.8631 43.7C26.5357 43.7361 27.1183 43.0691 27.1645 42.2102C27.2106 41.3513 26.7027 40.6254 26.0301 40.5892L25.0526 40.5367C25.0526 40.5367 24.7432 41.7998 24.7281 42.0793Z" fill="#22A7F0"/>
<g opacity="0.35">
<path opacity="0.35" d="M24.7281 42.0793C24.719 42.2508 24.8856 43.6475 24.8856 43.6475L25.8631 43.7C26.5357 43.7361 27.1183 43.0691 27.1645 42.2102C27.2106 41.3513 26.7027 40.6254 26.0301 40.5892L25.0526 40.5367C25.0526 40.5367 24.7432 41.7998 24.7281 42.0793Z" fill="#371A45"/>
</g>
<path d="M25.9159 43.9924C25.8929 43.9924 25.87 43.9924 25.8468 43.9905L24.8693 43.938C24.8011 43.9343 24.7363 43.9068 24.6864 43.8602C24.6365 43.8135 24.6046 43.7508 24.5962 43.683C24.5452 43.2557 24.4275 42.2421 24.4371 42.0646C24.4528 41.7731 24.7169 40.6834 24.7696 40.4685C24.7858 40.4028 24.8243 40.3448 24.8786 40.3045C24.9329 40.2641 24.9996 40.2439 25.0671 40.2473L26.0446 40.2998C26.4611 40.3223 26.8373 40.5444 27.1039 40.9254C27.3553 41.2845 27.4794 41.7467 27.4537 42.2268C27.428 42.7068 27.2548 43.1531 26.9665 43.4833C26.6781 43.8135 26.3071 43.9924 25.9159 43.9924ZM25.146 43.3702L25.878 43.4098C26.1118 43.4223 26.3432 43.312 26.5289 43.0995C26.7323 42.8668 26.8545 42.5453 26.8734 42.1945C26.8923 41.8436 26.8052 41.5111 26.6279 41.258C26.466 41.0266 26.248 40.8923 26.014 40.8797L25.2788 40.8402C25.1657 41.3158 25.0276 41.9361 25.0187 42.094C25.0163 42.1926 25.0775 42.7812 25.146 43.3702Z" fill="#371A45"/>
<path d="M26.1897 42.1614C26.2359 41.3024 25.7281 40.5767 25.0556 40.5405C24.383 40.5043 23.8003 41.1713 23.7541 42.0303C23.7079 42.8893 24.2156 43.615 24.8882 43.6512C25.5607 43.6874 26.1434 43.0204 26.1897 42.1614Z" fill="#22A7F0"/>
<g opacity="0.35">
<path opacity="0.35" d="M24.8861 43.6472C25.5581 43.6836 26.1399 43.0163 26.1871 42.1576C26.1978 41.9681 26.1806 41.7781 26.1358 41.5936C25.9739 42.2758 25.4622 42.7624 24.8861 42.7307C24.3678 42.7029 23.9473 42.2656 23.8024 41.6737C23.7747 41.7895 23.7576 41.9075 23.7512 42.0263C23.7053 42.886 24.2134 43.6111 24.8861 43.6472Z" fill="#371A45"/>
</g>
<g opacity="0.7">
<path opacity="0.7" d="M23.7714 42.4322C23.8851 41.6672 24.4301 41.0977 25.0528 41.1313C25.6157 41.161 26.0643 41.6755 26.1675 42.3474C26.1769 42.286 26.1833 42.2218 26.1871 42.1576C26.2336 41.2987 25.7255 40.573 25.0528 40.5367C24.38 40.5004 23.7975 41.1676 23.7518 42.0263C23.7442 42.1619 23.7508 42.2979 23.7714 42.4322Z" fill="white"/>
</g>
<path d="M24.9391 43.9398C24.9161 43.9398 24.8932 43.9392 24.8702 43.9379C24.4537 43.9167 24.0774 43.6933 23.8107 43.3125C23.5595 42.9532 23.4352 42.491 23.4611 42.011C23.4868 41.5309 23.6598 41.0849 23.9482 40.7547C24.2542 40.4045 24.6522 40.2234 25.0685 40.2462C25.4848 40.2689 25.8613 40.4908 26.1278 40.8718C26.3792 41.2309 26.5033 41.6931 26.4776 42.1731C26.4519 42.6532 26.2787 43.0994 25.9903 43.4296C25.7019 43.7599 25.3313 43.9398 24.9391 43.9398ZM25.0011 40.8261C24.7795 40.8261 24.5625 40.9357 24.3864 41.1374C24.1832 41.3712 24.0608 41.6914 24.0419 42.0422C24.0232 42.3931 24.1103 42.7258 24.2873 42.9789C24.4493 43.2101 24.6673 43.3444 24.9012 43.3572C25.1352 43.3699 25.3666 43.2594 25.5523 43.0469C25.7555 42.8142 25.8779 42.4927 25.8966 42.1419C25.9153 41.7911 25.8284 41.4585 25.6512 41.2054C25.4894 40.974 25.2714 40.8397 25.0372 40.8271C25.0253 40.8265 25.0126 40.8261 25.0011 40.8261Z" fill="#371A45"/>
<path d="M22.2673 46.3888H22.2568C22.2192 46.3874 22.1823 46.3787 22.148 46.3631C22.1138 46.3475 22.083 46.3253 22.0573 46.2978C22.0316 46.2702 22.0117 46.2379 21.9985 46.2027C21.9853 46.1674 21.9793 46.1299 21.9806 46.0923L22.0611 43.8428C22.0818 43.2947 21.8883 42.7602 21.5216 42.3523L21.4077 42.2248C21.1695 41.9576 20.9866 41.6457 20.8696 41.3074C20.7527 40.969 20.7039 40.6108 20.7262 40.2535L20.8962 37.6397C20.9022 37.5647 20.9375 37.4951 20.9944 37.446C21.0513 37.3968 21.1253 37.3719 21.2003 37.3768C21.2754 37.3817 21.3455 37.4159 21.3956 37.4721C21.4456 37.5282 21.4716 37.6018 21.4678 37.6769L21.2978 40.2907C21.2804 40.5719 21.3188 40.8537 21.411 41.12C21.5031 41.3863 21.6471 41.6316 21.8346 41.8419L21.9483 41.9694C22.4142 42.4874 22.6601 43.1664 22.6338 43.8626L22.5533 46.1121C22.5507 46.1863 22.5195 46.2566 22.4662 46.3082C22.4128 46.3598 22.3415 46.3887 22.2673 46.3888Z" fill="#371A45"/>
<path d="M40.008 42.2085C39.9655 43.4918 38.6933 43.9814 38.6933 43.9814C38.6933 43.9814 36.9338 44.8952 29.6746 44.2364C29.6746 44.2364 27.6218 42.1354 30.1669 40.8472C30.1669 40.8472 35.223 41.594 38.5875 40.6772C39.1942 40.5138 40.0461 41.0619 40.008 42.2085Z" fill="white"/>
<g opacity="0.35">
<path opacity="0.35" d="M40.0075 42.2082C39.965 43.4915 38.6936 43.9815 38.6936 43.9815C38.6936 43.9815 36.9337 44.894 29.6747 44.2365C29.6747 44.2365 28.5129 43.0465 29.0212 41.9101C29.0236 41.916 29.0257 41.922 29.028 41.9281C29.2618 42.5505 29.8455 42.9749 30.5085 43.027C37.0699 43.5421 38.6936 42.7001 38.6936 42.7001C38.6936 42.7001 39.5838 42.3572 39.8991 41.4946C39.9822 41.723 40.019 41.9655 40.0075 42.2082Z" fill="#371A45"/>
</g>
<path d="M34.3542 44.8639C33.1004 44.8639 31.6697 44.7961 30.0708 44.6609C29.8657 44.6444 29.6668 44.5821 29.4889 44.4786C29.311 44.3751 29.1585 44.2331 29.0427 44.0629C28.7291 43.6027 28.3878 42.8942 28.5427 42.1375C28.6575 41.5767 29.0219 41.0962 29.6265 40.7099C29.8971 40.5378 30.2194 40.4655 30.5377 40.5057C31.6988 40.65 35.704 41.0618 38.4862 40.304C38.89 40.1942 39.3479 40.3006 39.7124 40.589C40.1694 40.9502 40.4189 41.5452 40.3964 42.2214L40.0088 42.2085L40.3964 42.2214C40.3479 43.6732 39.0268 44.264 38.8509 44.3364C38.737 44.3898 38.2374 44.5946 37.0306 44.7319C36.2575 44.8199 35.3635 44.8639 34.3542 44.8639ZM30.3647 41.2707C30.251 41.2703 30.1396 41.3024 30.0436 41.3631C29.6231 41.6324 29.3738 41.9452 29.3026 42.293C29.2021 42.785 29.4543 43.2897 29.6836 43.6265C29.7347 43.7011 29.8019 43.7633 29.8802 43.8085C29.9585 43.8538 30.0459 43.881 30.136 43.8881C33.58 44.1794 35.6729 44.0959 36.8219 43.9745C38.0255 43.847 38.4782 43.6532 38.5173 43.6345L38.5385 43.6226L38.5538 43.6184C38.5944 43.6022 39.5868 43.1979 39.6201 42.1946C39.6395 41.6098 39.3843 41.3183 39.2302 41.1959C39.0602 41.0618 38.8532 41.0061 38.689 41.051C35.7698 41.8459 31.6378 41.4226 30.441 41.2739C30.4156 41.2712 30.3902 41.2702 30.3647 41.2707Z" fill="#371A45"/>
<path d="M29.8074 50.4715C29.7862 50.1621 30.4132 58.3808 31.1357 63.4096C31.6542 67.0185 34.9597 67.3933 40.2454 67.0191C42.1909 66.8812 43.6813 66.3013 43.5309 64.7632C43.329 62.6971 40.3051 61.9147 40.3051 61.9147C40.3051 61.9147 39.5527 53.4191 38.9589 44.5989" fill="white"/>
<path d="M29.6784 50.48C29.6774 50.4763 29.6767 50.4725 29.6761 50.4687C30.1988 50.4337 29.8225 50.4649 29.9398 50.459L29.9445 50.4751L29.9536 50.5068L29.971 50.5705C29.9827 50.613 29.9923 50.6555 30.0042 50.698C30.0254 50.783 30.0457 50.8677 30.065 50.9519C30.1039 51.1219 30.1383 51.2919 30.1712 51.4619C30.2364 51.8019 30.2927 52.1424 30.3402 52.4832C30.3888 52.8243 30.4273 53.166 30.4664 53.5077C30.5055 53.8494 30.5405 54.1915 30.5743 54.5339C30.6417 55.2181 30.6948 55.9038 30.7528 56.5889C30.7813 56.9315 30.8125 57.2738 30.8438 57.6162C30.875 57.9585 30.9109 58.3002 30.9475 58.6419C31.0928 60.0087 31.249 61.374 31.4324 62.733L31.503 63.2419L31.5212 63.3681L31.5401 63.4873C31.5461 63.5273 31.5546 63.5664 31.5614 63.6057L31.5724 63.6648L31.5854 63.7232C31.6492 64.0309 31.749 64.3299 31.8829 64.6142C31.9489 64.7526 32.025 64.886 32.1105 65.0133C32.1956 65.1394 32.2904 65.2587 32.394 65.3701C32.6042 65.5943 32.846 65.7866 33.1118 65.9409C33.3859 66.0999 33.6764 66.2289 33.9782 66.3257C34.1309 66.376 34.2869 66.4202 34.4457 66.4593C34.6044 66.4984 34.7644 66.5314 34.927 66.5607C35.5766 66.6769 36.2481 66.7245 36.9228 66.7413C37.5975 66.7581 38.2785 66.7413 38.96 66.7086C39.3 66.6927 39.6411 66.6731 39.9832 66.6495L40.2382 66.6317C40.3211 66.6253 40.4042 66.6192 40.4866 66.6104C40.5691 66.6017 40.6513 66.593 40.7333 66.5841C40.8153 66.5752 40.8969 66.5628 40.9777 66.5503C41.1398 66.5259 41.3003 66.4965 41.4571 66.4602C41.6139 66.4239 41.7682 66.3826 41.9169 66.3327C42.213 66.2324 42.4907 66.099 42.7032 65.9234C42.8066 65.8403 42.8966 65.7417 42.9701 65.6312C43.039 65.5238 43.0888 65.4052 43.1174 65.2808C43.1468 65.1484 43.1572 65.0124 43.1484 64.8771C43.1412 64.7356 43.1168 64.5955 43.0757 64.4599C42.9945 64.1888 42.8464 63.9338 42.6507 63.7051C42.455 63.4765 42.2157 63.2727 41.9539 63.0938C41.6869 62.9137 41.4049 62.7568 41.1111 62.6248C40.9624 62.5576 40.8119 62.4954 40.6594 62.4386C40.5831 62.4104 40.5062 62.3834 40.4294 62.3581C40.391 62.3456 40.3527 62.3332 40.3145 62.3216L40.2577 62.3048L40.2063 62.2903L39.9407 62.2159L39.9173 61.949C39.7907 60.5057 39.6683 59.0628 39.5503 57.6202C39.4323 56.1776 39.3166 54.7343 39.2033 53.2903L38.8727 48.9589C38.8416 48.5977 38.8049 48.2379 38.7719 47.8773C38.739 47.5167 38.715 47.1548 38.7016 46.7935C38.6954 46.6125 38.6901 46.4323 38.6889 46.25C38.6876 46.0676 38.6916 45.8868 38.7001 45.7049C38.7086 45.523 38.7214 45.3405 38.7426 45.1577C38.7614 44.973 38.7902 44.7894 38.8289 44.6078C38.8352 44.5794 38.8504 44.5539 38.8724 44.5349C38.8943 44.516 38.9218 44.5046 38.9508 44.5025C38.9797 44.5005 39.0085 44.5078 39.033 44.5234C39.0574 44.539 39.0762 44.5621 39.0864 44.5893C39.1494 44.7639 39.203 44.9418 39.2469 45.1222C39.2915 45.3005 39.3295 45.4792 39.3629 45.6582C39.4301 46.016 39.4736 46.3756 39.5117 46.7353C39.5896 47.4548 39.6083 48.1786 39.6517 48.9009C39.6729 49.2621 39.7021 49.6223 39.7286 49.9832L39.8096 51.0652L39.9762 53.2289C40.0885 54.6713 40.2041 56.1135 40.323 57.5554C40.4418 58.9973 40.564 60.4387 40.6893 61.8795L40.4003 61.5395L40.4388 61.55L40.4732 61.5597L40.5402 61.5797C40.5844 61.5931 40.6279 61.6071 40.6713 61.6222C40.758 61.6505 40.8438 61.6806 40.9288 61.7123C41.0988 61.7754 41.2664 61.8444 41.4316 61.9195C41.766 62.0701 42.087 62.249 42.391 62.4542C42.7061 62.6652 42.9919 62.917 43.241 63.203C43.3039 63.277 43.3639 63.3539 43.421 63.4338C43.4773 63.5145 43.5311 63.5974 43.5802 63.6841C43.68 63.8588 43.7598 64.0441 43.8182 64.2366C43.877 64.4309 43.912 64.6316 43.9225 64.8344C43.9355 65.0432 43.9186 65.2527 43.8724 65.4568C43.8234 65.6685 43.7382 65.8703 43.6206 66.0531C43.5038 66.2303 43.3604 66.3884 43.1956 66.522C43.0399 66.6482 42.8712 66.7572 42.6921 66.8472C42.5214 66.9331 42.3447 67.0067 42.1634 67.0673C41.9856 67.1268 41.8071 67.1751 41.6286 67.2161C41.4501 67.2571 41.2716 67.2896 41.0933 67.3166C41.0043 67.331 40.9152 67.3417 40.8262 67.3535C40.7371 67.3654 40.6483 67.3748 40.5595 67.382C40.4707 67.3892 40.3821 67.3977 40.2934 67.4048L40.0338 67.4228C39.6882 67.4459 39.342 67.4659 38.9951 67.4827C38.301 67.5153 37.604 67.5327 36.9028 67.5161C36.2015 67.4995 35.4952 67.4498 34.7884 67.3236C34.6118 67.2915 34.4355 67.2547 34.2595 67.212C34.0836 67.1693 33.9082 67.1189 33.734 67.0616C33.3797 66.9475 33.0387 66.7956 32.717 66.6085C32.3865 66.4161 32.0859 66.1766 31.8245 65.8975C31.6936 65.7566 31.5738 65.6058 31.4662 65.4464C31.3597 65.2878 31.2649 65.1217 31.1825 64.9493C31.0222 64.6104 30.9025 64.2538 30.8257 63.8868L30.8111 63.8193L30.7981 63.7515C30.79 63.7062 30.7805 63.6609 30.7734 63.6157L30.7522 63.4799L30.7337 63.3507L30.6623 62.8369C30.4772 61.4662 30.3206 60.0956 30.1746 58.7235L30.065 57.695L29.9509 56.6671C29.8748 55.9818 29.7985 55.2965 29.7407 54.6095C29.7116 54.2661 29.685 53.9225 29.6636 53.5785C29.6421 53.2344 29.6211 52.8904 29.6106 52.5453C29.6002 52.2002 29.5977 51.8549 29.6062 51.5085C29.6113 51.3351 29.6177 51.1617 29.6274 50.9881C29.633 50.9011 29.6394 50.8142 29.6468 50.7273C29.6508 50.6838 29.6544 50.6404 29.6593 50.5969L29.6663 50.5314L29.6704 50.4989L29.6725 50.4827C29.7894 50.4721 29.4124 50.4957 29.9347 50.4585C29.9347 50.4562 29.9347 50.4617 29.9334 50.4634L29.9277 50.4847C29.9205 50.513 29.904 50.538 29.8809 50.5558C29.8577 50.5735 29.8292 50.5829 29.8001 50.5825C29.7709 50.582 29.7427 50.5718 29.7201 50.5533C29.6975 50.5349 29.6817 50.5093 29.6755 50.4808L29.6784 50.48Z" fill="#371A45"/>
<g opacity="0.35">
<path opacity="0.35" d="M30.0632 50.7244C30.0632 50.8614 30.4332 58.5201 31.1361 63.4096C31.6546 67.0189 34.9592 67.3935 40.2452 67.0189C42.1912 66.8816 43.6813 66.3017 43.5308 64.7634C43.527 64.7273 43.5232 64.6924 43.5177 64.6571C42.9186 65.0488 42.0227 65.2436 41 65.3159C35.7142 65.6905 32.4086 65.3159 31.8901 61.7066C31.3529 57.9696 30.4795 52.9382 30.0747 50.7271L30.0643 50.731C30.0645 50.7287 30.0642 50.7264 30.0632 50.7244Z" fill="#371A45"/>
</g>
<path d="M11.4254 26.9988C11.4428 27.2463 11.4449 27.4947 11.4315 27.7425C11.378 28.753 11.0733 29.7342 10.5449 30.5971C10.0165 31.4601 9.28116 32.1777 8.40549 32.6847C7.52983 33.1918 6.54149 33.4724 5.53 33.5012C4.51852 33.5299 3.51584 33.3059 2.61279 32.8493C4.02401 32.2397 5.62753 31.3661 7.25804 30.2834C8.88855 29.2007 10.3159 28.0628 11.4254 26.9988Z" fill="#FFB200"/>
<path d="M4.31638 33.5108L4.29258 33.4113L4.23096 33.3293L4.24796 33.3163L4.26921 33.3112C5.07118 33.12 6.53658 32.3688 8.00283 31.3953C9.47716 30.4166 10.7046 29.3889 11.2065 28.7134L11.3707 28.8354C10.8559 29.5287 9.60891 30.5751 8.11609 31.566C6.60841 32.5662 5.15257 33.3121 4.31638 33.5108Z" fill="#D66B09"/>
<path d="M7.2578 30.2838C8.88831 29.2016 10.3159 28.0628 11.4253 26.9988C11.4428 27.2463 11.4448 27.4947 11.4315 27.7425C10.5836 28.5976 9.18751 29.7105 7.53001 30.8108C5.94242 31.8648 4.4375 32.6936 3.33165 33.1566C3.08562 33.0697 2.84542 32.967 2.61255 32.8493C4.02376 32.2401 5.62729 31.3665 7.2578 30.2838Z" fill="#D66B09"/>
<g opacity="0.35">
<path opacity="0.35" d="M11.4254 26.1566C11.4428 26.4042 11.4449 26.6526 11.4315 26.9004C11.378 27.9108 11.0733 28.892 10.5449 29.755C10.0165 30.618 9.28116 31.3355 8.40549 31.8426C7.52983 32.3497 6.54149 32.6303 5.53 32.659C4.51852 32.6878 3.51584 32.4637 2.61279 32.0072C4.02401 31.3975 5.62753 30.5239 7.25804 29.4412C8.88855 28.3585 10.3159 27.2206 11.4254 26.1566Z" fill="#371A45"/>
</g>
<g opacity="0.35">
<path opacity="0.35" d="M10.805 23.9054C10.768 23.9479 10.7296 23.9889 10.6892 24.0329C10.7236 23.9817 10.7574 23.9294 10.7895 23.8767C10.7948 23.8854 10.7999 23.8963 10.805 23.9054Z" fill="#371A45"/>
</g>
<path d="M10.4256 24.0663C10.5655 24.277 10.6923 24.4962 10.8051 24.7225C9.95785 25.6707 8.21003 27.0892 6.07675 28.505C3.94346 29.9209 1.95786 30.9815 0.755319 31.395C0.590707 31.2029 0.438261 31.0006 0.29887 30.7894C0.29207 30.7794 0.285695 30.7697 0.279107 30.7595C0.217057 30.6651 0.158195 30.5696 0.10252 30.473C-0.0273069 30.2499 -0.142649 30.0188 -0.242793 29.7809C-0.24683 29.7715 -0.250868 29.762 -0.254693 29.7522C-0.791433 28.455 -0.862663 27.012 -0.456287 25.6683C-0.0499121 24.3246 0.809018 23.1629 1.97465 22.3805C3.14029 21.5982 4.54078 21.2434 5.93831 21.3763C7.33585 21.5093 8.64428 22.1219 9.64143 23.1101C9.66268 23.1313 9.68393 23.1526 9.70518 23.1753C9.88549 23.36 10.0538 23.556 10.2092 23.762C10.2675 23.8394 10.3241 23.9185 10.3792 23.9994C10.3956 24.0209 10.4107 24.043 10.4256 24.0663Z" fill="#FFB200"/>
<path d="M10.3805 23.9989C10.3955 24.0202 10.4106 24.0429 10.4255 24.0654C10.5655 24.2761 10.6922 24.4952 10.805 24.7216C9.95779 25.6698 8.20998 27.0882 6.07669 28.5041C3.9434 29.92 1.9578 30.9806 0.755265 31.3941C0.590682 31.2022 0.438236 31.0002 0.298815 30.7893C0.292015 30.7794 0.28564 30.7696 0.279053 30.7594C1.43102 30.4387 3.45848 29.3958 5.63405 27.952C7.89229 26.4514 9.69132 24.929 10.3805 23.9989Z" fill="#D66B09"/>
<path d="M-0.565269 28.8847L-0.610107 28.4775C0.213755 28.3868 2.24228 27.36 4.32181 25.9787C6.80232 24.3317 8.34294 22.889 8.58243 22.3148L8.96068 22.4727C8.64363 23.2322 6.87032 24.7783 4.54833 26.319C2.38635 27.7555 0.331268 28.7861 -0.565269 28.8847Z" fill="#D66B09"/>
<path d="M-0.598132 26.7952L-0.722656 26.4048C0.174519 26.1186 1.68008 25.3115 3.20604 24.2983C4.80489 23.2358 6.15809 22.1327 6.73716 21.4172L7.05591 21.675C6.45241 22.4207 5.06414 23.5567 3.43278 24.6398C1.87728 25.6723 0.332618 26.4983 -0.598132 26.7952Z" fill="#D66B09"/>
<path d="M-0.224092 29.9546L-0.287842 29.5509C0.651196 29.4021 2.74517 28.3318 4.92308 26.8857C7.20746 25.3691 9.07257 23.7785 9.45847 23.0182L9.82397 23.2035C9.40258 24.0339 7.52429 25.6508 5.14897 27.2274C2.89264 28.7247 0.783371 29.7957 -0.224092 29.9546Z" fill="#D66B09"/>
<path d="M5.36749 33.897C4.3492 33.897 3.34516 33.6577 2.43627 33.1985C2.36995 33.165 2.31456 33.1133 2.27658 33.0494C2.23861 32.9855 2.21963 32.9121 2.22186 32.8379C2.22409 32.7636 2.24744 32.6915 2.28918 32.63C2.33091 32.5685 2.38931 32.5202 2.45752 32.4907C3.89827 31.8683 5.48352 30.9926 7.04178 29.9581C8.60004 28.9237 10.0221 27.8027 11.1549 26.7164C11.2086 26.665 11.2758 26.6299 11.3486 26.6153C11.4215 26.6007 11.497 26.6071 11.5663 26.6339C11.6357 26.6607 11.6959 26.7066 11.7401 26.7664C11.7842 26.8262 11.8104 26.8973 11.8156 26.9714C11.8758 27.8299 11.7643 28.6917 11.4875 29.5065C11.2107 30.3213 10.7743 31.0728 10.2036 31.7169C9.63298 32.361 8.93963 32.8849 8.16412 33.2579C7.38862 33.6309 6.54652 33.8455 5.68709 33.8892C5.58056 33.8945 5.47403 33.8972 5.36749 33.897ZM3.59248 32.8326C4.40888 33.0998 5.27519 33.1786 6.12641 33.0632C6.97762 32.9477 7.79162 32.6409 8.50729 32.1658C9.22297 31.6907 9.82174 31.0597 10.2587 30.3201C10.6956 29.5805 10.9593 28.7515 11.03 27.8954C9.99362 28.8159 8.77982 29.7441 7.47486 30.6094C6.16989 31.4747 4.84347 32.2346 3.59248 32.8326Z" fill="#371A45"/>
<path d="M13.7749 22.8762C14.2673 23.618 13.2996 25.2024 11.4255 26.9987C10.3161 28.0627 8.88849 29.2015 7.25797 30.2837C5.62746 31.366 4.02394 32.24 2.61272 32.8497C0.229111 33.8792 -1.60646 34.1559 -2.09904 33.4141C-2.54529 32.7404 -1.78964 31.3724 -0.243914 29.7803C-0.14377 30.0182 -0.0284281 30.2494 0.101398 30.4724C-0.319989 30.9491 -0.508052 31.3035 -0.395002 31.4737C-0.279827 31.6471 0.132848 31.607 0.75526 31.3934C1.9578 30.9805 3.94276 29.9201 6.07669 28.5034C8.21061 27.0867 9.95779 25.6687 10.805 24.7209C11.2432 24.2305 11.4404 23.8658 11.3252 23.6922C11.2124 23.5222 10.8127 23.5577 10.2102 23.7608C10.0548 23.5548 9.88649 23.3588 9.70618 23.1741C11.7738 22.3681 13.3276 22.2017 13.7749 22.8762Z" fill="#FFC536"/>
<path d="M-0.370328 32.2575C-0.667828 32.2575 -0.897541 32.1813 -1.01803 31.9996C-1.2607 31.6341 -0.978928 31.0176 -0.156766 30.1151L0.0882461 30.3385C-0.684191 31.1863 -0.846753 31.6579 -0.74199 31.8162C-0.56519 32.0824 0.552134 31.9146 2.58852 30.9184C3.7271 30.361 4.99721 29.6221 6.26158 28.7834C7.52596 27.9446 8.69917 27.0598 9.65479 26.2268C11.3633 24.737 11.9515 23.772 11.7751 23.5068C11.6689 23.3481 11.172 23.3155 10.0908 23.698L9.98012 23.3855C11.1312 22.9779 11.8076 22.9577 12.0511 23.3232C12.487 23.9796 11.107 25.4008 9.8726 26.4771C8.90636 27.3195 7.72103 28.2126 6.44497 29.0598C5.16891 29.9071 3.88562 30.6536 2.73408 31.2165C1.6701 31.7376 0.410397 32.2573 -0.370328 32.2575Z" fill="#FFEC90"/>
<path d="M-0.745991 33.14C-1.16717 33.14 -1.50313 33.0337 -1.68099 32.7685C-2.13808 32.0802 -1.16738 30.8152 -0.272755 29.8749L-0.0324172 30.1036C-1.34397 31.4816 -1.60152 32.2891 -1.40495 32.5851C-1.16228 32.95 0.014758 32.9676 2.5348 31.8123C3.83763 31.2156 5.27966 30.4 6.70511 29.4535C8.13056 28.5071 9.4419 27.4947 10.4974 26.5257C12.5397 24.651 12.9813 23.5596 12.739 23.1946C12.5425 22.8988 11.6978 22.8225 9.91938 23.4961L9.80187 23.1863C11.0155 22.7264 12.5582 22.3231 13.0151 23.0112C13.6088 23.9052 11.8329 25.7499 10.7216 26.7699C9.65355 27.7506 8.32797 28.774 6.8885 29.7296C5.44902 30.6852 3.99127 31.5097 2.67292 32.1136C1.71115 32.5541 0.246596 33.14 -0.745991 33.14Z" fill="#FFEC90"/>
<g opacity="0.35">
<path opacity="0.35" d="M7.87974 29.6284C6.28365 30.6805 4.71668 31.5305 3.33458 32.1279C0.950964 33.1574 -0.884823 33.4341 -1.3774 32.6925C-1.82365 32.0186 -1.06757 30.6506 0.477726 29.0587C0.578158 29.2966 0.693565 29.5278 0.823252 29.751C0.401652 30.2275 0.21359 30.5817 0.326852 30.7521C0.440114 30.9226 0.854914 30.8856 1.4769 30.672C2.27505 30.3987 3.41724 29.8392 4.7188 29.0812C4.71476 29.2674 4.75641 29.4302 4.8463 29.5647C5.21499 30.1197 6.33763 30.104 7.87974 29.6284Z" fill="#371A45"/>
</g>
<path d="M-0.98638 34.1931C-1.60582 34.1931 -2.12071 34.0341 -2.39972 33.6138C-2.69722 33.1676 -2.64239 32.5477 -2.23864 31.7746C-1.89545 31.1174 -1.3115 30.3621 -0.50273 29.5293C-0.461154 29.4867 -0.409676 29.455 -0.352878 29.437C-0.296079 29.4191 -0.235723 29.4155 -0.177185 29.4265C-0.118647 29.4375 -0.0637419 29.4628 -0.01736 29.5002C0.029022 29.5376 0.0654414 29.5858 0.0886567 29.6407C0.182972 29.8646 0.291424 30.0823 0.413357 30.2924C0.451281 30.3581 0.467583 30.434 0.459956 30.5095C0.452328 30.5849 0.421156 30.656 0.370857 30.7128C0.158357 30.9542 0.048069 31.1165 -0.00824332 31.2177C0.111394 31.2049 0.312844 31.1645 0.637332 31.0532C1.84858 30.6373 3.85607 29.5457 5.87631 28.2057C7.89654 26.8657 9.68154 25.4381 10.5352 24.4831C10.7634 24.2281 10.8788 24.0581 10.937 23.9519C10.8214 23.9642 10.6297 24.0022 10.3246 24.1051C10.2527 24.1293 10.175 24.1303 10.1026 24.1079C10.0301 24.0855 9.9665 24.0409 9.92082 23.9803C9.7748 23.7863 9.61652 23.6017 9.44694 23.4278C9.40537 23.3851 9.37502 23.3328 9.3586 23.2755C9.34217 23.2182 9.34018 23.1577 9.35281 23.0994C9.36543 23.0412 9.39228 22.9869 9.43095 22.9416C9.46962 22.8962 9.51892 22.8611 9.57444 22.8394C10.6556 22.4172 11.5785 22.1722 12.3174 22.111C13.1867 22.0391 13.7779 22.2293 14.075 22.6764C14.8804 23.8898 12.9169 26.069 11.6737 27.2601C10.5092 28.3767 9.05085 29.5266 7.45603 30.5853C5.86122 31.6439 4.23517 32.5422 2.75426 33.1818C1.72257 33.627 0.18237 34.1931 -0.98638 34.1931ZM-0.34378 30.4136C-1.66383 31.8647 -2.03613 32.8573 -1.79834 33.2145C-1.64641 33.4434 -1.17253 33.5248 -0.498268 33.4383C0.282457 33.338 1.30798 33.0199 2.46972 32.5184C3.91196 31.8953 5.49869 31.0185 7.05844 29.983C8.61819 28.9475 10.0417 27.8255 11.1758 26.7382C12.0896 25.8629 12.7802 25.0405 13.1757 24.3599C13.5172 23.7721 13.626 23.3037 13.4732 23.0749C13.2354 22.7166 12.1769 22.6749 10.3282 23.3284L10.3397 23.3422C10.8439 23.1949 11.3824 23.1263 11.6259 23.4933C11.9132 23.9259 11.4821 24.5054 11.0734 24.9621C10.1682 25.9749 8.37467 27.4116 6.27559 28.8051C4.17652 30.1987 2.15713 31.2942 0.872569 31.7351C0.293507 31.934 -0.408168 32.1065 -0.695468 31.6737C-0.939205 31.3069 -0.666781 30.8371 -0.335281 30.4293L-0.34378 30.4136Z" fill="#371A45"/>
<g opacity="0.35">
<path opacity="0.35" d="M11.4668 24.0598C10.6196 25.0078 8.87155 26.4267 6.73847 27.8423C4.6054 29.258 2.61937 30.3188 1.41684 30.7323C1.25224 30.5402 1.09946 30.3382 0.959324 30.1276C0.952524 30.1176 0.946362 30.1078 0.939562 30.0976C0.877795 30.0031 0.819003 29.9077 0.763186 29.8114C0.633542 29.5882 0.518138 29.357 0.417662 29.1192C0.413624 29.1097 0.409798 29.1001 0.405973 29.0906C-0.0652655 27.9502 -0.178606 26.6935 0.0809927 25.4873C0.340591 24.281 0.960854 23.1822 1.85947 22.3367C1.34764 23.501 1.21257 24.7963 1.47315 26.0412C1.55017 26.4077 1.66122 26.7661 1.80486 27.112C1.8089 27.122 1.81294 27.1313 1.81697 27.1409C1.82101 27.1504 1.8293 27.1689 1.83822 27.187C2.30764 28.1702 3.48659 28.4261 4.54292 28.1592C6.55615 27.6504 10.5992 24.5594 11.4538 23.8588C11.5439 24.0069 11.3914 23.907 11.4668 24.0598Z" fill="#371A45"/>
</g>
<g opacity="0.41">
<path opacity="0.41" d="M10.6611 24.8678C10.5619 24.9783 10.4513 25.0947 10.3294 25.2171C10.2478 25.0684 10.1594 24.9217 10.064 24.7781L10.0189 24.7118C9.9638 24.6306 9.90714 24.5515 9.84891 24.4744C9.69365 24.2682 9.52536 24.0722 9.34507 23.8875C9.32382 23.8663 9.30257 23.845 9.28132 23.8225C9.01454 23.557 8.72326 23.3173 8.41135 23.1066C7.67476 22.6079 6.83775 22.2769 5.95933 22.137C5.08092 21.997 4.18249 22.0514 3.32739 22.2964C2.4723 22.5414 1.68136 22.971 1.01036 23.5549C0.339352 24.1388 -0.195387 24.8629 -0.556152 25.6759C-0.233091 24.6913 0.336384 23.8056 1.09816 23.103C1.85994 22.4004 2.78872 21.9043 3.79624 21.6618C4.80376 21.4193 5.85656 21.4384 6.8546 21.7174C7.85264 21.9964 8.76277 22.5259 9.4985 23.2557C9.51975 23.277 9.541 23.2982 9.56225 23.3212C9.7426 23.5057 9.9109 23.7016 10.0661 23.9077C10.1247 23.9853 10.1814 24.0645 10.2361 24.1451C10.2516 24.1663 10.2665 24.189 10.2811 24.2118C10.4212 24.4224 10.5481 24.6415 10.6611 24.8678Z" fill="white"/>
</g>
<path d="M0.755127 31.7849C0.69866 31.785 0.642828 31.773 0.591472 31.7495C0.540116 31.726 0.494454 31.6917 0.457627 31.6489C0.282231 31.4447 0.119642 31.2299 -0.0292097 31.0057C-0.102522 30.8954 -0.17286 30.7821 -0.23831 30.6688C-0.376191 30.4315 -0.498838 30.1856 -0.60551 29.9327C-1.80868 27.0755 -0.804623 23.7552 1.78214 22.0377C4.3689 20.3203 7.81863 20.6837 9.98464 22.9015C10.1764 23.0983 10.3556 23.3069 10.521 23.5263C10.5996 23.6302 10.6765 23.7388 10.7499 23.8491C10.8987 24.0734 11.0335 24.3066 11.1536 24.5476C11.1885 24.6176 11.2016 24.6964 11.1911 24.7739C11.1807 24.8514 11.1473 24.924 11.0952 24.9823C10.1884 25.9968 8.39259 27.4352 6.2916 28.8303C4.19062 30.2254 2.16783 31.3219 0.880715 31.7628C0.840372 31.7771 0.797927 31.7846 0.755127 31.7849ZM5.3617 21.74C4.24272 21.7395 3.14855 22.0697 2.2167 22.6893C-0.0570472 24.198 -0.940409 27.1178 0.117203 29.6291C0.21094 29.8516 0.318827 30.0679 0.440202 30.2766C0.498002 30.3764 0.55984 30.4761 0.624228 30.5741C0.705615 30.6969 0.792102 30.817 0.882627 30.9328C2.10684 30.4627 3.97833 29.43 5.86108 28.1798C7.74383 26.9297 9.42215 25.606 10.3306 24.66C10.259 24.5325 10.1818 24.405 10.1005 24.2828C10.0367 24.1857 9.96828 24.0901 9.899 23.9985C9.75349 23.8055 9.59592 23.622 9.42725 23.4489C8.89796 22.9071 8.26556 22.4768 7.56731 22.1833C6.86907 21.8898 6.11912 21.7391 5.3617 21.74Z" fill="#371A45"/>
<path d="M42.2513 51.2026C41.5337 51.7374 40.9338 51.3005 38.3579 51.5037C37.9372 51.5372 36.3581 51.7742 35.8487 51.1556C35.6169 50.8747 35.5782 50.4592 35.622 50.0459C35.6985 49.3313 36.0221 48.6222 36.0221 48.6222C36.0221 48.6222 35.3434 48.5129 35.0718 47.532C34.8024 46.5571 35.9518 44.6788 35.9518 44.6788C35.9518 44.6788 36.1957 37.5849 35.2586 32.7382L34.3918 31.6479L29.6431 25.6766L36.8715 26.8926C36.8715 26.8926 36.9635 27.0241 37.1265 27.2774C37.3815 27.6703 37.8084 28.3563 38.3271 29.2893C40.1074 32.4938 42.9717 38.6096 43.6426 45.7634C43.762 47.0512 43.9233 49.9575 42.2513 51.2026Z" fill="white"/>
<g opacity="0.35">
<path opacity="0.35" d="M43.5937 48.657C43.4263 49.6462 43.0455 50.612 42.2514 51.203C41.5337 51.7379 40.9339 51.301 38.3579 51.5041C37.9372 51.5377 36.3581 51.7746 35.8487 51.156C35.6169 50.8751 35.5782 50.4597 35.622 50.0464C35.6985 49.3317 36.0221 48.6226 36.0221 48.6226C36.0221 48.6226 35.3434 48.5134 35.0718 47.5325C34.928 47.0127 35.1872 46.2379 35.4607 45.6266C35.4424 45.8144 35.4494 45.991 35.4924 46.144C35.7639 47.1251 36.4429 47.2344 36.4429 47.2344C36.4429 47.2344 36.1192 47.9428 36.0425 48.6581C35.9988 49.0716 36.4074 48.2382 36.4187 48.602C36.4728 50.3313 38.3579 50.1496 38.7774 50.1159C41.354 49.9127 41.9532 50.3496 42.6708 49.8147C43.0793 49.5113 43.3772 49.1103 43.5937 48.657Z" fill="#371A45"/>
</g>
<path d="M35.3859 32.715C35.4726 32.9536 35.547 33.1959 35.6197 33.4392L35.6722 33.6221C35.6885 33.6831 35.7021 33.7448 35.7172 33.806C35.7472 33.9288 35.7746 34.052 35.8022 34.1753C35.8299 34.2985 35.856 34.4222 35.8819 34.5459C35.8951 34.6079 35.9053 34.67 35.9161 34.732L35.9478 34.9184C35.9686 35.0425 35.9885 35.1669 36.0075 35.2916L36.0358 35.4786C36.0451 35.541 36.0545 35.6033 36.0615 35.6658C36.1877 36.6645 36.2655 37.6682 36.3071 38.6716L36.3309 39.4242L36.3365 39.6123L36.3399 39.8006L36.3464 40.1767L36.3535 40.5528L36.3571 40.929L36.3613 41.3051C36.3634 41.4305 36.3626 41.5558 36.3639 41.6812C36.3654 41.932 36.3683 42.1825 36.3677 42.4333C36.3671 42.684 36.3677 42.9347 36.3656 43.1855L36.3624 43.5616L36.3569 43.938C36.3526 44.1893 36.3473 44.4388 36.3394 44.6932C36.3377 44.7573 36.3197 44.8198 36.2872 44.8751L36.2827 44.8823L36.2502 44.9371L36.2164 44.9954C36.1941 45.0347 36.1718 45.0744 36.1499 45.1144C36.106 45.1941 36.0635 45.2747 36.0224 45.3562C35.9389 45.5185 35.8605 45.6832 35.7886 45.849C35.7168 46.0147 35.6499 46.1822 35.5936 46.3494C35.5374 46.5123 35.4922 46.6788 35.4584 46.8477C35.427 46.998 35.416 47.1518 35.4257 47.305C35.4291 47.3364 35.4342 47.3675 35.441 47.3983L35.4457 47.4196C35.4457 47.4234 35.4469 47.4264 35.4482 47.4308L35.4529 47.4451L35.4709 47.5016C35.4816 47.5392 35.4945 47.5762 35.5096 47.6123L35.5309 47.6656C35.5369 47.6834 35.5441 47.7007 35.5525 47.7175C35.6117 47.8474 35.6949 47.965 35.7976 48.0641C35.8441 48.1094 35.8961 48.1486 35.9525 48.181L35.9737 48.1929C35.9803 48.1967 35.9873 48.1994 35.995 48.2028L36.0152 48.213C36.022 48.216 36.0285 48.2183 36.0351 48.2213C36.0487 48.2275 36.0608 48.2311 36.0732 48.2356C36.0789 48.2377 36.0834 48.2383 36.0887 48.2402C36.0901 48.2407 36.0915 48.241 36.0929 48.2413H36.0946H36.0934H36.0908H36.0857L36.3766 48.7853L36.3537 48.8384L36.3294 48.8969C36.3135 48.9364 36.2978 48.9761 36.2829 49.0165C36.2525 49.0968 36.224 49.1782 36.1979 49.2598C36.1718 49.3414 36.1469 49.4236 36.1242 49.5059C36.1014 49.5881 36.0817 49.6704 36.0647 49.7522C36.0298 49.9114 36.0077 50.0732 35.9986 50.236C35.9948 50.3117 35.9957 50.3876 36.0016 50.4632C36.003 50.5002 36.0094 50.5342 36.0135 50.5695C36.016 50.5867 36.02 50.6028 36.0232 50.6194L36.0279 50.6443C36.0298 50.6521 36.0322 50.6598 36.0343 50.6674C36.0483 50.7252 36.0698 50.781 36.098 50.8334C36.105 50.8446 36.1116 50.8563 36.118 50.868C36.1244 50.8797 36.1337 50.8893 36.141 50.8986C36.1472 50.908 36.1543 50.9169 36.1622 50.925C36.166 50.9288 36.1692 50.933 36.173 50.9371L36.1864 50.9486C36.2282 50.9846 36.2746 51.0148 36.3246 51.0382C36.3872 51.0667 36.4521 51.09 36.5186 51.1079C36.6717 51.147 36.8283 51.1711 36.9861 51.1802C37.0689 51.1859 37.1535 51.1882 37.2385 51.1893C37.3235 51.1904 37.41 51.1893 37.4967 51.1853C37.6703 51.1785 37.8456 51.1653 38.0243 51.1479L38.1599 51.1345L38.3029 51.1207L38.5853 51.0994C38.9596 51.0752 39.3353 51.0599 39.7116 51.0586C39.8996 51.0578 40.0874 51.0598 40.2749 51.0646C40.4621 51.0695 40.6485 51.0769 40.831 51.0839C41.0136 51.0909 41.1923 51.0975 41.3557 51.0926C41.4323 51.0908 41.5087 51.0845 41.5846 51.0739C41.6503 51.0649 41.7149 51.0491 41.7773 51.0268C41.8373 51.0047 41.8947 50.9762 41.9486 50.9417L41.9698 50.9286L41.9911 50.9135C42.0053 50.9031 42.0189 50.8946 42.0349 50.8812L42.1269 50.8072L42.15 50.7888L42.1713 50.7686L42.2148 50.7282C42.2446 50.7021 42.273 50.6745 42.2998 50.6455L42.3817 50.5588L42.4579 50.4664C42.4705 50.4509 42.4839 50.4362 42.4956 50.4196L42.531 50.3708L42.5665 50.3219C42.5784 50.3055 42.5903 50.2894 42.601 50.2719L42.6664 50.1691C42.6779 50.1523 42.6877 50.134 42.6976 50.1162L42.7278 50.0626L42.758 50.0091C42.768 49.9912 42.7765 49.9721 42.7858 49.9538L42.8411 49.8427C42.8736 49.7658 42.9097 49.691 42.9384 49.6115C43.0612 49.2989 43.1452 48.964 43.2064 48.6225C43.2351 48.451 43.2595 48.2783 43.2769 48.1036C43.2943 47.9289 43.3077 47.7532 43.3141 47.5762C43.3294 47.2228 43.3249 46.8662 43.3075 46.509C43.2985 46.3305 43.2862 46.1516 43.2708 45.9722C43.2567 45.7931 43.2344 45.611 43.2155 45.431L43.1569 44.8889L43.1494 44.8211L43.1401 44.7535L43.1216 44.6184L43.0846 44.3481L43.0476 44.0778L43.0292 43.9426L43.02 43.8751L43.009 43.8077L42.9203 43.2692C42.8657 42.9095 42.7914 42.5529 42.7244 42.1952L42.6989 42.0612L42.686 41.994L42.6715 41.9273L42.6135 41.6606L42.4979 41.1268C42.4571 40.9494 42.4129 40.7728 42.3704 40.5956L42.3067 40.3301L42.2746 40.1973L42.2395 40.0654L42.0992 39.5373C42.0752 39.4493 42.0533 39.3609 42.0278 39.2736L41.952 39.0109L41.8 38.4861L41.6377 37.964L41.5563 37.703L41.5351 37.6378L41.5138 37.573L41.4713 37.4433L41.2981 36.9246C41.2701 36.8381 41.2388 36.7523 41.2084 36.6664L41.1169 36.4089C41.0552 36.2372 40.9968 36.0646 40.9311 35.8944L40.7386 35.3825C40.7072 35.2975 40.6732 35.2125 40.6396 35.1275L40.5389 34.8725C40.4073 34.5325 40.2626 34.1972 40.1245 33.8602C39.9787 33.5257 39.8365 33.1897 39.6838 32.8584C39.535 32.5254 39.3782 32.1963 39.222 31.8665L38.9821 31.3748C38.9011 31.2113 38.818 31.0492 38.7362 30.886C38.4044 30.2363 38.0574 29.5951 37.695 28.9625C37.5126 28.6471 37.3284 28.3328 37.1376 28.0236C37.0904 27.9459 37.042 27.8691 36.9939 27.7922C36.9459 27.7153 36.8975 27.6386 36.8484 27.5623C36.7993 27.486 36.7504 27.4104 36.7011 27.3347C36.6518 27.2591 36.6008 27.1832 36.5524 27.1141L36.8063 27.275L35 26.9713C34.3976 26.8706 33.7922 26.7869 33.1885 26.6936C32.5848 26.6003 31.9845 26.4866 31.3878 26.3515C31.0903 26.2826 30.7928 26.2057 30.498 26.1162C30.3505 26.0723 30.2037 26.0247 30.0575 25.9734C29.9113 25.922 29.7655 25.8672 29.6215 25.8034C29.5944 25.7914 29.572 25.7708 29.558 25.7447C29.5439 25.7187 29.5389 25.6887 29.5438 25.6594C29.5487 25.6302 29.5631 25.6035 29.5849 25.5834C29.6066 25.5633 29.6345 25.551 29.664 25.5484C29.821 25.5355 29.9765 25.5318 30.1315 25.5312C30.2864 25.5306 30.4409 25.5336 30.5945 25.5401C30.9022 25.5523 31.208 25.5765 31.5123 25.609C32.1202 25.6763 32.7247 25.7648 33.3258 25.8746C33.9269 25.9841 34.5264 26.1028 35.1286 26.2048L36.9349 26.5091H36.937C36.9876 26.5177 37.0359 26.5364 37.0792 26.564C37.1224 26.5916 37.1597 26.6275 37.1888 26.6698C37.2455 26.752 37.295 26.8283 37.348 26.9074C37.4009 26.9864 37.4506 27.064 37.5005 27.1426C37.5505 27.2212 37.601 27.3001 37.6493 27.3791C37.6975 27.4582 37.7481 27.5368 37.7963 27.6163C37.9918 27.9329 38.1788 28.2538 38.3654 28.5746C38.7347 29.2187 39.0877 29.8712 39.4243 30.5324C39.7609 31.1936 40.0821 31.8619 40.3878 32.5373C40.5429 32.8739 40.6874 33.2154 40.8357 33.5552C40.9768 33.8982 41.123 34.2388 41.2571 34.5848L41.3593 34.8434C41.3935 34.9297 41.4282 35.0155 41.46 35.1026L41.6558 35.6233C41.7225 35.7965 41.7822 35.972 41.8449 36.1464L41.938 36.4087C41.969 36.496 42.0017 36.5833 42.0293 36.6715L42.2055 37.1994L42.2497 37.3313L42.2709 37.3972L42.2922 37.4637L42.3751 37.7293L42.5404 38.2606L42.6951 38.7952L42.7724 39.0628C42.7984 39.1518 42.8207 39.2419 42.8451 39.3314L42.9881 39.8696L43.0238 40.0042L43.0566 40.1395L43.122 40.4102C43.1645 40.5907 43.2102 40.7715 43.2518 40.9517L43.37 41.4963L43.4291 41.7686L43.4437 41.8365L43.4569 41.905L43.483 42.0418C43.5515 42.4069 43.6271 42.7707 43.6832 43.1383L43.7735 43.6885L43.7848 43.7571L43.7941 43.8262L43.8131 43.9643L43.8509 44.2406L43.8887 44.5168L43.9076 44.6549L43.917 44.724L43.9248 44.7933L43.9848 45.3479C44.0043 45.5332 44.0273 45.7166 44.0415 45.9042C44.0557 46.0919 44.0704 46.2795 44.08 46.468C44.0984 46.8454 44.1033 47.2251 44.087 47.6066C44.08 47.7978 44.0657 47.9891 44.0466 48.1803C44.0275 48.3716 44.0005 48.5628 43.9684 48.7541C43.8998 49.1366 43.805 49.5191 43.659 49.8909C43.625 49.9847 43.5819 50.076 43.5421 50.1672L43.475 50.3032C43.4635 50.3259 43.4537 50.3487 43.4405 50.371L43.4031 50.4377L43.3657 50.5042C43.353 50.5255 43.3409 50.5486 43.3266 50.5701L43.244 50.6999C43.2306 50.7212 43.2155 50.7424 43.2002 50.7637L43.1547 50.8274L43.1093 50.8901C43.0942 50.9114 43.0767 50.9305 43.0606 50.9509C43.0274 50.9908 42.9945 51.0312 42.9609 51.0707L42.8547 51.1851C42.8196 51.2239 42.7805 51.2588 42.7421 51.2945L42.6843 51.3481L42.6554 51.3746L42.6248 51.3995L42.5017 51.4981C42.4824 51.5144 42.4573 51.531 42.4344 51.5476L42.3993 51.5722L42.3621 51.5956C42.2611 51.6603 42.1533 51.7137 42.0406 51.755C41.9298 51.7949 41.8153 51.8234 41.6987 51.84C41.5925 51.8552 41.4855 51.8643 41.3782 51.8672C41.1738 51.8727 40.9853 51.8649 40.8 51.8583C40.6147 51.8517 40.4341 51.8438 40.2535 51.8391C40.0728 51.8345 39.8935 51.8325 39.7137 51.8334C39.3544 51.8345 38.995 51.8491 38.6353 51.8725L38.3675 51.8923L38.097 51.9186C37.9098 51.9369 37.7181 51.9516 37.5233 51.959C37.4264 51.9626 37.3284 51.9643 37.23 51.9637C37.1316 51.963 37.0318 51.9596 36.9312 51.9528C36.7218 51.9405 36.5142 51.9077 36.3112 51.8549C36.2 51.8248 36.0915 51.7853 35.9871 51.7367C35.8705 51.6813 35.7623 51.6098 35.6656 51.5242L35.6278 51.4898C35.6154 51.4777 35.6035 51.4643 35.5914 51.4515C35.5675 51.4267 35.5452 51.4004 35.5247 51.3727C35.5047 51.3461 35.485 51.3194 35.4658 51.2922C35.4467 51.265 35.4323 51.2363 35.4161 51.2072C35.356 51.0981 35.3101 50.9819 35.2795 50.8612C35.2757 50.8468 35.2714 50.8321 35.268 50.8187L35.2593 50.7762C35.2538 50.7477 35.2474 50.719 35.2431 50.6912C35.2357 50.6351 35.2268 50.5782 35.2238 50.5233C35.2155 50.4155 35.214 50.3073 35.2193 50.1993C35.2303 49.9947 35.2577 49.7913 35.3014 49.5911C35.3427 49.3978 35.3943 49.2069 35.4559 49.0191C35.4865 48.926 35.5196 48.8337 35.5534 48.7428C35.5704 48.6971 35.5885 48.6514 35.6069 48.6055L35.6354 48.5365L35.6505 48.5014L35.6675 48.4632L35.9584 49.0071L35.9446 49.0048L35.9321 49.0023L35.9163 48.9987C35.9061 48.9963 35.8951 48.9935 35.8862 48.9912C35.8685 48.9861 35.8498 48.9812 35.8333 48.9757C35.8005 48.9646 35.7676 48.9534 35.7376 48.9404C35.7223 48.9341 35.7068 48.9279 35.6917 48.9211L35.648 48.8998C35.6335 48.8926 35.6188 48.8856 35.6055 48.8786L35.564 48.8548C35.4554 48.7923 35.3548 48.7169 35.2644 48.6302C35.0919 48.4654 34.9517 48.2698 34.8513 48.0535C34.8383 48.0281 34.8267 48.002 34.8164 47.9755L34.7841 47.897C34.763 47.8453 34.7444 47.7926 34.7287 47.739L34.7036 47.6595L34.6974 47.6397C34.6953 47.6327 34.6936 47.624 34.6917 47.6163L34.6807 47.5685C34.6669 47.5066 34.6567 47.4438 34.6503 47.3807C34.6479 47.3503 34.6462 47.3205 34.6445 47.2904L34.6422 47.2453V47.2015L34.6433 47.1142L34.6488 47.0292L34.6518 46.9867L34.6564 46.9455L34.6662 46.8632C34.6745 46.8095 34.6828 46.7559 34.6928 46.7032C34.7333 46.4992 34.7875 46.2981 34.8551 46.1014C34.9201 45.9085 34.9945 45.7221 35.0742 45.5396C35.1539 45.357 35.2391 45.1783 35.3292 45.0026C35.3743 44.9146 35.4206 44.8273 35.4682 44.7408C35.4922 44.6983 35.5164 44.6543 35.5411 44.611L35.5787 44.5459L35.6191 44.4781L35.5623 44.6673C35.5698 44.4227 35.5751 44.173 35.5793 43.9254L35.5846 43.5529L35.5878 43.1804C35.5904 42.932 35.5902 42.6836 35.5899 42.4349C35.5897 42.1863 35.5874 41.9381 35.5848 41.6897C35.5715 40.6959 35.5292 39.7028 35.4746 38.7117L35.4308 37.9691L35.4206 37.7833C35.4176 37.7213 35.4142 37.6594 35.4095 37.5976L35.3857 37.2268C35.3689 36.9797 35.359 36.7314 35.3394 36.4849C35.3199 36.2384 35.3056 35.9909 35.2897 35.7435C35.2867 35.6815 35.2805 35.6201 35.2761 35.5585L35.2621 35.3734C35.2533 35.2499 35.2448 35.1264 35.2376 35.0028L35.227 34.817C35.2232 34.7552 35.2217 34.6929 35.2162 34.6315C35.2074 34.5081 35.1987 34.3846 35.1915 34.2607C35.1843 34.1368 35.1777 34.0127 35.1728 33.8884L35.1649 33.7016L35.1535 33.5157C35.1399 33.2673 35.1288 33.0178 35.1301 32.7647V32.7596C35.1303 32.7289 35.1412 32.6992 35.1611 32.6757C35.1809 32.6523 35.2084 32.6366 35.2387 32.6313C35.2689 32.6261 35.3001 32.6317 35.3267 32.6471C35.3532 32.6625 35.3735 32.6867 35.384 32.7156L35.3859 32.715Z" fill="#371A45"/>
<g opacity="0.35">
<path opacity="0.35" d="M38.3263 29.2898C38.1454 29.4449 37.9608 29.594 37.7719 29.739C35.2589 31.6672 32.16 32.6742 28.9935 32.5915C25.827 32.5088 22.7849 31.3415 20.376 29.2846C20.5885 28.5292 20.7855 27.7759 20.964 27.0226C23.089 22.1236 35.9252 24.098 36.5674 25.677C36.7601 26.1518 36.9471 26.6887 37.1257 27.2778C37.38 27.6707 37.8076 28.3567 38.3263 29.2898Z" fill="#371A45"/>
</g>
<path d="M42.8514 20.645C42.7767 20.6469 42.7044 20.6191 42.6502 20.5676C42.5961 20.5162 42.5646 20.4454 42.5626 20.3707L42.3546 12.2592C42.3527 12.1845 42.3805 12.1122 42.4319 12.0581C42.4833 12.004 42.5541 11.9725 42.6287 11.9706C43.0167 11.9606 43.4028 12.0271 43.7651 12.1664C44.1273 12.3057 44.4586 12.5149 44.74 12.7822C45.0213 13.0495 45.2473 13.3696 45.4049 13.7243C45.5626 14.0789 45.6488 14.4611 45.6587 14.8491L45.7297 17.6152C45.7498 18.3987 45.4578 19.158 44.918 19.7262C44.3782 20.2944 43.6349 20.6249 42.8514 20.645Z" fill="white"/>
<path d="M42.8439 20.7148C42.7523 20.7147 42.6644 20.6789 42.5989 20.6149C42.5333 20.551 42.4953 20.464 42.4929 20.3725L42.2848 12.261C42.2835 12.2147 42.2913 12.1687 42.3078 12.1255C42.3243 12.0823 42.3492 12.0428 42.381 12.0092C42.4128 11.9757 42.4509 11.9487 42.4931 11.9299C42.5354 11.9111 42.5809 11.9009 42.6271 11.8997C43.0244 11.8894 43.4197 11.9574 43.7906 12.0999C44.1615 12.2424 44.5007 12.4566 44.7888 12.7302C45.0769 13.0039 45.3083 13.3316 45.4697 13.6946C45.6312 14.0577 45.7195 14.449 45.7296 14.8462L45.8006 17.6121C45.811 18.0093 45.743 18.4047 45.6005 18.7756C45.458 19.1466 45.2439 19.4858 44.9702 19.7739C44.6966 20.062 44.3688 20.2934 44.0058 20.4548C43.6427 20.6162 43.2513 20.7045 42.8541 20.7146H42.845L42.8439 20.7148ZM42.8494 20.5754L42.8513 20.6451L42.8494 20.5754C43.2282 20.5657 43.6015 20.4815 43.9477 20.3276C44.294 20.1736 44.6066 19.953 44.8676 19.6783C45.1286 19.4035 45.3329 19.0801 45.4689 18.7264C45.6049 18.3727 45.6699 17.9956 45.6602 17.6168L45.5894 14.8507C45.5797 14.4719 45.4955 14.0987 45.3415 13.7524C45.1876 13.4061 44.967 13.0935 44.6922 12.8325C44.4175 12.5715 44.094 12.3672 43.7403 12.2312C43.3866 12.0952 43.0096 12.0302 42.6308 12.04C42.5746 12.0415 42.5213 12.0653 42.4826 12.106C42.4439 12.1467 42.4229 12.2012 42.4242 12.2573L42.632 20.3689C42.6336 20.4251 42.6573 20.4783 42.6981 20.517C42.7388 20.5558 42.7932 20.5768 42.8494 20.5754Z" fill="#371A45"/>
<g opacity="0.35">
<path opacity="0.35" d="M45.6968 16.3181L45.7302 17.6144C45.7502 18.398 45.4581 19.1575 44.9182 19.7258C44.3783 20.2941 43.6349 20.6248 42.8512 20.645C42.7765 20.6469 42.7041 20.6189 42.6499 20.5674C42.5957 20.5158 42.5643 20.4448 42.5624 20.3701L42.5063 18.2138C42.5298 18.2628 42.5668 18.304 42.613 18.3324C42.6592 18.3609 42.7126 18.3754 42.7669 18.3743L42.9592 18.369C43.5719 18.3534 44.1646 18.1476 44.6551 17.7801C45.1456 17.4127 45.5097 16.9017 45.6968 16.3181Z" fill="#371A45"/>
</g>
<path d="M42.844 21.0331C42.6695 21.0328 42.502 20.9645 42.377 20.8427C42.2521 20.7209 42.1795 20.5551 42.1748 20.3807L41.967 12.2694C41.9625 12.0919 42.0286 11.9198 42.1508 11.7911C42.2731 11.6623 42.4415 11.5874 42.619 11.5828C43.5053 11.56 44.3644 11.8904 45.0073 12.501C45.6501 13.1117 46.024 13.9527 46.0468 14.8391L46.1176 17.6052C46.1403 18.4914 45.8102 19.3503 45.1998 19.9931C44.5894 20.6359 43.7486 21.0099 42.8625 21.0329H42.8451L42.844 21.0331ZM42.7452 12.3575L42.9475 20.2526C43.6086 20.2082 44.227 19.9101 44.6733 19.4204C45.1196 18.9307 45.3594 18.2874 45.3424 17.625L45.2714 14.8591C45.2544 14.1968 44.982 13.5666 44.5112 13.1004C44.0404 12.6342 43.4077 12.3681 42.7452 12.3575Z" fill="#371A45"/>
<path d="M15.8548 12.657C15.9295 12.655 16.002 12.6828 16.0562 12.7343C16.1103 12.7857 16.1419 12.8566 16.1438 12.9313L16.3517 21.0428C16.3526 21.0798 16.3463 21.1166 16.333 21.1512C16.3198 21.1857 16.2998 21.2173 16.2743 21.2441C16.2489 21.2709 16.2183 21.2924 16.1845 21.3075C16.1507 21.3225 16.1143 21.3307 16.0773 21.3316C15.6894 21.3416 15.3032 21.275 14.941 21.1357C14.5788 20.9965 14.2475 20.7872 13.9661 20.5199C13.6848 20.2526 13.4588 19.9325 13.3012 19.5779C13.1435 19.2233 13.0572 18.8411 13.0473 18.4531L12.9763 15.687C12.9664 15.299 13.0329 14.9129 13.1722 14.5507C13.3115 14.1884 13.5207 13.8572 13.788 13.5758C14.0553 13.2944 14.3754 13.0685 14.73 12.9108C15.0847 12.7532 15.4669 12.6669 15.8548 12.657Z" fill="white"/>
<path d="M15.9995 21.4022C15.2109 21.4017 14.4538 21.0934 13.8893 20.5428C13.3248 19.9923 12.9977 19.2431 12.9775 18.4548L12.9065 15.6887C12.864 14.0214 14.1856 12.63 15.853 12.5862C15.8993 12.5849 15.9453 12.5927 15.9884 12.6092C16.0316 12.6257 16.0711 12.6506 16.1047 12.6824C16.1382 12.7142 16.1652 12.7523 16.184 12.7946C16.2028 12.8368 16.2131 12.8823 16.2143 12.9285L16.4223 21.0399C16.4236 21.0861 16.4157 21.1321 16.3992 21.1752C16.3826 21.2184 16.3578 21.2579 16.326 21.2914C16.2942 21.3249 16.2561 21.3519 16.2139 21.3707C16.1717 21.3896 16.1262 21.3999 16.08 21.4011C16.0526 21.402 16.0258 21.4022 15.9995 21.4022ZM15.8547 12.657L15.8567 12.7264C14.2661 12.7672 13.0051 14.0945 13.0459 15.6851L13.1169 18.4512C13.1366 19.2162 13.4594 19.942 14.0143 20.4689C14.5691 20.9959 15.3106 21.2809 16.0755 21.2613C16.1317 21.2597 16.1849 21.2359 16.2235 21.1952C16.2622 21.1544 16.2832 21.1001 16.2819 21.0439L16.074 12.9324C16.0725 12.8762 16.0487 12.8229 16.008 12.7842C15.9672 12.7455 15.9128 12.7245 15.8567 12.7258L15.8547 12.657Z" fill="#371A45"/>
<g opacity="0.35">
<path opacity="0.35" d="M16.2948 18.7925L16.3521 21.0428C16.3539 21.1176 16.3259 21.19 16.2744 21.2441C16.2228 21.2983 16.1519 21.3297 16.0772 21.3316C15.6892 21.3417 15.3031 21.2753 14.9408 21.1361C14.5786 20.9969 14.2473 20.7876 13.966 20.5204C13.6846 20.2531 13.4587 19.933 13.3011 19.5783C13.1435 19.2237 13.0573 18.8415 13.0475 18.4535L13.0176 17.288C13.2653 17.7992 13.6552 18.2282 14.1403 18.5237C14.6255 18.8192 15.1856 18.9686 15.7535 18.9542L16.0495 18.9465C16.1004 18.9451 16.15 18.9301 16.1932 18.903C16.2363 18.8759 16.2714 18.8377 16.2948 18.7925Z" fill="#371A45"/>
</g>
<path d="M15.9994 21.7205C15.1279 21.7198 14.2912 21.379 13.6674 20.7705C13.0435 20.162 12.6819 19.334 12.6595 18.4629L12.5888 15.697C12.5414 13.8542 14.0023 12.3165 15.8451 12.2691C16.0226 12.2647 16.1945 12.3309 16.3232 12.4532C16.4519 12.5755 16.5268 12.7438 16.5315 12.9213L16.7395 21.0328C16.7439 21.2103 16.6776 21.3822 16.5554 21.5109C16.4331 21.6396 16.2648 21.7145 16.0874 21.7192C16.058 21.7201 16.0287 21.7205 15.9994 21.7205ZM15.7588 13.0505C15.0981 13.0958 14.4804 13.3943 14.0343 13.8837C13.5882 14.3732 13.3481 15.016 13.3642 15.6781L13.4349 18.4442C13.452 19.1065 13.7244 19.7366 14.1952 20.2028C14.6661 20.669 15.2989 20.9351 15.9614 20.9455L15.7588 13.0505ZM15.8549 12.658L15.8649 13.0456L15.8549 12.658Z" fill="#371A45"/>
<path d="M29.355 30.4782C36.9915 30.4782 43.1822 24.2875 43.1822 16.651C43.1822 9.01449 36.9915 2.82385 29.355 2.82385C21.7185 2.82385 15.5278 9.01449 15.5278 16.651C15.5278 24.2875 21.7185 30.4782 29.355 30.4782Z" fill="white"/>
<path d="M29.3708 30.5475C29.1559 30.5475 28.9405 30.5426 28.7246 30.5329C25.9766 30.4097 23.3269 29.4742 21.1108 27.8447C18.8946 26.2153 17.2116 23.9651 16.2745 21.379C15.3375 18.7928 15.1886 15.9868 15.8466 13.3159C16.5047 10.6451 17.9401 8.22945 19.9714 6.37461C22.0026 4.51977 24.5384 3.30908 27.2578 2.89571C29.9773 2.48233 32.7583 2.88486 35.2489 4.05236C37.7396 5.21985 39.828 7.09986 41.25 9.45452C42.6719 11.8092 43.3635 14.5327 43.2372 17.2805L43.1678 17.2773L43.2372 17.2805C43.0782 20.8517 41.5479 24.224 38.965 26.6952C36.3821 29.1665 32.9455 30.5464 29.3708 30.5475ZM29.3397 2.89257C25.9011 2.89257 22.6337 4.15737 20.0777 6.49126C17.3643 8.96922 15.778 12.3563 15.6114 16.0266C15.4448 19.6969 16.7177 23.2137 19.1956 25.9274C21.6736 28.641 25.0606 30.2271 28.7309 30.3937C28.9443 30.4035 29.1572 30.4083 29.3697 30.4081C32.8084 30.4081 36.0758 29.1435 38.6317 26.8094C41.3454 24.3315 42.9315 20.9444 43.0981 17.2741C43.2647 13.6038 41.9911 10.0876 39.5138 7.37398C37.0365 4.66036 33.6488 3.07426 29.9785 2.90766C29.7652 2.89788 29.5522 2.89307 29.3397 2.89321V2.89257Z" fill="#371A45"/>
<g opacity="0.35">
<path opacity="0.35" d="M43.1221 15.3599C43.1822 15.9974 43.1975 16.6384 43.168 17.2781C42.8208 24.9069 36.3561 30.8099 28.7276 30.4644C21.0991 30.1188 15.195 23.6525 15.5413 16.0239C15.5511 15.8046 15.5662 15.5853 15.5866 15.3696C16.2126 22.1359 21.747 27.5746 28.727 27.8916C36.136 28.2274 42.4462 22.6688 43.1221 15.3599Z" fill="#371A45"/>
</g>
<path d="M29.3711 30.8663C29.1514 30.8663 28.9311 30.8613 28.7102 30.8514C25.8994 30.7253 23.1892 29.7683 20.9224 28.1016C18.6556 26.4349 16.9341 24.1332 15.9756 21.4879C15.0172 18.8426 14.8649 15.9724 15.538 13.2405C16.2111 10.5086 17.6794 8.03768 19.7571 6.14042C21.8348 4.24316 24.4286 3.00478 27.2102 2.58194C29.9919 2.15911 32.8365 2.57082 35.3841 3.765C37.9317 4.95917 40.0679 6.88214 41.5224 9.29064C42.9769 11.6991 43.6844 14.4849 43.5553 17.2956L43.1679 17.2779L43.5553 17.2956C43.3925 20.9485 41.8271 24.398 39.185 26.9258C36.5429 29.4536 33.0277 30.8651 29.3711 30.8663ZM29.3403 3.21129C25.9811 3.21129 22.7894 4.44677 20.2925 6.72668C17.6415 9.14748 16.092 12.4555 15.9294 16.0416C15.7669 19.6278 17.01 23.0626 19.4308 25.7133C21.8516 28.3641 25.1594 29.9138 28.7455 30.0766C28.9538 30.086 29.1622 30.0906 29.3694 30.0906C32.7286 30.0906 35.9204 28.8552 38.4172 26.5752C41.0682 24.1544 42.6177 20.8465 42.7803 17.2603C42.9428 13.6742 41.6997 10.2395 39.2791 7.58858C36.8586 4.93764 33.5504 3.38831 29.9638 3.22553C29.7559 3.21597 29.5475 3.21129 29.3403 3.21129Z" fill="#371A45"/>
<path d="M29.3711 30.8663C29.1514 30.8663 28.9311 30.8613 28.7102 30.8514C25.8994 30.7253 23.1892 29.7683 20.9224 28.1016C18.6556 26.4349 16.9341 24.1332 15.9756 21.4879C15.0172 18.8426 14.8649 15.9724 15.538 13.2405C16.2111 10.5086 17.6794 8.03768 19.7571 6.14042C21.8348 4.24316 24.4286 3.00478 27.2102 2.58194C29.9919 2.15911 32.8365 2.57082 35.3841 3.765C37.9317 4.95917 40.0679 6.88214 41.5224 9.29064C42.9769 11.6991 43.6844 14.4849 43.5553 17.2956L43.1679 17.2779L43.5553 17.2956C43.3925 20.9485 41.8271 24.398 39.185 26.9258C36.5429 29.4536 33.0277 30.8651 29.3711 30.8663ZM29.3403 3.21129C25.9811 3.21129 22.7894 4.44677 20.2925 6.72668C17.6415 9.14748 16.092 12.4555 15.9294 16.0416C15.7669 19.6278 17.01 23.0626 19.4308 25.7133C21.8516 28.3641 25.1594 29.9138 28.7455 30.0766C28.9538 30.086 29.1622 30.0906 29.3694 30.0906C32.7286 30.0906 35.9204 28.8552 38.4172 26.5752C41.0682 24.1544 42.6177 20.8465 42.7803 17.2603C42.9428 13.6742 41.6997 10.2395 39.2791 7.58858C36.8586 4.93764 33.5504 3.38831 29.9638 3.22553C29.7559 3.21597 29.5475 3.21129 29.3403 3.21129Z" fill="#371A45"/>
<path d="M43.1639 17.4228C43.0821 20.1273 42.1282 22.6117 40.5638 24.6438C39.391 26.1672 34.6814 28.7529 28.9657 28.6314C23.6662 28.5187 18.9313 25.548 17.852 23.9564C16.4134 21.8335 15.6114 19.296 15.6932 16.5913C15.9097 9.43432 22.1485 6.65354 29.7346 6.88304C37.3206 7.11254 43.3805 10.2658 43.1639 17.4228Z" fill="#371A45"/>
<path d="M29.303 29.1299C29.1706 29.1299 29.0376 29.1284 28.9031 29.1257C25.8741 29.0619 23.2846 28.1057 21.6453 27.3143C19.7857 26.4171 18.1816 25.2437 17.5592 24.3251C16.0336 22.0739 15.2703 19.4686 15.3513 16.7907C15.4051 15.0133 15.8281 13.4306 16.6084 12.087C17.3431 10.8224 18.3981 9.76054 19.7445 8.93137C22.2025 7.41773 25.641 6.68248 29.6874 6.80488C33.7338 6.92728 37.1217 7.86929 39.4836 9.5287C40.7776 10.4378 41.7665 11.5615 42.4232 12.8681C43.121 14.2566 43.4474 15.8618 43.3936 17.6394C43.3127 20.3169 42.393 22.8716 40.7342 25.0263C40.044 25.9229 38.4288 26.958 36.5188 27.7278C34.9113 28.376 32.3791 29.1299 29.303 29.1299ZM28.8253 7.36375C25.2587 7.36375 22.2363 8.06904 20.0448 9.41863C17.4098 11.0415 16.023 13.5275 15.9238 16.8075C15.8464 19.3641 16.5759 21.8524 18.0333 24.0031C18.4661 24.6419 19.7371 25.7571 21.8944 26.7977C23.4822 27.5627 25.9893 28.4901 28.9154 28.5523C32.075 28.6195 34.6777 27.8511 36.3046 27.196C38.4834 26.3179 39.8081 25.2898 40.2805 24.6763C41.8651 22.6176 42.7438 20.1781 42.8212 17.6213L43.1074 17.6301L42.8212 17.6213C42.9204 14.3414 41.6866 11.7761 39.1545 9.99684C36.8843 8.40182 33.6048 7.49572 29.6702 7.37672C29.3854 7.36807 29.1038 7.36375 28.8253 7.36375Z" fill="#371A45"/>
<g opacity="0.5">
<path opacity="0.5" d="M40.4042 16.8895C40.6852 15.5677 40.1365 14.331 39.1786 14.1274C38.2207 13.9238 37.2165 14.8304 36.9355 16.1522C36.6545 17.4741 37.2033 18.7108 38.1611 18.9144C39.119 19.118 40.1232 18.2114 40.4042 16.8895Z" fill="white"/>
</g>
<g opacity="0.5">
<path opacity="0.5" d="M37.2639 21.6345C37.4755 21.0515 37.2414 20.4316 36.741 20.25C36.2406 20.0684 35.6634 20.3937 35.4518 20.9768C35.2402 21.5598 35.4743 22.1797 35.9747 22.3613C36.4751 22.543 37.0523 22.2176 37.2639 21.6345Z" fill="white"/>
</g>
<g opacity="0.35">
<path opacity="0.35" d="M40.6383 10.8729C42.2688 12.526 43.194 14.7557 43.1073 17.6304C43.0255 20.3356 42.0711 22.8197 40.5078 24.8518C39.3348 26.3752 34.6245 28.9609 28.9091 28.8398C26.8904 28.7973 24.9553 28.34 23.2715 27.7012C30.3003 27.7012 36.0383 24.5254 37.4926 22.6359C39.4782 20.057 40.6888 16.9035 40.7921 13.4716C40.8217 12.6025 40.7702 11.7325 40.6383 10.8729Z" fill="#111A28"/>
</g>
<path d="M42.1162 11.6624C42.0321 11.6626 41.9508 11.6317 41.888 11.5757L41.854 11.546L41.8287 11.5081C39.5975 8.17189 35.1532 6.16101 29.635 5.99398C24.086 5.82611 19.5307 7.62449 17.1371 10.9276L17.1277 10.9406L17.1139 10.9563C17.0547 11.0235 16.9715 11.065 16.8822 11.0718C16.7928 11.0786 16.7044 11.0502 16.6356 10.9927C16.5669 10.9353 16.5233 10.8532 16.5142 10.7641C16.5051 10.6749 16.5312 10.5857 16.5869 10.5156C17.2338 9.62476 18.0319 8.82767 18.9599 8.14639C19.8632 7.48297 20.8966 6.92388 22.0312 6.48443C23.1423 6.05412 24.3576 5.73579 25.6437 5.53859C26.9187 5.34288 28.2678 5.26489 29.6561 5.30697C32.3973 5.39006 34.9879 5.94086 37.1501 6.90072C38.2619 7.39414 39.267 7.99594 40.1374 8.68954C41.0318 9.40248 41.7894 10.2168 42.3899 11.1103C42.4289 11.1612 42.4529 11.222 42.4591 11.2858C42.4653 11.3496 42.4536 11.4139 42.4252 11.4714C42.3968 11.5289 42.3529 11.5773 42.2985 11.6111C42.244 11.6449 42.1812 11.6628 42.1171 11.6628L42.1162 11.6624ZM16.8385 10.7115L16.8572 10.7278L16.8385 10.7115Z" fill="#371A45"/>
<g opacity="0.5">
<path opacity="0.5" d="M18.5933 21.1503C18.5933 21.1503 16.5905 14.0228 20.4807 11.3245C24.371 8.62618 29.845 8.80319 29.7062 9.15042C29.7062 9.15042 23.6013 10.4341 21.0851 15.1535C19.1446 18.793 18.5933 21.1503 18.5933 21.1503Z" fill="white"/>
</g>
<path d="M35.8831 38.7961C35.8168 38.7961 35.7525 38.773 35.7013 38.731C35.6501 38.6889 35.615 38.6303 35.6021 38.5653C35.5893 38.5003 35.5993 38.4328 35.6306 38.3744C35.6619 38.3159 35.7125 38.2702 35.7738 38.2449C35.8138 38.2285 36.7651 37.84 38.0353 37.6074C38.7854 37.4699 39.4913 37.4161 40.1328 37.4476C40.9493 37.4875 41.6656 37.6664 42.2617 37.9788C42.3273 38.015 42.3761 38.0754 42.3977 38.1472C42.4193 38.219 42.4118 38.2963 42.377 38.3627C42.3422 38.4291 42.2828 38.4792 42.2115 38.5022C42.1402 38.5253 42.0627 38.5195 41.9956 38.486C40.8056 37.8613 39.2469 37.9684 38.1494 38.1684C37.4128 38.3027 36.6905 38.5055 35.9916 38.7742C35.9572 38.7884 35.9203 38.7959 35.8831 38.7961Z" fill="#371A45"/>
<path d="M36.5558 47.0675C36.5618 47.1074 36.5662 47.1427 36.5707 47.1799C36.5752 47.2171 36.579 47.2534 36.5822 47.29C36.5892 47.3635 36.5941 47.437 36.5975 47.5108C36.6041 47.6584 36.6043 47.8083 36.596 47.957C36.5868 48.1103 36.5674 48.2628 36.538 48.4135C36.5044 48.5733 36.4536 48.7291 36.3865 48.878C36.3699 48.9142 36.346 48.9467 36.3163 48.9732C36.2865 48.9997 36.2516 49.0198 36.2136 49.0321C36.1757 49.0444 36.1357 49.0486 36.096 49.0446C36.0564 49.0406 36.018 49.0284 35.9833 49.0088C35.9486 48.9892 35.9184 48.9625 35.8945 48.9306C35.8707 48.8986 35.8537 48.8621 35.8448 48.8233C35.8358 48.7844 35.835 48.7441 35.8424 48.705C35.8499 48.6658 35.8654 48.6286 35.8879 48.5958C35.9555 48.4948 36.012 48.3868 36.0567 48.2738C36.1029 48.1511 36.141 48.0254 36.1708 47.8977C36.2003 47.7668 36.2231 47.6327 36.2398 47.4969C36.2483 47.4292 36.2551 47.3607 36.2611 47.2923C36.2639 47.2581 36.2658 47.2239 36.2677 47.1897C36.2696 47.1554 36.2707 47.1204 36.2715 47.0896V47.0838C36.2722 47.0478 36.2864 47.0133 36.3113 46.9873C36.3362 46.9612 36.37 46.9455 36.406 46.9433C36.4419 46.941 36.4774 46.9524 36.5054 46.9751C36.5334 46.9979 36.5518 47.0303 36.5569 47.066L36.5558 47.0675Z" fill="#371A45"/>
<path d="M10.4099 41.2429C10.3283 41.2092 10.2425 41.1866 10.1549 41.1757C10.0662 41.1639 9.97674 41.1577 9.88719 41.157C9.7973 41.1557 9.70656 41.1606 9.61604 41.1672C9.52551 41.1738 9.43478 41.1836 9.34446 41.1955C9.16341 41.2186 8.98321 41.2531 8.80408 41.2898C8.7144 41.3085 8.62508 41.3288 8.53611 41.3506C8.49163 41.3614 8.44743 41.3726 8.40351 41.3842C8.36101 41.3956 8.31469 41.408 8.27452 41.4201C8.22237 41.4354 8.16627 41.4294 8.11849 41.4035C8.0707 41.3776 8.03512 41.3338 8.01952 41.2817C8.01286 41.2598 8.00999 41.2369 8.01103 41.214L8.01273 41.1814L8.01528 41.1258L8.0174 41.0678L8.02038 40.9513C8.02186 40.8735 8.02186 40.7958 8.02038 40.7176C8.01766 40.5655 8.00638 40.4138 7.98659 40.263C7.97639 40.1897 7.96321 40.1181 7.94728 40.0505C7.93321 39.9871 7.91365 39.925 7.88884 39.865C7.87282 39.8227 7.84863 39.7839 7.81765 39.7509C7.80787 39.7422 7.80129 39.7403 7.7998 39.7411C7.79831 39.742 7.80171 39.7454 7.79831 39.7466C7.7967 39.747 7.79504 39.747 7.79342 39.7466C7.79048 39.7473 7.7875 39.7477 7.7845 39.7479C7.78092 39.7482 7.77736 39.7487 7.77388 39.7496C7.76973 39.7501 7.76561 39.7508 7.76155 39.7517C7.7522 39.7541 7.74306 39.7556 7.73223 39.7592C7.72139 39.7628 7.71098 39.7662 7.69929 39.77C7.64814 39.7894 7.59932 39.8144 7.55373 39.8446C7.44914 39.9134 7.35593 39.998 7.27748 40.0956C7.19494 40.1974 7.12502 40.3089 7.06923 40.4275C7.01264 40.5494 6.96885 40.6768 6.93854 40.8077C6.93131 40.841 6.92281 40.8738 6.91729 40.9078L6.90815 40.9581C6.90539 40.9751 6.90326 40.9923 6.90071 41.0093C6.89816 41.0263 6.89561 41.0431 6.8937 41.0603L6.8886 41.112L6.88584 41.1379L6.88435 41.1506V41.161L6.88308 41.2035C6.88082 41.3138 6.89875 41.4236 6.93599 41.5274C6.94682 41.5537 6.95724 41.5803 6.9685 41.6067L6.98805 41.646C6.99432 41.6594 7.00142 41.6725 7.0093 41.6851C7.02503 41.7108 7.03756 41.7376 7.05584 41.7628L7.08113 41.8015C7.0892 41.8145 7.09961 41.8268 7.10875 41.8396C7.18811 41.9452 7.27749 42.043 7.37565 42.1315C7.58967 42.3211 7.825 42.4851 8.0769 42.6203C8.10878 42.638 8.14065 42.655 8.17253 42.6713C8.20419 42.6876 8.23627 42.7036 8.26624 42.7174L8.27644 42.7223L8.27878 42.7233H8.27729H8.27474L8.30151 42.7342L8.35591 42.7554L8.46535 42.7979C8.53803 42.8268 8.61113 42.8549 8.68316 42.8819C8.7552 42.9089 8.8266 42.9354 8.89311 42.9592L8.90013 42.9618C8.99233 42.9958 9.06822 43.0634 9.11248 43.1512C9.15675 43.2389 9.16611 43.3401 9.13866 43.4345C9.11122 43.5288 9.04902 43.6093 8.9646 43.6596C8.88019 43.7099 8.77984 43.7263 8.6838 43.7055C8.59497 43.6843 8.5138 43.662 8.43135 43.639C8.3489 43.6161 8.2707 43.5901 8.19165 43.5649C8.15191 43.5521 8.11239 43.5396 8.07308 43.526L8.014 43.5047L7.98425 43.4943L7.96746 43.4879L7.95429 43.4826L7.93665 43.4754C7.89224 43.4571 7.85165 43.439 7.81043 43.4201C7.7692 43.4012 7.72946 43.3823 7.68973 43.3623C7.61025 43.323 7.53248 43.2805 7.45598 43.2348C7.37948 43.1892 7.30361 43.1428 7.22924 43.0929C7.0778 42.9919 6.93424 42.8796 6.79978 42.7569C6.65895 42.6279 6.53209 42.4845 6.42131 42.3289C6.30267 42.163 6.21035 41.9797 6.14761 41.7856C6.08354 41.582 6.05895 41.368 6.07515 41.1551L6.08238 41.076L6.08429 41.0565L6.08705 41.0393L6.09236 41.0051L6.10363 40.9369C6.10766 40.9141 6.11255 40.8914 6.11723 40.8686C6.1219 40.8459 6.12615 40.8232 6.13146 40.8006L6.14804 40.7327C6.15845 40.6876 6.17248 40.6428 6.18544 40.5979C6.29488 40.2405 6.47933 39.8967 6.74899 39.6157C6.88606 39.4718 7.04506 39.3504 7.2201 39.2562C7.31435 39.2059 7.41421 39.1669 7.5176 39.14C7.54522 39.1334 7.57264 39.1266 7.6026 39.1221C7.63256 39.1176 7.66189 39.1134 7.6927 39.1104C7.70757 39.1087 7.72479 39.1087 7.74072 39.1083C7.75729 39.1075 7.77389 39.1075 7.79045 39.1083C7.80766 39.1083 7.82509 39.1102 7.8423 39.1115C7.85951 39.1128 7.87885 39.1166 7.89712 39.1196C7.97706 39.1337 8.0534 39.1635 8.12174 39.2073C8.18408 39.2474 8.23924 39.2977 8.28494 39.3561C8.35573 39.449 8.40888 39.5542 8.44176 39.6663C8.50147 39.8627 8.51656 40.042 8.52251 40.2176C8.52669 40.3889 8.52109 40.5603 8.50572 40.7309C8.49878 40.8148 8.48993 40.8984 8.47916 40.9817C8.47385 41.0242 8.46854 41.0648 8.46195 41.1064L8.45196 41.1689L8.4407 41.2327L8.17784 40.994C8.22905 40.9855 8.27516 40.9789 8.3234 40.9728C8.37164 40.9666 8.41881 40.9602 8.46641 40.9547C8.56161 40.9434 8.65695 40.9338 8.75244 40.926C8.84792 40.9182 8.94362 40.9124 9.03952 40.9086C9.13536 40.9052 9.23078 40.9031 9.32768 40.9041C9.52121 40.9041 9.71446 40.9191 9.90567 40.949C10.0026 40.9643 10.0983 40.9867 10.1919 41.0159C10.2877 41.0449 10.379 41.0871 10.4631 41.1415C10.4744 41.1493 10.4825 41.161 10.4858 41.1744C10.489 41.1878 10.4872 41.2019 10.4806 41.2141C10.474 41.2262 10.4631 41.2354 10.4501 41.24C10.4371 41.2446 10.4229 41.2442 10.4101 41.2388L10.4099 41.2429Z" fill="#371A45"/>
</g>
</svg>
