<svg width="52" height="52" viewBox="0 0 52 52" fill="none" xmlns="http://www.w3.org/2000/svg">
<mask id="mask0_2_13450" style="mask-type:alpha" maskUnits="userSpaceOnUse" x="0" y="0" width="52" height="52">
<circle cx="26" cy="26" r="26" fill="#C4C4C4"/>
</mask>
<g mask="url(#mask0_2_13450)">
<path d="M65 -7H-15V73H65V-7Z" fill="#81B1FF"/>
<path d="M46.8933 44.278C46.8703 44.382 46.6369 44.4256 46.3069 44.4052C46.2256 44.4002 46.1448 44.4211 46.0762 44.4649C46.0075 44.5087 45.9545 44.5732 45.9247 44.649C45.8047 44.9568 45.6661 45.1502 45.5621 45.1272C45.4581 45.1042 45.4143 44.8706 45.4347 44.5408C45.4397 44.4595 45.4188 44.3787 45.375 44.31C45.3312 44.2413 45.2668 44.1882 45.1909 44.1584C44.8829 44.0384 44.6889 43.8998 44.7109 43.7956C44.7329 43.6914 44.9681 43.6472 45.2979 43.668C45.3793 43.6731 45.4602 43.6523 45.529 43.6084C45.5978 43.5646 45.6509 43.5001 45.6807 43.4242C45.8007 43.116 45.9393 42.9228 46.0433 42.9458C46.1473 42.9688 46.1911 43.2024 46.1705 43.5326C46.1655 43.614 46.1865 43.6949 46.2304 43.7636C46.2743 43.8323 46.3388 43.8853 46.4147 43.915C46.7233 44.0352 46.9165 44.1732 46.8933 44.278Z" fill="white"/>
<path d="M53.6201 8.91681C53.6201 9.04241 53.3625 9.15181 52.9779 9.21221C52.8831 9.22711 52.7954 9.27169 52.7275 9.33954C52.6597 9.40738 52.615 9.49501 52.6001 9.58981C52.5401 9.97441 52.4301 10.232 52.3045 10.232C52.1789 10.232 52.0693 9.97441 52.0091 9.58981C51.9941 9.49503 51.9494 9.40744 51.8816 9.3396C51.8137 9.27177 51.7261 9.22717 51.6313 9.21221C51.2465 9.15221 50.9883 9.04241 50.9883 8.91681C50.9883 8.79121 51.2453 8.68001 51.6301 8.62001C51.725 8.60509 51.8127 8.56049 51.8806 8.49261C51.9486 8.42473 51.9933 8.33707 52.0083 8.24221C52.0683 7.85721 52.1781 7.59961 52.3037 7.59961C52.4293 7.59961 52.5389 7.85721 52.5993 8.24221C52.6142 8.33707 52.6589 8.42474 52.7268 8.49262C52.7947 8.56051 52.8824 8.60511 52.9773 8.62001C53.3617 8.68001 53.6201 8.79041 53.6201 8.91681Z" fill="white"/>
<path d="M45.1336 27.9245C45.2777 27.7804 45.2777 27.5468 45.1336 27.4027C44.9895 27.2585 44.7559 27.2585 44.6118 27.4027C44.4676 27.5468 44.4677 27.7804 44.6118 27.9245C44.7559 28.0686 44.9895 28.0686 45.1336 27.9245Z" fill="white"/>
<path d="M35.4507 52.3035C35.6844 52.2425 35.8245 52.0036 35.7635 51.7698C35.7025 51.5361 35.4636 51.396 35.2299 51.457C34.9961 51.518 34.8561 51.7569 34.917 51.9906C34.978 52.2244 35.2169 52.3644 35.4507 52.3035Z" fill="white"/>
<path d="M1.7211 17.8949C1.79627 17.6173 1.63214 17.3312 1.35451 17.2561C1.07688 17.1809 0.79087 17.345 0.715699 17.6227C0.640528 17.9003 0.804657 18.1863 1.08229 18.2615C1.35992 18.3366 1.64593 18.1725 1.7211 17.8949Z" fill="white"/>
<path d="M46.6924 2.16558C46.8365 2.02148 46.8365 1.78784 46.6924 1.64374C46.5483 1.49964 46.3147 1.49963 46.1706 1.64374C46.0265 1.78784 46.0265 2.02148 46.1706 2.16559C46.3147 2.30969 46.5483 2.30969 46.6924 2.16558Z" fill="white"/>
<path d="M10.2476 3.7398C10.5323 3.69838 10.7294 3.43406 10.688 3.14943C10.6466 2.8648 10.3823 2.66763 10.0976 2.70906C9.81302 2.75048 9.61585 3.0148 9.65728 3.29943C9.6987 3.58406 9.96302 3.78122 10.2476 3.7398Z" fill="white"/>
<path d="M14.2492 12.8614C14.3692 12.775 14.3965 12.6077 14.3102 12.4876C14.2238 12.3676 14.0565 12.3403 13.9364 12.4266C13.8163 12.513 13.789 12.6803 13.8754 12.8004C13.9618 12.9205 14.1291 12.9478 14.2492 12.8614Z" fill="white"/>
<path d="M5.02696 23.8178C5.02962 23.8707 5.01654 23.9232 4.98937 23.9687C4.9622 24.0141 4.92215 24.0505 4.8743 24.0732C4.82646 24.0959 4.77295 24.1039 4.72055 24.0962C4.66815 24.0885 4.61921 24.0655 4.57992 24.0299C4.54063 23.9944 4.51275 23.9481 4.49981 23.8967C4.48688 23.8453 4.48945 23.7913 4.50723 23.7414C4.525 23.6915 4.55717 23.648 4.59966 23.6164C4.64215 23.5848 4.69307 23.5665 4.74596 23.5638C4.78109 23.562 4.81623 23.5672 4.84936 23.579C4.8825 23.5908 4.91298 23.609 4.93908 23.6326C4.96517 23.6562 4.98636 23.6847 5.00144 23.7165C5.01652 23.7483 5.02519 23.7827 5.02696 23.8178Z" fill="white"/>
<path d="M2.81287 41.7445C2.81284 41.7867 2.80029 41.8279 2.77682 41.863C2.75335 41.898 2.72002 41.9253 2.68103 41.9414C2.64205 41.9575 2.59917 41.9617 2.55781 41.9534C2.51646 41.9451 2.47849 41.9247 2.44871 41.8949C2.41893 41.865 2.39867 41.827 2.39051 41.7856C2.38234 41.7442 2.38663 41.7014 2.40284 41.6624C2.41904 41.6235 2.44643 41.5902 2.48154 41.5669C2.51665 41.5435 2.5579 41.531 2.60007 41.5311C2.65657 41.5313 2.71069 41.5538 2.75058 41.5938C2.79047 41.6338 2.81288 41.688 2.81287 41.7445Z" fill="white"/>
<path d="M33.3904 32.5716C33.3374 32.5716 33.2865 32.5505 33.249 32.513C33.2115 32.4755 33.1904 32.4246 33.1904 32.3716V23.827C33.1904 23.7739 33.2115 23.723 33.249 23.6855C33.2865 23.648 33.3374 23.627 33.3904 23.627C33.4435 23.627 33.4943 23.648 33.5319 23.6855C33.5694 23.723 33.5904 23.7739 33.5904 23.827V32.3716C33.5904 32.4246 33.5694 32.4755 33.5319 32.513C33.4943 32.5505 33.4435 32.5716 33.3904 32.5716Z" fill="#371A45"/>
<path d="M32.5799 32.2154C32.5325 32.2153 32.4867 32.1985 32.4506 32.1678C32.4145 32.1371 32.3904 32.0946 32.3827 32.0478L30.3283 19.5878C30.3197 19.5354 30.3323 19.4818 30.3632 19.4387C30.3941 19.3956 30.4409 19.3665 30.4932 19.3579C30.5456 19.3493 30.5992 19.3618 30.6423 19.3927C30.6855 19.4236 30.7145 19.4704 30.7231 19.5228L32.7773 31.9828C32.786 32.0351 32.7734 32.0887 32.7425 32.1318C32.7116 32.1749 32.6649 32.204 32.6125 32.2126C32.6018 32.2145 32.5909 32.2154 32.5799 32.2154Z" fill="#371A45"/>
<path d="M33.936 33.0924C33.9237 33.0925 33.9113 33.0913 33.8992 33.089C33.8471 33.0793 33.8009 33.0493 33.7709 33.0055C33.7409 32.9618 33.7295 32.908 33.7392 32.8558L36.5572 17.7358C36.5619 17.7099 36.5717 17.6851 36.5859 17.6629C36.6002 17.6408 36.6188 17.6216 36.6405 17.6067C36.6622 17.5917 36.6866 17.5812 36.7124 17.5757C36.7382 17.5702 36.7648 17.5698 36.7907 17.5747C36.8167 17.5795 36.8414 17.5894 36.8634 17.6039C36.8855 17.6183 36.9045 17.6369 36.9194 17.6587C36.9342 17.6805 36.9446 17.705 36.9499 17.7309C36.9552 17.7567 36.9554 17.7833 36.9504 17.8092L34.1324 32.9292C34.1238 32.975 34.0995 33.0164 34.0637 33.0462C34.0278 33.076 33.9826 33.0924 33.936 33.0924Z" fill="#371A45"/>
<path d="M17.3025 42.9066L17.2405 44.2066L17.2091 44.8694L16.6649 56.2964C16.6649 56.2964 15.8879 56.215 14.8547 56.0222C14.6525 55.9844 14.4407 55.9422 14.2229 55.8962C12.5997 55.5512 10.6499 54.9572 9.99491 54.0226C9.01491 52.6254 9.56751 46.4438 10.8707 44.1226C11.4677 43.0586 13.8767 42.8536 15.5707 42.8468C15.7601 42.8456 15.9407 42.8468 16.1085 42.8508C16.8165 42.8654 17.3025 42.9066 17.3025 42.9066Z" fill="white"/>
<g opacity="0.35">
<path opacity="0.35" d="M17.2399 44.2074L17.2085 44.8702L16.7765 53.9434L16.6643 56.2972L16.6173 56.292L16.5871 56.2884L16.5587 56.285C16.5511 56.285 16.5435 56.2832 16.5359 56.2826C16.5331 56.2826 16.5295 56.2826 16.5267 56.2814C16.5127 56.2798 16.4971 56.278 16.4809 56.2756C16.4771 56.2755 16.4734 56.2751 16.4697 56.2744L16.4273 56.2692C16.4073 56.267 16.3861 56.264 16.3641 56.2612C16.3483 56.2588 16.3315 56.257 16.3147 56.2548L16.2619 56.2478C16.2393 56.2448 16.2153 56.2414 16.1911 56.2384C16.1417 56.2316 16.0893 56.2246 16.0341 56.2164C15.9855 56.21 15.9341 56.2024 15.8809 56.1944C15.8193 56.185 15.7549 56.1758 15.6881 56.1654C15.4413 56.127 15.1589 56.08 14.8541 56.023C14.7941 56.012 14.7341 56.0004 14.6741 55.9888L14.5445 55.9632C14.4395 55.9432 14.3315 55.9202 14.2229 55.897C12.5991 55.552 10.6499 54.958 9.99551 54.0234C9.18891 52.873 9.41991 48.4784 10.2555 45.6664C9.87111 48.1526 9.88911 50.8612 10.4971 51.7284C10.7971 52.157 11.4139 52.5156 12.1531 52.812C12.4681 52.9382 12.7955 52.666 12.7385 52.332C12.7385 52.3294 12.7375 52.3266 12.7371 52.324C12.6349 51.7108 12.6063 51.0184 12.6947 50.2176C12.8839 48.5014 13.3997 46.0594 15.4841 44.2688C15.5325 44.226 16.3055 44.2144 17.2399 44.2074Z" fill="#371A45"/>
</g>
<path d="M16.969 56.651L16.632 56.6158C16.4022 56.5918 10.9936 56.0066 9.73199 54.2074C8.98899 53.1474 9.18059 50.2534 9.25719 49.3916C9.41239 47.6404 9.84439 45.2954 10.5906 43.9668C11.6078 42.1554 16.7464 42.538 17.329 42.5868L17.6364 42.613L16.969 56.651ZM15.674 43.1644C13.9218 43.1644 11.6572 43.3768 11.1498 44.2804C9.82479 46.6404 9.42339 52.6498 10.2572 53.8404C11.1036 55.0482 14.6782 55.7274 16.3618 55.9404L16.968 43.204C16.6088 43.18 16.161 43.1644 15.674 43.1644Z" fill="#371A45"/>
<path d="M10.58 49.4646L12.7976 49.8416C12.8939 49.8577 12.9821 49.9055 13.0483 49.9772C13.1144 50.049 13.1549 50.1407 13.1632 50.238C13.226 50.9708 13.2832 52.6706 12.5304 53.1594C11.9056 53.5654 10.9662 53.4228 10.4566 52.9024C9.88681 52.3204 9.98081 50.6674 10.0672 49.8528C10.0734 49.7928 10.0919 49.7347 10.1215 49.6822C10.1511 49.6296 10.1912 49.5837 10.2393 49.5473C10.2874 49.5109 10.3424 49.4848 10.4011 49.4706C10.4597 49.4563 10.5206 49.4543 10.58 49.4646Z" fill="white"/>
<g opacity="0.35">
<path opacity="0.35" d="M13.1637 50.2382C13.2267 50.9708 13.2837 52.6706 12.5307 53.1594C11.9057 53.5654 10.9667 53.4228 10.4569 52.9022C10.1067 52.544 10.0073 51.781 10.0029 51.0572C10.0699 51.4248 10.2005 51.7306 10.3791 51.94C11.4023 53.14 12.3635 51.9284 12.3635 51.9284C12.3635 51.9284 12.4799 52.2552 12.5945 52.2838C13.0745 52.4038 13.1157 50.8728 13.1191 50.0802C13.144 50.1295 13.1591 50.1832 13.1637 50.2382Z" fill="#371A45"/>
</g>
<path d="M11.6879 53.7136C11.1513 53.7136 10.6043 53.5106 10.2279 53.1264C9.60794 52.4942 9.62574 50.9788 9.74794 49.819C9.75892 49.7156 9.79098 49.6155 9.84213 49.525C9.89328 49.4344 9.96244 49.3553 10.0453 49.2925C10.1283 49.2297 10.2231 49.1846 10.3242 49.1599C10.4252 49.1352 10.5302 49.1314 10.6327 49.1488L12.8503 49.5258C13.0165 49.5541 13.1685 49.6366 13.2827 49.7605C13.3969 49.8845 13.4668 50.0428 13.4813 50.2106C13.5635 51.1706 13.5717 52.8642 12.7037 53.428C12.4085 53.62 12.0505 53.7136 11.6879 53.7136ZM10.5057 49.7784C10.4795 49.7786 10.454 49.7872 10.4331 49.803C10.42 49.813 10.409 49.8256 10.4009 49.8399C10.3928 49.8543 10.3878 49.8702 10.3861 49.8866C10.2391 51.2698 10.3539 52.3396 10.6861 52.6784C11.0999 53.1 11.8799 53.2 12.3563 52.891C12.7731 52.6202 12.9601 51.6142 12.8445 50.2654C12.8423 50.2389 12.8312 50.2138 12.8131 50.1942C12.795 50.1746 12.7709 50.1616 12.7445 50.1572L10.5267 49.78C10.5198 49.7789 10.5128 49.7784 10.5057 49.7784Z" fill="#371A45"/>
<path d="M11.3214 53.183C11.3426 53.1762 11.3632 53.1678 11.3832 53.158C11.407 53.1464 11.4312 53.1342 11.455 53.1198C11.5038 53.0916 11.5506 53.06 11.595 53.0252C11.6876 52.9539 11.7717 52.8723 11.8458 52.782C12.0008 52.594 12.122 52.3806 12.204 52.1512C12.289 51.9186 12.3426 51.6712 12.384 51.4184C12.4216 51.167 12.455 50.9112 12.4258 50.6558C12.4882 50.9066 12.4884 51.1694 12.4836 51.4276C12.4756 51.6856 12.4544 51.9476 12.3962 52.2076C12.338 52.4732 12.2343 52.7267 12.0896 52.957C12.0151 53.0761 11.9274 53.1865 11.8282 53.286C11.7775 53.3373 11.7234 53.3851 11.6662 53.429C11.6378 53.4516 11.6062 53.473 11.5756 53.4936C11.5406 53.5169 11.5039 53.5375 11.4658 53.5554L11.4488 53.5632C11.4247 53.5744 11.3987 53.5807 11.3722 53.5819C11.3456 53.583 11.3192 53.5789 11.2942 53.5698C11.2693 53.5607 11.2464 53.5468 11.2268 53.5289C11.2073 53.5109 11.1915 53.4893 11.1803 53.4653C11.1691 53.4412 11.1627 53.4152 11.1616 53.3887C11.1604 53.3621 11.1645 53.3357 11.1736 53.3107C11.1827 53.2858 11.1966 53.2629 11.2145 53.2433C11.2325 53.2238 11.2541 53.208 11.2782 53.1968C11.292 53.1907 11.3065 53.186 11.3214 53.183Z" fill="#371A45"/>
<path d="M14.2305 44.43C13.9623 44.39 13.6887 44.3564 13.4173 44.3272C13.1459 44.298 12.8733 44.2734 12.6021 44.2566C12.3309 44.2398 12.0599 44.2278 11.7925 44.2302C11.5251 44.2326 11.2599 44.2438 11.0141 44.2828C10.9725 44.2894 10.93 44.2877 10.8891 44.2779C10.8482 44.268 10.8096 44.2502 10.7756 44.2254C10.7415 44.2007 10.7127 44.1695 10.6907 44.1336C10.6687 44.0977 10.654 44.0578 10.6475 44.0162C10.6409 43.9746 10.6426 43.9322 10.6524 43.8913C10.6623 43.8503 10.6801 43.8118 10.7049 43.7777C10.7296 43.7437 10.7608 43.7148 10.7967 43.6929C10.8326 43.6709 10.8725 43.6562 10.9141 43.6496C10.9241 43.648 10.9341 43.6468 10.9445 43.6462C11.2477 43.6274 11.5343 43.6438 11.8185 43.6678C12.1027 43.6918 12.3807 43.7308 12.6585 43.7742C12.9363 43.8176 13.2095 43.8686 13.4825 43.924C13.7555 43.9794 14.0261 44.039 14.2989 44.1062C14.3403 44.1161 14.3763 44.1417 14.3994 44.1775C14.4224 44.2133 14.4307 44.2567 14.4226 44.2985C14.4144 44.3403 14.3904 44.3774 14.3556 44.4019C14.3208 44.4265 14.2778 44.4366 14.2357 44.4302L14.2305 44.43Z" fill="#371A45"/>
<path d="M35.1521 6.56384C35.1426 6.58505 35.1352 6.60717 35.1301 6.62985L35.1521 6.56384Z" fill="#D66B09"/>
<path d="M35.5548 13.5784L36.4418 14.667C36.4997 14.7379 36.5379 14.8227 36.5525 14.913C36.5672 15.0032 36.5579 15.0958 36.5254 15.1813C36.493 15.2668 36.4386 15.3423 36.3678 15.4001C36.2969 15.458 36.2121 15.4962 36.1218 15.5108L34.7354 15.7348C34.6451 15.7494 34.5525 15.74 34.467 15.7074C34.3814 15.6749 34.306 15.6204 34.2482 15.5495C34.1904 15.4785 34.1523 15.3936 34.1377 15.3033C34.1232 15.2129 34.1327 15.1203 34.1652 15.0348L34.6652 13.7222C34.6979 13.6371 34.7524 13.5621 34.8232 13.5046C34.894 13.4471 34.9787 13.4092 35.0687 13.3946C35.1587 13.3801 35.251 13.3894 35.3363 13.4216C35.4216 13.4539 35.4969 13.508 35.5548 13.5784Z" fill="#E25A5A"/>
<g opacity="0.35">
<path opacity="0.35" d="M35.5955 13.5663L36.4893 14.6495C36.5476 14.7201 36.5862 14.8048 36.6014 14.895C36.6165 14.9853 36.6076 15.0779 36.5756 15.1636C36.5436 15.2493 36.4896 15.3251 36.419 15.3834C36.3484 15.4416 36.2638 15.4802 36.1735 15.4953L34.7887 15.7277C34.6985 15.7429 34.6058 15.734 34.5201 15.702C34.4344 15.67 34.3586 15.616 34.3003 15.5454C34.2421 15.4749 34.2035 15.3902 34.1883 15.2999C34.1732 15.2097 34.1821 15.1171 34.2141 15.0313L34.7051 13.7157C34.7372 13.6301 34.7912 13.5543 34.8618 13.4961C34.9323 13.4379 35.017 13.3993 35.1072 13.3841C35.1974 13.369 35.29 13.3779 35.3758 13.4099C35.4615 13.4418 35.5373 13.4958 35.5955 13.5663Z" fill="#371A45"/>
</g>
<path d="M34.6476 16.0876C34.5075 16.0868 34.3697 16.0522 34.2459 15.9865C34.1221 15.9209 34.0161 15.8263 33.9368 15.7108C33.8576 15.5952 33.8075 15.4622 33.7908 15.3231C33.7742 15.184 33.7914 15.043 33.8412 14.912L34.3412 13.5994C34.3952 13.4571 34.4857 13.3316 34.6037 13.2354C34.7216 13.1392 34.8628 13.0758 35.013 13.0514C35.1632 13.0271 35.3172 13.0428 35.4595 13.0968C35.6017 13.1509 35.7272 13.2414 35.8234 13.3594L36.7106 14.448C36.8067 14.566 36.8701 14.7071 36.8944 14.8574C36.9187 15.0076 36.903 15.1616 36.8489 15.3038C36.7948 15.4461 36.7042 15.5715 36.5862 15.6677C36.4682 15.7638 36.327 15.8272 36.1768 15.8514L34.7906 16.0754C34.7433 16.0833 34.6955 16.0874 34.6476 16.0876ZM35.1516 13.7322C35.1419 13.7321 35.1322 13.7329 35.1226 13.7344C35.0921 13.739 35.0634 13.7517 35.0395 13.7712C35.0155 13.7907 34.9973 13.8163 34.9866 13.8452L34.4876 15.1578C34.4765 15.1866 34.4733 15.2178 34.4782 15.2482C34.4831 15.2787 34.4959 15.3073 34.5154 15.3312C34.5348 15.3551 34.5603 15.3734 34.5891 15.3844C34.618 15.3953 34.6492 15.3984 34.6796 15.3934L36.0658 15.1694C36.0962 15.1645 36.1248 15.1517 36.1487 15.1323C36.1726 15.1128 36.191 15.0874 36.2019 15.0587C36.2129 15.0299 36.2161 14.9987 36.2112 14.9683C36.2063 14.9379 36.1934 14.9093 36.174 14.8854L35.2868 13.7968C35.2707 13.7764 35.2501 13.76 35.2267 13.7488C35.2032 13.7376 35.1776 13.7319 35.1516 13.7322Z" fill="#371A45"/>
<path d="M27.0229 6.58106C27.8575 10.5077 32.7357 14.5611 35.2171 14.0339C37.6985 13.5067 40.5059 7.81886 39.6711 3.89246C38.8363 -0.0339392 35.3285 -2.61514 31.8357 -1.87254C28.3429 -1.12994 26.1881 2.65466 27.0229 6.58106Z" fill="#00D7ED"/>
<g opacity="0.7">
<path opacity="0.7" d="M27.0229 6.58113C27.0255 6.59273 27.0279 6.60433 27.0305 6.61613C26.6413 3.00073 28.7305 -0.315069 31.9759 -1.00387C35.4343 -1.73887 38.9081 0.784331 39.7857 4.64613C39.7618 4.39329 39.7235 4.14202 39.6711 3.89353C38.8363 -0.033069 35.3285 -2.61427 31.8357 -1.87187C28.3429 -1.12947 26.1881 2.65453 27.0229 6.58113Z" fill="white"/>
</g>
<g opacity="0.35">
<path opacity="0.35" d="M27.0229 6.58128C27.8577 10.5079 32.7357 14.5613 35.2169 14.0341C37.6981 13.5069 40.5059 7.81868 39.6711 3.89268C39.6633 3.85628 39.6557 3.82068 39.6473 3.78528C39.5859 6.93288 36.9823 10.8285 34.7747 11.2977C32.2935 11.8253 27.5915 8.60008 26.8989 5.34248C26.8789 5.24668 26.8609 5.15028 26.8455 5.05488C26.8563 5.56814 26.9157 6.07922 27.0229 6.58128Z" fill="#371A45"/>
</g>
<path d="M34.7666 14.424C33.5134 14.424 31.8502 13.624 30.274 12.2372C28.4234 10.6084 27.0816 8.5208 26.6846 6.653C25.8116 2.5464 28.09 -1.4298 31.7636 -2.2108C35.4372 -2.9918 39.1362 -0.286196 40.0092 3.82C40.4064 5.6878 40.0292 8.14 39.0018 10.3814C37.9982 12.5692 36.5756 14.098 35.2888 14.3716C35.1171 14.4072 34.942 14.4248 34.7666 14.424ZM33.04 -1.6538C32.6592 -1.65352 32.2795 -1.6133 31.907 -1.5338C28.607 -0.831996 26.567 2.7764 27.3606 6.51C28.1094 10.0328 32.351 13.7366 34.738 13.7368C34.8747 13.7377 35.011 13.7243 35.1448 13.6968C37.4192 13.2132 40.1262 7.6986 39.3326 3.9654C38.6302 0.658805 35.9388 -1.6538 33.04 -1.6538Z" fill="#371A45"/>
<g opacity="0.5">
<path opacity="0.5" d="M32.376 0.0469528C30.6542 0.201153 29.554 0.906953 28.8082 2.08055C28.0172 3.32475 28.4398 4.34155 29.3966 4.18695C30.3534 4.03235 30.4966 2.48975 32.634 1.45215C34.015 0.781352 33.735 -0.0748472 32.376 0.0469528Z" fill="white"/>
</g>
<path d="M30.2287 13.1285C30.2191 13.1497 30.2116 13.1718 30.2065 13.1945L30.2287 13.1285Z" fill="#D66B09"/>
<path d="M22.1 13.1458C22.9346 17.0722 27.813 21.1258 30.2942 20.5984C32.7754 20.071 35.583 14.3834 34.7484 10.457C33.9138 6.53058 30.4048 3.94958 26.912 4.69198C23.4192 5.43438 21.2646 9.21998 22.1 13.1458Z" fill="#FF2222"/>
<g opacity="0.7">
<path opacity="0.7" d="M22.1 13.1457C22.1026 13.1575 22.1052 13.1691 22.1076 13.1807C21.7186 9.56551 23.8076 6.24951 27.0532 5.56071C30.5114 4.82571 33.9852 7.34871 34.863 11.2105C34.8391 10.9577 34.8007 10.7064 34.7482 10.4579C33.9134 6.53131 30.4056 3.95031 26.9128 4.69271C23.42 5.43511 21.2644 9.21991 22.1 13.1457Z" fill="white"/>
</g>
<g opacity="0.35">
<path opacity="0.35" d="M22.2001 12.3458C23.0349 16.2724 27.9129 20.3258 30.3941 19.7988C32.8753 19.2718 35.6831 13.5832 34.8483 9.6572C34.8407 9.621 34.8329 9.5854 34.8247 9.5498C34.7631 12.6976 32.1595 16.593 29.9519 17.0624C27.4709 17.5898 22.7687 14.3652 22.0763 11.1072C22.0563 11.0114 22.0383 10.915 22.0227 10.8196C22.0335 11.3328 22.0929 11.8438 22.2001 12.3458Z" fill="#371A45"/>
</g>
<path d="M29.8431 20.9887C28.5901 20.9887 26.9267 20.1887 25.3505 18.8019C23.5001 17.1731 22.1583 15.0855 21.7611 13.2177C21.3399 11.2359 21.6315 9.22448 22.5825 7.55388C23.5411 5.87028 25.0533 4.73388 26.8403 4.35388C28.6273 3.97388 30.4711 4.39728 32.0315 5.54528C33.5799 6.68528 34.6645 8.40328 35.0859 10.3853C35.4829 12.2531 35.1059 14.7053 34.0783 16.9467C33.0747 19.1343 31.6521 20.6633 30.3655 20.9367C30.1936 20.9722 30.0185 20.9897 29.8431 20.9887ZM28.1257 4.90988C27.742 4.90981 27.3593 4.95003 26.9841 5.02988C25.3927 5.36808 24.0429 6.38588 23.1841 7.89568C22.3169 9.41868 22.0521 11.2575 22.4381 13.0737C23.1869 16.5963 27.4285 20.3001 29.8157 20.3005C29.9522 20.3013 30.0885 20.2879 30.2223 20.2605C32.4969 19.7769 35.2037 14.2623 34.4101 10.5289C34.0241 8.71288 33.0341 7.14088 31.6223 6.10228C30.5555 5.31768 29.3455 4.90988 28.1257 4.90988Z" fill="#371A45"/>
<g opacity="0.5">
<path opacity="0.5" d="M27.4523 6.4117C25.7305 6.5659 24.6303 7.2729 23.8847 8.4455C23.0935 9.6895 23.5163 10.7055 24.4731 10.5517C25.4299 10.3979 25.5731 8.8547 27.7103 7.8169C29.0915 7.1463 28.8113 6.2899 27.4523 6.4117Z" fill="white"/>
</g>
<path d="M39.2683 13.2516C39.2497 13.2655 39.2326 13.2813 39.2173 13.2988L39.2683 13.2516Z" fill="#D66B09"/>
<path d="M36.2468 19.595L36.501 20.975C36.5176 21.065 36.5102 21.1577 36.4795 21.2439C36.4489 21.3301 36.3961 21.4068 36.3264 21.4661C36.2568 21.5254 36.1727 21.5654 36.0827 21.5819C35.9928 21.5985 35.9 21.5911 35.8138 21.5604L34.4906 21.09C34.4044 21.0594 34.3278 21.0066 34.2685 20.9369C34.2092 20.8673 34.1692 20.7833 34.1527 20.6933C34.1361 20.6033 34.1435 20.5106 34.1742 20.4244C34.2048 20.3382 34.2576 20.2615 34.3272 20.2022L35.3962 19.2914C35.4659 19.2321 35.5501 19.1921 35.6401 19.1756C35.7302 19.1591 35.823 19.1667 35.9092 19.1974C35.9955 19.2282 36.0721 19.2812 36.1313 19.351C36.1906 19.4208 36.2304 19.5049 36.2468 19.595Z" fill="#3BD8E0"/>
<g opacity="0.35">
<path opacity="0.35" d="M36.2882 19.604L36.5508 20.984C36.5679 21.0739 36.561 21.1667 36.5309 21.2531C36.5008 21.3395 36.4485 21.4164 36.3792 21.4762C36.3099 21.5359 36.2261 21.5764 36.1362 21.5935C36.0464 21.6106 35.9536 21.6038 35.8672 21.5736L34.5412 21.1112C34.4548 21.0812 34.3778 21.0288 34.318 20.9596C34.2582 20.8903 34.2177 20.8065 34.2006 20.7166C34.1835 20.6267 34.1904 20.5339 34.2205 20.4475C34.2507 20.3611 34.303 20.2842 34.3724 20.2244L35.4358 19.3072C35.505 19.2475 35.5888 19.207 35.6786 19.1899C35.7685 19.1728 35.8612 19.1796 35.9476 19.2096C36.034 19.2397 36.1109 19.292 36.1707 19.3612C36.2305 19.4305 36.271 19.5142 36.2882 19.604Z" fill="#371A45"/>
</g>
<path d="M35.9916 21.9384C35.8916 21.9382 35.7922 21.9209 35.698 21.8872L34.3748 21.4168C34.2315 21.3658 34.104 21.2779 34.0053 21.1621C33.9067 21.0462 33.8402 20.9065 33.8127 20.7568C33.7851 20.6071 33.7974 20.4529 33.8484 20.3095C33.8994 20.1661 33.9872 20.0386 34.103 19.94L35.1718 19.0294C35.2877 18.9306 35.4275 18.8642 35.5771 18.8366C35.7268 18.809 35.8811 18.8214 36.0245 18.8723C36.168 18.9233 36.2954 19.0112 36.3941 19.127C36.4928 19.2429 36.5593 19.3827 36.5868 19.5324L36.841 20.9134C36.8639 21.0382 36.8591 21.1665 36.827 21.2893C36.795 21.412 36.7364 21.5263 36.6554 21.624C36.5745 21.7217 36.4731 21.8005 36.3584 21.8548C36.2437 21.9091 36.1185 21.9376 35.9916 21.9384ZM35.7316 19.5134C35.6905 19.5133 35.6508 19.5283 35.62 19.5556L34.551 20.4662C34.5273 20.4861 34.5094 20.512 34.4989 20.5411C34.4884 20.5703 34.4859 20.6017 34.4914 20.6321C34.497 20.6626 34.5106 20.691 34.5307 20.7146C34.5508 20.7381 34.5768 20.7559 34.606 20.7662L35.9292 21.2365C35.9583 21.2468 35.9895 21.2493 36.0198 21.2437C36.0501 21.2381 36.0784 21.2247 36.1018 21.2047C36.1253 21.1847 36.143 21.1589 36.1534 21.1299C36.1637 21.1009 36.1662 21.0696 36.1606 21.0394L35.9064 19.6594C35.9011 19.6289 35.8878 19.6005 35.8678 19.5769C35.8478 19.5534 35.8218 19.5357 35.7926 19.5256C35.7732 19.5182 35.7528 19.5141 35.732 19.5134H35.7316Z" fill="#371A45"/>
<path d="M32.1325 9.35635C30.9757 13.2002 33.3025 19.1006 35.7325 19.8318C38.1625 20.563 43.3587 16.927 44.5157 13.083C45.6727 9.23895 43.8377 5.28895 40.4185 4.25995C36.9993 3.23095 33.2895 5.51235 32.1325 9.35635Z" fill="#068FFF"/>
<g opacity="0.7">
<path opacity="0.7" d="M32.1325 9.35635L32.1223 9.39075C33.5201 6.03395 36.9473 4.13195 40.1239 5.08815C43.5095 6.10815 45.3413 9.99015 44.2531 13.7982C44.3538 13.565 44.4411 13.3263 44.5147 13.0832C45.6715 9.23995 43.8377 5.28895 40.4185 4.25995C36.9993 3.23095 33.2895 5.51235 32.1325 9.35635Z" fill="white"/>
</g>
<g opacity="0.35">
<path opacity="0.35" d="M32.1325 8.45648C30.9757 12.3005 33.3027 18.2003 35.7313 18.9319C38.1599 19.6635 43.3581 16.0267 44.5147 12.1833C44.5253 12.1479 44.5357 12.1129 44.5455 12.0777C42.9775 14.8079 38.8211 16.9707 36.6599 16.3203C34.2311 15.5893 31.6599 10.5003 32.6199 7.31088C32.6481 7.21708 32.6799 7.12408 32.7115 7.03308C32.4739 7.48818 32.2801 7.96478 32.1325 8.45648Z" fill="#371A45"/>
</g>
<path d="M36.4113 20.2684C36.1476 20.2714 35.8848 20.2358 35.6313 20.1628C34.3713 19.7828 33.0805 18.1428 32.2615 15.879C31.4227 13.5608 31.2503 11.0852 31.8015 9.25681C32.3855 7.31681 33.6089 5.69341 35.2461 4.68641C36.8963 3.67141 38.7687 3.40241 40.5181 3.92901C42.2675 4.45561 43.6799 5.71321 44.4961 7.47041C45.3055 9.21381 45.4297 11.2426 44.8457 13.1828C44.2953 15.0112 42.7857 16.9806 40.8057 18.4506C39.2365 19.6166 37.6329 20.2684 36.4113 20.2684ZM32.4633 9.45601C31.3633 13.1108 33.6045 18.8306 35.8311 19.5006C38.0577 20.1706 43.0837 16.6382 44.1837 12.9834C44.7187 11.2056 44.6069 9.35121 43.8689 7.76161C43.1375 6.18581 41.8765 5.05981 40.3187 4.59101C38.7609 4.12221 37.0879 4.36521 35.6081 5.27521C34.1153 6.19341 32.9985 7.67821 32.4633 9.45521V9.45601Z" fill="#371A45"/>
<g opacity="0.5">
<path opacity="0.5" d="M40.0651 6.02746C38.4815 5.33446 37.1769 5.42507 35.9589 6.09427C34.6669 6.80447 34.5485 7.89927 35.4617 8.22407C36.3749 8.54887 37.2427 7.26547 39.6153 7.38407C41.1487 7.46007 41.3151 6.57446 40.0651 6.02746Z" fill="white"/>
</g>
<path d="M32.9023 38.0566C32.2571 38.1876 31.7823 38.1028 31.7823 38.1028C31.7653 38.1334 31.7473 38.1646 31.7295 38.195C29.6133 41.9484 27.7805 44.1062 26.4441 45.3362C26.2375 45.5228 25.9953 45.6656 25.7321 45.7562C24.1121 46.3394 21.6499 45.3662 21.6499 45.3662L21.9379 44.0388L22.6379 40.804C22.6379 40.804 23.0003 40.6128 23.6209 40.164C23.6865 40.1156 23.7557 40.065 23.8271 40.0114C24.3717 39.6044 25.0771 39.0248 25.8889 38.2382C27.1749 36.9918 28.7289 35.2254 30.3327 32.7996C30.3327 32.7996 30.9973 31.6126 32.5785 32.0144C33.4215 32.2288 33.8599 32.5822 34.0013 33.0636C34.0013 33.0636 34.7967 32.9758 34.8191 34.1036C34.8399 35.0616 34.4225 37.7486 32.9023 38.0566Z" fill="white"/>
<g opacity="0.35">
<path opacity="0.35" d="M31.7287 38.1966C29.6125 41.9492 27.7805 44.1062 26.4441 45.3366C24.9797 46.6836 21.6499 45.3672 21.6499 45.3672L22.0033 43.7362C23.1045 43.9892 24.4737 43.5986 25.5709 43.1044C29.9161 41.1474 30.2849 38.1934 30.5457 36.7162C30.5799 37.1824 30.8247 37.7828 31.7287 38.1966Z" fill="#371A45"/>
</g>
<g opacity="0.35">
<path opacity="0.35" d="M32.2779 38.1284C32.2779 38.1284 30.9341 38.2454 30.6179 36.1766C30.6179 36.1766 31.0249 36.5382 32.2009 36.7916C33.3685 37.0432 34.4455 36.1578 34.4455 36.1578C34.4455 36.1578 33.9883 38.1722 32.2779 38.1284Z" fill="#371A45"/>
</g>
<path d="M22.889 40.8648C22.8165 40.865 22.7462 40.8407 22.6894 40.7958C22.6326 40.7509 22.5927 40.688 22.5763 40.6175C22.5598 40.547 22.5677 40.473 22.5988 40.4076C22.6298 40.3422 22.6821 40.2892 22.7472 40.2574C22.781 40.2406 26.163 38.5216 30.0602 32.6334C30.3388 32.1472 31.2298 31.3424 32.6586 31.705C33.4662 31.91 33.9766 32.249 34.2186 32.7412C34.4718 33.2562 34.4186 33.894 34.048 34.7482C33.6866 35.5838 32.9374 36.0366 32.3036 35.8C31.721 35.5828 31.2836 34.7632 31.8036 33.1146C31.8291 33.0336 31.8858 32.966 31.9612 32.9269C32.0365 32.8877 32.1244 32.88 32.2054 32.9056C32.2864 32.9311 32.3539 32.9878 32.3931 33.0632C32.4323 33.1385 32.4399 33.2264 32.4144 33.3074C32.0544 34.445 32.2208 35.086 32.5268 35.2C32.7868 35.2974 33.2172 35.0546 33.4598 34.4938C33.7452 33.8338 33.8052 33.3538 33.6432 33.0238C33.489 32.7102 33.1152 32.4818 32.5002 32.3258C31.1722 31.9886 30.6174 32.9474 30.6122 32.9574L30.5998 32.9774C26.5922 39.0362 23.1728 40.7614 23.0292 40.8318C22.9855 40.8533 22.9376 40.8646 22.889 40.8648Z" fill="#371A45"/>
<path d="M24.1087 47.2379C24.0307 47.2384 23.9553 47.2104 23.8964 47.1592C23.8376 47.1079 23.7996 47.037 23.7894 46.9597C23.7792 46.8824 23.7976 46.804 23.8411 46.7393C23.8846 46.6746 23.9503 46.628 24.0257 46.6083C24.0545 46.6001 27.1891 45.6297 31.5029 37.9463L31.6143 37.7479L31.8383 37.7879C31.8413 37.7879 32.2679 37.8589 32.8383 37.7433C34.1409 37.4789 34.5183 34.9523 34.5005 34.1113C34.4943 33.8141 34.4257 33.5969 34.3015 33.4835C34.2273 33.4168 34.1304 33.381 34.0307 33.3835C33.9891 33.3881 33.9469 33.3844 33.9066 33.3726C33.8664 33.3609 33.8289 33.3413 33.7962 33.3149C33.7636 33.2885 33.7366 33.256 33.7166 33.2191C33.6966 33.1822 33.6842 33.1418 33.6799 33.1001C33.6712 33.0153 33.6964 32.9305 33.7499 32.8642C33.8035 32.7979 33.8812 32.7555 33.9659 32.7463C34.1016 32.7361 34.2378 32.753 34.3669 32.7959C34.4959 32.8388 34.6152 32.9069 34.7177 32.9963C34.9881 33.2335 35.1303 33.6041 35.1403 34.0977C35.1643 35.2931 34.6499 38.0285 32.9653 38.3701C32.634 38.4378 32.2953 38.4622 31.9577 38.4427C27.5325 46.2513 24.3271 47.1899 24.1919 47.2263C24.1648 47.2338 24.1369 47.2377 24.1087 47.2379Z" fill="#371A45"/>
<path d="M31.7826 38.4233C31.7677 38.4232 31.7529 38.4222 31.7382 38.4203C31.1732 38.3421 30.7622 38.0915 30.5162 37.6753C30.1222 37.0085 30.1918 35.9673 30.7232 34.5807C31.2396 33.2333 31.9154 33.1825 32.0432 33.1861L32.026 33.8261C32.0336 33.8271 32.0413 33.8271 32.049 33.8261C32.0454 33.8261 31.676 33.8861 31.3216 34.8103C30.8764 35.9715 30.7864 36.8735 31.068 37.3503C31.2114 37.5931 31.4594 37.7359 31.8264 37.7867C31.9073 37.797 31.9812 37.8379 32.033 37.9009C32.0848 37.964 32.1106 38.0444 32.105 38.1258C32.0995 38.2072 32.063 38.2834 32.0032 38.3389C31.9433 38.3943 31.8645 38.4248 31.783 38.4241L31.7826 38.4233Z" fill="#371A45"/>
<path d="M25.7461 54.7432C25.4151 56.4432 24.6389 60.4246 22.2995 62.7126C22.2995 62.7126 22.4833 65.7688 21.2153 66.8686C20.3499 67.6194 17.8303 67.0842 17.2969 65.3698C16.8369 63.8914 17.5097 61.6122 17.8891 60.9312C18.7381 59.4096 19.3453 57.4808 19.3401 56.6112L18.3081 56.562C17.6801 58.1976 16.1081 60.6204 14.8703 61.724C14.8703 61.724 14.8103 64.4668 13.0503 65.5732C11.7743 66.3762 9.30668 65.9162 8.82388 63.7844C8.48608 62.2932 9.38708 60.1934 9.90208 59.3882C10.7175 58.115 12.2087 55.117 12.8033 52.8742C12.8433 52.7202 12.8807 52.5692 12.9127 52.4226C13.0467 51.8094 13.1791 51.1844 13.3079 50.569C13.4253 50.005 13.5407 49.449 13.6501 48.9156C13.9619 47.3992 14.2327 46.0716 14.4165 45.3016C14.4165 45.3016 14.4991 44.7516 14.6405 44.0052C14.7507 43.4264 14.8965 42.7292 15.0683 42.0788C15.3623 40.9648 15.7313 39.9908 16.1221 39.9908H22.6381C23.0155 39.9908 23.3407 40.0548 23.6211 40.165C24.2011 40.3904 24.5915 40.8094 24.8519 41.2566C25.3251 42.0654 25.3765 42.9636 25.3765 42.9636C25.4687 43.7516 25.6035 44.7026 25.7315 45.757C26.0549 48.42 26.3317 51.7422 25.7461 54.7432Z" fill="white"/>
<g opacity="0.35">
<path opacity="0.35" d="M14.072 50.6574C14.0534 50.746 14.0348 50.8344 14.0154 50.923C13.765 50.8372 13.5272 50.7181 13.3086 50.5688C13.31 50.5628 13.3108 50.557 13.3122 50.551L14.072 50.6574Z" fill="#371A45"/>
</g>
<path d="M14.521 45.3262C14.2274 47.7494 13.7644 50.142 13.2396 52.5294C13.1022 53.146 12.9086 53.7374 12.695 54.318C12.4814 54.8986 12.2468 55.4688 11.9982 56.0318C11.7496 56.5948 11.4856 57.1504 11.2088 57.6998C10.932 58.2492 10.6416 58.7918 10.3186 59.3248L10.0826 59.709L9.97719 59.898L9.87719 60.0928C9.74779 60.3556 9.63219 60.627 9.52779 60.902C9.42339 61.177 9.33699 61.4582 9.26079 61.7402C9.18854 62.0206 9.13462 62.3055 9.09939 62.593C9.07179 62.8768 9.06079 63.1608 9.09119 63.433C9.12519 63.701 9.19119 63.9694 9.30459 64.213C9.41669 64.4563 9.56986 64.6784 9.75739 64.8698C9.94755 65.0609 10.1684 65.2188 10.4108 65.337C10.9057 65.5777 11.4601 65.6688 12.006 65.599C12.271 65.5663 12.5282 65.4875 12.766 65.3662C12.8236 65.3352 12.8796 65.3011 12.9336 65.2642L13.0178 65.2074L13.0978 65.145C13.2049 65.0606 13.3059 64.9686 13.3998 64.8698C13.5881 64.6645 13.7515 64.4376 13.8866 64.194C14.0234 63.9434 14.1378 63.6813 14.2284 63.4106C14.3205 63.136 14.3935 62.8553 14.4466 62.5706C14.474 62.4276 14.4958 62.2836 14.5138 62.1394C14.5318 61.9952 14.5448 61.8454 14.5496 61.716L14.5548 61.576L14.6566 61.4836C15.021 61.1538 15.3566 60.7716 15.674 60.375C15.9914 59.9784 16.2886 59.5606 16.5702 59.1334C16.8518 58.7062 17.1156 58.2668 17.3594 57.8186C17.6032 57.3704 17.8266 56.912 18.0078 56.4464L18.092 56.2302L18.322 56.2412L19.3548 56.2902L19.6654 56.305L19.6598 56.6084C19.6514 57.0472 19.569 57.4324 19.474 57.817C19.379 58.2016 19.2604 58.573 19.1302 58.941C18.8687 59.6775 18.5486 60.3919 18.173 61.0774C18.0176 61.3704 17.893 61.7272 17.7906 62.0774C17.6876 62.431 17.6074 62.791 17.5506 63.155C17.4924 63.5145 17.4632 63.8781 17.4632 64.2424C17.4658 64.601 17.5032 64.9572 17.6032 65.2792C17.7063 65.5926 17.8857 65.8754 18.1254 66.1022C18.3672 66.3344 18.6654 66.517 18.9854 66.6486C19.3052 66.7805 19.6452 66.857 19.9908 66.8748C20.1572 66.8835 20.324 66.8735 20.4882 66.845C20.647 66.8168 20.7952 66.765 20.9114 66.6922C20.9399 66.675 20.9671 66.6557 20.9926 66.6344C21.019 66.6144 21.0488 66.582 21.077 66.5568C21.1342 66.5001 21.1871 66.4392 21.2352 66.3746C21.3363 66.2394 21.4234 66.0943 21.4952 65.9416C21.6412 65.627 21.7454 65.2816 21.8182 64.9248C21.8909 64.5646 21.9394 64.2 21.9634 63.8334C21.9895 63.4663 21.9949 63.098 21.9796 62.7304L21.973 62.583L22.0754 62.483C22.6618 61.9068 23.1458 61.2212 23.5492 60.4894C23.9526 59.7576 24.278 58.9756 24.5492 58.1754C24.8186 57.3706 25.0425 56.5514 25.22 55.7216C25.2656 55.5136 25.3093 55.3048 25.351 55.0952C25.3926 54.8858 25.4362 54.6738 25.4688 54.467C25.5014 54.2602 25.542 54.0516 25.5716 53.8426L25.6484 53.213C25.7315 52.3683 25.7712 51.5199 25.7674 50.6712C25.7626 49.8202 25.7118 48.9682 25.6344 48.118L25.3876 45.5632C25.3502 45.1356 25.3138 44.7072 25.292 44.2762C25.2702 43.8452 25.2552 43.4118 25.272 42.9762C25.2729 42.9504 25.2829 42.9259 25.3003 42.9069C25.3177 42.888 25.3413 42.8759 25.3669 42.8727C25.3924 42.8696 25.4182 42.8757 25.4396 42.89C25.4611 42.9042 25.4767 42.9256 25.4838 42.9504V42.9514C25.6026 43.3696 25.6986 43.7896 25.7872 44.2114C25.8758 44.6332 25.9516 45.0584 26.02 45.4848C26.1542 46.3378 26.2516 47.1988 26.307 48.0648C26.3624 48.9308 26.4012 49.7978 26.407 50.668C26.4109 51.5403 26.37 52.4124 26.2844 53.2806L26.2044 53.9322C26.174 54.149 26.133 54.3648 26.0978 54.5812C26.0626 54.7976 26.0198 55.0088 25.9778 55.2212C25.9358 55.4336 25.8912 55.6458 25.8446 55.8582C25.6623 56.7115 25.4322 57.5539 25.1554 58.3814C24.8754 59.21 24.5354 60.0244 24.1092 60.7994C23.683 61.5744 23.1654 62.3096 22.5226 62.9414L22.6184 62.6934C22.6355 63.0886 22.6299 63.4845 22.6016 63.8792C22.5758 64.2746 22.5234 64.6678 22.4448 65.0562C22.3648 65.4474 22.2492 65.8382 22.0736 66.2162C21.9829 66.4092 21.8728 66.5925 21.745 66.7632C21.6788 66.8515 21.6062 66.9348 21.5278 67.0126C21.4856 67.0514 21.4502 67.0894 21.4016 67.1284C21.3538 67.1681 21.3031 67.2042 21.25 67.2366C21.0521 67.3568 20.833 67.4383 20.6046 67.4766C20.3924 67.5141 20.1767 67.5275 19.9616 67.5166C19.5429 67.4955 19.1308 67.4031 18.7432 67.2434C18.3578 67.0844 17.9924 66.8634 17.6832 66.566C17.374 66.2686 17.1262 65.8932 16.9938 65.4738C16.867 65.0652 16.827 64.6538 16.8232 64.2498C16.823 63.8503 16.8548 63.4515 16.9184 63.0572C16.9796 62.6666 17.0658 62.2803 17.1764 61.9008C17.2892 61.5198 17.4126 61.15 17.6144 60.7674C17.9728 60.1128 18.2782 59.4306 18.5278 58.7274C18.6522 58.3758 18.7636 58.0196 18.854 57.662C18.9444 57.3044 19.014 56.9386 19.0204 56.6128L19.3252 56.931L18.2926 56.8818L18.6068 56.6768C18.4104 57.1812 18.1758 57.659 17.9232 58.1254C17.6706 58.5918 17.3976 59.0454 17.1062 59.4864C16.8148 59.9274 16.5062 60.3588 16.1758 60.775C15.8454 61.1912 15.4912 61.5936 15.0838 61.9626L15.1908 61.7308C15.1844 61.9058 15.1696 62.057 15.1508 62.2178C15.132 62.3786 15.1072 62.5334 15.0774 62.6898C15.019 63.004 14.9388 63.3138 14.8374 63.617C14.7344 63.9244 14.6043 64.222 14.4486 64.5064C14.2879 64.7962 14.0932 65.0659 13.8686 65.3096C13.6358 65.5576 13.3659 65.7681 13.0686 65.9334C12.7631 66.0906 12.4323 66.1928 12.0914 66.2352C11.4201 66.3216 10.7382 66.2095 10.13 65.9126C9.82358 65.7628 9.54439 65.5629 9.30398 65.321C9.06378 65.0764 8.86757 64.7922 8.72398 64.481C8.58138 64.1706 8.49878 63.841 8.45658 63.5058C8.41958 63.172 8.43319 62.8442 8.46479 62.5222C8.5033 62.2046 8.56269 61.8899 8.64259 61.5802C8.72318 61.2746 8.8191 60.9733 8.92999 60.6774C9.04179 60.3828 9.16519 60.093 9.30519 59.8092L9.41378 59.5972L9.53079 59.387L9.77299 58.9924C10.0818 58.4832 10.366 57.9492 10.6386 57.4124C10.9112 56.8756 11.1674 56.327 11.4064 55.7724C11.6454 55.2178 11.871 54.6596 12.0698 54.0934C12.2707 53.5331 12.4384 52.9615 12.572 52.3816C12.8264 51.1946 13.0812 50.0026 13.352 48.8146C13.4884 48.2208 13.6296 47.6274 13.7874 47.0372C13.9452 46.447 14.1098 45.8572 14.3156 45.2772C14.3245 45.2523 14.3422 45.2316 14.3654 45.2189C14.3886 45.2063 14.4156 45.2027 14.4413 45.2087C14.467 45.2147 14.4896 45.23 14.5047 45.2517C14.5199 45.2733 14.5265 45.2997 14.5234 45.326L14.521 45.3262Z" fill="#371A45"/>
<path d="M30.232 48.3816C29.5338 48.3816 29.0424 48.1256 29.032 48.12C28.9853 48.0948 28.9506 48.0521 28.9354 48.0013C28.9202 47.9504 28.9258 47.8957 28.951 47.849C28.9762 47.8023 29.0189 47.7676 29.0697 47.7524C29.1206 47.7372 29.1753 47.7428 29.222 47.768C29.302 47.8104 31.2078 48.7858 32.754 46.306C33.6352 44.893 33.1268 43.4494 32.5886 41.921C32.1526 40.6824 31.7016 39.401 31.9968 38.086C32.0095 38.0354 32.0415 37.9918 32.0859 37.9644C32.1303 37.9371 32.1836 37.9281 32.2345 37.9395C32.2854 37.9509 32.3298 37.9818 32.3583 38.0254C32.3868 38.0691 32.3971 38.1222 32.387 38.1734C32.117 39.377 32.5486 40.6028 32.966 41.7882C33.5118 43.3386 34.0762 44.9416 33.0934 46.5178C32.1496 48.0308 31.0492 48.3816 30.232 48.3816Z" fill="#371A45"/>
<path d="M27.1455 50.582C27.189 49.9647 26.7239 49.4291 26.1067 49.3856C25.4894 49.3421 24.9538 49.8072 24.9103 50.4245C24.8668 51.0417 25.3319 51.5774 25.9492 51.6209C26.5664 51.6643 27.1021 51.1992 27.1455 50.582Z" fill="white"/>
<g opacity="0.35">
<path opacity="0.35" d="M27.1503 50.5229C27.1482 50.67 27.1171 50.8152 27.0589 50.9503C27.0006 51.0854 26.9163 51.2076 26.8108 51.3102C26.7054 51.4127 26.5807 51.4934 26.444 51.5477C26.3073 51.602 26.1613 51.6289 26.0142 51.6268C25.8671 51.6247 25.7219 51.5936 25.5868 51.5354C25.4517 51.4772 25.3294 51.3929 25.2269 51.2874C25.1244 51.1819 25.0437 51.0572 24.9894 50.9205C24.935 50.7838 24.9082 50.6378 24.9103 50.4907C24.9123 50.325 24.9514 50.1619 25.0249 50.0133C25.1128 50.2065 25.2537 50.3707 25.4314 50.4868C25.609 50.6029 25.8159 50.6662 26.0281 50.6693C26.2403 50.6723 26.449 50.615 26.6299 50.5041C26.8108 50.3931 26.9564 50.233 27.0499 50.0425C27.1189 50.1931 27.1532 50.3573 27.1503 50.5229Z" fill="#371A45"/>
</g>
<path d="M26.0309 51.8774H26.0109C25.642 51.8747 25.2892 51.726 25.0298 51.4637C24.7703 51.2015 24.6254 50.8471 24.6267 50.4782C24.628 50.1093 24.7755 49.756 25.0368 49.4956C25.2981 49.2352 25.652 49.089 26.0209 49.089C26.3898 49.089 26.7437 49.2352 27.005 49.4956C27.2663 49.756 27.4138 50.1093 27.4151 50.4782C27.4164 50.8471 27.2715 51.2015 27.012 51.4637C26.7526 51.726 26.3998 51.8747 26.0309 51.8774ZM26.0309 49.6374C25.8046 49.6424 25.5891 49.7355 25.4303 49.8968C25.2714 50.0582 25.1817 50.275 25.1801 50.5014C25.1785 50.7278 25.2652 50.9459 25.4218 51.1095C25.5783 51.273 25.7925 51.3691 26.0187 51.3774H26.0313C26.259 51.3744 26.4765 51.2822 26.6371 51.1207C26.7976 50.9592 26.8885 50.7412 26.8901 50.5134C26.8917 50.2857 26.804 50.0664 26.6458 49.9026C26.4875 49.7388 26.2714 49.6436 26.0437 49.6374H26.0309Z" fill="#371A45"/>
<g opacity="0.35">
<path opacity="0.35" d="M25.1001 53.1748C25.1128 53.4767 25.0055 53.7714 24.8017 53.9944C24.5979 54.2174 24.3141 54.3508 24.0123 54.3652L18.7217 54.6034C18.4198 54.6163 18.125 54.5091 17.9019 54.3053C17.6788 54.1014 17.5455 53.8175 17.5311 53.5156L17.5163 53.177C15.5163 53.5528 14.1819 53.3504 13.4795 53.1554C12.8053 55.3058 11.4979 57.9058 10.7531 59.068C10.2381 59.8732 9.3369 61.973 9.6747 63.4642C10.0639 65.1842 11.7449 65.8156 13.0501 65.5738C11.7731 66.376 9.3079 65.9154 8.8251 63.7842C8.4873 62.293 9.3883 60.1932 9.9033 59.388C10.7187 58.1148 12.2099 55.1168 12.8045 52.874C12.8445 52.72 12.8819 52.569 12.9139 52.4224C13.0479 51.8092 13.1803 51.1842 13.3091 50.5688C13.5277 50.7181 13.7655 50.8372 14.0159 50.923C15.2727 51.371 16.9589 51.2474 17.4269 51.202L17.4041 50.7C17.3909 50.398 17.498 50.103 17.702 49.8798C17.9059 49.6567 18.1901 49.5234 18.4921 49.5094L23.7819 49.2714C24.0839 49.2585 24.3787 49.3656 24.6018 49.5695C24.8249 49.7734 24.9582 50.0573 24.9725 50.3592L25.0725 52.5892L25.1001 53.1748Z" fill="#371A45"/>
</g>
<path d="M24.41 53.4723L19.12 53.7105C18.818 53.7233 18.5233 53.616 18.3002 53.4122C18.0771 53.2084 17.9438 52.9245 17.9294 52.6227L17.8028 49.8071C17.7917 49.5446 17.8713 49.2864 18.0282 49.0757C18.185 48.865 18.4096 48.7147 18.6642 48.6501C18.7383 48.631 18.8143 48.6198 18.8908 48.6167L24.18 48.3783C24.482 48.3653 24.7768 48.4725 24.9999 48.6764C25.2231 48.8803 25.3564 49.1643 25.3706 49.4663L25.4706 51.6961L25.4972 52.2817C25.5099 52.5835 25.4028 52.8781 25.1991 53.1011C24.9954 53.3242 24.7117 53.4576 24.41 53.4723Z" fill="white"/>
<g opacity="0.35">
<path opacity="0.35" d="M24.41 53.4721L19.12 53.7103C18.818 53.7231 18.5233 53.6159 18.3002 53.4121C18.0771 53.2082 17.9438 52.9244 17.9294 52.6225L17.8028 49.8069C17.7917 49.5445 17.8713 49.2862 18.0282 49.0756C18.185 48.8649 18.4096 48.7146 18.6642 48.6499C18.9736 48.8359 19.1702 48.9549 19.1702 48.9549C19.5302 51.2033 20.2238 52.3011 23.0322 52.2205C24.2446 52.1855 25.0008 51.9663 25.4722 51.6959L25.4988 52.2815C25.5115 52.5836 25.4041 52.8784 25.2001 53.1015C24.9961 53.3246 24.712 53.4579 24.41 53.4721Z" fill="#371A45"/>
</g>
<path d="M19.0671 53.9619C18.7096 53.9608 18.3662 53.8223 18.1079 53.5752C17.8495 53.328 17.696 52.9911 17.6791 52.6339L17.5521 49.8181C17.536 49.4499 17.6666 49.0903 17.9152 48.8181C18.1639 48.546 18.5103 48.3836 18.8785 48.3665L24.1689 48.1283C24.537 48.1126 24.8964 48.2433 25.1684 48.4919C25.4404 48.7404 25.603 49.0865 25.6205 49.4545L25.7473 52.2703C25.763 52.6385 25.6323 52.9979 25.3837 53.2699C25.1352 53.5419 24.789 53.7045 24.4209 53.7219L19.1307 53.9599C19.1095 53.9613 19.0881 53.9619 19.0671 53.9619ZM24.2319 48.6267C24.2183 48.6267 24.2049 48.6267 24.1919 48.6267L18.9015 48.8651C18.6657 48.8761 18.4439 48.9801 18.2847 49.1544C18.1254 49.3286 18.0418 49.5589 18.0521 49.7947L18.1791 52.6105C18.1906 52.8461 18.2948 53.0676 18.4689 53.2267C18.6431 53.3858 18.873 53.4697 19.1087 53.4599L24.3989 53.2215C24.6345 53.21 24.856 53.1058 25.0151 52.9317C25.1742 52.7576 25.258 52.5276 25.2483 52.2919L25.1215 49.4761C25.1102 49.2476 25.0117 49.032 24.8463 48.8738C24.6809 48.7156 24.4612 48.6268 24.2323 48.6257L24.2319 48.6267Z" fill="#371A45"/>
<path d="M24.6214 53.4418C24.5522 53.4594 24.4813 53.4695 24.41 53.4722L19.12 53.7104C18.9012 53.7198 18.6843 53.666 18.4952 53.5556C18.3061 53.4452 18.1528 53.2827 18.0534 53.0876C17.9792 52.9434 17.9371 52.7847 17.9302 52.6226L17.8734 51.3718L17.8548 50.959L17.8028 49.807C17.7901 49.5051 17.8974 49.2105 18.1013 48.9875C18.3051 48.7644 18.5889 48.6311 18.8908 48.6166L20.034 48.5654C19.7757 48.6268 19.5468 48.7761 19.3866 48.9878C19.2264 49.1994 19.1448 49.4602 19.1558 49.7254L19.224 51.2454L19.2826 52.5408C19.2971 52.8426 19.4305 53.1264 19.6535 53.3302C19.8765 53.534 20.1711 53.6414 20.473 53.6288L24.6214 53.4418Z" fill="white"/>
<g opacity="0.35">
<path opacity="0.35" d="M24.6214 53.4418C24.5522 53.4593 24.4813 53.4695 24.41 53.4722L19.12 53.7104C18.8181 53.7233 18.5234 53.6161 18.3004 53.4122C18.0774 53.2083 17.9443 52.9244 17.9302 52.6226L17.854 50.96C18.0002 51.248 18.2556 51.598 18.6398 51.6186C18.8506 51.6304 19.0504 51.4702 19.2232 51.2472L19.2818 52.5426C19.2964 52.8443 19.4297 53.1281 19.6527 53.3319C19.8758 53.5358 20.1703 53.6431 20.4722 53.6306L24.6214 53.4418Z" fill="#371A45"/>
</g>
<path d="M19.0663 53.962C18.709 53.9607 18.3657 53.8221 18.1076 53.575C17.8495 53.3278 17.6962 52.991 17.6793 52.634L17.5525 49.8182C17.5368 49.4501 17.6675 49.0907 17.9161 48.8187C18.1646 48.5467 18.5107 48.3841 18.8787 48.3666L20.0215 48.3152L20.0903 48.8082C19.8885 48.8559 19.7095 48.9725 19.5844 49.138C19.4593 49.3034 19.3957 49.5073 19.4047 49.7146L19.5317 52.5304C19.5431 52.7658 19.647 52.9872 19.8209 53.1463C19.9947 53.3055 20.2244 53.3894 20.4599 53.38L24.6097 53.1926L24.6809 53.685C24.5952 53.7062 24.5076 53.7186 24.4193 53.7222L19.1303 53.96C19.1089 53.9614 19.0875 53.962 19.0663 53.962ZM19.1727 48.8538L18.9013 48.866C18.6657 48.8775 18.4443 48.9817 18.2851 49.1558C18.126 49.3299 18.0422 49.5599 18.0519 49.7956L18.1787 52.6118C18.1901 52.8473 18.2942 53.0688 18.4682 53.2279C18.6422 53.387 18.8721 53.4708 19.1077 53.461L19.4139 53.4472C19.1822 53.2054 19.0465 52.8874 19.0323 52.5528L18.9053 49.737C18.891 49.4207 18.9854 49.109 19.1727 48.8538Z" fill="#371A45"/>
<path d="M21.5057 51.0624C21.5097 51.1666 21.3963 52.013 21.3963 52.013L20.8031 52.0364C20.3945 52.0524 20.0467 51.6424 20.0261 51.1206C20.0055 50.5988 20.3201 50.1628 20.7287 50.1466L21.3221 50.1234C21.3221 50.1234 21.4989 50.8928 21.5057 51.0624Z" fill="#22A7F0"/>
<g opacity="0.35">
<path opacity="0.35" d="M21.6056 51.0624C21.6096 51.1666 21.4962 52.013 21.4962 52.013L20.903 52.0364C20.4944 52.0524 20.1466 51.6424 20.126 51.1206C20.1054 50.5988 20.42 50.1628 20.8286 50.1466L21.422 50.1234C21.422 50.1234 21.5988 50.8928 21.6056 51.0624Z" fill="#371A45"/>
</g>
<path d="M20.8799 52.237C20.3751 52.237 19.9503 51.7472 19.9259 51.1286C19.9011 50.4974 20.3023 49.9672 20.8205 49.9468L21.2347 49.9306C21.3321 49.9261 21.428 49.9563 21.5052 50.0158C21.5825 50.0754 21.6361 50.1604 21.6565 50.2558C21.7509 50.6836 21.8011 50.9524 21.8051 51.0546C21.8051 51.0824 21.8091 51.1564 21.7179 51.8586C21.7055 51.9559 21.6589 52.0457 21.5865 52.1118C21.5141 52.178 21.4205 52.2162 21.3225 52.2198L20.9105 52.236C20.8999 52.2368 20.8903 52.237 20.8799 52.237ZM21.2509 50.3302L20.8369 50.3464C20.5441 50.358 20.3103 50.709 20.3261 51.1128C20.3419 51.5098 20.5941 51.837 20.8807 51.837H20.8955L21.3075 51.8208C21.311 51.8207 21.3144 51.8194 21.317 51.817C21.3197 51.8147 21.3214 51.8115 21.3219 51.808C21.3841 51.3292 21.4059 51.1114 21.4059 51.0696C21.4033 51.0106 21.3659 50.7896 21.2659 50.3424C21.2652 50.339 21.2634 50.3359 21.2607 50.3336C21.258 50.3314 21.2546 50.3302 21.2511 50.3302H21.2509Z" fill="#371A45"/>
<path d="M21.495 52.0141C21.9036 51.9981 22.2182 51.562 22.1977 51.0402C22.1772 50.5183 21.8293 50.1083 21.4207 50.1244C21.0121 50.1404 20.6975 50.5765 20.718 51.0983C20.7385 51.6202 21.0864 52.0302 21.495 52.0141Z" fill="#22A7F0"/>
<g opacity="0.7">
<path opacity="0.7" d="M22.1987 51.04C22.2015 51.1027 22.199 51.1655 22.1915 51.2278C22.0915 50.8304 21.7915 50.5478 21.4515 50.5608C21.0933 50.5744 20.8077 50.9108 20.7555 51.3454C20.7349 51.2644 20.7229 51.1815 20.7199 51.098C20.6999 50.5762 21.0145 50.1402 21.4229 50.1238C21.8313 50.1074 22.1789 50.5174 22.1987 51.04Z" fill="white"/>
</g>
<g opacity="0.35">
<path opacity="0.35" d="M22.1985 51.0401C22.2185 51.5617 21.9047 51.9979 21.4963 52.0141C21.0879 52.0303 20.7397 51.6197 20.7191 51.0981C20.7154 51.0138 20.721 50.9294 20.7357 50.8463C20.8521 51.2097 21.1373 51.4627 21.4593 51.4499C21.7993 51.4365 22.0743 51.1311 22.1449 50.7283C22.1765 50.8294 22.1946 50.9342 22.1985 51.0401Z" fill="#371A45"/>
</g>
<path d="M21.4736 52.2137C20.9686 52.2137 20.5438 51.7239 20.5196 51.1051C20.4948 50.4741 20.896 49.9441 21.414 49.9237C21.4244 49.9237 21.434 49.9237 21.4448 49.9237C21.9496 49.9237 22.3744 50.4135 22.3988 51.0323C22.4236 51.6633 22.0222 52.1923 21.5042 52.2137C21.494 52.2135 21.4838 52.2137 21.4736 52.2137ZM21.4446 50.3229H21.4298C21.1372 50.3345 20.9034 50.6853 20.9192 51.0891C20.935 51.4929 21.192 51.8253 21.4884 51.8129C21.781 51.8013 22.015 51.4505 21.9992 51.0467C21.9836 50.6501 21.7312 50.3229 21.4446 50.3229Z" fill="#371A45"/>
<path d="M22.9641 53.726C22.9118 53.726 22.8615 53.7055 22.8242 53.6689C22.7868 53.6323 22.7652 53.5825 22.7641 53.5302L22.7337 52.1046C22.7292 51.9088 22.7734 51.7149 22.8623 51.5403C22.9513 51.3658 23.0822 51.2161 23.2433 51.1046C23.3524 51.0295 23.4406 50.9279 23.4995 50.8093C23.5585 50.6908 23.5863 50.5591 23.5803 50.4268L23.4969 48.42C23.4958 48.3938 23.4999 48.3675 23.509 48.3429C23.518 48.3182 23.5318 48.2955 23.5496 48.2762C23.5856 48.2371 23.6356 48.2139 23.6886 48.2117C23.7417 48.2095 23.7934 48.2285 23.8325 48.2644C23.8518 48.2822 23.8675 48.3037 23.8785 48.3275C23.8896 48.3514 23.8958 48.3772 23.8969 48.4034L23.9803 50.4118C23.9892 50.6115 23.9472 50.8101 23.8583 50.9891C23.7693 51.168 23.6363 51.3214 23.4717 51.4348C23.365 51.5087 23.2784 51.6078 23.2194 51.7234C23.1605 51.8389 23.1312 51.9673 23.1341 52.097L23.1645 53.5226C23.1651 53.5489 23.1605 53.575 23.151 53.5995C23.1415 53.624 23.1272 53.6464 23.1091 53.6653C23.0909 53.6843 23.0692 53.6995 23.0451 53.7101C23.0211 53.7207 22.9952 53.7265 22.9689 53.727L22.9641 53.726Z" fill="#371A45"/>
<path d="M13.5701 49.5724C13.5701 49.5724 12.6611 49.7488 12.6271 50.8172C12.6025 51.5852 13.2829 52.0436 13.2829 52.0436C13.2829 52.0436 14.8169 52.893 18.0273 52.2622C18.0273 52.2622 18.9873 51.0318 17.9491 50.2958C17.9491 50.2958 14.9037 50.6786 13.5701 49.5724Z" fill="white"/>
<g opacity="0.35">
<path opacity="0.35" d="M18.0277 52.2624C14.8169 52.8926 13.2833 52.0436 13.2833 52.0436C13.2833 52.0436 12.6033 51.5852 12.6271 50.8174C12.629 50.7562 12.6342 50.6951 12.6427 50.6344C12.7656 50.883 12.9466 51.0984 13.1703 51.2624C13.1703 51.2624 14.5085 52.0024 17.3001 51.5868C17.7877 51.514 18.1899 51.1532 18.2899 50.6702C18.2899 50.6658 18.2917 50.6612 18.2927 50.6566C18.7201 51.3748 18.0277 52.2624 18.0277 52.2624Z" fill="#371A45"/>
</g>
<path d="M15.78 52.746C14.062 52.746 13.2096 52.2888 13.1616 52.2624L13.143 52.251C13.1106 52.229 12.3484 51.705 12.3768 50.8092C12.4088 49.8064 13.14 49.4012 13.5222 49.327L13.6384 49.3044L13.7294 49.38C14.9652 50.405 17.888 50.0512 17.9176 50.0478L18.014 50.0356L18.094 50.0918C18.4224 50.3246 18.6156 50.624 18.668 50.9818C18.774 51.7018 18.248 52.3872 18.2248 52.416L18.1674 52.4896L18.0758 52.5076C17.1874 52.682 16.4232 52.746 15.78 52.746ZM13.4136 51.83C13.5468 51.8962 15.0136 52.5772 17.8808 52.0358C17.9898 51.8708 18.232 51.4508 18.1726 51.0526C18.1438 50.8592 18.0468 50.6958 17.877 50.5554C17.3304 50.6122 14.8256 50.8108 13.517 49.848C13.3142 49.9232 12.8982 50.1582 12.877 50.8252C12.8588 51.3962 13.34 51.7748 13.414 51.83H13.4136Z" fill="#371A45"/>
<path d="M30.5257 40.4642C30.5074 40.4642 30.4892 40.4622 30.4713 40.4582C27.0547 39.7 27.3151 36.4718 27.3181 36.44C27.3249 36.3743 27.3572 36.3138 27.408 36.2716C27.4589 36.2294 27.5242 36.2088 27.5901 36.2142C27.6561 36.2204 27.7169 36.2524 27.7593 36.3034C27.8016 36.3544 27.822 36.4201 27.8159 36.486C27.8057 36.6014 27.5999 39.3094 30.5797 39.971C30.6398 39.9844 30.6928 40.0195 30.7286 40.0695C30.7644 40.1196 30.7805 40.181 30.7738 40.2422C30.7671 40.3034 30.7381 40.3599 30.6923 40.401C30.6466 40.4421 30.5872 40.4649 30.5257 40.465V40.4642Z" fill="#371A45"/>
<path d="M33.8227 23.8866L34.5247 25.1026C34.5705 25.1819 34.5947 25.2718 34.5947 25.3633C34.5947 25.4548 34.5706 25.5447 34.5249 25.624C34.4791 25.7033 34.4133 25.7691 34.334 25.8148C34.2548 25.8606 34.1649 25.8846 34.0733 25.8846H32.6691C32.5776 25.8846 32.4878 25.8605 32.4085 25.8147C32.3293 25.7689 32.2635 25.7031 32.2178 25.6239C32.172 25.5446 32.148 25.4548 32.1479 25.3633C32.1479 25.2718 32.172 25.1819 32.2177 25.1026L32.9199 23.8866C32.9657 23.8074 33.0315 23.7416 33.1107 23.6958C33.19 23.6501 33.2798 23.626 33.3713 23.626C33.4628 23.626 33.5527 23.6501 33.632 23.6958C33.7112 23.7416 33.777 23.8074 33.8227 23.8866Z" fill="#FFE000"/>
<g opacity="0.35">
<path opacity="0.35" d="M32.1631 25.236C32.1438 25.3129 32.1423 25.3932 32.1588 25.4708C32.1752 25.5484 32.2091 25.6212 32.2579 25.6837C32.3066 25.7462 32.369 25.7968 32.4403 25.8316C32.5115 25.8664 32.5898 25.8845 32.6691 25.8846C32.5898 25.8845 32.5115 25.8664 32.4403 25.8316C32.369 25.7968 32.3066 25.7462 32.2579 25.6837C32.2091 25.6212 32.1752 25.5484 32.1588 25.4708C32.1423 25.3932 32.1438 25.3129 32.1631 25.236Z" fill="#371A45"/>
</g>
<g opacity="0.35">
<path opacity="0.35" d="M32.6693 25.2846H34.0735C34.1575 25.2849 34.2403 25.2645 34.3147 25.2254C34.389 25.1862 34.4527 25.1294 34.5001 25.06L33.8223 23.886C33.7765 23.8068 33.7107 23.741 33.6315 23.6952C33.5522 23.6495 33.4624 23.6254 33.3709 23.6254C33.2794 23.6254 33.1895 23.6495 33.1102 23.6952C33.031 23.741 32.9652 23.8068 32.9195 23.886L32.2415 25.06C32.2889 25.1296 32.3528 25.1865 32.4274 25.2256C32.502 25.2648 32.585 25.285 32.6693 25.2846Z" fill="#371A45"/>
</g>
<g opacity="0.35">
<path opacity="0.35" d="M34.1467 25.8801C34.2472 25.866 34.3414 25.8228 34.4177 25.7559C34.494 25.6889 34.549 25.6011 34.5759 25.5033C34.549 25.6011 34.494 25.6889 34.4177 25.7559C34.3414 25.8228 34.2472 25.866 34.1467 25.8801Z" fill="#371A45"/>
</g>
<g opacity="0.35">
<path opacity="0.35" d="M34.5759 25.5029C34.5882 25.4601 34.5949 25.4159 34.5959 25.3715C34.5949 25.4159 34.5882 25.4601 34.5759 25.5029Z" fill="#371A45"/>
</g>
<path d="M34.0734 26.2303H32.6692C32.517 26.2302 32.3676 26.1901 32.2359 26.114C32.1042 26.038 31.9948 25.9286 31.9187 25.7969C31.8426 25.6651 31.8026 25.5157 31.8025 25.3636C31.8024 25.2115 31.8424 25.062 31.9184 24.9303L32.6206 23.7141C32.6959 23.5817 32.8052 23.4717 32.9371 23.3956C33.069 23.3194 33.2188 23.2797 33.3712 23.2807C33.5235 23.2797 33.6734 23.3194 33.8053 23.3956C33.9373 23.4718 34.0465 23.5817 34.122 23.7141L34.8242 24.9303C34.9001 25.0621 34.9401 25.2115 34.94 25.3637C34.94 25.5158 34.8999 25.6652 34.8238 25.7969C34.7477 25.9287 34.6382 26.0381 34.5065 26.1141C34.3747 26.1902 34.2253 26.2302 34.0732 26.2303H34.0734ZM33.3714 23.9717C33.3405 23.9713 33.3101 23.9793 33.2833 23.9947C33.2566 24.0102 33.2345 24.0325 33.2194 24.0595L32.5172 25.2757C32.5018 25.3023 32.4937 25.3326 32.4937 25.3634C32.4938 25.3942 32.5019 25.4244 32.5173 25.4511C32.5327 25.4777 32.5548 25.4999 32.5815 25.5153C32.6081 25.5307 32.6384 25.5388 32.6692 25.5389H34.0734C34.1042 25.5389 34.1345 25.5308 34.1612 25.5154C34.1879 25.5 34.2101 25.4778 34.2255 25.4511C34.2409 25.4244 34.2491 25.3941 34.2491 25.3633C34.2491 25.3325 34.241 25.3022 34.2256 25.2755L33.5234 24.0595C33.5082 24.0326 33.4861 24.0102 33.4594 23.9948C33.4326 23.9793 33.4022 23.9714 33.3714 23.9717Z" fill="#371A45"/>
<path d="M26.5164 15.6179C26.714 19.6271 30.883 24.4071 33.4164 24.2823C35.9498 24.1575 39.629 18.9907 39.4314 14.9823C39.2338 10.9739 36.1826 7.86426 32.6162 8.04006C29.0498 8.21586 26.3188 11.6085 26.5164 15.6179Z" fill="#FFE000"/>
<g opacity="0.7">
<path opacity="0.7" d="M26.5164 15.6178L26.5182 15.6537C26.711 12.0227 29.3028 9.08245 32.6162 8.91925C36.1476 8.74545 39.1742 11.7904 39.4246 15.7426C39.4413 15.4893 39.4437 15.2351 39.4316 14.9814C39.2338 10.972 36.1826 7.86445 32.6162 8.04005C29.0498 8.21565 26.3186 11.6084 26.5164 15.6178Z" fill="white"/>
</g>
<g opacity="0.35">
<path opacity="0.35" d="M26.5164 14.7177C26.714 18.7271 30.883 23.5067 33.4164 23.3825C35.9498 23.2583 39.6292 18.0903 39.4316 14.0813C39.4296 14.0443 39.4278 14.0079 39.4252 13.9715C38.8624 17.0691 35.6706 20.4995 33.4164 20.6115C30.883 20.7363 26.7554 16.8029 26.5916 13.4761C26.5866 13.3783 26.5848 13.2803 26.5848 13.1837C26.5135 13.6917 26.4906 14.2054 26.5164 14.7177Z" fill="#371A45"/>
</g>
<path d="M33.3239 24.6303C32.0227 24.6303 30.3113 23.5269 28.8239 21.7201C27.2569 19.8169 26.2653 17.5421 26.1713 15.6349C26.0713 13.6111 26.6805 11.6719 27.8857 10.1749C29.1007 8.66566 30.7747 7.78506 32.5995 7.69486C36.3481 7.51006 39.5705 10.7711 39.7773 14.9643C39.8713 16.8717 39.1081 19.2329 37.7359 21.2809C36.3959 23.2809 34.7477 24.5629 33.4339 24.6277C33.3975 24.6293 33.3601 24.6303 33.3239 24.6303ZM32.9039 8.37866C32.8141 8.37866 32.7239 8.38086 32.6341 8.38546C31.0093 8.46546 29.5141 9.25486 28.4249 10.6083C27.3261 11.9733 26.7711 13.7465 26.8625 15.6009C26.9495 17.3649 27.8825 19.4881 29.3583 21.2809C30.7309 22.9479 32.3221 23.9905 33.4005 23.9373C35.7231 23.8227 39.2751 18.8107 39.0873 14.9985C38.9035 11.2881 36.1567 8.37866 32.9031 8.37866H32.9039Z" fill="#371A45"/>
<g opacity="0.7">
<path opacity="0.7" d="M32.8753 10.0238C31.1511 9.90136 29.9523 10.4238 29.0289 11.4624C28.0489 12.5642 28.3045 13.6356 29.2739 13.6356C30.2433 13.6356 30.6307 12.1356 32.9059 11.4522C34.3763 11.0104 34.2365 10.12 32.8753 10.0238Z" fill="white"/>
</g>
<path d="M15.8543 41.7832L15.2105 44.2886L14.0601 48.7666C13.9329 48.8134 13.7967 48.8618 13.6501 48.9154C12.8701 49.2012 11.8101 49.6498 10.4101 51.0228C9.91969 51.5042 9.37129 51.8628 8.51189 52.389C6.66449 53.52 3.40009 51.68 6.00229 48.152C8.24949 45.1064 10.8515 43.709 13.0423 42.8286C13.7737 42.5354 14.4591 42.2988 15.0699 42.0786C15.3475 41.9782 15.6101 41.88 15.8543 41.7832Z" fill="white"/>
<g opacity="0.35">
<path opacity="0.35" d="M14.0599 48.7666C13.2541 49.0666 12.0717 49.3932 10.4109 51.0228C9.92051 51.5042 9.37211 51.8628 8.51271 52.389C6.98051 53.325 4.47731 52.2238 5.14331 49.812C5.73311 53.9636 9.32331 51.2674 10.5833 49.9192C12.5917 47.7712 14.9517 47.1272 15.1793 47.538C15.4069 47.9488 14.0599 48.7666 14.0599 48.7666Z" fill="#371A45"/>
</g>
<path d="M7.29991 53.04C6.56251 53.04 5.82631 52.7518 5.32691 52.2072C4.38531 51.1798 4.54131 49.593 5.74451 47.9624C8.64311 44.0334 12.0681 42.8108 14.5689 41.918C14.9889 41.7684 15.3837 41.627 15.7347 41.4868C15.7737 41.4712 15.8155 41.4634 15.8575 41.4639C15.8995 41.4644 15.941 41.4732 15.9797 41.4897C16.0183 41.5063 16.0533 41.5303 16.0827 41.5604C16.112 41.5905 16.1352 41.626 16.1508 41.6651C16.1664 41.7041 16.1742 41.7458 16.1737 41.7879C16.1732 41.8299 16.1644 41.8714 16.1478 41.91C16.1313 41.9487 16.1073 41.9837 16.0772 42.013C16.0471 42.0424 16.0115 42.0656 15.9725 42.0812C15.6105 42.226 15.2091 42.3694 14.7843 42.5212C12.3611 43.3864 9.04251 44.571 6.25991 48.3428C5.23771 49.7282 5.06971 50.979 5.79991 51.7746C6.42531 52.4568 7.54431 52.607 8.34711 52.116C9.23691 51.5718 9.73931 51.236 10.1871 50.795C11.7537 49.2576 12.9457 48.8292 13.7343 48.5456C13.8087 48.5186 13.8805 48.493 13.9493 48.4674C13.9887 48.4527 14.0306 48.446 14.0726 48.4476C14.1146 48.4491 14.1559 48.459 14.1941 48.4765C14.2323 48.494 14.2666 48.5188 14.2952 48.5496C14.3238 48.5804 14.3461 48.6166 14.3607 48.656C14.3753 48.6954 14.3821 48.7373 14.3805 48.7793C14.3789 48.8213 14.3691 48.8625 14.3516 48.9007C14.3341 48.9389 14.3092 48.9733 14.2784 49.0019C14.2476 49.0305 14.2115 49.0527 14.1721 49.0674C14.1013 49.0936 14.0277 49.1202 13.9509 49.1474C13.1709 49.4274 12.1023 49.812 10.6357 51.2512C10.1425 51.7352 9.61231 52.0912 8.68011 52.6616C8.26351 52.9166 7.78151 53.04 7.29991 53.04Z" fill="#371A45"/>
<path d="M27.4127 34.6986C27.3883 34.7052 27.3629 34.707 27.3379 34.7037C27.3129 34.7005 27.2887 34.6924 27.2669 34.6798C27.245 34.6673 27.2258 34.6505 27.2104 34.6306C27.195 34.6106 27.1837 34.5878 27.1771 34.5634L25.7301 29.2234C25.7235 29.1991 25.7217 29.1737 25.725 29.1486C25.7282 29.1236 25.7363 29.0995 25.7489 29.0776C25.7614 29.0557 25.7782 29.0365 25.7981 29.0211C25.8181 29.0057 25.8409 28.9944 25.8653 28.9878C26.1207 28.9186 26.3873 28.9004 26.6497 28.9343C26.9122 28.9681 27.1655 29.0533 27.395 29.185C27.6245 29.3166 27.8259 29.4923 27.9876 29.7018C28.1493 29.9113 28.2681 30.1506 28.3373 30.406L28.8309 32.226C28.9001 32.4815 28.9184 32.7481 28.8846 33.0106C28.8508 33.2732 28.7656 33.5265 28.6339 33.7561C28.5022 33.9857 28.3266 34.1871 28.1171 34.3488C27.9075 34.5106 27.6682 34.6294 27.4127 34.6986Z" fill="white"/>
<path d="M27.362 34.7734C27.3049 34.7733 27.2495 34.7544 27.2043 34.7197C27.159 34.6849 27.1265 34.6363 27.1116 34.5812L25.6646 29.2412C25.6555 29.2082 25.653 29.1737 25.6573 29.1397C25.6616 29.1057 25.6726 29.0729 25.6896 29.0432C25.7066 29.0134 25.7293 28.9874 25.7564 28.9664C25.7835 28.9455 25.8145 28.9301 25.8476 28.9212C26.3808 28.7774 26.9494 28.8509 27.4284 29.1258C27.9075 29.4006 28.258 29.8543 28.403 30.3872L28.8964 32.2084C28.968 32.4725 28.9868 32.748 28.9519 33.0193C28.917 33.2907 28.829 33.5525 28.6928 33.7898C28.5567 34.0271 28.3752 34.2352 28.1586 34.4024C27.942 34.5695 27.6946 34.6923 27.4306 34.7638C27.4082 34.77 27.3852 34.7732 27.362 34.7734ZM26.3918 28.9848C26.22 28.9849 26.049 29.0078 25.8832 29.0528C25.8674 29.057 25.8527 29.0643 25.8397 29.0743C25.8268 29.0842 25.8159 29.0966 25.8078 29.1107C25.7997 29.1249 25.7944 29.1405 25.7923 29.1567C25.7902 29.1728 25.7913 29.1893 25.7956 29.205L27.2426 34.545C27.2468 34.5608 27.2541 34.5756 27.2641 34.5885C27.2741 34.6014 27.2865 34.6122 27.3006 34.6204C27.3148 34.6285 27.3304 34.6337 27.3466 34.6358C27.3628 34.6379 27.3792 34.6367 27.395 34.6324C27.6418 34.5656 27.8731 34.4507 28.0756 34.2945C28.278 34.1383 28.4477 33.9437 28.575 33.7219C28.7022 33.5 28.7845 33.2553 28.8172 33.0017C28.8499 32.748 28.8323 32.4905 28.7654 32.2436L28.272 30.4224C28.1594 30.0099 27.9145 29.6457 27.5747 29.386C27.235 29.1262 26.8194 28.9853 26.3918 28.9848Z" fill="#371A45"/>
<g opacity="0.35">
<path opacity="0.35" d="M28.5999 31.3727L28.8315 32.2267C28.9008 32.4822 28.9191 32.749 28.8853 33.0116C28.8515 33.2742 28.7663 33.5276 28.6345 33.7573C28.5027 33.987 28.327 34.1884 28.1174 34.3502C27.9078 34.512 27.6683 34.6309 27.4127 34.7001C27.3635 34.7134 27.311 34.7066 27.2668 34.6812C27.2226 34.6558 27.1903 34.6139 27.1769 34.5647L26.7917 33.1447C26.8152 33.1734 26.8463 33.1947 26.8816 33.2061C26.9168 33.2175 26.9546 33.2186 26.9903 33.2091L27.1169 33.1745C27.5206 33.0653 27.8803 32.8331 28.146 32.5103C28.4117 32.1874 28.5704 31.7898 28.5999 31.3727Z" fill="#371A45"/>
</g>
<path d="M27.3616 35.0258C27.2492 35.0255 27.14 34.9882 27.0508 34.9198C26.9616 34.8514 26.8974 34.7556 26.8679 34.6472L25.421 29.3072C25.3854 29.1761 25.4033 29.0363 25.4708 28.9184C25.5384 28.8006 25.6499 28.7144 25.781 28.6788C26.3788 28.5176 27.0161 28.6001 27.5532 28.9082C28.0903 29.2162 28.4833 29.7248 28.646 30.3222L29.1393 32.1434C29.3013 32.7413 29.2191 33.379 28.9109 33.9163C28.6027 34.4536 28.0936 34.8464 27.4958 35.0084C27.452 35.02 27.4069 35.0259 27.3616 35.0258ZM26.0739 29.2674L27.4514 34.3514C27.8543 34.2088 28.1885 33.9193 28.387 33.5408C28.5855 33.1623 28.6336 32.7227 28.5218 32.3102L28.0283 30.489C27.9161 30.0768 27.6525 29.7221 27.2903 29.4956C26.928 29.2692 26.4937 29.1877 26.0739 29.2674Z" fill="#371A45"/>
<path d="M8.23718 33.7637C8.26153 33.757 8.28694 33.7553 8.31196 33.7585C8.33698 33.7618 8.36112 33.7699 8.383 33.7824C8.40488 33.795 8.42407 33.8117 8.43947 33.8317C8.45488 33.8517 8.4662 33.8745 8.47278 33.8989L9.91998 39.2401C9.92658 39.2644 9.92832 39.2898 9.9251 39.3148C9.92188 39.3398 9.91376 39.364 9.9012 39.3859C9.88865 39.4077 9.8719 39.4269 9.85193 39.4423C9.83195 39.4578 9.80913 39.4691 9.78478 39.4757C9.26891 39.6154 8.71865 39.5445 8.25504 39.2786C7.79142 39.0127 7.45241 38.5735 7.31258 38.0576L6.81998 36.2359C6.68014 35.7201 6.75089 35.1699 7.01665 34.7063C7.28242 34.2427 7.72145 33.9036 8.23718 33.7637Z" fill="white"/>
<path d="M9.25794 39.6132C8.80038 39.6127 8.35567 39.4618 7.99226 39.1838C7.62885 38.9058 7.3669 38.5161 7.24673 38.0746L6.75334 36.2536C6.60951 35.7202 6.68315 35.1516 6.9581 34.6725C7.23306 34.1933 7.68687 33.8429 8.21994 33.698C8.28648 33.68 8.35744 33.6892 8.41722 33.7235C8.477 33.7578 8.52071 33.8144 8.53873 33.881L9.98594 39.221C9.99502 39.254 9.99749 39.2885 9.9932 39.3225C9.98892 39.3565 9.97795 39.3893 9.96095 39.419C9.94394 39.4487 9.92123 39.4748 9.89411 39.4958C9.867 39.5167 9.83601 39.5321 9.80294 39.541C9.62526 39.589 9.442 39.6133 9.25794 39.6132ZM8.25474 33.829C7.75658 33.9646 7.33256 34.2923 7.07566 34.7402C6.81876 35.188 6.74996 35.7195 6.88433 36.218L7.37794 38.04C7.51304 38.5384 7.8406 38.9628 8.28858 39.2198C8.73656 39.4767 9.26826 39.5452 9.76673 39.4102C9.7985 39.4016 9.82556 39.3807 9.84198 39.3522C9.8584 39.3236 9.86284 39.2898 9.85434 39.258L8.40714 33.918C8.40287 33.9022 8.39555 33.8875 8.38558 33.8746C8.37561 33.8616 8.36319 33.8508 8.34904 33.8427C8.33489 33.8346 8.31928 33.8293 8.30309 33.8273C8.28691 33.8252 8.27048 33.8263 8.25474 33.8306V33.829Z" fill="#371A45"/>
<g opacity="0.35">
<path opacity="0.35" d="M9.51874 37.7576L9.91994 39.24C9.93321 39.2893 9.92641 39.3417 9.90103 39.386C9.87564 39.4302 9.83374 39.4625 9.78454 39.4758C9.52914 39.5452 9.26259 39.5635 9.00012 39.5297C8.73765 39.496 8.4844 39.4108 8.25485 39.2791C8.0253 39.1475 7.82394 38.9719 7.66229 38.7623C7.50064 38.5528 7.38186 38.3135 7.31274 38.058L7.10474 37.2906C7.3514 37.5894 7.6789 37.8107 8.04806 37.9282C8.41722 38.0457 8.8124 38.0543 9.18634 37.953L9.38114 37.9C9.41476 37.8909 9.44528 37.8728 9.4695 37.8477C9.49371 37.8227 9.51072 37.7916 9.51874 37.7576Z" fill="#371A45"/>
</g>
<path d="M9.25822 39.8656C8.7452 39.8649 8.24661 39.6956 7.83919 39.3838C7.43178 39.072 7.13813 38.635 7.00342 38.14L6.50982 36.32C6.34864 35.7221 6.43115 35.0847 6.73927 34.5475C7.04739 34.0104 7.55595 33.6174 8.15342 33.4548C8.28449 33.4194 8.42424 33.4374 8.54204 33.5049C8.65984 33.5723 8.74607 33.6838 8.78182 33.8148L10.229 39.1548C10.2646 39.2858 10.2466 39.4256 10.1791 39.5435C10.1116 39.6613 10.0001 39.7475 9.86902 39.7831C9.66997 39.8375 9.46458 39.8653 9.25822 39.8656ZM8.19822 34.1108C7.79567 34.2538 7.46188 34.5435 7.26346 34.9218C7.06505 35.3002 7.01662 35.7395 7.12782 36.152L7.62123 37.9731C7.73307 38.3856 7.99657 38.7407 8.359 38.9672C8.72143 39.1937 9.15603 39.275 9.57582 39.1948L8.19822 34.1108Z" fill="#371A45"/>
<g opacity="0.35">
<path opacity="0.35" d="M25.8897 38.24C25.7467 39.4256 25.3273 40.5611 24.6651 41.555C24.0029 42.5488 23.1166 43.3733 22.0775 43.9619C21.0384 44.5505 19.8755 44.8868 18.6826 44.9437C17.4897 45.0006 16.3002 44.7766 15.2097 44.2896C15.0155 44.2032 14.8257 44.1087 14.6405 44.006C14.0583 43.6851 13.5204 43.2897 13.0405 42.8296C13.7719 42.5364 14.4573 42.2998 15.0681 42.0796C15.3621 40.9656 15.7311 39.9916 16.1219 39.9916H22.6379C23.0153 39.9916 23.3405 40.0556 23.6209 40.1658C23.6865 40.1174 23.7557 40.0668 23.8271 40.0132C24.3725 39.6052 25.0779 39.0256 25.8897 38.24Z" fill="#371A45"/>
</g>
<path d="M17.826 43.6599C23.0335 43.6599 27.255 39.4384 27.255 34.2309C27.255 29.0234 23.0335 24.8019 17.826 24.8019C12.6185 24.8019 8.39697 29.0234 8.39697 34.2309C8.39697 39.4384 12.6185 43.6599 17.826 43.6599Z" fill="white"/>
<path d="M17.8065 43.7306C15.9387 43.7306 14.1131 43.178 12.5283 42.1128C10.4229 40.6976 8.9947 38.5474 8.5067 36.058C8.0187 33.5686 8.5291 31.038 9.9443 28.933C11.3595 26.828 13.5095 25.3994 15.9989 24.9114C18.4883 24.4234 21.0189 24.9338 23.1241 26.3488C25.2293 27.7638 26.6577 29.9142 27.1457 32.4036C28.1533 37.5424 24.7923 42.5436 19.6535 43.5504C19.0451 43.6699 18.4265 43.7303 17.8065 43.7306ZM17.8465 24.8668C17.2355 24.8671 16.626 24.9266 16.0265 25.0446C13.5729 25.5258 11.4533 26.9336 10.0583 29.0088C8.6633 31.084 8.1603 33.5782 8.6415 36.032C9.1227 38.4858 10.5303 40.6052 12.6055 42C14.6807 43.3948 17.1751 43.8984 19.6287 43.417C24.6939 42.424 28.0069 37.495 27.0137 32.4298C26.5327 29.976 25.1249 27.8564 23.0497 26.4616C21.4863 25.4118 19.6865 24.8668 17.8457 24.8668H17.8465Z" fill="#371A45"/>
<g opacity="0.35">
<path opacity="0.35" d="M26.7401 31.1532C26.8826 31.566 26.9962 31.9882 27.0801 32.4168C28.0813 37.527 24.7511 42.4816 19.6401 43.484C14.5291 44.4864 9.57507 41.155 8.57267 36.045C8.54387 35.8982 8.51847 35.7504 8.49707 35.605C10.0039 39.9868 14.5487 42.697 19.2243 41.7804C24.1875 40.8062 27.4711 36.1048 26.7401 31.1532Z" fill="#371A45"/>
</g>
<path d="M17.8059 43.983C15.8885 43.983 14.0145 43.4156 12.3877 42.323C10.2263 40.8702 8.76006 38.663 8.25906 36.1074C7.75806 33.5518 8.28206 30.9544 9.73486 28.793C11.1877 26.6316 13.3949 25.1656 15.9505 24.6646C18.5061 24.1636 21.1035 24.6876 23.2647 26.1402C25.4259 27.5928 26.8923 29.8002 27.3933 32.3558C28.4275 37.6312 24.9773 42.7644 19.7019 43.7988C19.0773 43.9213 18.4423 43.9829 17.8059 43.983ZM17.8459 25.1192C17.2512 25.1195 16.658 25.1774 16.0745 25.2922C13.6869 25.7602 11.6245 27.1302 10.2671 29.1494C8.90966 31.1686 8.42026 33.5958 8.88846 35.9834C9.35666 38.371 10.7263 40.4334 12.7457 41.7906C14.7651 43.1478 17.1919 43.6376 19.5795 43.1694C24.5083 42.2032 27.7319 37.407 26.7655 32.4782C26.2975 30.0906 24.9277 28.0282 22.9083 26.671C21.3877 25.6494 19.6363 25.12 17.8451 25.12L17.8459 25.1192Z" fill="#371A45"/>
<path d="M27.0959 32.66C27.4781 34.465 27.2471 36.265 26.5387 37.8638C26.0075 39.0624 23.3045 41.5358 19.4987 42.3778C15.9693 43.1578 12.3527 41.9546 11.3813 41.0742C10.0855 39.8998 9.14474 38.3482 8.76134 36.543C7.74974 31.7662 11.4343 28.9168 16.4973 27.8444C21.5603 26.772 26.0841 27.8834 27.0959 32.66Z" fill="#371A45"/>
<g opacity="0.5">
<path opacity="0.5" d="M24.0297 34.5093C24.6973 34.4896 25.2164 33.7269 25.1892 32.8057C25.162 31.8846 24.5989 31.1538 23.9313 31.1735C23.2638 31.1932 22.7447 31.9559 22.7719 32.8771C22.799 33.7982 23.3622 34.529 24.0297 34.5093Z" fill="white"/>
</g>
<g opacity="0.5">
<path opacity="0.5" d="M23.8655 36.4504C23.9116 36.03 23.6564 35.6571 23.2956 35.6176C22.9348 35.5781 22.605 35.8869 22.559 36.3073C22.5129 36.7277 22.7681 37.1006 23.1289 37.1401C23.4897 37.1796 23.8195 36.8708 23.8655 36.4504Z" fill="white"/>
</g>
<g opacity="0.35">
<path opacity="0.35" d="M24.3693 28.5814C25.7165 29.4134 26.6893 30.7414 27.0959 32.6598C27.4783 34.4654 27.2469 36.2652 26.5391 37.864C26.0079 39.0626 23.3045 41.536 19.4991 42.3784C18.1553 42.676 16.7991 42.6852 15.5803 42.534C20.2371 41.3988 23.5263 38.369 24.1849 36.8824C25.0849 34.8532 25.3771 32.5686 24.8917 30.2782C24.7707 29.6976 24.5958 29.1296 24.3693 28.5814Z" fill="#111A28"/>
</g>
<path d="M8.58943 32.6228C8.53954 32.6226 8.49048 32.61 8.44668 32.5862C8.40287 32.5623 8.36572 32.5278 8.33857 32.486C8.31143 32.4441 8.29515 32.3962 8.29122 32.3464C8.28728 32.2967 8.29581 32.2468 8.31603 32.2012C9.43883 29.4638 12.3048 27.4232 16.1808 26.6012C20.0282 25.7864 23.4638 26.4438 25.6102 28.4048C25.6667 28.4517 25.704 28.5177 25.7151 28.5903C25.7261 28.6629 25.7102 28.737 25.6703 28.7986C25.6303 28.8602 25.5692 28.9051 25.4984 28.9246C25.4276 28.9442 25.3521 28.9371 25.2862 28.9048L25.2718 28.897L25.2416 28.88L25.216 28.8566C23.216 27.0202 19.9672 26.4118 16.305 27.1874C12.6232 27.9674 9.91263 29.8796 8.86823 32.434L8.85523 32.4616C8.82988 32.5101 8.7917 32.5508 8.74484 32.5793C8.69798 32.6077 8.64423 32.6227 8.58943 32.6228Z" fill="#371A45"/>
<g opacity="0.5">
<path opacity="0.5" d="M11.4225 38.9488C11.4225 38.9488 8.94511 34.55 11.0869 32.1342C13.2287 29.7184 16.8841 28.9522 16.8483 29.2046C16.8483 29.2046 13.0107 31.0406 12.1053 34.5736C11.4073 37.298 11.4225 38.9488 11.4225 38.9488Z" fill="white"/>
</g>
<path d="M12.5697 49.6401C12.5097 49.64 12.4518 49.6183 12.4065 49.5791C12.3612 49.5399 12.3314 49.4858 12.3227 49.4265C11.9505 46.9003 9.70505 44.6665 9.68265 44.6443C9.63536 44.5978 9.60848 44.5344 9.60792 44.4681C9.60736 44.4018 9.63316 44.338 9.67965 44.2907C9.72615 44.2434 9.78952 44.2165 9.85583 44.216C9.92214 44.2154 9.98597 44.2412 10.0333 44.2877C10.1305 44.3831 12.4205 46.6589 12.8175 49.3537C12.8271 49.4193 12.8104 49.486 12.7708 49.5392C12.7313 49.5925 12.6722 49.6278 12.6067 49.6375C12.5944 49.6391 12.582 49.64 12.5697 49.6401Z" fill="#371A45"/>
</g>
</svg>
