<svg width="52" height="52" viewBox="0 0 52 52" fill="none" xmlns="http://www.w3.org/2000/svg">
<mask id="mask0_2_14398" style="mask-type:alpha" maskUnits="userSpaceOnUse" x="0" y="0" width="52" height="52">
<circle cx="26" cy="26" r="26" fill="#C4C4C4"/>
</mask>
<g mask="url(#mask0_2_14398)">
<path d="M-5 57L58 57L58 -6L-5 -6L-5 57Z" fill="#AD82FF"/>
<g opacity="0.35">
<path opacity="0.35" d="M27.653 49.4443C35.814 49.4443 42.4298 48.655 42.4298 47.6813C42.4298 46.7076 35.814 45.9182 27.653 45.9182C19.492 45.9182 12.8762 46.7076 12.8762 47.6813C12.8762 48.655 19.492 49.4443 27.653 49.4443Z" fill="#371A45"/>
</g>
<path d="M19.9795 24.7815V34.7163C19.9792 35.2672 20.1214 35.8089 20.3925 36.2885C20.9458 37.2699 21.999 37.9356 23.1994 37.9356H32.4502C33.6069 37.9356 34.6265 37.3176 35.1943 36.3954C35.5058 35.8908 35.6706 35.3094 35.6701 34.7163V24.7815C35.6703 24.5677 35.6488 24.3543 35.606 24.1448C35.4566 23.4173 35.0613 22.7634 34.4866 22.2931C33.9119 21.8227 33.1928 21.5644 32.4502 21.5618H23.1997C21.8186 21.5618 20.6325 22.4425 20.1784 23.6702C20.0467 24.0259 19.9794 24.4022 19.9795 24.7815Z" fill="white"/>
<path d="M32.4506 38.1759H23.1995C21.2917 38.1759 19.7397 36.6239 19.7397 34.7161V24.7815C19.7397 22.8737 21.2917 21.3217 23.1995 21.3217H32.4506C34.3584 21.3217 35.9106 22.8737 35.9106 24.7815V34.7161C35.9106 36.6239 34.3592 38.1759 32.4506 38.1759ZM23.1995 21.8023C21.5568 21.8023 20.2203 23.1387 20.2203 24.7815V34.7161C20.2203 36.3588 21.5568 37.6954 23.1995 37.6954H32.4506C34.0934 37.6954 35.4299 36.3588 35.4299 34.7161V24.7815C35.4299 23.1387 34.0934 21.8023 32.4506 21.8023H23.1995Z" fill="#371A45"/>
<path d="M22.0463 22.5023C22.0463 22.5023 18.0398 27.0583 18.0398 30.8634C18.0398 34.12 22.0463 35.2403 22.0463 35.2403L27.5991 25.836L22.0463 22.5023Z" fill="white"/>
<path d="M18.0398 30.8631C18.0398 34.1204 22.0463 35.2404 22.0463 35.2404L22.1833 35.0087L27.5993 25.836L23.4131 23.3225L22.0464 22.5021C22.0464 22.5021 18.0398 27.0593 18.0398 30.8631Z" fill="white"/>
<g opacity="0.35">
<path opacity="0.35" d="M19.719 31.3086C19.719 33.1891 21.0548 34.3573 22.1832 35.0086L27.5992 25.8359L23.413 23.3224C22.4699 24.4871 19.719 28.1553 19.719 31.3086Z" fill="#371A45"/>
</g>
<path d="M22.1591 35.5214L21.9814 35.4716C21.9389 35.4598 20.9296 35.1724 19.907 34.4712C18.5281 33.5262 17.7993 32.2777 17.7993 30.8633C17.7993 27.0118 21.6995 22.5316 21.8657 22.3435L21.998 22.1931L27.9272 25.7526L22.1591 35.5214ZM22.0973 22.8134C21.4163 23.6311 18.28 27.5757 18.28 30.8633C18.28 33.5251 21.1876 34.6955 21.9367 34.9528L27.2707 25.9192L22.0973 22.8134Z" fill="#371A45"/>
<path d="M33.9837 28.0245C33.9837 28.0245 35.6812 30.1508 38.4003 29.6811C41.2196 29.1946 40.7209 24.5019 40.7209 24.5019L36.4369 22.8522C36.4369 22.8522 36.7031 24.3181 36.0827 24.3179C35.3878 24.3179 34.1475 22.6826 33.0642 22.1917L33.9837 28.0245Z" fill="white"/>
<g opacity="0.35">
<path opacity="0.35" d="M33.3513 24.0159L33.9837 28.0247C33.9837 28.0247 35.6811 30.1502 38.4006 29.6813C41.2199 29.1946 40.7211 24.5018 40.7211 24.5018L38.7504 25.5591C40.0803 25.7964 39.9132 28.2153 37.8958 28.5635C35.1769 29.0332 33.548 24.7457 33.548 24.7457L33.3513 24.0159Z" fill="#371A45"/>
</g>
<path d="M37.6103 29.9903C35.2756 29.9903 33.8618 28.2565 33.7961 28.1745C33.7577 28.1246 33.7404 28.0616 33.7479 27.9991C33.7554 27.9365 33.7872 27.8795 33.8364 27.8401C33.8856 27.8008 33.9482 27.7823 34.0109 27.7887C34.0735 27.7951 34.1312 27.8258 34.1714 27.8743C34.1871 27.8944 35.8179 29.8827 38.3596 29.4444C40.6591 29.0475 40.5449 25.4439 40.4934 24.6721L36.7249 23.2212C36.7525 23.5866 36.7398 24.0875 36.5145 24.357C36.4625 24.4211 36.3966 24.4725 36.3218 24.5074C36.247 24.5424 36.1652 24.5599 36.0827 24.5587C35.6207 24.5587 35.0786 24.0785 34.451 23.5229C33.9525 23.0819 33.437 22.6251 32.9651 22.4114C32.9078 22.3846 32.8633 22.3363 32.8414 22.277C32.8194 22.2177 32.8217 22.1521 32.8478 22.0944C32.8739 22.0368 32.9217 21.9918 32.9808 21.9692C33.0398 21.9465 33.1055 21.9481 33.1634 21.9735C33.7014 22.2172 34.2445 22.698 34.7699 23.163C35.2544 23.5918 35.8033 24.0779 36.0833 24.078C36.0954 24.0791 36.1076 24.077 36.1187 24.0718C36.1297 24.0667 36.1392 24.0588 36.1463 24.0489C36.2937 23.8725 36.266 23.2564 36.2009 22.8955L36.125 22.4752L40.9445 24.3308L40.9603 24.4768C40.9815 24.6776 41.4485 29.3995 38.4417 29.9185C38.1671 29.9661 37.8889 29.9901 37.6103 29.9903Z" fill="#371A45"/>
<g opacity="0.35">
<path opacity="0.35" d="M30.9323 40.3191C30.9058 40.3309 30.8795 40.3421 30.8535 40.3533C30.8795 40.3427 30.9058 40.3309 30.9323 40.3191Z" fill="#371A45"/>
</g>
<g opacity="0.35">
<path opacity="0.35" d="M27.599 32.9592C27.5317 33.0624 27.4666 33.1637 27.4036 33.2629C27.467 33.1635 27.5324 33.0618 27.599 32.9592Z" fill="#371A45"/>
</g>
<path d="M19.3349 45.9107C19.3386 45.9515 19.3443 45.9925 19.3517 46.0314C19.5555 47.2378 20.9688 47.6694 23.5122 47.3359C24.6639 47.1863 26.2564 47.0083 26.6763 46.0917C27.5149 44.2611 26.6592 40.557 26.7586 38.1833V38.1787C27.4479 38.2541 28.1433 38.2541 28.8326 38.1787C28.8326 38.1981 28.8338 38.217 28.8345 38.2365C28.9194 40.6116 28.0832 44.2741 28.915 46.0909C29.3349 47.0082 30.9267 47.1862 32.079 47.3351C34.6256 47.6683 36.0388 47.2364 36.2408 46.0268C36.2469 45.9879 36.2526 45.9495 36.2565 45.9099C36.403 44.4357 34.3467 43.7511 34.3467 43.7511C34.3467 43.7511 34.7949 40.6228 35.091 37.8003C35.2154 36.6133 35.2438 35.3855 35.2049 34.1641C35.1954 33.8478 35.1814 33.532 35.1627 33.2167C35.1363 32.7684 35.1026 32.3238 35.0616 31.8827C35.0256 31.5005 34.9852 31.1228 34.9401 30.7498C34.7729 29.348 34.5479 28.0227 34.316 26.8565C34.1084 25.8104 33.8953 24.892 33.7124 24.1633C33.6715 24.0023 33.6337 23.8508 33.596 23.7087C33.3728 22.8493 33.218 22.3489 33.218 22.3489H22.3726C22.3726 22.3489 22.2166 22.8529 21.9928 23.7169C21.8607 24.223 21.7056 24.8534 21.544 25.5789C21.481 25.8624 21.4172 26.16 21.3528 26.4716C21.0932 27.7308 20.836 29.1987 20.65 30.761C20.6065 31.1255 20.5671 31.4947 20.5317 31.8686C20.489 32.3254 20.4539 32.7872 20.4274 33.2517C20.4079 33.5811 20.3934 33.9116 20.384 34.2431C20.3778 34.4626 20.3736 34.6822 20.3715 34.9019C20.3627 35.8784 20.401 36.8534 20.5004 37.8007C20.7958 40.6233 21.2441 43.7516 21.2441 43.7516C21.2441 43.7516 19.1884 44.4365 19.3349 45.9107Z" fill="white"/>
<g opacity="0.35">
<path opacity="0.35" d="M28.915 46.0913C29.3351 47.0083 30.9268 47.1864 32.0789 47.3367C34.6258 47.6687 36.0389 47.2374 36.2405 46.0274C34.1555 46.8558 30.4802 46.3827 29.8518 45.3317C29.038 43.9706 28.9068 42.6103 30.1719 40.9143C31.4369 39.2183 31.5349 37.0056 31.5349 37.0056C30.9302 37.451 29.6861 37.9349 28.8344 38.2369C28.9197 40.6122 28.0829 44.2741 28.915 46.0913Z" fill="#371A45"/>
</g>
<g opacity="0.35">
<path opacity="0.35" d="M19.3516 46.0316C19.5552 47.2381 20.9683 47.6687 23.5119 47.3367C24.6639 47.1864 26.2564 47.0083 26.6764 46.0913C27.5146 44.2607 26.6588 40.5561 26.7583 38.1829C26.0533 37.9624 24.7485 37.5113 24.0611 37.0056C24.0611 37.0056 23.7146 38.5964 25.1888 40.7725C26.3781 42.5279 26.4646 43.9244 25.6509 45.2848C25.0739 46.2501 21.6435 46.6467 19.3516 46.0316Z" fill="#371A45"/>
</g>
<path d="M33.7898 24.144C34.0522 24.9287 34.267 25.7278 34.4579 26.5323C34.5524 26.9349 34.6416 27.339 34.7205 27.7451C34.7595 27.9481 34.8006 28.1509 34.8373 28.3544L34.9405 28.9665C34.9761 29.1703 35.0073 29.375 35.0373 29.5798L35.1282 30.194C35.1556 30.3992 35.1814 30.6047 35.2056 30.8105C35.2322 31.0152 35.2528 31.222 35.2725 31.4282C35.364 32.2518 35.4103 33.0805 35.4457 33.9091C35.4643 34.7385 35.4787 35.5692 35.4317 36.3998L35.4171 36.7112L35.41 36.867L35.3971 37.0224L35.3453 37.6446C35.3097 38.0588 35.2597 38.4664 35.215 38.8772C35.0267 40.5171 34.8167 42.1533 34.585 43.786L34.4231 43.5239C34.5348 43.5628 34.6278 43.6026 34.7282 43.6463C34.8285 43.6899 34.9221 43.7371 35.0169 43.7871C35.2079 43.8882 35.3908 44.004 35.5639 44.1336C35.7421 44.2657 35.9047 44.4177 36.0485 44.5865C36.1987 44.7628 36.3175 44.9636 36.3997 45.18C36.4816 45.4031 36.5154 45.6411 36.499 45.8782C36.4851 46.1135 36.4248 46.3437 36.3214 46.5555C36.2136 46.7691 36.0599 46.9562 35.8713 47.1034C35.691 47.2439 35.4897 47.3551 35.2747 47.4327C34.8575 47.588 34.4299 47.6468 34.0093 47.6732C33.5882 47.6967 33.1708 47.6828 32.7574 47.6507C32.5509 47.6329 32.3447 47.6132 32.1401 47.5868L31.5319 47.508C31.125 47.4512 30.7141 47.385 30.3045 47.2755C30.0962 47.221 29.8923 47.1514 29.6942 47.0672C29.4934 46.9794 29.2949 46.8704 29.1136 46.7224C29.0218 46.6461 28.9381 46.5605 28.864 46.4669C28.7893 46.3712 28.7276 46.266 28.6803 46.1541C28.5884 45.9519 28.5282 45.7429 28.4756 45.5345C28.3762 45.1165 28.3338 44.6969 28.3146 44.2811C28.2954 43.8653 28.3012 43.4516 28.3178 43.0408C28.3515 42.219 28.428 41.406 28.494 40.5972C28.56 39.7885 28.6214 38.9816 28.5921 38.1903L28.8616 38.4187C28.6788 38.4395 28.5057 38.4525 28.3275 38.4625C28.1494 38.4724 27.9732 38.477 27.7952 38.4773C27.6172 38.4776 27.4399 38.4721 27.2628 38.4625C27.0858 38.4529 26.9118 38.4395 26.7289 38.4187L26.9984 38.1903C26.9689 38.9816 27.0319 39.7894 27.0965 40.5972C27.1611 41.405 27.2383 42.2195 27.2726 43.0408C27.2893 43.4516 27.2953 43.8649 27.2757 44.2811C27.2562 44.6974 27.2143 45.1159 27.1148 45.5345C27.0625 45.7429 27.0025 45.9519 26.91 46.1541C26.8627 46.266 26.8009 46.3711 26.7262 46.4669C26.6522 46.5606 26.5685 46.6462 26.4766 46.7224C26.2953 46.8704 26.0969 46.9794 25.8962 47.0672C25.6985 47.1509 25.4949 47.2202 25.2872 47.2744C24.8777 47.3839 24.4666 47.4501 24.0598 47.5069L23.4513 47.5857C23.2466 47.6121 23.0406 47.6318 22.8341 47.6496C22.4207 47.6811 22.0034 47.6956 21.5821 47.6721C21.1618 47.6457 20.7341 47.5869 20.3168 47.4316C20.1018 47.3539 19.9004 47.2428 19.7202 47.1023C19.5315 46.9551 19.3778 46.768 19.27 46.5543C19.1667 46.3426 19.1064 46.1124 19.0927 45.8771C19.0762 45.64 19.11 45.4021 19.1917 45.1789C19.2741 44.9625 19.3929 44.7618 19.543 44.5854C19.6865 44.4165 19.8488 44.2645 20.0267 44.1323C20.1997 44.0027 20.3826 43.8869 20.5737 43.7858C20.6682 43.7358 20.7644 43.6889 20.8623 43.645C20.9617 43.6009 21.0556 43.5615 21.1674 43.5226L21.0058 43.7858C20.7741 42.1385 20.5628 40.4893 20.3719 38.8384C20.3267 38.4244 20.2766 38.0141 20.2407 37.5956C20.2238 37.3866 20.2004 37.1779 20.1892 36.9687L20.1538 36.3411C20.121 35.5038 20.1256 34.6667 20.1588 33.8315C20.192 32.9963 20.2569 32.1629 20.3435 31.3328C20.3626 31.125 20.387 30.9177 20.4111 30.7105C20.4352 30.5032 20.4584 30.2959 20.4862 30.0891C20.5376 29.6751 20.5937 29.2616 20.6582 28.8495C20.7855 28.0232 20.9402 27.2083 21.1337 26.3896C21.1844 26.1867 21.2385 25.9851 21.2959 25.7848C21.352 25.5837 21.4123 25.384 21.4755 25.1847C21.6032 24.7869 21.7396 24.3905 21.9143 24.0065C21.9226 23.9886 21.9371 23.9743 21.9552 23.9665C21.9733 23.9586 21.9936 23.9576 22.0124 23.9637C22.0311 23.9697 22.047 23.9825 22.057 23.9995C22.067 24.0165 22.0704 24.0366 22.0666 24.0559V24.057C21.9001 24.8668 21.7472 25.6809 21.5861 26.4907C21.4418 27.2975 21.2978 28.1163 21.1643 28.9299C20.8931 30.5591 20.7025 32.2033 20.6393 33.851C20.6066 34.6746 20.6022 35.4988 20.6343 36.3209C20.6664 37.1431 20.7559 37.9582 20.8497 38.7842C21.0378 40.4306 21.2485 42.0751 21.482 43.7176L21.5095 43.9137L21.3205 43.9797C21.2402 44.0077 21.146 44.0463 21.0599 44.0849C20.9737 44.1235 20.8853 44.1666 20.8003 44.2109C20.6315 44.2999 20.4699 44.402 20.3169 44.5161C20.0159 44.7415 19.7617 45.0223 19.6431 45.3443C19.5844 45.5041 19.5603 45.6746 19.5724 45.8445C19.5819 46.0163 19.6254 46.1846 19.7003 46.3395C19.8485 46.6388 20.1397 46.8552 20.4869 46.982C20.8334 47.1116 21.2205 47.1684 21.6102 47.1924C21.9998 47.2163 22.3988 47.2014 22.7961 47.1705C22.9947 47.1533 23.1937 47.1344 23.3923 47.1086L23.9938 47.0298C24.3922 46.9744 24.786 46.9101 25.1626 46.8093C25.5358 46.7081 25.9028 46.5704 26.1721 46.3496C26.2367 46.2957 26.2957 46.2355 26.3482 46.1699L26.3845 46.1208L26.416 46.0696C26.4264 46.0525 26.4359 46.0348 26.4443 46.0166L26.4582 45.9902L26.4714 45.9579C26.5484 45.7897 26.6015 45.6059 26.6481 45.4203C26.7373 45.0464 26.7785 44.6533 26.7962 44.2571C26.8138 43.8608 26.8094 43.4598 26.793 43.058C26.7601 42.2548 26.6843 41.4468 26.618 40.6342C26.5517 39.8217 26.4881 39.0036 26.5186 38.1679L26.5283 37.9098L26.7881 37.9396C26.9494 37.958 27.1219 37.9711 27.2896 37.9804C27.4573 37.9897 27.6274 37.9944 27.7958 37.9945C27.9642 37.9947 28.1332 37.9897 28.302 37.9804C28.4709 37.9711 28.6422 37.958 28.8035 37.9396L29.0635 37.9098L29.073 38.1679C29.1037 39.0036 29.0382 39.8217 28.9736 40.6342C28.909 41.4468 28.8318 42.2541 28.7988 43.058C28.783 43.4598 28.7767 43.8613 28.7955 44.2571C28.8142 44.6528 28.8544 45.0464 28.9437 45.4203C28.9909 45.6059 29.0432 45.7897 29.1202 45.9579L29.1336 45.9902L29.1473 46.0166C29.1571 46.0343 29.1642 46.0529 29.1757 46.0696L29.2072 46.1208L29.2436 46.1699C29.296 46.2356 29.355 46.2958 29.4196 46.3496C29.6893 46.5701 30.0558 46.7081 30.4292 46.8093C30.8058 46.9101 31.1995 46.9744 31.5979 47.0298L32.1994 47.1086C32.3981 47.1344 32.5969 47.1533 32.7957 47.1705C33.1929 47.202 33.5904 47.2141 33.9815 47.1924C34.3725 47.1706 34.7586 47.1116 35.1049 46.982C35.4514 46.8552 35.7431 46.6396 35.8915 46.3395C35.9664 46.1846 36.0098 46.0163 36.0194 45.8445C36.0314 45.6746 36.0073 45.5042 35.9486 45.3443C35.8299 45.0223 35.5757 44.7415 35.2749 44.5161C35.1219 44.402 34.9602 44.2999 34.7913 44.2109C34.7063 44.1661 34.6198 44.1241 34.5319 44.0849C34.4458 44.0463 34.3516 44.0077 34.2713 43.9797L34.0823 43.9137L34.1098 43.7176C34.339 42.0897 34.5482 40.4581 34.7372 38.8228C34.7817 38.4149 34.8317 38.0048 34.8666 37.5983L34.9173 36.9891L34.9301 36.8368L34.9364 36.684L34.949 36.3781C34.9896 35.5632 34.9753 34.7452 34.9471 33.9284C34.8684 32.2946 34.6923 30.6648 34.4533 29.0429C34.21 27.4206 33.9156 25.8077 33.6343 24.1829C33.6311 24.163 33.6354 24.1426 33.6465 24.1258C33.6576 24.109 33.6745 24.0969 33.6941 24.092C33.7136 24.0871 33.7343 24.0897 33.752 24.0994C33.7697 24.109 33.7831 24.1249 33.7896 24.144H33.7898Z" fill="#371A45"/>
<path d="M23.3593 41.9694C21.3893 41.9694 20.7117 41.1115 20.6721 41.0589C20.6335 41.0082 20.6166 40.9442 20.6253 40.881C20.6339 40.8178 20.6672 40.7607 20.718 40.7221C20.7687 40.6835 20.8327 40.6667 20.8959 40.6753C20.959 40.6839 21.0162 40.7173 21.0548 40.768C21.0759 40.7943 22.366 42.3273 26.7438 40.8296C26.7737 40.8194 26.8053 40.8152 26.8368 40.8172C26.8683 40.8192 26.8991 40.8273 26.9274 40.8412C26.9558 40.8551 26.9811 40.8745 27.0019 40.8982C27.0228 40.9219 27.0388 40.9494 27.049 40.9793C27.0592 41.0092 27.0634 41.0407 27.0614 41.0722C27.0594 41.1037 27.0512 41.1345 27.0373 41.1629C27.0234 41.1912 27.0041 41.2165 26.9804 41.2374C26.9567 41.2583 26.9292 41.2742 26.8993 41.2845C25.4133 41.7929 24.253 41.9694 23.3593 41.9694Z" fill="#371A45"/>
<path d="M32.4287 42.082C30.6647 42.082 28.7755 41.4598 28.6553 41.4195C28.5958 41.3986 28.547 41.355 28.5193 41.2984C28.4916 41.2417 28.4873 41.1764 28.5073 41.1166C28.5273 41.0568 28.57 41.0073 28.6262 40.9787C28.6824 40.9501 28.7476 40.9447 28.8078 40.9637C28.8503 40.9779 33.0667 42.3655 34.5283 41.0152C34.5754 40.9734 34.6369 40.9518 34.6998 40.9548C34.7626 40.9579 34.8217 40.9856 34.8645 41.0318C34.9072 41.078 34.93 41.1391 34.9282 41.202C34.9263 41.2649 34.8999 41.3246 34.8545 41.3682C34.2738 41.9049 33.3693 42.082 32.4287 42.082Z" fill="#371A45"/>
<path d="M18.7405 19.5954C18.7647 19.5922 18.7879 19.5841 18.809 19.5718C18.83 19.5596 18.8484 19.5432 18.8632 19.5238C18.8779 19.5044 18.8887 19.4823 18.8948 19.4587C18.901 19.4351 18.9025 19.4106 18.8991 19.3864L18.1721 14.0921C18.1654 14.0433 18.1397 13.9992 18.1005 13.9695C18.0613 13.9398 18.0119 13.9268 17.9631 13.9335C17.7099 13.9683 17.466 14.0526 17.2453 14.1816C17.0247 14.3106 16.8316 14.4819 16.6771 14.6855C16.5226 14.8892 16.4098 15.1213 16.345 15.3686C16.2802 15.6158 16.2648 15.8734 16.2996 16.1267L16.5475 17.9321C16.5823 18.1853 16.6666 18.4292 16.7956 18.6498C16.9246 18.8705 17.0959 19.0635 17.2995 19.218C17.5032 19.3724 17.7352 19.4853 17.9825 19.55C18.2297 19.6148 18.4873 19.6302 18.7405 19.5954Z" fill="white"/>
<path d="M18.4717 19.6567C17.9916 19.6555 17.5281 19.4809 17.1667 19.1649C16.8052 18.849 16.5702 18.413 16.5048 17.9374L16.2568 16.132C16.2212 15.8731 16.237 15.6098 16.3033 15.357C16.3695 15.1042 16.485 14.867 16.6429 14.6588C16.8009 14.4506 16.9983 14.2756 17.2239 14.1438C17.4495 14.0119 17.6989 13.9258 17.9578 13.8903C18.0179 13.8821 18.0788 13.898 18.1271 13.9347C18.1754 13.9713 18.2072 14.0257 18.2154 14.0858L18.9425 19.3801C18.9506 19.4402 18.9346 19.5011 18.898 19.5494C18.8613 19.5977 18.807 19.6295 18.747 19.6378C18.6558 19.6504 18.5638 19.6567 18.4717 19.6567ZM17.9886 13.9744C17.982 13.9744 17.9755 13.9749 17.9689 13.9758C17.4689 14.0446 17.0167 14.3091 16.7116 14.7112C16.4066 15.1133 16.2737 15.6201 16.3423 16.1202L16.5904 17.9256C16.6243 18.1733 16.7067 18.4119 16.8329 18.6278C16.9591 18.8436 17.1265 19.0325 17.3257 19.1836C17.5249 19.3347 17.7519 19.4451 17.9938 19.5084C18.2357 19.5718 18.4877 19.5868 18.7353 19.5527C18.7727 19.5475 18.8066 19.5277 18.8294 19.4977C18.8522 19.4676 18.8622 19.4297 18.8571 19.3923L18.1301 14.0979C18.1253 14.0639 18.1085 14.0327 18.0826 14.0101C18.0568 13.9875 18.0236 13.975 17.9893 13.9749L17.9886 13.9744Z" fill="#371A45"/>
<g opacity="0.35">
<path opacity="0.35" d="M16.4312 17.0853L16.5472 17.9322C16.6177 18.4436 16.8882 18.9061 17.2995 19.2181C17.7108 19.53 18.2291 19.6659 18.7406 19.5959C18.7894 19.5891 18.8335 19.5632 18.8632 19.5239C18.8929 19.4847 18.9059 19.4352 18.8992 19.3864L18.7064 17.9788C18.6964 18.0132 18.6767 18.0439 18.6497 18.0673C18.6227 18.0908 18.5895 18.1059 18.5541 18.111L18.4281 18.1278C18.0282 18.1828 17.6211 18.112 17.2633 17.9252C16.9055 17.7384 16.6147 17.4449 16.4312 17.0853Z" fill="#371A45"/>
</g>
<path d="M18.4711 19.8544C17.9434 19.853 17.434 19.661 17.0368 19.3137C16.6395 18.9663 16.3811 18.4872 16.3093 17.9644L16.0614 16.159C16.0223 15.8745 16.0396 15.5851 16.1124 15.3073C16.1852 15.0295 16.312 14.7688 16.4855 14.54C16.6591 14.3112 16.876 14.1189 17.1239 13.9739C17.3717 13.829 17.6458 13.7343 17.9302 13.6952C17.9857 13.6875 18.0421 13.6908 18.0962 13.705C18.1503 13.7191 18.2012 13.7438 18.2457 13.7776C18.2903 13.8114 18.3278 13.8537 18.356 13.902C18.3842 13.9503 18.4026 14.0037 18.4101 14.0592L19.1372 19.3536C19.1524 19.4654 19.1226 19.5787 19.0544 19.6687C18.9861 19.7586 18.885 19.8178 18.7732 19.8333C18.6731 19.8472 18.5722 19.8543 18.4711 19.8544ZM17.9414 14.18C17.5048 14.2544 17.1141 14.4956 16.8521 14.8528C16.5902 15.21 16.4774 15.6551 16.5376 16.0939L16.7855 17.8994C16.8458 18.3383 17.0744 18.7365 17.423 19.0099C17.7716 19.2832 18.2129 19.4103 18.6535 19.3641L17.9414 14.18Z" fill="#371A45"/>
<path d="M35.4387 11.5338C35.4145 11.5371 35.3913 11.5452 35.3702 11.5574C35.3492 11.5697 35.3308 11.586 35.316 11.6055C35.3013 11.6249 35.2905 11.647 35.2844 11.6706C35.2782 11.6941 35.2767 11.7187 35.2801 11.7428L36.0071 17.0372C36.0138 17.086 36.0395 17.13 36.0787 17.1598C36.1179 17.1895 36.1673 17.2025 36.2161 17.1958C36.4693 17.161 36.7132 17.0767 36.9339 16.9477C37.1545 16.8187 37.3476 16.6474 37.5021 16.4438C37.6566 16.2401 37.7694 16.008 37.8342 15.7607C37.899 15.5135 37.9144 15.2559 37.8796 15.0026L37.6317 13.1974C37.5615 12.686 37.291 12.2234 36.8797 11.9114C36.4684 11.5994 35.9501 11.4636 35.4387 11.5338Z" fill="white"/>
<path d="M36.1904 17.2407C36.1352 17.2407 36.0818 17.2206 36.0403 17.1843C35.9987 17.1479 35.9717 17.0978 35.9642 17.0431L35.2372 11.7487C35.229 11.6886 35.245 11.6278 35.2817 11.5795C35.3183 11.5312 35.3726 11.4994 35.4327 11.491C35.6915 11.4555 35.9549 11.4713 36.2077 11.5375C36.4605 11.6038 36.6977 11.7192 36.9059 11.8771C37.1141 12.0351 37.2891 12.2325 37.4209 12.4581C37.5528 12.6838 37.6389 12.9331 37.6743 13.192L37.9223 14.9975C37.9578 15.2564 37.942 15.5197 37.8758 15.7725C37.8095 16.0253 37.6941 16.2625 37.5362 16.4707C37.3782 16.6789 37.1808 16.8539 36.9552 16.9857C36.7295 17.1176 36.4802 17.2037 36.2213 17.2392C36.211 17.2404 36.2007 17.241 36.1904 17.2407ZM35.4445 11.577C35.4071 11.5822 35.3733 11.602 35.3505 11.6321C35.3277 11.6621 35.3177 11.7 35.3227 11.7374L36.0497 17.0319C36.0522 17.0504 36.0583 17.0683 36.0678 17.0845C36.0772 17.1007 36.0897 17.1148 36.1046 17.1261C36.1196 17.1374 36.1366 17.1457 36.1547 17.1504C36.1728 17.1551 36.1917 17.1561 36.2102 17.1535C36.7103 17.0848 37.1625 16.8203 37.4676 16.4181C37.7726 16.016 37.9054 15.5092 37.8367 15.0091L37.5888 13.2037C37.5202 12.7036 37.2557 12.2513 36.8535 11.9463C36.4514 11.6412 35.9445 11.5084 35.4445 11.577Z" fill="#371A45"/>
<g opacity="0.35">
<path opacity="0.35" d="M35.8049 15.5686L36.0067 17.0373C36.0135 17.0861 36.0394 17.1301 36.0786 17.1599C36.1179 17.1896 36.1674 17.2026 36.2162 17.1959C36.4694 17.1612 36.7133 17.077 36.934 16.948C37.1546 16.819 37.3477 16.6478 37.5021 16.4442C37.6566 16.2405 37.7694 16.0085 37.8341 15.7612C37.8989 15.5139 37.9142 15.2564 37.8794 15.0032L37.7749 14.2424C37.6682 14.601 37.4605 14.9213 37.1765 15.1649C36.8926 15.4085 36.5444 15.5652 36.1738 15.6161L35.9805 15.6426C35.9473 15.6471 35.9135 15.6426 35.8826 15.6296C35.8517 15.6166 35.8249 15.5955 35.8049 15.5686Z" fill="#371A45"/>
</g>
<path d="M36.1906 17.4379C36.0878 17.4377 35.9885 17.4003 35.911 17.3327C35.8336 17.265 35.7831 17.1717 35.769 17.0698L35.042 11.7755C35.0268 11.6636 35.0565 11.5503 35.1247 11.4604C35.1929 11.3705 35.294 11.3112 35.4058 11.2957C35.6903 11.2567 35.9797 11.274 36.2575 11.3468C36.5353 11.4196 36.796 11.5463 37.0248 11.7199C37.2536 11.8934 37.4459 12.1103 37.5909 12.3582C37.7358 12.6061 37.8305 12.8801 37.8696 13.1646L38.1176 14.97C38.1965 15.5445 38.044 16.1268 37.6937 16.5888C37.3433 17.0509 36.8238 17.3549 36.2494 17.434C36.2299 17.4366 36.2103 17.438 36.1906 17.4379ZM35.5257 11.766L36.2377 16.9501C36.6744 16.8758 37.065 16.6345 37.327 16.2773C37.589 15.9201 37.7018 15.475 37.6415 15.0362L37.3936 13.2308C37.3334 12.7919 37.1048 12.3936 36.7561 12.1203C36.4075 11.8469 35.9663 11.7199 35.5257 11.766Z" fill="#371A45"/>
<g opacity="0.35">
<path opacity="0.35" d="M20.1785 23.6706C20.3394 23.8392 20.5059 24.0012 20.6777 24.1567C22.4151 25.7306 24.6706 26.6105 27.0148 26.6288C29.359 26.6471 31.628 25.8025 33.3897 24.2559C33.4854 24.1719 33.579 24.0858 33.6707 23.9976C33.9398 23.7415 34.1934 23.4697 34.4302 23.1835C34.5772 23.0074 34.7167 22.8261 34.8488 22.6396C34.5476 22.3011 34.1782 22.0302 33.7649 21.8445C33.3516 21.6589 32.9037 21.5628 32.4506 21.5625H23.1998C21.8187 21.5625 20.633 22.4429 20.1785 23.6706Z" fill="#371A45"/>
</g>
<path d="M27.0885 24.6716C32.118 24.6716 36.1953 20.5944 36.1953 15.5648C36.1953 10.5353 32.118 6.45801 27.0885 6.45801C22.0589 6.45801 17.9817 10.5353 17.9817 15.5648C17.9817 20.5944 22.0589 24.6716 27.0885 24.6716Z" fill="white"/>
<path d="M27.07 24.7177C25.3144 24.7177 23.5948 24.2102 22.0899 23.2287C20.0424 21.8936 18.6381 19.841 18.1348 17.4494C17.6314 15.0577 18.0894 12.6141 19.4245 10.5666C20.7597 8.51912 22.8122 7.11454 25.2038 6.61101C30.1408 5.57151 35.0028 8.74309 36.0422 13.6802C37.0815 18.6174 33.9101 23.4793 28.9728 24.5186C28.3471 24.6506 27.7095 24.7173 27.07 24.7177ZM27.0907 6.50013C26.4626 6.50035 25.8362 6.56586 25.2216 6.69559C22.8525 7.19423 20.8195 8.58559 19.497 10.6134C18.1744 12.6412 17.7205 15.0626 18.2192 17.4316C18.7178 19.8005 20.1092 21.8337 22.137 23.1564C24.1648 24.4791 26.5864 24.9327 28.9553 24.434C33.8459 23.4046 36.9878 18.5884 35.9578 13.6979C35.0603 9.43499 31.2844 6.50013 27.0907 6.50013Z" fill="#371A45"/>
<g opacity="0.35">
<path opacity="0.35" d="M18.0027 16.1891C18.0312 16.6098 18.0891 17.0281 18.1759 17.4407C19.2126 22.3621 24.0419 25.512 28.9636 24.4766C33.8853 23.4412 37.0348 18.6106 35.9994 13.6891C35.9697 13.5473 35.9364 13.4065 35.9005 13.2686C36.2128 17.7329 33.1936 21.8564 28.6905 22.8044C23.9111 23.81 19.2189 20.8679 18.0027 16.1891Z" fill="#371A45"/>
</g>
<path d="M27.0696 24.915C25.2762 24.915 23.5196 24.3966 21.9824 23.3938C19.8912 22.03 18.4563 19.9332 17.942 17.49C17.4278 15.0469 17.8957 12.5497 19.2597 10.4586C20.6236 8.36747 22.7201 6.93249 25.1632 6.41809C30.2064 5.3567 35.1735 8.59616 36.2355 13.6396C37.2975 18.6831 34.0574 23.6498 29.0141 24.7119C28.3747 24.8467 27.7231 24.9148 27.0696 24.915ZM27.0907 6.69734C26.4763 6.69753 25.8635 6.76161 25.2623 6.88854C22.9447 7.37679 20.9559 8.73744 19.6621 10.7211C18.3682 12.7049 17.9244 15.0735 18.4122 17.3911C18.9004 19.7086 20.2611 21.6975 22.2448 22.9912C24.2285 24.2849 26.5974 24.7289 28.9147 24.2411C33.699 23.2342 36.7718 18.5228 35.7649 13.7385C34.887 9.56778 31.1936 6.69734 27.0907 6.69734Z" fill="#371A45"/>
<path d="M18.2535 17.6635C18.5942 19.4127 19.4782 20.9261 20.7105 22.0806C21.6347 22.9461 24.9709 24.1262 28.6729 23.4397C32.1055 22.803 34.8674 20.3684 35.3992 19.2199C36.108 17.6871 36.36 15.9526 36.0195 14.2034C35.118 9.57446 30.7673 8.43007 25.8607 9.38562C20.9541 10.3412 17.352 13.0346 18.2535 17.6635Z" fill="#371A45"/>
<path d="M26.3849 23.8898C23.5233 23.8898 21.2711 22.9342 20.5466 22.2554C19.2314 21.0238 18.3573 19.4519 18.0176 17.7089C17.575 15.4369 18.1448 13.5077 19.7113 11.9746C21.0773 10.6379 23.1882 9.66076 25.8154 9.14904C28.4427 8.63732 30.7658 8.75088 32.5337 9.47743C34.5611 10.3104 35.8132 11.8848 36.2556 14.1568C36.5952 15.8995 36.3745 17.6848 35.6177 19.3201C35.0588 20.5276 32.275 23.0155 28.7172 23.6753C27.948 23.8179 27.1673 23.8897 26.3849 23.8898ZM18.4896 17.6173C18.8095 19.2604 19.6346 20.7429 20.8754 21.905C21.6993 22.6767 24.9195 23.8914 28.6298 23.2032C31.9776 22.5824 34.6748 20.214 35.1818 19.1188C35.8959 17.5753 36.1043 15.8919 35.7842 14.2492C35.3747 12.146 34.2196 10.6897 32.3507 9.92252C30.6699 9.23173 28.4417 9.12762 25.9069 9.62138C23.3721 10.1151 21.3459 11.0477 20.0479 12.3187C18.6043 13.7313 18.08 15.5144 18.4896 17.6173Z" fill="#371A45"/>
<g opacity="0.7">
<path opacity="0.7" d="M21.6032 17.9746C22.2041 17.7404 22.4293 16.8783 22.1062 16.049C21.783 15.2198 21.0339 14.7373 20.4329 14.9715C19.8319 15.2057 19.6067 16.0678 19.9299 16.8971C20.253 17.7264 21.0022 18.2088 21.6032 17.9746Z" fill="white"/>
</g>
<g opacity="0.7">
<path opacity="0.7" d="M23.3933 19.9805C23.6992 19.8093 23.7855 19.3815 23.586 19.0249C23.3865 18.6684 22.9768 18.5181 22.6708 18.6893C22.3649 18.8605 22.2787 19.2883 22.4782 19.6448C22.6777 20.0014 23.0874 20.1516 23.3933 19.9805Z" fill="white"/>
</g>
<g opacity="0.35">
<path opacity="0.35" d="M19.1403 13.0087C18.2561 14.2564 17.8918 15.804 18.2536 17.6631C18.5944 19.4126 19.4787 20.9259 20.7106 22.0805C21.6349 22.946 24.9714 24.126 28.6734 23.4399C29.9807 23.1978 31.19 22.6948 32.2172 22.1011C27.6486 22.8477 23.5815 21.394 22.4353 20.3204C20.8707 18.8557 19.7487 16.9342 19.3168 14.7145C19.2051 14.1526 19.146 13.5815 19.1403 13.0087Z" fill="#111A28"/>
</g>
<path d="M18.2268 13.6959C18.1854 13.6958 18.1446 13.6851 18.1085 13.6647C18.0724 13.6443 18.0422 13.6148 18.0209 13.5793C17.9995 13.5438 17.9877 13.5033 17.9867 13.4618C17.9856 13.4204 17.9952 13.3794 18.0147 13.3427C19.1765 10.8034 21.9711 8.93275 25.6849 8.20966C29.4281 7.48075 32.7323 8.21171 34.7505 10.215L34.5826 10.3865L34.4311 10.5731L34.5826 10.3865L34.4309 10.573L34.412 10.5561C32.5085 8.6661 29.3613 7.98334 25.7767 8.68185C22.2122 9.37611 19.5407 11.1519 18.4472 13.5541L18.436 13.5773L18.4125 13.6088C18.3899 13.6361 18.3615 13.6581 18.3294 13.6731C18.2973 13.6882 18.2623 13.696 18.2268 13.6959Z" fill="#371A45"/>
<g opacity="0.7">
<path opacity="0.7" d="M34.5614 17.3455C34.5614 17.3455 35.1058 12.5 32.2904 11.1595C29.4751 9.81901 25.9358 10.5161 26.0629 10.727C26.0629 10.727 30.1673 10.9125 32.3046 13.7126C33.9527 15.8719 34.5614 17.3455 34.5614 17.3455Z" fill="white"/>
</g>
<path d="M28.7923 37.9425L29.1306 37.8556C29.2453 37.8241 29.3609 37.7934 29.4754 37.7584C29.7054 37.6926 29.9339 37.6191 30.1608 37.5379C30.3889 37.4591 30.6114 37.3673 30.8389 37.2785C31.0663 37.1897 31.2909 37.0909 31.5347 37.0059C31.3736 37.2043 31.1873 37.3808 30.9805 37.531C30.8786 37.6075 30.7728 37.6787 30.6637 37.7445C30.5535 37.8075 30.4432 37.8705 30.3286 37.9277C30.1012 38.0437 29.8661 38.1436 29.6248 38.227C29.3807 38.309 29.1412 38.3775 28.8728 38.416C28.8123 38.4241 28.7509 38.4089 28.7012 38.3735C28.6515 38.338 28.6171 38.285 28.6051 38.2251C28.593 38.1652 28.6042 38.103 28.6364 38.0511C28.6686 37.9992 28.7193 37.9615 28.7783 37.9457L28.7923 37.9425Z" fill="#371A45"/>
<path d="M26.7234 38.416C26.4557 38.3777 26.2155 38.3092 25.9714 38.227C25.7301 38.1437 25.495 38.0437 25.2677 37.9277C25.1536 37.871 25.0431 37.8069 24.9325 37.7445C24.8234 37.6787 24.7177 37.6075 24.6158 37.531C24.409 37.3808 24.2226 37.2043 24.0615 37.0059C24.3053 37.0909 24.528 37.1919 24.7574 37.2785C24.9867 37.3651 25.2073 37.4595 25.4354 37.5379C25.6635 37.6163 25.8907 37.6921 26.1208 37.7584C26.2353 37.7934 26.3509 37.8233 26.4656 37.8556L26.8039 37.9425L26.8171 37.946C26.8771 37.961 26.9289 37.9984 26.9619 38.0506C26.9949 38.1028 27.0065 38.1657 26.9944 38.2263C26.9822 38.2868 26.9472 38.3404 26.8966 38.3758C26.846 38.4112 26.7837 38.4257 26.7226 38.4164L26.7234 38.416Z" fill="#371A45"/>
<path d="M34.3039 43.988C34.164 43.9712 34.009 43.9554 33.8602 43.9425C33.7114 43.9296 33.5592 43.9179 33.4082 43.9119C33.1064 43.8962 32.8046 43.8944 32.5029 43.9066C32.2016 43.9243 31.9016 43.9586 31.6042 44.0093C31.3009 44.0681 31.0021 44.1476 30.7097 44.2473C30.9395 44.0254 31.2232 43.857 31.5224 43.7316C31.8237 43.6116 32.1406 43.5362 32.4597 43.4845C32.7788 43.4381 33.101 43.4165 33.4234 43.4198C33.5843 43.4229 33.7451 43.4287 33.9054 43.4453C34.0682 43.4592 34.23 43.4825 34.39 43.5152C34.4505 43.5279 34.5037 43.5634 34.5387 43.6142C34.5737 43.6651 34.5877 43.7275 34.5779 43.7885C34.5682 43.8495 34.5353 43.9043 34.4861 43.9417C34.437 43.9791 34.3753 43.9961 34.3139 43.9893L34.3039 43.988Z" fill="#371A45"/>
<path d="M21.2002 43.5152C21.3603 43.4825 21.5221 43.4592 21.6848 43.4453C21.8452 43.4295 22.006 43.4229 22.1668 43.4198C22.4892 43.4165 22.8114 43.4381 23.1305 43.4845C23.4496 43.5362 23.7667 43.6116 24.068 43.7316C24.3672 43.8576 24.6507 44.0254 24.8807 44.2473C24.5883 44.1476 24.2895 44.0681 23.9862 44.0093C23.6888 43.9586 23.3888 43.9243 23.0875 43.9066C22.786 43.8943 22.4842 43.8961 22.1821 43.9119C22.0312 43.9179 21.8803 43.9304 21.7301 43.9425C21.5798 43.9546 21.4262 43.9712 21.2864 43.988L21.2772 43.9893C21.2156 43.9967 21.1536 43.9801 21.104 43.9428C21.0544 43.9055 21.0211 43.8505 21.0112 43.7892C21.0012 43.728 21.0153 43.6653 21.0506 43.6142C21.0858 43.5631 21.1394 43.5276 21.2002 43.5152Z" fill="#371A45"/>
<g opacity="0.35">
<path opacity="0.35" d="M31.4141 37.0867C31.4141 37.0867 29.4993 37.4094 28.0206 37.4094C26.5418 37.4094 24.175 37.0867 24.175 37.0867C24.175 37.0867 25.596 38.2282 27.8617 38.1789C30.1837 38.1285 31.4141 37.0867 31.4141 37.0867Z" fill="#371A45"/>
</g>
<g opacity="0.35">
<path opacity="0.35" d="M20.4275 33.252C20.7425 33.2735 21.0732 33.2861 21.4051 33.2835C21.4503 33.2835 21.4942 33.2835 21.5396 33.2817C21.585 33.2798 21.6341 33.2798 21.6813 33.2772C21.7128 33.2772 21.7443 33.2754 21.7758 33.2741C21.8129 33.2722 21.85 33.2703 21.887 33.2678C21.9343 33.2653 21.9815 33.2621 22.0272 33.2583H22.0304C22.0776 33.2552 22.1249 33.2508 22.1705 33.2464C22.2008 33.2434 22.2315 33.2402 22.2617 33.2365C22.2876 33.2346 22.3132 33.2314 22.3384 33.2283C22.3786 33.2238 22.4189 33.2182 22.4578 33.2125C22.4967 33.2068 22.532 33.2018 22.5681 33.1955C22.5755 33.1951 22.5829 33.1941 22.5901 33.1923C22.6328 33.186 22.6749 33.1785 22.7161 33.1705C22.7574 33.1624 22.8004 33.1547 22.8412 33.1459L22.8513 33.144C22.8746 33.1383 22.8985 33.1339 22.9198 33.1282C22.9456 33.1226 22.9706 33.1169 22.9958 33.11C23.0097 33.1062 23.0229 33.103 23.0368 33.0986V33.6113C23.0368 34.3185 23.6164 34.8981 24.3242 34.8981H31.3514C32.0579 34.8981 32.6375 34.3185 32.6375 33.6113V33.2018C33.4516 33.325 34.3834 33.2917 35.1622 33.2176C35.1359 32.7693 35.1022 32.3246 35.0611 31.8835C35.0252 31.5013 34.9847 31.1237 34.9397 30.7506C34.2294 30.7733 33.3819 30.7771 32.6375 30.7124V29.7944C32.6366 29.4536 32.5008 29.1271 32.2598 28.8861C32.0188 28.6451 31.6922 28.5093 31.3514 28.5083H24.3251C23.984 28.5087 23.657 28.6443 23.4157 28.8853C23.1744 29.1264 23.0384 29.4533 23.0377 29.7944V30.6546C22.8894 30.6764 22.7322 30.6941 22.5706 30.7086C21.9582 30.7639 21.273 30.7727 20.65 30.7613C20.6066 31.1259 20.5671 31.4951 20.5318 31.869C20.4891 32.3255 20.454 32.7876 20.4275 33.252Z" fill="#371A45"/>
</g>
<path d="M31.3921 32.2709C32.3878 32.6739 33.9288 32.5896 34.9793 32.4624C35.1289 32.4442 35.2732 32.3962 35.404 32.3213C35.5347 32.2465 35.6491 32.1461 35.7404 32.0263C35.8317 31.9065 35.8981 31.7696 35.9356 31.6237C35.9732 31.4778 35.9811 31.3259 35.959 31.1769C35.9183 30.9002 35.7763 30.6486 35.5605 30.4708C35.3448 30.2929 35.0707 30.2016 34.7914 30.2144C33.8088 30.2604 32.3344 30.2819 31.4014 30.0748" fill="white"/>
<g opacity="0.35">
<path opacity="0.35" d="M31.3918 32.2708C32.3877 32.6736 33.9285 32.5894 34.9791 32.4624C35.1643 32.4398 35.3411 32.3716 35.4936 32.2639C35.646 32.1562 35.7694 32.0124 35.8526 31.8453C35.9358 31.6782 35.9763 31.4931 35.9704 31.3065C35.9645 31.1199 35.9124 30.9377 35.8189 30.7762C35.7317 30.9277 35.6104 31.0566 35.4646 31.1529C35.3188 31.2492 35.1525 31.31 34.9791 31.3306C33.9304 31.4577 32.3928 31.542 31.3969 31.1409L31.3918 32.2708Z" fill="#371A45"/>
</g>
<path d="M33.371 32.8081C32.6292 32.8081 31.8826 32.7293 31.3018 32.4939C30.6077 32.2129 30.5874 31.1079 30.7921 30.4487C30.9904 29.8113 31.3207 29.8113 31.4536 29.8406C32.3452 30.0384 33.755 30.0227 34.7805 29.9746C35.1345 29.958 35.4812 30.0793 35.7477 30.3131C36.0141 30.5468 36.1795 30.8748 36.209 31.228C36.2386 31.5812 36.13 31.9321 35.9061 32.2069C35.6822 32.4817 35.3604 32.6589 35.0085 32.7013C34.5184 32.7608 33.9462 32.8081 33.371 32.8081ZM31.4821 32.0483C32.4181 32.4272 33.8849 32.353 34.9504 32.2241C35.1782 32.1959 35.3863 32.0807 35.5311 31.9025C35.6758 31.7243 35.746 31.497 35.7268 31.2683C35.7077 31.0395 35.6008 30.8271 35.4285 30.6754C35.2562 30.5237 35.0319 30.4446 34.8025 30.4547C33.7607 30.5037 32.3274 30.5188 31.3834 30.3172C31.2889 30.4126 31.1233 30.874 31.1679 31.3953C31.1819 31.5591 31.2407 31.9506 31.4829 32.0483H31.4821Z" fill="#371A45"/>
<path d="M20.1886 32.4624C20.6814 32.5221 21.2831 32.5727 21.8854 32.5669C21.9268 32.5669 21.9676 32.5669 22.0091 32.565C22.0507 32.5631 22.0966 32.5631 22.1399 32.5612C22.1695 32.5612 22.1983 32.5593 22.2267 32.558L22.3292 32.5524C22.3725 32.5499 22.4158 32.5467 22.4587 32.5436H22.4618C22.5045 32.5404 22.548 32.5366 22.5906 32.5322C22.619 32.5297 22.6472 32.5265 22.6749 32.5234C22.6988 32.5215 22.7222 32.5184 22.7459 32.5158C22.7829 32.5114 22.8201 32.5064 22.8562 32.5013C22.8923 32.4963 22.9249 32.4914 22.9581 32.4856C22.9649 32.4852 22.9716 32.4842 22.9782 32.4824C23.0178 32.4768 23.057 32.4698 23.0951 32.4623C23.1332 32.4547 23.1724 32.4478 23.2102 32.4396L23.2195 32.4377C23.241 32.4327 23.2624 32.4283 23.2825 32.4232C23.3057 32.4183 23.3298 32.4127 23.3523 32.4064C23.4233 32.3887 23.4931 32.3686 23.561 32.3473C23.5974 32.336 23.6339 32.3234 23.6697 32.3108C23.7054 32.2982 23.7407 32.2843 23.7747 32.2706L23.7703 31.2163L23.7653 30.0746C23.5263 30.1281 23.2517 30.1658 22.9593 30.1922C22.1088 30.2696 21.1067 30.2482 20.3763 30.2141C20.3587 30.2141 20.3411 30.2129 20.323 30.2129C20.0359 30.2138 19.7599 30.3241 19.5512 30.5213C19.3426 30.7186 19.2169 30.9878 19.1998 31.2744C19.1826 31.561 19.2753 31.8434 19.459 32.0641C19.6427 32.2847 19.9035 32.4271 20.1884 32.4623L20.1886 32.4624Z" fill="white"/>
<g opacity="0.35">
<path opacity="0.35" d="M20.1885 32.4623C20.6814 32.522 21.283 32.5726 21.8853 32.5668C21.9269 32.5668 21.9677 32.5668 22.0091 32.5649C22.0505 32.563 22.0965 32.563 22.14 32.5611C22.1694 32.5611 22.1984 32.5592 22.2268 32.5579L22.3291 32.5523C22.3726 32.5498 22.4159 32.5466 22.4586 32.5435H22.4617C22.5046 32.5403 22.5479 32.5365 22.5907 32.5321C22.6189 32.5296 22.6473 32.5264 22.6748 32.5233C22.6988 32.5214 22.7221 32.5183 22.7459 32.5157C22.783 32.5113 22.8201 32.5063 22.8561 32.5014C22.8922 32.4965 22.9246 32.4913 22.958 32.4857C22.9648 32.4853 22.9715 32.4842 22.978 32.4825C23.0177 32.4768 23.0568 32.4699 23.095 32.4623C23.1333 32.4548 23.1724 32.4479 23.21 32.4397L23.2195 32.4378C23.2409 32.4327 23.2622 32.4285 23.2825 32.4234C23.3058 32.4184 23.3297 32.4127 23.3522 32.4064C23.4233 32.3888 23.493 32.3686 23.5609 32.3474C23.5975 32.336 23.6339 32.3234 23.6698 32.3108C23.7057 32.2982 23.7408 32.2844 23.7748 32.2707L23.7704 31.2641C23.7376 31.2773 23.7043 31.2905 23.6698 31.3025C23.6353 31.3145 23.5975 31.3276 23.5609 31.3389C23.493 31.3603 23.4233 31.3805 23.3522 31.3981C23.3291 31.4043 23.305 31.4099 23.2825 31.415C23.2617 31.42 23.2404 31.4244 23.2195 31.4295L23.21 31.4314C23.1724 31.4395 23.134 31.4471 23.095 31.454C23.0561 31.461 23.0177 31.4685 22.978 31.474C22.9715 31.4757 22.9648 31.4768 22.958 31.4772C22.9246 31.4829 22.8908 31.4879 22.8561 31.4929C22.8215 31.498 22.7832 31.503 22.7459 31.5074C22.7227 31.5099 22.6986 31.5131 22.6748 31.515C22.6473 31.5181 22.6189 31.5213 22.5907 31.5238C22.5479 31.5282 22.5046 31.532 22.4617 31.5351H22.4586C22.4159 31.5383 22.3726 31.5414 22.3291 31.544L22.2268 31.5495C22.1984 31.5507 22.1694 31.552 22.14 31.5526C22.0965 31.5545 22.0526 31.5558 22.0091 31.5564C21.9656 31.557 21.9269 31.5583 21.8853 31.5583C21.283 31.564 20.6814 31.5137 20.1885 31.454C20.0033 31.4318 19.8266 31.3638 19.6741 31.2562C19.5217 31.1487 19.3984 31.0049 19.3154 30.8379C19.2349 30.9996 19.1943 31.1783 19.1972 31.3589C19.2 31.5396 19.2461 31.7169 19.3317 31.876C19.4172 32.0352 19.5396 32.1715 19.6887 32.2735C19.8378 32.3755 20.0092 32.4403 20.1885 32.4623Z" fill="#371A45"/>
</g>
<path d="M21.7966 32.8081C21.2215 32.8081 20.6496 32.7608 20.1596 32.7013C19.8077 32.6589 19.486 32.4817 19.2621 32.2069C19.0382 31.9321 18.9296 31.5812 18.9591 31.228C18.9887 30.8748 19.154 30.5468 19.4205 30.3131C19.6869 30.0793 20.0336 29.958 20.3877 29.9746C21.4131 30.0219 22.8228 30.0376 23.7144 29.8406C23.8471 29.8113 24.1773 29.8113 24.3759 30.4487C24.5806 31.1074 24.5605 32.2127 23.8662 32.4939C23.2852 32.7293 22.5385 32.8081 21.7966 32.8081ZM20.3228 30.4538C20.0967 30.4544 19.8795 30.5412 19.7152 30.6965C19.5509 30.8517 19.452 31.0637 19.4385 31.2893C19.4251 31.515 19.4981 31.7372 19.6428 31.9109C19.7875 32.0845 19.9929 32.1965 20.2172 32.2241C21.2829 32.353 22.7497 32.4272 23.6855 32.0483L23.7758 32.2711L23.6855 32.0483C23.9271 31.9505 23.9859 31.5591 24.0005 31.3953C24.0453 30.8738 23.8804 30.4126 23.7852 30.3172C22.841 30.5186 21.4081 30.5035 20.3659 30.4547C20.351 30.4539 20.3368 30.4536 20.3228 30.4536V30.4538Z" fill="#371A45"/>
<path d="M23.3909 29.3493V32.8683C23.3918 33.1829 23.5172 33.4844 23.7397 33.7069C23.9622 33.9293 24.2636 34.0547 24.5783 34.0557H31.0591C31.3736 34.0546 31.6749 33.9291 31.8972 33.7066C32.1195 33.4842 32.2448 33.1828 32.2457 32.8683V29.3493C32.2447 29.0349 32.1194 28.7336 31.8971 28.5113C31.6747 28.289 31.3735 28.1638 31.0591 28.1628H24.5786C24.264 28.1635 23.9625 28.2887 23.74 28.511C23.5175 28.7334 23.3921 29.0347 23.3912 29.3493H23.3909Z" fill="white"/>
<g opacity="0.43">
<path opacity="0.43" d="M23.3909 29.3494V32.8687C23.3919 33.1833 23.5174 33.4847 23.7399 33.707C23.9624 33.9294 24.2639 34.0546 24.5784 34.0555H31.0592C31.3736 34.0544 31.6747 33.9289 31.897 33.7066C32.1192 33.4843 32.2445 33.1831 32.2455 32.8687V29.3494C32.2446 29.035 32.1193 28.7338 31.8971 28.5116C31.6748 28.2893 31.3736 28.164 31.0592 28.1631H24.5784C24.2638 28.1635 23.9622 28.2886 23.7396 28.511C23.5171 28.7333 23.3917 29.0348 23.3909 29.3494Z" fill="white"/>
</g>
<g opacity="0.35">
<path opacity="0.35" d="M23.3909 30.9811V32.869C23.3919 33.1836 23.5174 33.485 23.7399 33.7073C23.9624 33.9297 24.2639 34.055 24.5784 34.0558H31.0592C31.3736 34.0547 31.6747 33.9293 31.897 33.7069C32.1192 33.4846 32.2445 33.1834 32.2455 32.869V30.1742C30.9762 30.679 31.5765 32.9073 29.0706 32.7602C27.0375 32.6406 26.734 31.0022 26.734 31.0022H24.3149C24.3149 31.0022 24.3215 32.0574 23.9268 32.0651C23.6177 32.0702 23.4863 31.5994 23.3909 30.9811Z" fill="#371A45"/>
</g>
<path d="M31.0589 34.2957H24.5786C24.2002 34.2953 23.8375 34.1448 23.57 33.8773C23.3025 33.6098 23.152 33.247 23.1516 32.8687V29.3492C23.152 28.9709 23.3025 28.6082 23.57 28.3406C23.8375 28.0731 24.2002 27.9226 24.5786 27.9221H31.0597C31.438 27.9226 31.8007 28.0731 32.0682 28.3406C32.3357 28.6082 32.4862 28.9709 32.4866 29.3492V32.8687C32.4862 33.2472 32.3356 33.61 32.068 33.8775C31.8003 34.1451 31.4374 34.2955 31.0589 34.2957ZM24.5786 28.4028C24.3277 28.4031 24.0871 28.5029 23.9097 28.6803C23.7323 28.8578 23.6326 29.0983 23.6323 29.3492V32.8687C23.6323 33.1198 23.732 33.3605 23.9094 33.5381C24.0869 33.7157 24.3275 33.8156 24.5786 33.8159H31.0597C31.3106 33.8156 31.5512 33.7158 31.7286 33.5384C31.906 33.361 32.0058 33.1204 32.0061 32.8695V29.3492C32.0058 29.0983 31.906 28.8578 31.7286 28.6803C31.5512 28.5029 31.3106 28.4031 31.0597 28.4028H24.5786Z" fill="#371A45"/>
<path d="M26.246 31.8326C26.6457 31.4329 26.6457 30.7849 26.246 30.3852C25.8463 29.9855 25.1983 29.9855 24.7986 30.3852C24.399 30.7849 24.399 31.4329 24.7986 31.8326C25.1983 32.2322 25.8463 32.2322 26.246 31.8326Z" fill="#22A7F0"/>
<path d="M24.4988 31.1094C24.4987 31.1641 24.5031 31.2186 24.5121 31.2725C24.5512 31.0327 24.6744 30.8147 24.8594 30.6574C25.0445 30.5001 25.2795 30.4137 25.5224 30.4137C25.7654 30.4137 26.0003 30.5001 26.1854 30.6574C26.3705 30.8147 26.4936 31.0327 26.5328 31.2725C26.5418 31.2186 26.5462 31.1641 26.546 31.1094C26.546 30.8379 26.4382 30.5775 26.2462 30.3855C26.0542 30.1936 25.7938 30.0857 25.5223 30.0857C25.2508 30.0857 24.9904 30.1936 24.7984 30.3855C24.6064 30.5775 24.4985 30.8379 24.4985 31.1094H24.4988Z" fill="white"/>
<g opacity="0.35">
<path opacity="0.35" d="M24.4998 31.1088C24.4953 31.246 24.5184 31.3827 24.5678 31.5108C24.6172 31.6388 24.6919 31.7557 24.7873 31.8543C24.8828 31.953 24.9971 32.0314 25.1235 32.085C25.2499 32.1385 25.3857 32.1661 25.523 32.1661C25.6603 32.1661 25.7962 32.1385 25.9225 32.085C26.0489 32.0314 26.1632 31.953 26.2587 31.8543C26.3542 31.7557 26.4288 31.6388 26.4782 31.5108C26.5276 31.3827 26.5507 31.246 26.5462 31.1088C26.5465 30.982 26.5227 30.8564 26.476 30.7385C26.4013 30.9305 26.2703 31.0954 26.1003 31.2117C25.9303 31.328 25.7291 31.3902 25.5231 31.3902C25.3171 31.3902 25.1159 31.328 24.9459 31.2117C24.7759 31.0954 24.6449 30.9305 24.5702 30.7385C24.5235 30.8564 24.4997 30.982 24.4998 31.1088Z" fill="#371A45"/>
</g>
<path d="M25.5221 32.3126C25.284 32.3126 25.0513 32.242 24.8533 32.1097C24.6554 31.9774 24.5011 31.7894 24.41 31.5694C24.3189 31.3495 24.295 31.1074 24.3415 30.8739C24.388 30.6404 24.5026 30.4259 24.671 30.2575C24.8394 30.0892 25.0539 29.9746 25.2874 29.9281C25.5209 29.8817 25.7629 29.9056 25.9829 29.9967C26.2029 30.0878 26.3909 30.2422 26.5231 30.4401C26.6554 30.6381 26.7259 30.8709 26.7259 31.109C26.7255 31.4281 26.5986 31.734 26.3729 31.9597C26.1472 32.1853 25.8413 32.3122 25.5221 32.3126ZM25.5221 30.2651C25.3554 30.2651 25.1923 30.3145 25.0536 30.4072C24.915 30.4998 24.8069 30.6315 24.7431 30.7856C24.6792 30.9397 24.6625 31.1093 24.6951 31.2728C24.7276 31.4364 24.8079 31.5867 24.9259 31.7046C25.0438 31.8225 25.194 31.9028 25.3576 31.9354C25.5212 31.9679 25.6907 31.9512 25.8448 31.8874C25.9989 31.8236 26.1306 31.7155 26.2233 31.5768C26.3159 31.4381 26.3654 31.2751 26.3654 31.1083C26.365 30.8849 26.276 30.6707 26.118 30.5127C25.9599 30.3547 25.7456 30.2659 25.5221 30.2657V30.2651Z" fill="#371A45"/>
<path d="M28.4225 34.2957C28.3588 34.2957 28.2976 34.2704 28.2526 34.2253C28.2075 34.1803 28.1822 34.1192 28.1821 34.0555V32.0124C28.1826 31.8304 28.2251 31.6509 28.3063 31.488C28.3876 31.3251 28.5054 31.1832 28.6505 31.0734L29.2018 30.6587C29.2876 30.5938 29.3572 30.51 29.4053 30.4137C29.4533 30.3174 29.4784 30.2114 29.4787 30.1038V28.1625C29.4787 28.0987 29.504 28.0376 29.5491 27.9925C29.5941 27.9474 29.6553 27.9221 29.719 27.9221C29.7828 27.9221 29.8439 27.9474 29.889 27.9925C29.934 28.0376 29.9594 28.0987 29.9594 28.1625V30.1038C29.9589 30.2858 29.9164 30.4653 29.8351 30.6282C29.7539 30.7911 29.6361 30.933 29.491 31.0428L28.9397 31.4575C28.8539 31.5224 28.7842 31.6062 28.7362 31.7025C28.6882 31.7988 28.6631 31.9048 28.6628 32.0124V34.0555C28.6628 34.1192 28.6374 34.1803 28.5924 34.2253C28.5473 34.2704 28.4862 34.2957 28.4225 34.2957Z" fill="#371A45"/>
<path d="M36.3093 23.5064C36.8763 25.8604 39.2514 25.641 39.9051 25.4819C41.2685 25.1499 41.7363 23.865 41.7363 23.865L40.6367 22.4116L40.1476 21.6255L39.5636 21.4499C39.1047 20.6134 38.1271 19.6648 37.5657 19.9995C37.5657 19.9992 35.8203 21.4773 36.3093 23.5064Z" fill="white"/>
<g opacity="0.35">
<path opacity="0.35" d="M41.939 23.105C41.939 23.8385 40.9782 24.5039 38.9099 24.2628C38.1815 24.1779 37.582 23.6682 37.582 22.9347C37.582 22.5825 37.7219 22.2448 37.9709 21.9957C38.22 21.7467 38.5577 21.6067 38.9099 21.6067C39.6434 21.6067 41.939 22.3715 41.939 23.105Z" fill="#371A45"/>
</g>
<path d="M41.8659 20.7315C41.323 21.2765 40.8475 21.6783 40.8475 21.6783L39.3237 23.2375L38.2952 20.726C38.2952 20.726 38.2893 20.2192 38.3288 19.5482C38.4058 18.2199 38.6588 16.2494 39.4796 16.3003C40.9561 16.3921 39.9792 20.2801 39.9792 20.2801C39.9792 20.2801 42.3361 17.1379 43.28 18.0304C43.8325 18.5528 42.7579 19.8357 41.8659 20.7315Z" fill="white"/>
<g opacity="0.35">
<path opacity="0.35" d="M41.8659 20.7316C41.323 21.2766 40.8475 21.6784 40.8475 21.6784L39.3237 23.2376L38.2952 20.7261C38.2952 20.7261 38.2893 20.2193 38.3288 19.5483C38.7244 19.8611 39.4628 20.4289 39.7208 20.7671C40.1654 21.3497 41.2701 20.6165 41.8659 20.7316Z" fill="#371A45"/>
</g>
<path d="M39.3235 23.4783C39.2759 23.4782 39.2293 23.4639 39.1897 23.4373C39.1501 23.4108 39.1193 23.3731 39.1011 23.329L38.0728 20.8169C38.0614 20.7888 38.0553 20.7588 38.0549 20.7285C38.0508 20.3617 38.0399 17.1197 38.9211 16.2829C39.0879 16.1245 39.2875 16.0479 39.4954 16.0605C39.7829 16.0785 40.0261 16.2127 40.1987 16.4488C40.6703 17.0936 40.5601 18.444 40.4081 19.3783C41.0381 18.6613 42.0172 17.7007 42.7841 17.6354C43.04 17.6135 43.2697 17.6902 43.4456 17.857C43.5998 18.0028 43.6779 18.2008 43.6715 18.4297C43.6392 19.5896 41.3205 21.5934 41.0119 21.855L39.4955 23.4052C39.4732 23.4283 39.4464 23.4466 39.4169 23.4592C39.3874 23.4717 39.3556 23.4782 39.3235 23.4783ZM38.5352 20.6777L39.4075 22.8083L40.6757 21.51C40.681 21.5047 40.6867 21.4995 40.6925 21.4943C41.6477 20.6866 43.1708 19.1365 43.1908 18.4153C43.1941 18.2958 43.152 18.2402 43.115 18.2054C43.0378 18.1323 42.9452 18.103 42.8243 18.1134C42.0196 18.1818 40.6363 19.8049 40.1712 20.4247C40.1379 20.4691 40.0902 20.5005 40.0363 20.5137C39.9824 20.5269 39.9257 20.5211 39.8756 20.4972C39.8255 20.4733 39.7852 20.4329 39.7616 20.3827C39.738 20.3325 39.7324 20.2757 39.7459 20.2218C39.9318 19.4816 40.3057 17.4102 39.8099 16.7321C39.7207 16.6102 39.6111 16.5493 39.4648 16.5401C39.4175 16.5371 39.3438 16.5434 39.2515 16.6312C38.6433 17.2095 38.5286 19.704 38.5352 20.6777Z" fill="#371A45"/>
<path d="M42.0152 23.5932C41.6529 24.1811 40.1184 24.4555 39.5485 24.0137C39.0638 23.6374 39.5485 23.158 39.6859 23.0361C39.7073 23.0167 39.7207 23.0066 39.7207 23.0066C39.7207 23.0066 39.1309 22.8258 39.0277 22.3294C39.0207 22.2961 39.0162 22.2623 39.0143 22.2283C38.9781 21.6551 40.5087 21.1604 41.2036 21.2723C41.7233 21.3559 41.9213 21.5674 41.9701 21.7937C42.0224 22.0349 41.9052 22.2925 41.8269 22.4305C41.7907 22.4935 41.7639 22.531 41.7639 22.531C41.7639 22.531 42.3051 23.1226 42.0152 23.5932Z" fill="white"/>
<g opacity="0.35">
<path opacity="0.35" d="M41.827 22.4302C41.4166 22.6405 40.5937 22.998 39.685 23.0361C39.7065 23.0168 39.7199 23.0067 39.7199 23.0067C39.7199 23.0067 39.13 22.8259 39.0269 22.3294C39.5712 22.4487 41.0744 22.6759 41.9694 21.7939C42.0225 22.0351 41.9053 22.2923 41.827 22.4302Z" fill="#371A45"/>
</g>
<g opacity="0.35">
<path opacity="0.35" d="M42.0153 23.5931C41.653 24.1811 40.1185 24.4554 39.5487 24.0136C39.3104 23.8287 39.3063 23.6199 39.38 23.4391C39.4084 23.4703 39.4396 23.499 39.4731 23.5248C40.0421 23.9667 41.5774 23.6922 41.939 23.105C41.9749 23.0476 41.9998 22.9841 42.0126 22.9176C42.103 23.119 42.1526 23.3695 42.0153 23.5931Z" fill="#371A45"/>
</g>
<path d="M40.383 24.4728C39.9775 24.4728 39.6289 24.38 39.4017 24.2038C39.1508 24.0091 39.0978 23.7886 39.0975 23.6379C39.0975 23.4199 39.2038 23.2241 39.3168 23.0781C39.0805 22.9302 38.8017 22.6675 38.7748 22.2434C38.7658 22.1045 38.8063 21.8923 39.0496 21.6713C39.5623 21.2056 40.6686 20.9421 41.242 21.0342C41.729 21.113 42.0399 21.3078 42.1658 21.6145C42.3053 21.954 42.1658 22.3124 42.0555 22.5141C42.2277 22.7571 42.5017 23.2614 42.2196 23.7193C42.0168 24.0488 41.5326 24.3115 40.9247 24.4219C40.746 24.455 40.5647 24.472 40.383 24.4728ZM40.9797 21.496C40.4887 21.496 39.714 21.7175 39.3732 22.0276C39.2944 22.0986 39.2517 22.1664 39.2547 22.2133C39.2802 22.6111 39.7872 22.7759 39.7924 22.7775C39.8342 22.7906 39.8716 22.8149 39.9005 22.8477C39.9295 22.8806 39.949 22.9207 39.9569 22.9637C39.9648 23.0068 39.9608 23.0512 39.9453 23.0922C39.9298 23.1332 39.9035 23.1691 39.8691 23.1962C39.7746 23.2714 39.5776 23.4797 39.5785 23.6372C39.5785 23.6782 39.5911 23.742 39.6965 23.8237C39.9044 23.985 40.3637 24.0352 40.8395 23.9497C41.294 23.8672 41.6845 23.6736 41.8109 23.4681C41.9987 23.1633 41.5904 22.6979 41.586 22.6933C41.5488 22.6523 41.5269 22.5996 41.5241 22.5442C41.5212 22.4889 41.5375 22.4342 41.5703 22.3895C41.6352 22.2993 41.8038 21.9958 41.7216 21.797C41.6489 21.6216 41.3795 21.5438 41.1666 21.5096C41.1048 21.5 41.0422 21.4954 40.9797 21.4957V21.496Z" fill="#371A45"/>
<path d="M39.9133 23.2526C39.8453 23.2526 39.7763 23.2507 39.7067 23.2464C39.6747 23.2453 39.6432 23.2378 39.6142 23.2243C39.5851 23.2108 39.559 23.1917 39.5375 23.168C39.5159 23.1443 39.4993 23.1166 39.4886 23.0864C39.4779 23.0562 39.4734 23.0242 39.4753 22.9922C39.4771 22.9602 39.4854 22.9289 39.4995 22.9002C39.5136 22.8715 39.5334 22.8458 39.5575 22.8248C39.5817 22.8038 39.6098 22.7878 39.6403 22.7779C39.6707 22.7679 39.7028 22.7641 39.7347 22.7667C40.7675 22.8271 41.6329 22.3287 41.6414 22.3236C41.6962 22.2928 41.761 22.2846 41.8218 22.301C41.8825 22.3173 41.9344 22.3569 41.9664 22.4111C41.9983 22.4653 42.0077 22.5298 41.9926 22.5909C41.9774 22.652 41.939 22.7047 41.8854 22.7377C41.8477 22.7594 40.9998 23.2526 39.9133 23.2526Z" fill="#371A45"/>
<path d="M37.566 19.9993C38.3111 19.555 39.7881 21.3696 39.8152 22.1846C39.836 22.8063 39.0995 23.3251 38.2194 22.5311C37.3277 21.7279 36.3957 20.6972 37.566 19.9993Z" fill="white"/>
<path d="M41.7363 23.8653C41.7363 23.8653 41.2684 25.1497 39.9054 25.4817C39.2514 25.6411 36.8767 25.8605 36.3093 23.5062C35.8203 21.4773 37.5659 19.9993 37.5659 19.9993C38.311 19.555 39.788 21.3696 39.8151 22.1846C39.8359 22.8063 38.9117 23.1589 38.1378 22.0648C38.1378 22.0648 38.5455 23.0586 37.6749 23.7368L39.7263 24.9181L41.2777 24.6152L41.7363 23.8653Z" fill="white"/>
<path d="M38.0803 23.2603L38.0393 23.237C38.0708 23.2127 38.0982 23.1898 38.125 23.1646C38.1116 23.1961 38.097 23.2282 38.0803 23.2603Z" fill="white"/>
<g opacity="0.35">
<path opacity="0.35" d="M38.1708 21.8805C38.0617 21.4787 39.2155 22.5015 39.8159 22.2387C39.7871 22.7427 39.1229 23.0367 38.4587 22.4322C38.4184 22.1087 38.1708 21.8805 38.1708 21.8805Z" fill="#371A45"/>
</g>
<g opacity="0.35">
<path opacity="0.35" d="M41.0163 24.6664L41.2781 24.6156C40.9887 24.9597 40.5455 25.3259 39.9054 25.4818C39.2513 25.6412 36.8764 25.8598 36.3092 23.506C35.9766 22.1255 36.6789 20.9992 37.1616 20.4215C36.7687 21.0482 36.4198 21.9534 36.6734 23.0066C37.2404 25.3607 39.6153 25.1418 40.2696 24.9824C40.534 24.9184 40.7862 24.8117 41.0163 24.6664Z" fill="#371A45"/>
</g>
<path d="M41.7358 23.8665C41.7015 23.9541 41.6612 24.0393 41.6154 24.1214L41.5752 24.1295L41.7358 23.8665Z" fill="white"/>
<path d="M41.6421 24.1161C41.6207 24.1416 41.5987 24.1677 41.5752 24.1931C41.5894 24.1684 41.6028 24.1443 41.6154 24.1214L41.6421 24.1161Z" fill="white"/>
<path d="M37.2625 25.1377C37.1305 25.1098 37.0053 25.0563 36.8938 24.9802C36.7819 24.9067 36.6815 24.817 36.5958 24.714C36.4239 24.511 36.2911 24.2777 36.2044 24.0261C36.0369 23.5345 35.9477 23.0096 35.9969 22.4878C36.0425 21.9669 36.2144 21.4669 36.4612 21.0194C36.5844 20.7961 36.7257 20.5832 36.8836 20.3828C36.962 20.2826 37.0444 20.1856 37.1307 20.0916C37.1742 20.0443 37.2179 19.9985 37.2638 19.9531C37.3096 19.9078 37.3536 19.8653 37.4103 19.816C37.4189 19.8085 37.4281 19.8017 37.4378 19.7956L37.4424 19.793C37.5974 19.6996 37.7857 19.6769 37.941 19.6985C38.0866 19.7201 38.2274 19.7664 38.3573 19.8355C38.4759 19.897 38.5886 19.9693 38.6939 20.0514C38.796 20.1293 38.8933 20.2135 38.9851 20.3034C39.1659 20.4793 39.3315 20.67 39.4801 20.8737C39.6308 21.0783 39.7619 21.2966 39.8717 21.5258C39.9288 21.6465 39.9754 21.772 40.0109 21.9008C40.0301 21.971 40.0433 22.0428 40.0501 22.1153L40.0547 22.1731C40.0547 22.1934 40.0534 22.2148 40.0523 22.2361C40.0485 22.2778 40.0504 22.3197 40.0392 22.3612C40.0115 22.5297 39.9147 22.6877 39.7872 22.7995C39.662 22.91 39.5062 22.9801 39.3404 23.0004C39.3015 23.0074 39.2619 23.0102 39.2223 23.0088C39.1834 23.0104 39.1445 23.0092 39.1057 23.0052C39.0306 22.9935 38.9534 22.9847 38.8852 22.9589C38.8501 22.9474 38.8145 22.9367 38.7802 22.9239L38.6832 22.8776C38.6195 22.8474 38.5586 22.8115 38.5013 22.7705C38.2718 22.613 38.0948 22.4125 37.9412 22.2035L38.3598 21.9735C38.3773 22.0187 38.3923 22.0647 38.4049 22.1114C38.417 22.1547 38.4271 22.198 38.4354 22.2415C38.4526 22.3284 38.4641 22.4164 38.4698 22.5048C38.4795 22.6853 38.4661 22.8663 38.4299 23.0434C38.4142 23.1342 38.3794 23.2211 38.3436 23.3062C38.322 23.3471 38.2978 23.387 38.2748 23.4268C38.2518 23.4666 38.2189 23.5002 38.1908 23.5371C38.0734 23.68 37.907 23.774 37.724 23.8007C37.712 23.8023 37.6999 23.8016 37.6882 23.7985C37.6765 23.7955 37.6655 23.7901 37.6559 23.7828C37.6463 23.7755 37.6382 23.7663 37.6322 23.7559C37.6261 23.7455 37.6221 23.7339 37.6205 23.722C37.619 23.7108 37.6195 23.6995 37.6219 23.6886L37.6256 23.6738C37.647 23.5826 37.683 23.5177 37.71 23.4495C37.7369 23.3813 37.7701 23.3244 37.7949 23.2641C37.852 23.152 37.9009 23.0358 37.9413 22.9167C37.9833 22.7935 37.9999 22.6632 37.99 22.5335C37.9857 22.4672 37.977 22.4013 37.9642 22.3361C37.9579 22.3034 37.9503 22.2712 37.9415 22.2397C37.9338 22.2101 37.9217 22.1736 37.9152 22.1564L37.9139 22.1529C37.8937 22.0985 37.8938 22.0385 37.9142 21.9841C37.9346 21.9298 37.9741 21.8846 38.0252 21.857C38.0763 21.8294 38.1357 21.8212 38.1924 21.8339C38.2491 21.8467 38.2993 21.8795 38.3337 21.9263C38.4622 22.1008 38.6068 22.2605 38.7714 22.373C38.9336 22.4832 39.1191 22.5489 39.2744 22.5245C39.3469 22.5173 39.4153 22.4874 39.4699 22.4391C39.519 22.3942 39.5579 22.3386 39.5674 22.27C39.5738 22.2542 39.5693 22.235 39.5723 22.2178L39.5746 22.1912L39.5716 22.1597C39.5672 22.1136 39.5586 22.0679 39.5461 22.0233C39.5179 21.9224 39.481 21.824 39.4359 21.7294C39.2478 21.3357 38.9689 20.9596 38.651 20.6496C38.492 20.4954 38.3173 20.3565 38.1381 20.2637C38.0575 20.2203 37.9704 20.1906 37.8801 20.1758C37.8002 20.1658 37.7397 20.1758 37.6884 20.2059L37.7207 20.1829C37.686 20.213 37.6419 20.2552 37.6026 20.2941C37.5632 20.333 37.523 20.3756 37.4841 20.4174C37.4066 20.5016 37.3323 20.5893 37.2616 20.6797C37.1198 20.8597 36.9928 21.0509 36.882 21.2514C36.6615 21.6507 36.5142 22.0862 36.4753 22.5313C36.4326 22.9783 36.503 23.4288 36.6801 23.8415C36.7661 24.0429 36.8678 24.2373 36.9842 24.4228C37.1019 24.6077 37.2274 24.7833 37.3543 25.0073V25.0086C37.3626 25.0232 37.3665 25.0398 37.3656 25.0566C37.3647 25.0734 37.3591 25.0895 37.3493 25.1032C37.3395 25.1168 37.326 25.1273 37.3104 25.1335C37.2948 25.1398 37.2777 25.1414 37.2613 25.1382L37.2625 25.1377Z" fill="#371A45"/>
<path d="M41.9622 23.9476C41.9416 24.005 41.9181 24.0615 41.8918 24.1166C41.8669 24.169 41.8406 24.22 41.8122 24.2696C41.7839 24.3193 41.7532 24.3674 41.7236 24.4163C41.6939 24.4651 41.6584 24.5098 41.6256 24.5563L41.5198 24.6905L41.4048 24.8165C41.3263 24.8993 41.2421 24.9764 41.1528 25.0474C41.0646 25.1193 40.972 25.1857 40.8756 25.2461C40.7748 25.2998 40.679 25.3599 40.5732 25.4013C40.3675 25.5017 40.136 25.5364 39.9099 25.5008C39.9043 25.4999 39.8992 25.4967 39.8959 25.492C39.8925 25.4873 39.8912 25.4815 39.8921 25.4758C39.893 25.4707 39.8955 25.4662 39.8994 25.4629L39.9005 25.4619C40.0775 25.309 40.2508 25.2187 40.4157 25.1066C40.5012 25.0575 40.5757 24.991 40.654 24.9333C40.7255 24.8655 40.8027 24.8062 40.868 24.733C40.902 24.698 40.9364 24.6639 40.9669 24.6256C40.9975 24.5873 41.0323 24.5535 41.0614 24.5153L41.1499 24.3994L41.2339 24.28C41.2863 24.198 41.3386 24.1161 41.3848 24.0312C41.4076 23.9885 41.432 23.9468 41.4522 23.9038C41.4723 23.8608 41.496 23.8154 41.51 23.7834L41.5163 23.7686C41.5409 23.7108 41.5872 23.6648 41.6452 23.6408C41.7033 23.6167 41.7685 23.6163 41.8268 23.6398C41.8852 23.6633 41.932 23.7087 41.9571 23.7663C41.9823 23.8239 41.9839 23.8891 41.9615 23.9479L41.9622 23.9476Z" fill="#371A45"/>
<path d="M38.0031 29.905C37.5578 29.905 36.0452 29.7863 35.5595 28.2161C34.8603 25.9567 35.8858 24.2916 35.9299 24.2218C35.956 24.1827 35.9963 24.1554 36.0423 24.1456C36.0882 24.1358 36.1362 24.1443 36.176 24.1693C36.2158 24.1944 36.2442 24.234 36.2552 24.2797C36.2662 24.3253 36.259 24.3735 36.235 24.4139C36.223 24.4328 35.2563 26.0167 35.9042 28.1095C36.3865 29.6688 38.027 29.5481 38.0965 29.5428C38.1441 29.5386 38.1914 29.5535 38.228 29.5842C38.2647 29.6149 38.2876 29.659 38.2918 29.7066C38.2959 29.7542 38.281 29.8015 38.2503 29.8381C38.2196 29.8748 38.1756 29.8977 38.128 29.9019C38.1245 29.9016 38.0795 29.905 38.0031 29.905Z" fill="#371A45"/>
<path d="M20.7227 30.4089C20.7067 30.4089 20.6908 30.4067 20.6754 30.4025C18.8439 29.9021 18.3818 28.4165 18.363 28.3535C18.3493 28.3078 18.3544 28.2584 18.3771 28.2164C18.3997 28.1743 18.4382 28.143 18.484 28.1293C18.5298 28.1156 18.5791 28.1206 18.6212 28.1433C18.6632 28.166 18.6946 28.2044 18.7083 28.2502C18.7258 28.3074 19.1398 29.6091 20.7704 30.0547C20.8125 30.0663 20.8489 30.0927 20.873 30.129C20.897 30.1654 20.9071 30.2092 20.9014 30.2524C20.8956 30.2956 20.8744 30.3353 20.8416 30.3641C20.8088 30.3929 20.7668 30.4088 20.7232 30.4089H20.7227Z" fill="#371A45"/>
<path d="M12.7013 17.4832C12.6511 17.4832 12.6018 17.4699 12.5585 17.4446L10.7801 16.4062C10.6802 16.3478 10.5666 16.3168 10.4508 16.3166C10.3951 16.3166 10.3396 16.3239 10.2857 16.3383C9.93875 16.4313 9.58136 16.4799 9.22214 16.4828H9.1856C6.88405 16.4828 4.98177 14.6114 4.94539 12.3111C4.93623 11.7485 5.03914 11.1897 5.2481 10.6673C5.45707 10.1448 5.76792 9.66923 6.16254 9.26814C6.55716 8.86706 7.02766 8.54852 7.54662 8.33109C8.06558 8.11367 8.62262 8.0017 9.18529 8.00171C9.21316 8.00171 9.24073 8.00171 9.26876 8.00171C11.5788 8.04628 13.4436 9.96306 13.4255 12.2748C13.4179 13.3121 13.0294 14.3105 12.3339 15.0801C12.238 15.1865 12.1787 15.3208 12.1646 15.4633C12.1504 15.6058 12.1821 15.7491 12.2551 15.8723L12.9459 17.0556C12.9713 17.0987 12.9849 17.1477 12.9853 17.1978C12.9856 17.2478 12.9727 17.297 12.9479 17.3405C12.923 17.3839 12.8871 17.42 12.8438 17.4451C12.8005 17.4701 12.7514 17.4833 12.7013 17.4832Z" fill="#F9195A"/>
<path d="M9.18529 8.28526C9.21128 8.28526 9.23727 8.28526 9.26404 8.28526C11.4194 8.32684 13.1595 10.1171 13.1428 12.2728C13.1364 13.2409 12.7737 14.1727 12.1241 14.8905C11.9884 15.0418 11.9043 15.2324 11.884 15.4346C11.8637 15.6368 11.9083 15.8403 12.0112 16.0155L12.7021 17.1988L10.9231 16.1603C10.7798 16.0764 10.6167 16.0321 10.4506 16.0321C10.3701 16.032 10.2898 16.0426 10.212 16.0636C9.88833 16.1503 9.55491 16.1957 9.21979 16.1984H9.18561C7.03873 16.1984 5.26291 14.4563 5.22874 12.3054C5.19377 10.0915 6.97856 8.28526 9.18529 8.28526ZM9.18529 7.71826C8.58509 7.71829 7.99089 7.83775 7.43731 8.06969C6.88374 8.30163 6.38185 8.64141 5.96088 9.06923C5.53992 9.49705 5.2083 10.0044 4.98534 10.5616C4.76238 11.1189 4.65253 11.7149 4.66221 12.3151C4.70095 14.7692 6.73034 16.7658 9.18577 16.7658H9.22483C9.60783 16.7626 9.98887 16.7108 10.3588 16.6117C10.3887 16.6037 10.4194 16.5996 10.4503 16.5997C10.5159 16.5999 10.5802 16.6175 10.6368 16.6506L12.4151 17.689C12.5233 17.752 12.6493 17.7775 12.7735 17.7614C12.8977 17.7453 13.013 17.6885 13.1016 17.6C13.1901 17.5115 13.2468 17.3961 13.2629 17.2719C13.279 17.1478 13.2536 17.0218 13.1905 16.9136L12.4996 15.7303C12.457 15.659 12.4384 15.576 12.4464 15.4933C12.4543 15.4107 12.4885 15.3327 12.5438 15.2709C13.286 14.4499 13.7008 13.385 13.7093 12.2784C13.7285 9.81207 11.739 7.76693 9.2746 7.71952C9.24483 7.71952 9.21522 7.71952 9.18561 7.71952L9.18529 7.71826Z" fill="#371A45"/>
<g opacity="0.5">
<path opacity="0.5" d="M9.4712 8.59745C7.22856 8.55429 5.40108 10.3772 5.43668 12.6178C5.44756 13.309 5.64135 13.9851 5.99832 14.5771C5.51118 13.9189 5.24211 13.1248 5.22878 12.3061C5.19334 10.065 7.02081 8.2426 9.2633 8.28528C10.6695 8.31237 11.8983 9.08396 12.5785 10.2154C11.8717 9.25658 10.744 8.62202 9.4712 8.59745Z" fill="white"/>
</g>
<g opacity="0.3">
<path opacity="0.3" d="M8.59654 15.3677C8.93168 15.3651 9.26512 15.3198 9.58879 15.2328C9.63674 15.2221 9.68555 15.2157 9.73464 15.2136C10.3242 15.1746 10.8513 14.8578 11.2109 14.3889C11.2994 14.2735 11.3999 14.1702 11.5001 14.0598C12.0554 13.4465 12.4035 12.6739 12.495 11.8517C12.5865 11.0294 12.4168 10.1992 12.0099 9.47888C12.7169 10.2018 13.1511 11.1915 13.1428 12.2732C13.1365 13.236 12.7779 14.1631 12.1348 14.8796C11.8541 15.1928 11.7957 15.646 12.0077 16.0091L12.7026 17.1992L10.9231 16.1602C10.8161 16.0978 10.6978 16.0573 10.575 16.0409C10.4522 16.0245 10.3274 16.0325 10.2078 16.0646C9.88543 16.1506 9.55352 16.1954 9.21993 16.1981C7.73155 16.2109 6.41769 15.3861 5.73193 14.1664C6.46053 14.9139 7.47908 15.3773 8.59654 15.3677Z" fill="#102770"/>
</g>
<path d="M10.6284 10.9197C10.2241 10.5154 9.5687 10.5879 9.1644 10.992L9.1014 11.055L9.0384 10.992C8.63409 10.5879 7.97874 10.5154 7.57365 10.9197C7.47739 11.0158 7.40103 11.13 7.34893 11.2557C7.29684 11.3813 7.27002 11.516 7.27002 11.6521C7.27002 11.7881 7.29684 11.9228 7.34893 12.0485C7.40103 12.1742 7.47739 12.2883 7.57365 12.3845L7.63665 12.4475L8.90751 13.7185C8.93286 13.7438 8.96295 13.7639 8.99607 13.7777C9.02919 13.7914 9.06468 13.7984 9.10053 13.7984C9.13638 13.7984 9.17187 13.7914 9.20499 13.7777C9.23811 13.7639 9.2682 13.7438 9.29355 13.7185L10.5646 12.4475L10.6276 12.3845C10.7239 12.2884 10.8003 12.1743 10.8525 12.0486C10.9046 11.923 10.9315 11.7883 10.9316 11.6522C10.9317 11.5162 10.9049 11.3815 10.8529 11.2558C10.8009 11.1301 10.7246 11.0159 10.6284 10.9197Z" fill="white"/>
<g opacity="0.5">
<path opacity="0.5" d="M10.496 11.4764C10.3716 11.3052 10.1301 11.297 10.0572 11.3504C9.98428 11.4038 10.1074 11.4974 10.2319 11.6687C10.3563 11.8401 10.435 12.0234 10.5078 11.9708C10.5806 11.9182 10.6204 11.6478 10.496 11.4764Z" fill="#FCE5E5"/>
</g>
<g opacity="0.5">
<path opacity="0.5" d="M9.72319 11.1232C9.72143 11.1481 9.72767 11.1729 9.74102 11.1939C9.75436 11.215 9.77411 11.2312 9.79735 11.2402C9.82059 11.2492 9.8461 11.2505 9.87015 11.244C9.89419 11.2374 9.9155 11.2233 9.93094 11.2037C9.96039 11.1623 9.93409 11.0935 9.8651 11.0669C9.79612 11.0402 9.72949 11.073 9.72319 11.1232Z" fill="#FCE5E5"/>
</g>
</g>
</svg>
