<svg width="52" height="52" viewBox="0 0 52 52" fill="none" xmlns="http://www.w3.org/2000/svg">
<mask id="mask0_2_13618" style="mask-type:alpha" maskUnits="userSpaceOnUse" x="0" y="0" width="52" height="52">
<circle cx="26" cy="26" r="26" fill="#C4C4C4"/>
</mask>
<g mask="url(#mask0_2_13618)">
<path d="M74 -18H-27V83H74V-18Z" fill="#0BCBFF"/>
<path d="M37.7426 40.3505H27.155C24.7273 40.3505 22.7593 42.3185 22.7593 44.7462V56.9018C22.7593 59.3296 24.7273 61.2976 27.155 61.2976H37.7426C40.1703 61.2976 42.1384 59.3296 42.1384 56.9018V44.7462C42.1384 42.3185 40.1703 40.3505 37.7426 40.3505Z" fill="white"/>
<path d="M37.7424 40.3505C40.1601 40.3505 42.1382 42.3286 42.1382 44.7463V56.9019C42.1382 59.3196 40.1601 61.2977 37.7424 61.2977H27.1549C24.7372 61.2977 22.7591 59.3196 22.7591 56.9019V44.7463C22.7591 42.3286 24.7372 40.3505 27.1549 40.3505H37.7424ZM37.7424 39.4713H27.1549C24.2463 39.4713 21.8799 41.8377 21.8799 44.7463V56.9019C21.8799 59.8107 24.2463 62.1769 27.1549 62.1769H37.7424C40.651 62.1769 43.0174 59.8107 43.0174 56.9019V44.7463C43.0174 41.8377 40.651 39.4713 37.7424 39.4713Z" fill="#371A45"/>
<path d="M29.765 38.088L27.5548 42.5558L26.2459 45.2045L25.571 46.568C25.571 46.568 25.1922 46.2514 24.595 45.638C22.1132 43.0878 15.853 35.4146 17.3278 24.1159C18.1071 18.1468 20.3647 17.406 22.5692 17.2083C26.2843 16.8753 25.2664 20.2065 25.273 21.7836C25.2763 22.5454 25.5906 24.905 26.1689 27.6737C26.9382 31.3551 28.1735 35.7602 29.765 38.088Z" fill="white"/>
<path d="M25.5704 47.0068C25.4674 47.0069 25.3676 46.9706 25.2886 46.9043C25.1834 46.8162 22.6861 44.7023 20.3846 40.8211C18.2603 37.2386 15.93 31.4225 16.8915 24.0589C17.7187 17.7249 20.2354 16.9755 22.5293 16.77C23.7022 16.6649 24.5448 16.8859 25.1048 17.4451C25.9901 18.3289 25.8646 19.7681 25.7638 20.9223C25.7363 21.2407 25.7101 21.5415 25.7111 21.7808C25.7187 23.7122 27.4445 33.914 30.1265 37.8398C30.1894 37.9362 30.2119 38.0533 30.1895 38.1661C30.167 38.2789 30.1012 38.3784 30.0062 38.4432C29.9113 38.5081 29.7947 38.5332 29.6814 38.5132C29.5682 38.4931 29.4673 38.4295 29.4003 38.336C26.6254 34.2738 24.8394 23.77 24.8316 21.7846C24.8316 21.5046 24.8584 21.1844 24.8879 20.8456C24.9728 19.8722 25.0786 18.6604 24.4839 18.0681C24.1239 17.7088 23.4929 17.5669 22.6071 17.6461C20.5634 17.8292 18.506 18.4837 17.7629 24.173C16.8357 31.2733 19.0784 36.8859 21.1234 40.3439C23.3477 44.1061 25.828 46.2099 25.8527 46.2307C25.9219 46.2886 25.9715 46.3665 25.9949 46.4537C26.0182 46.5409 26.0142 46.6331 25.9833 46.7179C25.9524 46.8027 25.8962 46.876 25.8222 46.9277C25.7483 46.9794 25.6602 47.0072 25.5699 47.0071L25.5704 47.0068Z" fill="#371A45"/>
<path d="M40.4527 45.4904C39.7755 46.1994 39.3359 46.5676 39.3359 46.5676L38.8016 45.4871L37.352 42.5559L35.1416 38.0881C36.7813 35.6894 38.0431 31.0848 38.8071 27.3392C39.3412 24.7167 39.6313 22.5142 39.6346 21.7842C39.6401 20.2071 38.6223 16.8759 42.3363 17.2089C44.5409 17.4066 46.7985 18.1474 47.5777 24.1165C49.0278 35.2041 43.0234 42.8021 40.4527 45.4904Z" fill="white"/>
<path d="M39.3357 47.0071C39.2454 47.0072 39.1573 46.9795 39.0833 46.9277C39.0093 46.876 38.9531 46.8027 38.9222 46.7178C38.8913 46.633 38.8873 46.5407 38.9108 46.4535C38.9342 46.3663 38.9839 46.2884 39.0531 46.2305C39.0885 46.2007 41.5627 44.0973 43.7825 40.3437C45.8277 36.8857 48.0702 31.2731 47.1427 24.1728C46.3999 18.4835 44.3423 17.829 42.2985 17.6459C41.4148 17.5664 40.782 17.7086 40.4217 18.0679C39.827 18.6612 39.9326 19.8727 40.0177 20.8454C40.0472 21.1842 40.0753 21.5044 40.074 21.7844C40.0662 23.7698 38.2812 34.2736 35.5053 38.3358C35.4395 38.4321 35.3381 38.4982 35.2235 38.5198C35.1089 38.5413 34.9905 38.5165 34.8942 38.4507C34.7979 38.3849 34.7318 38.2835 34.7102 38.1689C34.6887 38.0544 34.7135 37.9359 34.7793 37.8396C37.4611 33.914 39.1872 23.7123 39.1948 21.7806C39.1948 21.5405 39.1695 21.24 39.1418 20.9221C39.0408 19.7664 38.9158 18.3282 39.801 17.4447C40.3618 16.8854 41.2047 16.6647 42.3765 16.7695C44.6705 16.975 47.1869 17.7245 48.0141 24.0584C48.9759 31.4221 46.6453 37.2389 44.521 40.8206C42.2197 44.7018 39.7223 46.8157 39.6172 46.9039C39.5384 46.9703 39.4387 47.0069 39.3357 47.0071Z" fill="#371A45"/>
<path d="M42.1275 60.1687C41.8354 64.8023 40.1603 68.638 40.1603 68.638C40.1603 68.638 40.9385 70.9032 40.5285 73.1717C40.2878 74.5061 39.6361 75.6128 38.1742 75.7656C34.4351 76.157 33.4229 72.3616 33.1832 69.8142C32.9449 67.2786 34.0352 63.6163 33.9031 60.6424C32.997 60.736 32.0837 60.736 31.1776 60.6424C31.0456 63.6163 32.1349 67.2786 31.8975 69.8142C31.6579 72.3616 30.6456 76.157 26.9066 75.7656C25.4446 75.6141 24.7929 74.5061 24.5523 73.1729C24.1422 70.9045 24.9204 68.638 24.9204 68.638C24.9204 68.638 23.2453 64.8023 22.9509 60.1687C22.6696 55.7184 23.6885 49.8328 24.5942 45.6375C24.7129 45.0858 24.8305 44.5627 24.9426 44.0768C25.0712 43.5176 25.1931 43.0075 25.303 42.5558H39.7758C39.9043 43.086 40.0495 43.6966 40.2032 44.3705C40.2845 44.7265 40.3681 45.1012 40.4517 45.4903C41.367 49.6952 42.4124 55.6656 42.1275 60.1687Z" fill="white"/>
<path d="M40.4346 44.7253C41.0835 46.6577 41.5426 48.6426 41.8905 50.6487C42.0672 51.6511 42.2187 52.6594 42.3316 53.6739C42.3925 54.1789 42.4379 54.6892 42.4854 55.1975C42.5084 55.452 42.5225 55.7076 42.5404 55.9626C42.5584 56.2176 42.5722 56.4731 42.5818 56.7289C42.6301 57.7515 42.6417 58.779 42.5884 59.8094C42.5347 60.8387 42.4205 61.864 42.2463 62.8798C42.0721 63.8927 41.8445 64.8957 41.5645 65.8846C41.4282 66.3797 41.2716 66.8693 41.11 67.3571C40.9431 67.8465 40.7709 68.3219 40.5639 68.8136L40.5828 68.5146C40.733 69.0645 40.851 69.6226 40.9363 70.1862C41.0251 70.7502 41.0748 71.3197 41.085 71.8905C41.0944 72.4657 41.0545 73.052 40.9199 73.6366C40.8919 73.783 40.8401 73.9282 40.7994 74.0739C40.7426 74.2176 40.6984 74.3638 40.6252 74.5032C40.4925 74.7946 40.315 75.0636 40.0993 75.3003L39.9271 75.4755C39.8652 75.5296 39.7993 75.5791 39.7349 75.6303C39.7023 75.6556 39.6703 75.6808 39.6369 75.7061L39.5316 75.7697C39.4607 75.8111 39.391 75.8553 39.3185 75.8929L39.0946 75.9896C39.0569 76.0048 39.0188 76.0227 38.9817 76.0353L38.8666 76.0689L38.6355 76.1343C38.5583 76.1502 38.481 76.1596 38.4035 76.1739C38.326 76.1883 38.2467 76.2025 38.1729 76.2063L37.9495 76.2224C37.801 76.2363 37.6487 76.2277 37.4988 76.2305C37.1958 76.2131 36.891 76.1878 36.5915 76.1086C35.9865 75.9625 35.4252 75.6742 34.9541 75.2675C34.7244 75.067 34.5142 74.8453 34.3264 74.6052C34.1456 74.3676 33.9824 74.1171 33.838 73.8557C33.2737 72.8137 32.9939 71.6842 32.83 70.5634C32.7904 70.2806 32.7556 70.0044 32.7374 69.7142C32.7298 69.5696 32.7164 69.4234 32.7144 69.2794L32.7124 68.8489C32.725 68.2783 32.7694 67.7162 32.83 67.1604C32.954 66.051 33.1303 64.9619 33.2661 63.8795C33.402 62.797 33.5032 61.7183 33.4643 60.6609L33.9547 61.078C33.7095 61.1047 33.482 61.1209 33.2457 61.1335C33.0093 61.1462 32.7765 61.152 32.5407 61.1522C32.3048 61.1525 32.0698 61.1456 31.8354 61.1335C31.6011 61.1214 31.3716 61.1047 31.1264 61.078L31.6168 60.6609C31.5779 61.7183 31.6766 62.7975 31.815 63.8795C31.9534 64.9614 32.1271 66.051 32.2511 67.1604C32.3117 67.716 32.3561 68.2783 32.3687 68.8489L32.3667 69.2794C32.3647 69.4234 32.3513 69.5696 32.3437 69.7142C32.3255 70.0044 32.2907 70.2806 32.2511 70.5634C32.0872 71.6847 31.8074 72.8137 31.2431 73.8557C31.0987 74.1171 30.9355 74.3676 30.7547 74.6052C30.567 74.8453 30.3568 75.0671 30.127 75.2675C29.6559 75.6742 29.0946 75.9625 28.4896 76.1086C28.1901 76.1878 27.8836 76.2131 27.5823 76.2305C27.4323 76.2277 27.2793 76.2363 27.1316 76.2224L26.9087 76.2078C26.8349 76.204 26.7549 76.1861 26.6781 76.1755C26.6014 76.1649 26.5233 76.1517 26.4461 76.1358L26.215 76.0704L26.0999 76.0368C26.0618 76.0242 26.0242 76.0063 25.987 75.9911L25.7631 75.8944C25.6906 75.8568 25.6209 75.8126 25.55 75.7712L25.4447 75.7076C25.4113 75.6823 25.3793 75.6571 25.3467 75.6318C25.2826 75.5813 25.2164 75.5308 25.1548 75.477L24.9826 75.3018C24.7667 75.0652 24.5891 74.7962 24.4564 74.5047C24.3832 74.3645 24.339 74.2183 24.2824 74.0754C24.2415 73.9297 24.1897 73.7845 24.1617 73.6381C24.0271 73.0525 23.9872 72.4672 23.9966 71.8921C24.0068 71.3212 24.0566 70.7517 24.1456 70.1877C24.2309 69.6241 24.3489 69.066 24.4991 68.5161L24.518 68.8151C24.3107 68.3227 24.1392 67.8465 23.9711 67.3564C23.809 66.8678 23.6524 66.3775 23.5166 65.8815C23.2365 64.8909 23.0089 63.8862 22.8348 62.8715C22.6595 61.8543 22.5473 60.8271 22.499 59.796C22.4692 59.2797 22.4722 58.7653 22.4702 58.2505C22.4816 57.7372 22.4914 57.2233 22.523 56.712C22.5344 56.456 22.5482 56.2002 22.5702 55.9452C22.5922 55.6901 22.6063 55.4346 22.6295 55.1798C22.6788 54.671 22.7237 54.1615 22.781 53.6542C22.8952 52.6392 23.0156 51.6254 23.1747 50.6179C23.3338 49.6104 23.5282 48.6093 23.7653 47.6182C24.0024 46.6272 24.2829 45.6459 24.6564 44.6892C24.6693 44.6563 24.6936 44.6291 24.7248 44.6125C24.7561 44.5959 24.7922 44.5911 24.8268 44.5988C24.8613 44.6066 24.8919 44.6264 24.9131 44.6547C24.9342 44.6831 24.9446 44.7181 24.9422 44.7533C24.872 45.7752 24.7326 46.7781 24.5839 47.778C24.4309 48.7769 24.269 49.7728 24.1072 50.7674C23.7663 52.7536 23.5012 54.7546 23.4002 56.7585C23.2802 58.7641 23.3578 60.7553 23.7006 62.723C23.8699 63.7073 24.0911 64.682 24.3632 65.6429C24.4955 66.1247 24.6478 66.6007 24.8048 67.0744C24.9647 67.5437 25.1386 68.0212 25.325 68.4631L25.3863 68.609L25.3439 68.7623C25.2049 69.275 25.0953 69.7953 25.0157 70.3205C24.933 70.8445 24.8866 71.3735 24.8768 71.9039C24.8677 72.4289 24.9063 72.95 25.0189 73.4384C25.0422 73.5628 25.0854 73.6772 25.1174 73.7967C25.1631 73.9083 25.197 74.0279 25.2533 74.1315C25.3481 74.3421 25.4755 74.5365 25.6308 74.7074L25.7477 74.8274C25.7896 74.8635 25.8348 74.8955 25.8774 74.9306L25.9426 74.9811L26.0146 75.0231C26.0628 75.0503 26.1087 75.0814 26.158 75.1074L26.3135 75.1733C26.3388 75.1839 26.364 75.197 26.3915 75.2061L26.4749 75.2291L26.641 75.2773C26.6983 75.2887 26.7577 75.296 26.8157 75.3059C26.8738 75.3157 26.9299 75.3286 26.9938 75.3311L27.1821 75.3445C27.3084 75.3571 27.4318 75.348 27.5568 75.3518C27.8028 75.3362 28.0497 75.3175 28.2833 75.2541C28.7535 75.1411 29.1899 74.9171 29.5556 74.6006C29.7402 74.4386 29.9093 74.2596 30.0606 74.0661C30.2129 73.8651 30.3506 73.6534 30.4727 73.4328C30.9618 72.5339 31.2302 71.4911 31.3817 70.4394C31.4186 70.1773 31.4524 69.9066 31.4681 69.6471C31.4744 69.517 31.487 69.3888 31.4888 69.2575L31.4905 68.8623C31.4787 68.3321 31.437 67.7957 31.3782 67.2569C31.2577 66.1775 31.0822 65.092 30.9439 63.9896C30.8055 62.8871 30.6974 61.7676 30.7396 60.622L30.7568 60.1533L31.2299 60.2038C31.4372 60.2263 31.6637 60.243 31.8819 60.2543C32.1001 60.2657 32.3223 60.2717 32.5417 60.272C32.7611 60.2722 32.981 60.2659 33.2012 60.2543C33.4214 60.2427 33.6459 60.2263 33.8532 60.2038L34.3266 60.1533L34.3438 60.622C34.3857 61.7671 34.2796 62.8887 34.1393 63.9896C33.9989 65.0905 33.8254 66.1775 33.7052 67.2569C33.6461 67.7957 33.6042 68.3321 33.5926 68.8623L33.5944 69.2575C33.5961 69.3888 33.6088 69.517 33.6151 69.6471C33.6307 69.9066 33.6656 70.1773 33.7014 70.4394C33.8529 71.4911 34.1211 72.5339 34.6104 73.4328C34.7325 73.6534 34.8703 73.8651 35.0225 74.0661C35.1738 74.2596 35.3429 74.4386 35.5275 74.6006C35.8933 74.9171 36.3296 75.1411 36.7998 75.2541C37.0334 75.3175 37.2796 75.3362 37.5265 75.3518C37.6513 75.348 37.775 75.3571 37.901 75.3445L38.0894 75.3311C38.1532 75.3281 38.2078 75.3132 38.2661 75.3059C38.3244 75.2985 38.3835 75.2887 38.4411 75.2773L38.607 75.2291L38.6903 75.2061C38.7173 75.197 38.7423 75.1839 38.7683 75.1733L38.9239 75.1074C38.9731 75.0821 39.0191 75.0503 39.0673 75.0231L39.1395 74.9811L39.2044 74.9306C39.2471 74.8955 39.2923 74.8635 39.3342 74.8274L39.4511 74.7074C39.6068 74.5365 39.7347 74.3422 39.8298 74.1315C39.8862 74.0279 39.92 73.9083 39.9657 73.7967C39.9978 73.6772 40.0414 73.5628 40.0642 73.4384C40.1768 72.95 40.2157 72.4284 40.2063 71.9039C40.1966 71.3735 40.1502 70.8445 40.0674 70.3205C39.9878 69.7953 39.8782 69.275 39.7392 68.7623L39.6968 68.609L39.7581 68.4631C39.9442 68.0217 40.1182 67.545 40.2775 67.0761C40.4369 66.6072 40.5866 66.1282 40.7186 65.6472C40.9906 64.6879 41.2116 63.7148 41.3807 62.7321C41.7251 60.7677 41.7976 58.7785 41.663 56.7782C41.6014 55.7796 41.5119 54.7811 41.3946 53.7827C41.3663 53.5333 41.3378 53.2838 41.3032 53.0348L41.2103 52.2867C41.1396 51.7888 41.0769 51.2898 41.0025 50.7919L40.5543 47.801C40.4108 46.8014 40.2609 45.8017 40.1503 44.7905C40.146 44.7542 40.1553 44.7176 40.1765 44.6879C40.1976 44.6581 40.2291 44.6373 40.2647 44.6294C40.3004 44.6215 40.3377 44.6272 40.3694 44.6453C40.4011 44.6634 40.425 44.6926 40.4363 44.7273L40.4346 44.7253Z" fill="#371A45"/>
<g opacity="0.35">
<path opacity="0.35" d="M42.0875 55.7267C40.9121 55.8603 39.3226 55.9403 38.1154 55.6239V56.2299C38.1145 56.6344 37.9535 57.0221 37.6677 57.3082C37.3818 57.5943 36.9943 57.7557 36.5898 57.7571H28.2553C27.8508 57.7558 27.4631 57.5945 27.1771 57.3083C26.8911 57.0222 26.73 56.6345 26.729 56.2299V55.7454C25.574 55.9221 24.2186 55.8297 23.2129 55.7078C23.1558 55.7007 23.0991 55.6904 23.0432 55.677C23.06 55.5399 23.0784 55.4012 23.0983 55.2608C23.2033 54.4781 23.3255 53.661 23.4692 52.8174C24.3933 52.8598 25.6518 52.8863 26.729 52.7921V51.7034C26.7301 51.2989 26.8913 50.9113 27.1773 50.6253C27.4633 50.3393 27.8509 50.1781 28.2553 50.177H36.5898C36.9945 50.1772 37.3826 50.3381 37.6687 50.6243C37.9547 50.9106 38.1154 51.2987 38.1154 51.7034V52.7252C39.1845 52.8803 40.5831 52.8729 41.658 52.831C41.8004 53.6703 41.9224 54.4829 42.0267 55.2606C42.0479 55.4176 42.0678 55.5734 42.0875 55.7267Z" fill="#371A45"/>
</g>
<path d="M28.2571 54.5031C27.089 54.976 25.2814 54.8771 24.0492 54.7281C23.8738 54.7067 23.7044 54.6504 23.5511 54.5626C23.3978 54.4747 23.2637 54.357 23.1566 54.2165C23.0495 54.0759 22.9716 53.9154 22.9276 53.7443C22.8835 53.5731 22.8741 53.395 22.9 53.2202C22.9478 52.8957 23.1143 52.6005 23.3674 52.3918C23.6204 52.1832 23.942 52.076 24.2696 52.091C25.4223 52.145 27.1511 52.1703 28.2462 51.9276" fill="white"/>
<path d="M25.9336 55.2298C25.2884 55.2258 24.644 55.1837 24.0038 55.1036C23.5668 55.05 23.1676 54.8292 22.8899 54.4876C22.6121 54.146 22.4775 53.7101 22.5142 53.2714C22.551 52.8327 22.7561 52.4252 23.0868 52.1345C23.4174 51.8438 23.8478 51.6925 24.2876 51.7123C25.9793 51.7913 27.356 51.7375 28.1642 51.5572C28.346 51.5168 28.7967 51.5118 29.0533 52.3367C29.304 53.1434 29.2697 54.5014 28.399 54.8539C27.7049 55.1354 26.8154 55.2298 25.9336 55.2298ZM24.207 52.4685C23.9663 52.4688 23.7348 52.5609 23.5597 52.7261C23.3846 52.8913 23.2791 53.1171 23.2648 53.3574C23.2505 53.5977 23.3284 53.8344 23.4827 54.0193C23.637 54.2041 23.8559 54.323 24.0949 54.3519C25.8458 54.564 27.2736 54.4928 28.1152 54.1522C28.3104 54.0731 28.3831 53.7502 28.4053 53.6151C28.4912 53.0934 28.35 52.5041 28.2286 52.3185C27.111 52.544 25.4587 52.5258 24.2525 52.47C24.2368 52.4687 24.2219 52.4685 24.207 52.4685Z" fill="#371A45"/>
<path d="M37.1904 54.5031C38.3585 54.976 40.1659 54.8771 41.3983 54.7281C41.5737 54.7067 41.7431 54.6504 41.8963 54.5626C42.0496 54.4747 42.1838 54.357 42.2908 54.2165C42.3979 54.0759 42.4758 53.9154 42.5198 53.7442C42.5638 53.5731 42.5732 53.3949 42.5472 53.2202C42.4995 52.8957 42.333 52.6004 42.0799 52.3918C41.8269 52.1831 41.5053 52.0759 41.1777 52.091C40.0253 52.145 38.2961 52.1703 37.2013 51.9276" fill="white"/>
<path d="M39.514 55.2298C38.632 55.2298 37.7427 55.1354 37.0483 54.8543C36.1779 54.5008 36.1436 53.1439 36.3943 52.3369C36.6506 51.5122 37.1013 51.517 37.2834 51.5577C38.0914 51.737 39.4683 51.7922 41.16 51.7127C41.5998 51.693 42.0302 51.8443 42.3608 52.135C42.6914 52.4257 42.8966 52.8331 42.9334 53.2718C42.9701 53.7106 42.8355 54.1464 42.5577 54.488C42.28 54.8297 41.8808 55.0504 41.4438 55.104C40.8036 55.184 40.1592 55.2259 39.514 55.2298ZM37.2195 52.3185C37.0978 52.5048 36.9567 53.0934 37.0428 53.615C37.0652 53.7501 37.138 54.0731 37.3331 54.1521C38.1747 54.4927 39.6024 54.5637 41.3534 54.3521C41.5957 54.322 41.817 54.1994 41.9709 54.0098C42.1248 53.8203 42.1994 53.5785 42.1791 53.3352C42.1588 53.0919 42.0451 52.8659 41.8619 52.7045C41.6786 52.5431 41.4401 52.4589 41.1961 52.4695C39.9882 52.5258 38.3371 52.5439 37.2195 52.3185Z" fill="#371A45"/>
<path d="M37.6417 51.0761V55.204C37.6407 55.5729 37.4938 55.9264 37.233 56.1874C36.9722 56.4483 36.6188 56.5955 36.2499 56.5968H28.6479C28.2789 56.5956 27.9254 56.4485 27.6646 56.1875C27.4038 55.9265 27.257 55.5729 27.2561 55.204V51.0761C27.2571 50.7073 27.4041 50.3538 27.6648 50.093C27.9256 49.8322 28.279 49.6851 28.6479 49.6841H36.2512C36.6202 49.6843 36.9741 49.8311 37.2351 50.0921C37.4961 50.3531 37.6427 50.707 37.6429 51.0761H37.6417Z" fill="white"/>
<g opacity="0.35">
<path opacity="0.35" d="M37.6417 51.0762V55.2041C37.6407 55.573 37.4938 55.9265 37.233 56.1875C36.9722 56.4484 36.6188 56.5956 36.2499 56.5969H28.6479C28.2789 56.5957 27.9254 56.4486 27.6646 56.1876C27.4038 55.9266 27.257 55.573 27.2561 55.2041V53.8153C28.5676 54.5413 31.6385 55.7369 33.0497 55.0258C33.9413 54.5766 33.9413 53.1409 33.9413 53.1409C33.9413 53.1409 35.8098 51.7688 36.2739 52.896C37.1905 55.1165 37.447 51.0709 37.57 50.6364C37.6174 50.7782 37.6416 50.9267 37.6417 51.0762Z" fill="#371A45"/>
</g>
<path d="M36.2498 56.9754H28.6477C28.1783 56.9748 27.7282 56.7881 27.3962 56.4561C27.0642 56.1241 26.8775 55.6741 26.877 55.2046V51.0762C26.8775 50.6067 27.0642 50.1566 27.3962 49.8247C27.7282 49.4927 28.1783 49.306 28.6477 49.3054H36.2498C36.7192 49.306 37.1693 49.4927 37.5013 49.8247C37.8333 50.1566 38.02 50.6067 38.0205 51.0762V55.2046C38.02 55.6741 37.8333 56.1241 37.5013 56.4561C37.1693 56.7881 36.7192 56.9748 36.2498 56.9754ZM28.6477 50.0629C28.3791 50.0633 28.1216 50.1701 27.9316 50.3601C27.7416 50.55 27.6348 50.8076 27.6345 51.0762V55.2046C27.6348 55.4732 27.7416 55.7307 27.9316 55.9207C28.1216 56.1107 28.3791 56.2175 28.6477 56.2179H36.2498C36.5184 56.2175 36.7759 56.1107 36.9659 55.9207C37.1558 55.7307 37.2627 55.4732 37.263 55.2046V51.0762C37.2627 50.8076 37.1558 50.55 36.9659 50.3601C36.7759 50.1701 36.5184 50.0633 36.2498 50.0629H28.6477Z" fill="#371A45"/>
<path d="M35.6012 54.2494C36.2137 53.9957 36.5046 53.2935 36.2509 52.681C35.9972 52.0685 35.295 51.7777 34.6825 52.0314C34.07 52.2851 33.7792 52.9872 34.0329 53.5997C34.2866 54.2122 34.9887 54.5031 35.6012 54.2494Z" fill="#22A7F0"/>
<g opacity="0.5">
<path opacity="0.5" d="M36.3424 53.1401C36.3426 53.239 36.3305 53.3377 36.3066 53.4337C36.241 53.1746 36.0909 52.9448 35.88 52.7807C35.6691 52.6165 35.4094 52.5274 35.1422 52.5274C34.8749 52.5274 34.6153 52.6165 34.4044 52.7807C34.1935 52.9448 34.0434 53.1746 33.9778 53.4337C33.9361 53.2687 33.9299 53.0967 33.9597 52.9291C33.9896 52.7615 34.0547 52.6022 34.1508 52.4617C34.2468 52.3212 34.3717 52.2028 34.517 52.1142C34.6624 52.0256 34.8249 51.969 34.9938 51.948C35.1627 51.927 35.3342 51.9422 35.4968 51.9925C35.6594 52.0428 35.8094 52.1272 35.937 52.2399C36.0645 52.3526 36.1666 52.4912 36.2365 52.6464C36.3064 52.8016 36.3425 52.9698 36.3424 53.1401Z" fill="white"/>
</g>
<path d="M35.1417 54.6563C34.8421 54.6561 34.5493 54.567 34.3003 54.4004C34.0514 54.2338 33.8574 53.9971 33.7429 53.7202C33.6284 53.4434 33.5986 53.1388 33.6572 52.845C33.7158 52.5512 33.8602 52.2814 34.0721 52.0696C34.284 51.8579 34.554 51.7137 34.8478 51.6554C35.1417 51.597 35.4462 51.6271 35.723 51.7418C35.9997 51.8565 36.2363 52.0507 36.4027 52.2998C36.5691 52.5489 36.6579 52.8418 36.6579 53.1413C36.6573 53.5432 36.4973 53.9283 36.213 54.2123C35.9288 54.4963 35.5435 54.656 35.1417 54.6563ZM35.1417 52.2556C34.9669 52.2558 34.7962 52.3079 34.651 52.4051C34.5059 52.5024 34.3928 52.6405 34.3261 52.802C34.2594 52.9635 34.2421 53.1412 34.2763 53.3125C34.3106 53.4839 34.3948 53.6412 34.5185 53.7647C34.6421 53.8881 34.7996 53.9722 34.971 54.0062C35.1424 54.0402 35.32 54.0226 35.4814 53.9557C35.6428 53.8888 35.7808 53.7755 35.8778 53.6302C35.9749 53.4849 36.0267 53.3141 36.0267 53.1393C36.0261 52.9049 35.9327 52.6802 35.7668 52.5146C35.6009 52.3489 35.3761 52.2558 35.1417 52.2556Z" fill="#371A45"/>
<path d="M31.7397 56.9122C31.656 56.9122 31.5757 56.879 31.5166 56.8198C31.4574 56.7606 31.4241 56.6803 31.4241 56.5966V54.6046C31.4235 54.3581 31.3659 54.1151 31.2559 53.8945C31.1459 53.6739 30.9864 53.4818 30.7898 53.333C30.5153 53.1253 30.2925 52.8569 30.1388 52.5488C29.9851 52.2407 29.9047 51.9012 29.9038 51.5569V49.6842C29.9038 49.6004 29.9371 49.5202 29.9963 49.461C30.0554 49.4018 30.1357 49.3685 30.2194 49.3685C30.3031 49.3685 30.3834 49.4018 30.4426 49.461C30.5018 49.5202 30.5351 49.6004 30.5351 49.6842V51.5569C30.5357 51.8035 30.5933 52.0466 30.7033 52.2672C30.8134 52.4878 30.973 52.68 31.1696 52.8288C31.4441 53.0365 31.6669 53.3049 31.8205 53.6129C31.9742 53.921 32.0546 54.2604 32.0554 54.6046V56.5966C32.0554 56.6803 32.0221 56.7606 31.9629 56.8198C31.9037 56.879 31.8234 56.9122 31.7397 56.9122Z" fill="#371A45"/>
<path d="M50.6672 14.25C49.4263 19.2149 46.8283 23.7364 43.1639 27.3088C39.4995 30.8811 34.9133 33.3633 29.9185 34.4776C15.0448 37.8106 0.286138 28.4514 -3.04509 13.5784C-4.8944 5.31786 -2.82946 -2.90985 1.92259 -9.16226C2.80962 -10.3316 4.67484 -9.7776 4.76473 -8.31209C4.79705 -7.81769 4.84149 -7.32162 4.89805 -6.82385C5.01117 -5.86188 5.17357 -4.90634 5.38462 -3.96101C5.82645 -1.98355 6.48367 -0.0604801 7.34452 1.77377C7.49602 2.0936 7.65274 2.41015 7.81468 2.72342C8.21211 3.49001 8.64187 4.23194 9.10394 4.94921C9.43775 5.46869 9.78779 5.97436 10.1541 6.46623C10.3312 6.70526 10.5125 6.94093 10.698 7.17323C11.1602 7.7555 11.6453 8.3168 12.1531 8.85715C12.4289 9.15325 12.7115 9.44245 13.001 9.72474C13.203 9.92295 13.4093 10.1181 13.6194 10.31C14.3872 11.0169 15.1946 11.6796 16.0376 12.2949C16.1151 12.3523 16.1936 12.4078 16.2712 12.4636C16.7425 12.8003 17.2234 13.1213 17.7139 13.4266C17.8283 13.4979 17.9412 13.5678 18.0571 13.6375C18.5469 13.9344 19.0456 14.215 19.5531 14.4791C19.8274 14.6233 20.1043 14.762 20.3839 14.8952C20.4425 14.9242 20.5013 14.9525 20.5606 14.9798L20.6851 15.0386C20.7752 15.081 20.8661 15.1217 20.9563 15.1623C21.4376 15.3803 21.9248 15.5843 22.418 15.7744C22.566 15.8325 22.715 15.8873 22.8647 15.9413C23.0253 16.0001 23.1866 16.0582 23.349 16.1138C23.7744 16.2605 24.2075 16.3976 24.6403 16.5228C25.316 16.721 26 16.8904 26.6911 17.0354C27.4004 17.1825 28.1164 17.3021 28.8391 17.3942C30.7233 17.634 32.6274 17.6763 34.5203 17.5204C34.71 17.5056 34.9002 17.4888 35.0907 17.4699C35.4998 17.4285 35.9106 17.3783 36.3204 17.3184C36.9951 17.2189 37.6713 17.0952 38.3485 16.9432C38.3932 16.9329 38.4379 16.9235 38.4816 16.9117C40.3763 16.479 42.2199 15.8473 43.9818 15.027C45.4659 14.3377 46.8851 13.5165 48.2223 12.5732C49.4156 11.7314 51.0225 12.8315 50.6672 14.25Z" fill="#FFDA22"/>
<g opacity="0.35">
<path opacity="0.35" d="M0.140103 -6.5112C-3.00125 -0.818084 -4.15745 6.00043 -2.62502 12.8442C0.705702 27.7164 15.4651 37.0748 30.3373 33.7441C36.5932 32.3524 42.1663 28.8187 46.0933 23.754C42.5187 27.0747 38.1239 29.3831 33.361 30.4417C24.4892 32.4288 15.657 29.8996 9.26848 24.3781C9.61718 24.2602 9.93986 24.0761 10.2189 23.836C10.1684 23.8794 10.1159 23.9214 10.0628 23.961C9.9371 23.8563 9.8122 23.7505 9.68814 23.6436C10.2229 23.4658 10.6919 23.1316 11.0345 22.6841C11.6948 21.0461 11.114 18.7029 9.4624 16.9094C7.43609 14.7081 4.5639 14.1691 3.0489 15.7058C2.93886 15.8172 2.83819 15.9376 2.74792 16.0656C1.69438 13.9978 0.905428 11.8056 0.399673 9.54073C-1.13199 2.70505 0.0173879 -4.10488 3.14839 -9.7937C2.69818 -9.78613 2.24444 -9.58943 1.92023 -9.16245C0.637266 -7.47235 -0.447659 -5.6407 -1.31329 -3.7034C-0.882695 -4.66625 -0.397441 -5.60371 0.140103 -6.5112Z" fill="#371A45"/>
</g>
<g opacity="0.35">
<path opacity="0.35" d="M37.7384 25.6045C39.4554 25.5853 40.834 24.3826 40.8176 22.9181C40.8013 21.4537 39.3961 20.2821 37.6792 20.3013C35.9622 20.3205 34.5836 21.5232 34.5999 22.9876C34.6163 24.452 36.0214 25.6236 37.7384 25.6045Z" fill="#371A45"/>
</g>
<g opacity="0.35">
<path opacity="0.35" d="M25.0536 19.4519C25.2568 18.1947 23.7852 16.9111 21.7666 16.5849C19.7481 16.2587 17.947 17.0133 17.7439 18.2705C17.5407 19.5276 19.0123 20.8112 21.0309 21.1375C23.0494 21.4637 24.8505 20.709 25.0536 19.4519Z" fill="#371A45"/>
</g>
<path d="M24.4076 20.2607C24.5358 19.471 23.2159 18.5997 21.4597 18.3146C19.7034 18.0296 18.1757 18.4386 18.0475 19.2283C17.9193 20.018 19.2392 20.8893 20.9955 21.1744C22.7517 21.4595 24.2794 21.0504 24.4076 20.2607Z" fill="#FFDA22"/>
<path d="M38.7177 25.2794C39.9433 24.8924 40.6836 23.7769 40.3713 22.7879C40.059 21.799 38.8123 21.311 37.5868 21.698C36.3612 22.0851 35.6208 23.2005 35.9331 24.1895C36.2455 25.1784 37.4921 25.6664 38.7177 25.2794Z" fill="#FFDA22"/>
<path d="M25.5998 28.7724C25.6002 29.0336 25.5663 29.2938 25.4988 29.5463C25.0142 31.3625 22.9422 32.3505 20.8699 31.7531C19.3138 31.3037 18.1997 30.0881 17.9478 28.7426L25.5998 28.7724Z" fill="#FFDA22"/>
<path d="M25.6968 28.7721C25.7817 29.7149 25.3385 30.7007 24.5858 31.3178C24.2141 31.6324 23.7735 31.8584 23.3122 32.0041C22.8487 32.1442 22.3647 32.2039 21.881 32.1809C20.9152 32.1353 19.9898 31.7793 19.2424 31.1658C18.8732 30.8636 18.5606 30.4983 18.319 30.0869C18.0791 29.6798 17.9261 29.2274 17.8696 28.7582C17.867 28.7385 17.872 28.7185 17.8836 28.7023C17.8951 28.6862 17.9125 28.675 17.932 28.6712C17.9515 28.6673 17.9718 28.671 17.9886 28.6816C18.0055 28.6921 18.0177 28.7087 18.0228 28.7279V28.7294C18.2625 29.5879 18.8104 30.3184 19.5075 30.8252C20.2047 31.332 21.0508 31.6309 21.9045 31.66C22.3299 31.6795 22.7556 31.6298 23.165 31.5127C23.5735 31.3991 23.9574 31.2108 24.2972 30.9572C24.6412 30.6992 24.9264 30.371 25.134 29.9944C25.3416 29.6178 25.4668 29.2015 25.5014 28.7729C25.5032 28.7484 25.5141 28.7254 25.5321 28.7087C25.5501 28.692 25.5738 28.6827 25.5983 28.6827C25.6229 28.6827 25.6466 28.692 25.6646 28.7087C25.6826 28.7254 25.6935 28.7484 25.6953 28.7729L25.6968 28.7721Z" fill="#371A45"/>
<path d="M5.87952 13.2709C4.90992 13.1388 3.97314 13.2878 3.17246 13.7597C1.72109 14.6147 1.12873 16.2807 1.27871 18.2267C1.37719 19.5036 1.83017 20.8779 2.65055 22.1682C4.72105 25.4255 8.3477 26.919 10.751 25.503C11.6451 24.9763 12.244 24.1208 12.5367 23.0863C13.0308 21.341 12.5728 19.1402 11.2727 17.0945L5.87952 13.2709Z" fill="#FFDA22"/>
<path d="M3.17373 13.7598C2.80102 14.0208 2.47896 14.3476 2.22332 14.7241C1.97415 15.0942 1.78838 15.5032 1.67362 15.9343C1.55884 16.3628 1.49735 16.8038 1.49056 17.2473C1.48049 17.6914 1.51041 18.1355 1.57995 18.5742C1.65276 19.0116 1.75895 19.4428 1.89759 19.864C2.03801 20.2849 2.20994 20.6947 2.41193 21.0898C2.8107 21.8837 3.31786 22.6182 3.91885 23.2725C4.51198 23.929 5.20105 24.5009 5.96562 24.9367C6.72463 25.3798 7.56798 25.6805 8.43431 25.7644C8.86709 25.8052 9.30356 25.7796 9.72863 25.6886C10.1556 25.5952 10.5623 25.4258 10.9293 25.1884C11.3031 24.9472 11.6305 24.6406 11.8958 24.2835C12.1657 23.9163 12.382 23.5127 12.5382 23.0846C12.4913 23.3113 12.4283 23.5344 12.3498 23.7522C12.2678 23.9714 12.1679 24.1835 12.0514 24.3865C11.8108 24.7983 11.4953 25.1614 11.1212 25.4571C10.7374 25.7519 10.3032 25.9744 9.83973 26.1136C9.37261 26.2495 8.88654 26.3085 8.40048 26.2886C7.42886 26.2605 6.49511 25.9399 5.65302 25.4932C4.81169 25.0359 4.06606 24.4231 3.42067 23.7257C2.78321 23.02 2.25077 22.2262 1.83977 21.3686C1.44006 20.5101 1.15196 19.5897 1.0598 18.6416C0.963594 17.6993 1.03227 16.7284 1.35951 15.8315C1.52919 15.3874 1.76503 14.9665 2.07434 14.6099C2.11348 14.566 2.15009 14.5203 2.19099 14.4779L2.31724 14.3549C2.40108 14.2734 2.48961 14.1968 2.58237 14.1256C2.67226 14.0514 2.77452 13.9933 2.86921 13.9274C2.96895 13.8681 3.07273 13.8151 3.17373 13.7598Z" fill="#371A45"/>
<path d="M37.6467 25.8274C36.9623 25.8585 36.283 25.6948 35.6878 25.3552C35.3869 25.1788 35.1158 24.956 34.8844 24.6949C34.6512 24.4264 34.4708 24.1162 34.3526 23.7806C34.111 23.1022 34.1933 22.3235 34.5263 21.6882C34.6925 21.3688 34.9258 21.091 35.1889 20.8549C35.4522 20.6187 35.7503 20.4244 36.0727 20.2787C36.3937 20.138 36.7311 20.0382 37.0771 19.9818C37.4223 19.9322 37.7723 19.9246 38.1194 19.9591C38.4657 20.0014 38.8054 20.0862 39.1309 20.2116C39.4555 20.3416 39.7588 20.5195 40.0306 20.7395C40.5798 21.1688 40.9757 21.8111 41.0767 22.5045C41.1287 22.8487 41.107 23.2 41.0131 23.5352C40.9662 23.7001 40.9028 23.8598 40.8237 24.0119C40.7479 24.1634 40.6416 24.2988 40.5459 24.4371C40.5403 24.4457 40.533 24.4531 40.5245 24.4588C40.5161 24.4646 40.5065 24.4686 40.4965 24.4707C40.4864 24.4728 40.4761 24.4729 40.466 24.4709C40.4559 24.469 40.4463 24.4651 40.4377 24.4595C40.4292 24.4538 40.4218 24.4466 40.416 24.4381C40.4103 24.4296 40.4062 24.4201 40.4042 24.41C40.4021 24.4 40.402 24.3896 40.4039 24.3795C40.4059 24.3695 40.4098 24.3599 40.4154 24.3513L40.4187 24.3465C40.7588 23.8089 40.8941 23.1597 40.7538 22.5613C40.6275 21.9647 40.2566 21.4372 39.7642 21.0802C38.7837 20.3494 37.3851 20.2449 36.2885 20.7537C35.7436 21.0095 35.2594 21.4102 34.9786 21.9328C34.695 22.4477 34.6183 23.0711 34.7917 23.6385C34.9652 24.2059 35.3689 24.7038 35.8808 25.0464C36.3941 25.3931 37.013 25.5868 37.6483 25.6345C37.6728 25.6365 37.6956 25.6478 37.7121 25.666C37.7287 25.6841 37.7377 25.7079 37.7374 25.7325C37.7371 25.7571 37.7275 25.7807 37.7106 25.7985C37.6936 25.8163 37.6705 25.827 37.646 25.8284L37.6467 25.8274Z" fill="#371A45"/>
<path d="M41.7764 21.3175C42.165 21.8664 42.3844 22.5171 42.4076 23.1893C42.4329 23.8665 42.2382 24.547 41.895 25.1335C41.5557 25.7254 41.0519 26.2074 40.4856 26.5728C39.9138 26.9329 39.2775 27.1785 38.612 27.2959C37.9495 27.412 37.2713 27.4071 36.6105 27.2813C35.9491 27.156 35.3199 26.8983 34.7607 26.5238C34.2052 26.1506 33.7226 25.6577 33.3999 25.0701C33.0813 24.4823 32.9217 23.8076 32.9692 23.1534C32.9705 23.1334 32.9795 23.1148 32.9942 23.1012C33.0089 23.0876 33.0283 23.0802 33.0483 23.0805C33.0683 23.0807 33.0874 23.0886 33.1018 23.1026C33.1161 23.1165 33.1246 23.1354 33.1255 23.1554C33.1551 23.7761 33.3466 24.3782 33.681 24.902C34.0092 25.4198 34.4763 25.8387 34.994 26.1589C36.0368 26.799 37.3245 26.9992 38.5209 26.7803C39.1203 26.6736 39.6942 26.4549 40.2126 26.1357C40.4737 25.9817 40.7088 25.79 40.9313 25.5865C41.036 25.4787 41.1408 25.3696 41.2375 25.2547L41.3749 25.0757C41.3976 25.0459 41.4219 25.0169 41.4433 24.9861L41.5024 24.8904L41.6213 24.6987C41.6582 24.6333 41.6872 24.5639 41.7206 24.4967C41.793 24.3639 41.8355 24.219 41.8867 24.0781C41.9129 24.0075 41.9331 23.9349 41.9471 23.8609L41.9976 23.6407C42.0122 23.491 42.0367 23.341 42.0428 23.1895C42.068 22.5835 41.9094 21.9689 41.6135 21.4197C41.602 21.398 41.5992 21.3727 41.6056 21.349C41.612 21.3252 41.6272 21.3048 41.6481 21.2918C41.6689 21.2788 41.694 21.2742 41.7181 21.2789C41.7422 21.2836 41.7637 21.2973 41.7781 21.3172L41.7764 21.3175Z" fill="#371A45"/>
<g opacity="0.35">
<path opacity="0.35" d="M19.3084 28.7333C19.4488 29.5281 20.1417 30.2326 21.1264 30.4755C22.4394 30.7987 23.7744 30.1808 24.111 29.0956C24.1575 28.9462 24.183 28.7912 24.1867 28.6348C24.2678 26.9299 22.8053 26.1666 21.591 26.1403C20.2192 26.1118 19.0719 26.9733 19.3084 28.7333Z" fill="#371A45"/>
</g>
<path d="M19.4431 28.8289C19.5835 29.6237 20.2764 30.3282 21.2611 30.5711C22.5741 30.8941 23.9091 30.2762 24.2457 29.191C24.2922 29.0416 24.3177 28.8865 24.3214 28.7301C23.9742 28.1928 23.3778 27.7651 22.6259 27.5793C21.2932 27.2515 19.9378 27.8035 19.4431 28.8289Z" fill="#FFDA22"/>
<path d="M22.328 26.129C22.8572 26.2438 23.3421 26.5085 23.7249 26.8915C23.9188 27.0883 24.0807 27.3143 24.2046 27.5612C24.3298 27.8143 24.4079 28.0881 24.4352 28.3692C24.4663 28.6554 24.4347 28.945 24.3425 29.2178C24.2548 29.4937 24.1132 29.7495 23.9259 29.9703C23.5431 30.4048 23.0093 30.6788 22.4558 30.7742C21.3448 30.9628 20.1677 30.479 19.5303 29.5622C19.214 29.1077 19.0412 28.5409 19.1041 27.9874C19.167 27.4339 19.4601 26.9228 19.8891 26.608C19.9051 26.5968 19.9246 26.592 19.944 26.5945C19.9633 26.597 19.9809 26.6066 19.9936 26.6214C20.0062 26.6362 20.0128 26.6552 20.0122 26.6747C20.0116 26.6941 20.0037 26.7127 19.9901 26.7266C19.6407 27.0751 19.4369 27.5412 19.4288 28.0116C19.4144 28.4815 19.5942 28.939 19.8778 29.3079C20.4537 30.0455 21.4584 30.4245 22.3644 30.2596C22.8146 30.1768 23.2408 29.9644 23.538 29.6306C23.8383 29.2935 23.9944 28.8521 23.9728 28.4012C23.9536 27.949 23.76 27.4988 23.4534 27.1364C23.1504 26.7693 22.7343 26.4911 22.2722 26.3143C22.249 26.3059 22.2298 26.2888 22.2187 26.2667C22.2075 26.2446 22.2052 26.2191 22.2122 26.1954C22.2193 26.1716 22.2351 26.1515 22.2564 26.139C22.2778 26.1265 22.3032 26.1227 22.3273 26.1282L22.328 26.129Z" fill="#371A45"/>
<g opacity="0.35">
<path opacity="0.35" d="M10.3718 23.6908C12.012 22.3301 11.8238 19.3976 9.95156 17.1408C8.07932 14.8841 5.23196 14.1577 3.59182 15.5185C1.95167 16.8792 2.13982 19.8117 4.01207 22.0684C5.88431 24.3251 8.73166 25.0515 10.3718 23.6908Z" fill="#371A45"/>
</g>
<path d="M9.73258 23.9645C10.8784 22.8448 10.3677 20.464 8.59197 18.6469C6.81626 16.8298 4.44792 16.2645 3.30215 17.3841C2.15637 18.5038 2.66704 20.8846 4.44276 22.7017C6.21847 24.5188 8.58681 25.0841 9.73258 23.9645Z" fill="#FFDA22"/>
<path d="M7.81194 24.3443C8.29169 24.3847 8.77145 24.3369 9.20953 24.1799C9.64431 24.0251 10.0311 23.7595 10.3316 23.4093C10.6298 23.0648 10.8366 22.6447 10.95 22.1973C11.0654 21.7461 11.1062 21.2791 11.071 20.8148C11.0063 19.8806 10.6978 18.9607 10.2228 18.1429C9.75622 17.3175 9.12464 16.597 8.36744 16.0264C7.61878 15.4638 6.72619 15.076 5.81871 15.028C5.37048 15.0007 4.92226 15.0817 4.51202 15.2644C4.1045 15.4494 3.75204 15.7372 3.48914 16.0994C3.2225 16.463 3.04778 16.8983 2.95056 17.3541C2.85335 17.8098 2.83517 18.2883 2.87734 18.764C2.95662 19.7192 3.29472 20.6517 3.77447 21.5026C3.78481 21.5248 3.78673 21.55 3.77986 21.5736C3.773 21.5971 3.75782 21.6173 3.73716 21.6305C3.71649 21.6436 3.69175 21.6488 3.66754 21.6451C3.64333 21.6414 3.6213 21.629 3.60555 21.6102C3.01626 20.7777 2.62519 19.8214 2.46223 18.8145C2.38252 18.3005 2.38337 17.7772 2.46475 17.2634C2.54461 16.7344 2.7393 16.2293 3.03515 15.7835C3.34012 15.3267 3.76183 14.9598 4.25649 14.721C4.75038 14.4816 5.30336 14.3781 5.84093 14.3945C6.3747 14.4128 6.90105 14.5252 7.39582 14.7263C7.88314 14.9211 8.34342 15.1778 8.76538 15.4898C9.60646 16.109 10.2875 16.9195 10.7962 17.8192C11.2959 18.7234 11.6277 19.7382 11.6626 20.7865C11.6849 21.314 11.6195 21.8415 11.4689 22.3475C11.3134 22.854 11.0485 23.336 10.6773 23.7246C10.3055 24.1102 9.83789 24.3902 9.3224 24.5359C8.81311 24.6788 8.28084 24.6829 7.77836 24.5907C7.74715 24.5848 7.71939 24.5671 7.70077 24.5414C7.68216 24.5156 7.67409 24.4837 7.67822 24.4522C7.68235 24.4207 7.69837 24.392 7.723 24.3719C7.74762 24.3519 7.77899 24.342 7.81068 24.3443H7.81194Z" fill="#371A45"/>
<path d="M18.3954 17.3912C18.0763 17.683 17.8503 18.0628 17.842 18.4625L17.8382 18.6107L17.8581 18.7577C17.863 18.8071 17.8739 18.8557 17.8907 18.9024C17.9061 18.9496 17.9159 18.9983 17.9349 19.0443C17.9775 19.1357 18.0106 19.2301 18.0667 19.3157C18.0937 19.3589 18.1149 19.4046 18.146 19.4457L18.2384 19.569C18.4909 19.8949 18.8282 20.1631 19.1938 20.379C19.5582 20.6004 19.9584 20.7658 20.3705 20.8913C20.4745 20.9196 20.5773 20.9527 20.6823 20.9774L20.9992 21.0458L21.3196 21.0943C21.4267 21.1077 21.5345 21.116 21.6418 21.1274C22.0719 21.161 22.5045 21.1409 22.9296 21.0676C23.3505 20.9903 23.7651 20.8557 24.1163 20.6221C24.2994 20.5138 24.4484 20.3653 24.5837 20.206C24.7124 20.0379 24.8068 19.8462 24.8615 19.6417L24.8632 19.6351C24.8683 19.616 24.8805 19.5996 24.8973 19.5891C24.9141 19.5786 24.9342 19.5749 24.9536 19.5788C24.9731 19.5826 24.9903 19.5936 25.0019 19.6097C25.0134 19.6257 25.0185 19.6455 25.016 19.6652C24.9919 19.906 24.9155 20.1387 24.792 20.3469C24.664 20.5534 24.5004 20.7357 24.309 20.8852C23.9302 21.1882 23.4803 21.3781 23.0212 21.4885C22.5604 21.6034 22.085 21.6382 21.6143 21.6205C21.1429 21.6013 20.6756 21.524 20.223 21.3905C19.7673 21.2574 19.3313 21.0643 18.9264 20.8163C18.7234 20.6886 18.5312 20.5444 18.3517 20.3853C18.2624 20.3045 18.178 20.2166 18.0934 20.1303L17.9768 19.9889C17.9367 19.9425 17.9 19.8933 17.867 19.8417L17.766 19.6874C17.7321 19.6369 17.7074 19.5776 17.6781 19.523C17.617 19.4154 17.5786 19.2937 17.5367 19.1758C17.5197 19.1149 17.5058 19.0531 17.495 18.9907C17.48 18.9291 17.4715 18.866 17.4698 18.8026L17.4612 18.6125L17.4811 18.4226C17.516 18.1731 17.6107 17.9357 17.7571 17.7308C17.8981 17.5343 18.0752 17.3665 18.279 17.2364C18.2996 17.2234 18.3242 17.2186 18.3481 17.2228C18.372 17.2271 18.3935 17.2401 18.4083 17.2593C18.4231 17.2785 18.4302 17.3026 18.4282 17.3268C18.4262 17.351 18.4152 17.3736 18.3975 17.3901L18.3954 17.3912Z" fill="#371A45"/>
<path d="M20.4904 22.4056C21.0273 22.5718 21.5897 22.6402 22.1508 22.6076C22.7052 22.5751 23.2507 22.4541 23.7668 22.249C24.2809 22.047 24.7644 21.7614 25.1651 21.3905C25.5659 21.0196 25.8689 20.5418 25.9325 19.9795V19.976C25.9344 19.9568 25.9433 19.939 25.9575 19.9259C25.9717 19.9128 25.9902 19.9054 26.0095 19.9052C26.0288 19.9049 26.0475 19.9117 26.0621 19.9244C26.0767 19.937 26.0861 19.9546 26.0885 19.9737C26.132 20.279 26.0817 20.5997 25.9706 20.8933C25.8548 21.1856 25.6873 21.4547 25.4762 21.6877C25.0626 22.1571 24.5283 22.4977 23.9612 22.7323C23.6756 22.8475 23.3797 22.9355 23.0775 22.9949C22.7746 23.0508 22.4668 23.0755 22.1589 23.0686C21.5453 23.055 20.9269 22.8999 20.4103 22.581C20.3899 22.5687 20.3747 22.5492 20.3677 22.5264C20.3606 22.5036 20.3621 22.4789 20.372 22.4572C20.3818 22.4354 20.3993 22.418 20.4211 22.4083C20.4429 22.3985 20.4676 22.3971 20.4904 22.4043V22.4056Z" fill="#371A45"/>
<g opacity="0.5">
<path opacity="0.5" d="M50.5462 13.1545C50.2092 12.2579 49.059 11.77 48.1475 12.4127C45.1773 14.5064 41.8218 15.991 38.2747 16.7809C32.0976 18.1638 25.9396 17.3589 20.6126 14.8783C20.7542 14.9884 20.8964 15.0956 21.0393 15.1998C21.0116 15.1874 20.9835 15.176 20.9558 15.1634C20.8656 15.1227 20.7747 15.0821 20.6848 15.0397C20.6424 15.0202 20.6018 15.0005 20.5601 14.9808C20.5005 14.9536 20.4417 14.9253 20.3834 14.8962C20.1718 14.7952 19.9624 14.6905 19.7539 14.5834C19.687 14.5491 19.6195 14.5152 19.5519 14.4801C19.0777 14.2322 18.6103 13.9702 18.1497 13.6943C18.1184 13.6757 18.0869 13.6575 18.0558 13.6385C17.9407 13.5689 17.827 13.4989 17.7127 13.4277C17.2221 13.123 16.7412 12.802 16.2699 12.4647C16.1924 12.4089 16.1141 12.3533 16.0363 12.2963C15.6155 11.989 15.2031 11.6698 14.7991 11.3385C14.5971 11.1732 14.3978 11.0049 14.2011 10.8335C14.0045 10.6622 13.8099 10.488 13.6174 10.3111C13.5366 10.2374 13.457 10.1626 13.3777 10.0879C13.303 10.018 13.2289 9.9475 13.1553 9.8763C13.1033 9.8258 13.0508 9.7753 12.999 9.7248C12.71 9.4425 12.4273 9.15331 12.1511 8.85721C12.0559 8.75621 11.9625 8.65319 11.8688 8.55042C11.4646 8.10434 11.0744 7.64563 10.6982 7.1743C10.63 7.08845 10.5627 7.002 10.4962 6.91498C10.3813 6.76701 10.2672 6.61804 10.1556 6.46729C10.1303 6.43447 10.1074 6.40114 10.0831 6.36831C9.90334 6.12423 9.72743 5.87695 9.55539 5.62647C9.40238 5.4036 9.2524 5.1782 9.10544 4.95027C8.6432 4.23317 8.21395 3.49133 7.81769 2.72474C7.71316 2.52274 7.61215 2.31948 7.51242 2.1152C7.45687 2.00208 7.40157 1.88795 7.34728 1.77483C6.48541 -0.0596256 5.82725 -1.98305 5.3846 -3.96096C5.30481 -4.3185 5.2331 -4.67679 5.16896 -5.03484C5.05988 -5.6315 4.96697 -6.22866 4.89803 -6.82355C4.88692 -6.92 4.87859 -7.01646 4.86849 -7.11291C4.82657 -7.51312 4.79072 -7.91334 4.76471 -8.31178C4.75356 -8.50768 4.7064 -8.69985 4.62558 -8.87865C4.36526 -9.45308 3.78325 -9.78891 3.18785 -9.7932C3.09879 -9.79355 3.00985 -9.78646 2.92197 -9.77199C2.86648 -9.76293 2.81152 -9.75088 2.75734 -9.73588C2.69326 -9.71816 2.63042 -9.69623 2.56923 -9.67023C2.53085 -9.65407 2.49347 -9.63614 2.45585 -9.6167C2.41444 -9.59499 2.37379 -9.57125 2.33389 -9.5455C2.1755 -9.44278 2.03629 -9.31314 1.92257 -9.16246C1.90515 -9.13973 1.88874 -9.1165 1.87207 -9.09377C2.7788 -9.37531 3.85799 -8.78901 3.92616 -7.68281C3.95823 -7.18841 4.00191 -6.69149 4.05923 -6.19482C4.17231 -5.23283 4.3348 -4.27728 4.54605 -3.33198C4.98794 -1.35469 5.64543 0.568156 6.50671 2.40204C6.65821 2.72247 6.81451 3.03834 6.97686 3.3517C7.37413 4.11829 7.80338 4.86013 8.26461 5.57723C8.59842 6.09688 8.94847 6.60264 9.31476 7.09451C9.49168 7.33371 9.67298 7.56937 9.85865 7.80151C10.3209 8.38377 10.8059 8.94516 11.3138 9.48568C11.5897 9.78195 11.8723 10.0711 12.1617 10.3533C12.3637 10.5515 12.57 10.7467 12.7801 10.9386C13.548 11.6454 14.3553 12.3081 15.1983 12.9235C15.276 12.9808 15.3543 13.0363 15.4318 13.0921C15.9032 13.4288 16.3841 13.7498 16.8746 14.0552C16.989 14.1264 17.1019 14.1963 17.2178 14.266C17.7076 14.5629 18.2063 14.8435 18.7138 15.1076C18.988 15.2519 19.2649 15.3906 19.5445 15.5237C19.6034 15.5528 19.662 15.5808 19.7213 15.6083C19.763 15.628 19.8036 15.6474 19.846 15.6671C19.9362 15.7093 20.0271 15.7502 20.1172 15.7909C20.5981 16.0088 21.0853 16.2129 21.5787 16.4029C21.7267 16.461 21.8756 16.5158 22.0254 16.5698C22.1859 16.6287 22.3473 16.6867 22.5097 16.7423C22.9351 16.8887 23.3682 17.0258 23.8009 17.1513C24.325 17.305 24.8539 17.442 25.3876 17.5621C35.8412 21.4974 47.141 14.6331 48.6116 14.9008C49.538 15.07 49.335 16.4756 48.9131 17.8139C47.119 22.6093 44.0323 26.8144 39.995 29.9632C40.0178 29.9468 40.0412 29.9309 40.064 29.9144L40.0672 29.9122C40.1354 29.8617 40.2018 29.8112 40.2692 29.7607C40.5019 29.5893 40.7312 29.4143 40.9573 29.2357C41.2446 29.0093 41.5273 28.7777 41.8052 28.5408C42.441 27.9975 43.05 27.4278 43.6323 26.8319C43.9966 26.4586 44.3501 26.0753 44.6928 25.6823C45.0355 25.2892 45.3659 24.8874 45.6839 24.4769C45.8433 24.2713 45.9997 24.0637 46.1532 23.8539C46.9208 22.8053 47.6136 21.704 48.2265 20.5581C48.3595 20.3099 48.4888 20.0596 48.6144 19.8071C48.677 19.6812 48.7388 19.555 48.7997 19.4284C49.594 17.769 50.22 16.0341 50.6682 14.2498C50.7642 13.8822 50.7208 13.492 50.5462 13.1545Z" fill="white"/>
</g>
<path d="M23.9269 35.5866C18.3893 35.5866 12.9156 33.9279 8.25699 30.7989C2.77218 27.1155 -1.24686 21.6122 -3.05981 15.3028C-3.14061 15.0192 -3.21131 14.7644 -3.27191 14.5231C-3.33605 14.2731 -3.39816 14.0145 -3.4623 13.7327C-3.50901 13.5264 -3.5532 13.3199 -3.59511 13.1144C-3.63703 12.9088 -3.67642 12.702 -3.71353 12.496C-3.74939 12.296 -3.78322 12.0958 -3.81453 11.8965C-3.8317 11.7887 -3.84786 11.6796 -3.86503 11.5703C-3.87665 11.4913 -3.88751 11.4133 -3.89862 11.3352L-3.90771 11.2698C-3.9221 11.162 -3.93548 11.0572 -3.94836 10.9517C-3.96124 10.8461 -3.97361 10.7462 -3.98497 10.6431C-3.99633 10.5401 -4.00744 10.4379 -4.01754 10.3346C-4.02764 10.2313 -4.03774 10.1313 -4.04683 10.0286C-4.05668 9.91821 -4.06552 9.81847 -4.07208 9.71975L-4.07612 9.66924C-4.08294 9.58365 -4.0895 9.4983 -4.09455 9.41296C-4.09733 9.37963 -4.09986 9.33923 -4.10238 9.29883L-4.11627 9.064C-4.12233 8.96502 -4.12713 8.862 -4.13142 8.75898C-4.15364 8.2661 -4.16273 7.76716 -4.15793 7.27757L-4.15566 7.05587C-4.15364 6.92507 -4.15036 6.79705 -4.14581 6.66853C-4.14379 6.59657 -4.14203 6.53117 -4.139 6.46653C-4.12258 6.03476 -4.09557 5.59541 -4.0587 5.16389L-4.038 4.93007C-4.03471 4.89523 -4.03168 4.86038 -4.02764 4.82579C-4.01982 4.7359 -4.00896 4.63566 -3.99785 4.53466C-3.95694 4.15111 -3.90518 3.75191 -3.84433 3.35018C-3.83019 3.25322 -3.81428 3.15348 -3.79787 3.054C-3.67162 2.28084 -3.51103 1.49834 -3.31812 0.730996C-3.27166 0.547176 -3.2236 0.363861 -3.17394 0.18105C-3.06537 -0.214617 -2.95149 -0.598415 -2.83534 -0.960501C-2.81009 -1.03878 -2.78484 -1.12033 -2.75732 -1.20164C-2.63258 -1.58039 -2.49396 -1.97176 -2.3465 -2.36314C-2.28312 -2.53004 -2.21873 -2.69492 -2.15233 -2.85955C-2.05814 -3.09539 -1.95942 -3.33274 -1.85943 -3.56378C-1.80893 -3.68144 -1.75615 -3.79986 -1.70338 -3.91728C-1.35569 -4.69321 -0.967343 -5.46409 -0.547688 -6.20821C-0.404016 -6.46273 -0.254789 -6.71775 -0.103795 -6.96571C-0.0179443 -7.10787 0.0704317 -7.25078 0.159312 -7.39243C0.254252 -7.54393 0.351717 -7.69543 0.450192 -7.84491C0.62063 -8.10499 0.800157 -8.3686 0.99938 -8.65089C1.12437 -8.82764 1.25188 -9.00162 1.37964 -9.17483C1.44378 -9.26119 1.50867 -9.34729 1.57331 -9.43289C1.61609 -9.48972 1.66195 -9.54417 1.71067 -9.596C1.71901 -9.60534 1.73112 -9.61873 1.74451 -9.63186C1.7637 -9.65231 1.78364 -9.67125 1.80384 -9.69018C1.81571 -9.70205 1.82909 -9.71367 1.84172 -9.72478C1.85434 -9.73589 1.86293 -9.74346 1.87379 -9.75255L1.89146 -9.76795C1.91671 -9.78916 1.93363 -9.80204 1.9508 -9.81467L1.97125 -9.83057C1.98438 -9.84093 1.9965 -9.85103 2.01064 -9.86062L2.02655 -9.87173C2.34651 -10.0986 2.72721 -10.2242 3.11937 -10.2323C3.12778 -10.2328 3.13621 -10.2328 3.14462 -10.2323H3.19865H3.20674C3.2922 -10.2308 3.37748 -10.2237 3.46201 -10.2111C4.37935 -10.079 5.07574 -9.37784 5.19366 -8.46505C5.19997 -8.42036 5.20401 -8.37264 5.20729 -8.32416C5.21588 -8.18326 5.22547 -8.04641 5.23683 -7.91031C5.24315 -7.82143 5.25047 -7.73836 5.2583 -7.65377C5.27143 -7.5053 5.28506 -7.35734 5.30147 -7.21013C5.31082 -7.11367 5.32092 -7.02378 5.33127 -6.93238C5.3901 -6.41273 5.46535 -5.88955 5.55473 -5.37673C5.56963 -5.28608 5.58503 -5.19998 5.60119 -5.11362C5.61761 -5.0202 5.63478 -4.93106 5.65169 -4.84168C5.69537 -4.61847 5.74057 -4.39677 5.7893 -4.17407L5.81607 -4.05464C5.83349 -3.97687 5.85091 -3.89935 5.86935 -3.82183L5.87995 -3.77638C5.9052 -3.67538 5.92641 -3.57867 5.9509 -3.48247C5.9658 -3.42036 5.97994 -3.36405 5.99433 -3.3085C6.0163 -3.22088 6.03802 -3.13781 6.06024 -3.05398C6.0668 -3.02873 6.07084 -3.01131 6.07564 -2.99489L6.07993 -2.97949C6.10973 -2.86561 6.14104 -2.75224 6.17311 -2.63988C6.20871 -2.51161 6.24481 -2.38612 6.28168 -2.26113C6.33218 -2.09271 6.38268 -1.92707 6.43596 -1.76118C6.46323 -1.67499 6.49092 -1.58881 6.51903 -1.50262L6.57584 -1.33269C7.86359 2.50531 9.94849 5.92921 12.7699 8.84559C17.3654 13.5941 23.4984 16.5165 30.0409 17.0741C31.5771 17.2051 33.1217 17.2039 34.6576 17.0705C34.719 17.0655 34.7783 17.0597 34.8379 17.0541L34.9268 17.0458C34.9715 17.0415 35.0177 17.0367 35.0642 17.0316C35.1684 17.0218 35.2662 17.0112 35.3636 17.0001C35.4245 16.9933 35.4838 16.9862 35.5429 16.9789C35.7113 16.9589 35.8754 16.9372 36.0403 16.914C36.2524 16.8847 36.4633 16.8531 36.6741 16.8193C36.7956 16.7986 36.9213 16.7771 37.0475 16.7551C37.1786 16.7322 37.3089 16.7082 37.4397 16.6827L37.4624 16.6781C37.5912 16.6529 37.7205 16.6276 37.8492 16.6004C37.9717 16.5751 38.0952 16.5486 38.2191 16.5208C38.8855 16.3729 39.5574 16.1964 40.2179 15.9966C40.3285 15.9628 40.4358 15.93 40.5426 15.8956C40.6535 15.8613 40.7606 15.8259 40.8679 15.7903C40.9752 15.7547 41.0747 15.7214 41.1759 15.6871L41.1896 15.6823C43.1798 14.997 45.0832 14.0818 46.8612 12.9553L46.943 12.9033C47.0077 12.8621 47.0723 12.8212 47.1362 12.7793L47.3564 12.6338C47.4715 12.5581 47.5854 12.4823 47.698 12.4033L47.9725 12.2114C48.2051 12.0462 48.4702 11.9324 48.7502 11.8774C48.7954 11.8685 48.8413 11.8615 48.8875 11.8564C48.9755 11.8449 49.0642 11.8401 49.1529 11.842L49.268 11.8473C49.4048 11.8573 49.5402 11.8812 49.672 11.9188C49.9544 12.001 50.2166 12.1413 50.4417 12.3306C50.7412 12.5824 50.9613 12.9157 51.0752 13.2901C51.1608 13.5774 51.1802 13.8803 51.132 14.1761C51.1287 14.2014 51.1224 14.236 51.1156 14.2695C51.1073 14.3074 51.1007 14.3372 51.0929 14.3673C51.0353 14.5983 50.9699 14.844 50.8944 15.1131C50.8592 15.2379 50.8234 15.3623 50.7868 15.4863C50.6793 15.8502 50.5596 16.2229 50.4333 16.5935C50.3399 16.8655 50.2546 17.1038 50.172 17.3235C49.772 18.3949 49.3072 19.4409 48.7802 20.4558C48.7252 20.5608 48.6709 20.6646 48.6161 20.7671C48.5527 20.8848 48.4898 21.0014 48.4257 21.1166C48.3684 21.2201 48.3096 21.3246 48.2507 21.4292C48.0962 21.6994 47.9588 21.9319 47.8293 22.1427C47.5611 22.5836 47.2761 23.0237 46.9829 23.4492C46.9645 23.4762 46.9468 23.5019 46.9281 23.5272L46.8375 23.658C46.8087 23.6992 46.7794 23.7403 46.7504 23.7815L46.7408 23.7948C46.7357 23.8027 46.7284 23.8128 46.7196 23.8239L46.6746 23.887C46.6441 23.9309 46.6135 23.9731 46.5827 24.0153L46.512 24.112C46.4941 24.1372 46.4749 24.1625 46.4557 24.1877C46.4229 24.2334 46.3888 24.2791 46.3547 24.3251L46.3443 24.339C46.3206 24.3711 46.2966 24.4031 46.2716 24.4342C46.2398 24.4784 46.2067 24.5218 46.1739 24.5645L46.0906 24.6723C46.0714 24.6991 46.0514 24.7248 46.0305 24.7498C46.0194 24.765 46.008 24.7796 45.9967 24.794C45.9302 24.8793 45.8633 24.9647 45.7946 25.049C45.7848 25.063 45.7741 25.0764 45.7626 25.0892C45.7204 25.1427 45.6777 25.1955 45.6348 25.2482L45.6159 25.2715C45.5881 25.3053 45.5603 25.3394 45.5323 25.3725C45.4586 25.4639 45.3773 25.5616 45.2947 25.6586C45.2816 25.6745 45.2745 25.6838 45.2669 25.6914C45.2528 25.7068 45.2417 25.7199 45.2316 25.7328C45.1975 25.7734 45.1642 25.8121 45.1306 25.8505C45.097 25.8888 45.0629 25.9302 45.0255 25.9719C45.0089 25.9919 44.9914 26.0118 44.975 26.0315L44.9344 26.0777C44.8839 26.134 44.8364 26.1891 44.7872 26.2438L44.745 26.2906C44.6887 26.3534 44.6278 26.4198 44.5683 26.4855C44.5468 26.5107 44.5246 26.5342 44.5026 26.5582L44.4774 26.5867C44.4269 26.6425 44.3776 26.6941 44.3289 26.7451L44.3233 26.7511C44.3021 26.7743 44.2802 26.7981 44.2582 26.8208C44.2216 26.8599 44.1786 26.9051 44.1355 26.9506L44.0771 27.0112C44.0345 27.0554 43.9913 27.1001 43.9481 27.1438L43.8878 27.2059C43.8178 27.2778 43.7469 27.3485 43.6757 27.4195C43.663 27.4324 43.6504 27.4447 43.6373 27.4579L43.4605 27.6306C43.4454 27.6462 43.4239 27.6674 43.4015 27.6881L43.2608 27.8235C43.2063 27.876 43.1516 27.928 43.0967 27.9795C43.0363 28.0368 42.9735 28.0964 42.9096 28.1543C42.8843 28.1795 42.8563 28.2048 42.8288 28.2285C42.7581 28.2939 42.6869 28.3585 42.6147 28.4232C42.5894 28.4456 42.5601 28.4737 42.5301 28.4989L42.5101 28.5163C42.495 28.5307 42.473 28.5497 42.4505 28.5691L42.4377 28.5805C42.4147 28.6014 42.3872 28.6262 42.3569 28.6517C42.3195 28.6855 42.2733 28.7252 42.2266 28.7651L42.2134 28.7764C42.2041 28.7848 42.195 28.7926 42.1857 28.8017L42.1637 28.8206C42.0879 28.8868 42.0099 28.9527 41.9317 29.0181C41.9089 29.0378 41.8789 29.0625 41.8493 29.0862C41.787 29.139 41.7173 29.1961 41.6473 29.2534L41.6039 29.2892C41.5893 29.3019 41.5746 29.3145 41.5597 29.3256C41.5385 29.3435 41.5165 29.361 41.4948 29.3779C41.4304 29.4306 41.3658 29.4822 41.3007 29.5332L41.2954 29.5392L41.1992 29.615C41.1441 29.6579 41.0896 29.7006 41.0338 29.7432C41.0113 29.7617 40.9818 29.7844 40.9504 29.8069C40.8664 29.8718 40.7863 29.9331 40.705 29.9932C40.6611 30.0273 40.6106 30.0657 40.5588 30.1026C40.5113 30.1379 40.4608 30.1748 40.4093 30.2124L40.0639 30.4598C40.0523 30.4684 40.0329 30.4821 40.0134 30.4954C39.9521 30.5384 39.8887 30.5823 39.825 30.626L39.7614 30.6699C39.5973 30.784 39.42 30.9027 39.2047 31.0434C38.9549 31.2062 38.7249 31.3512 38.5009 31.4865C38.4252 31.5345 38.3416 31.5842 38.2583 31.633C38.2446 31.6423 38.2305 31.6509 38.2164 31.6582C38.1722 31.6835 38.1275 31.7107 38.0825 31.7367C38.0376 31.7627 37.9924 31.7903 37.9439 31.8178C37.8808 31.8546 37.8126 31.8935 37.7442 31.9319L37.6889 31.9632C37.6035 32.012 37.5167 32.0602 37.4301 32.1082C37.4134 32.118 37.3932 32.1289 37.3733 32.139C37.3036 32.1771 37.2341 32.2147 37.1629 32.2528C37.0917 32.291 37.0089 32.3354 36.9281 32.3773C36.8716 32.4071 36.8185 32.4351 36.7647 32.4624C36.7443 32.4738 36.7241 32.4841 36.7034 32.4942C36.6827 32.5043 36.6567 32.5195 36.6332 32.5298C36.5736 32.5609 36.5138 32.5909 36.4537 32.621C36.3466 32.6745 36.2378 32.7285 36.1284 32.7811C35.9676 32.8588 35.8047 32.9361 35.6411 33.0106L35.2912 33.173L35.2874 33.1712L35.2306 33.1964L34.9755 33.3103L34.9722 33.3085C34.9157 33.3338 34.8596 33.3565 34.8036 33.3797L34.6917 33.4275C34.6379 33.4497 34.5907 33.4696 34.5415 33.4886C34.5228 33.4969 34.5039 33.5045 34.4842 33.5118L34.3844 33.5527L34.3238 33.578C34.2819 33.5946 34.2395 33.6115 34.1976 33.6285C34.1877 33.633 34.1759 33.6378 34.1635 33.6426L34.0953 33.6696C34.0319 33.6949 33.9766 33.7158 33.9206 33.7363L33.9027 33.7433C33.8827 33.7509 33.8628 33.7587 33.8426 33.7661L33.8201 33.7744C33.7825 33.7893 33.7443 33.8032 33.7052 33.8173C33.6736 33.83 33.6413 33.8426 33.6095 33.8534L33.5524 33.8736C33.5363 33.8802 33.5196 33.8863 33.5019 33.8921C33.4767 33.9017 33.4514 33.9105 33.4262 33.9193C33.3812 33.9363 33.3353 33.9527 33.2888 33.9698L33.1298 33.557L33.2752 33.9741L33.1742 34.0105C33.1489 34.0203 33.1237 34.0289 33.0959 34.0373C33.0454 34.0557 32.9949 34.0726 32.9419 34.0898L32.824 34.1302C32.7508 34.1554 32.675 34.1807 32.5993 34.2047L32.3682 34.2786C32.2925 34.3026 32.2167 34.3266 32.1392 34.3501C32.0266 34.3847 31.9142 34.4185 31.8016 34.4511C31.7822 34.4579 31.7632 34.4637 31.744 34.4685L31.6203 34.5041L31.6185 34.5074L31.2398 34.6099C31.1585 34.6321 31.0754 34.6541 30.9923 34.6761L30.8267 34.7183C30.7833 34.7304 30.734 34.7435 30.6838 34.7544C30.6522 34.7629 30.6214 34.7705 30.5896 34.7783C30.5325 34.7923 30.477 34.8055 30.423 34.818C30.3939 34.8258 30.3661 34.8324 30.3386 34.8379C30.2952 34.8485 30.2523 34.8586 30.2093 34.8687L30.1881 34.874C30.1351 34.8862 30.0821 34.8993 30.028 34.9096C29.9846 34.9197 29.9336 34.9311 29.8826 34.9422L29.823 34.9553C29.7816 34.9644 29.7397 34.9738 29.6968 34.9824L29.6036 35.0018L29.5983 35.0117L29.3776 35.0478C29.2958 35.0647 29.215 35.0801 29.1342 35.0955C29.0804 35.1058 29.0332 35.1147 28.9847 35.1235L28.9279 35.1339C28.8567 35.147 28.7837 35.1591 28.712 35.1728L28.6807 35.1783C28.6653 35.1811 28.6499 35.1839 28.6342 35.1861C28.5396 35.203 28.435 35.2202 28.3312 35.2366L28.2613 35.2477C28.1805 35.2606 28.1002 35.273 28.0199 35.2849C27.9553 35.2947 27.8868 35.3046 27.8179 35.3141L27.4051 35.3699C27.3013 35.3836 27.198 35.3952 27.0948 35.4076C27.0228 35.4162 26.9506 35.424 26.8784 35.4328L26.7877 35.4427C25.8372 35.5401 24.8823 35.5882 23.9269 35.5866ZM2.42348 -9.06146L2.41692 -9.0554C2.40202 -9.04151 2.39166 -9.03368 2.38459 -9.02459L2.35354 -8.99152C2.32665 -8.96342 2.30136 -8.93383 2.27779 -8.90289C2.21416 -8.81855 2.15154 -8.73422 2.08816 -8.65039C1.96393 -8.48206 1.84113 -8.31288 1.71976 -8.14286C1.52685 -7.86941 1.35288 -7.61413 1.18951 -7.36289C1.09457 -7.2177 1.00039 -7.07252 0.90848 -6.92531C0.821873 -6.78744 0.736022 -6.64882 0.652192 -6.50995C0.50549 -6.2683 0.36106 -6.02136 0.222942 -5.77542C-0.18333 -5.05403 -0.559807 -4.30764 -0.896389 -3.55696C-0.946889 -3.44409 -0.997389 -3.32971 -1.04789 -3.21608C-1.1446 -2.99313 -1.24004 -2.7636 -1.3317 -2.53433C-1.39634 -2.37374 -1.45795 -2.21467 -1.51956 -2.05458C-1.66248 -1.67583 -1.79731 -1.29708 -1.91826 -0.927929C-1.94351 -0.850664 -1.96876 -0.776429 -1.99199 -0.700679C-2.10561 -0.347178 -2.21596 0.025259 -2.32024 0.40805C-2.36821 0.584631 -2.41467 0.762053 -2.45962 0.940318C-2.64647 1.68368 -2.80302 2.44093 -2.92447 3.19136C-2.94038 3.2868 -2.95528 3.38073 -2.96891 3.47416C-3.02825 3.86578 -3.07824 4.2516 -3.11789 4.62404C-3.12874 4.72075 -3.13884 4.81493 -3.14743 4.90987C-3.15172 4.9485 -3.15399 4.97628 -3.15677 5.00405L-3.17672 5.2313C-3.21257 5.6502 -3.23883 6.07566 -3.25474 6.49683C-3.25752 6.56071 -3.25929 6.62106 -3.26105 6.68116V6.69403C-3.26543 6.81675 -3.26854 6.93913 -3.2704 7.06117L-3.27267 7.28009C-3.27721 7.75428 -3.26863 8.23706 -3.24742 8.7153C-3.24338 8.81453 -3.23883 8.91149 -3.23303 9.00896L-3.21964 9.23621C-3.21712 9.27307 -3.21485 9.30968 -3.21207 9.3463C-3.20677 9.43316 -3.20045 9.5137 -3.19414 9.5945L-3.18985 9.64828C-3.18278 9.74424 -3.17419 9.83943 -3.16586 9.93462C-3.15601 10.044 -3.14642 10.1434 -3.13632 10.2424C-3.12622 10.3414 -3.11561 10.4429 -3.10476 10.5421C-3.0939 10.6414 -3.08178 10.7393 -3.06941 10.8388C-3.05678 10.9421 -3.04416 11.0433 -3.03052 11.1449L-3.02143 11.208C-3.01082 11.2837 -3.00022 11.3595 -2.98911 11.4352C-2.97346 11.5405 -2.9578 11.6463 -2.94088 11.7516C-2.91033 11.9458 -2.87725 12.1405 -2.84266 12.3339C-2.80681 12.5333 -2.76817 12.7328 -2.72803 12.9333C-2.68788 13.1338 -2.6447 13.3315 -2.5995 13.531C-2.53739 13.8049 -2.47704 14.0554 -2.41493 14.2971C-2.35483 14.5309 -2.28868 14.7783 -2.20914 15.0546C1.16477 26.7958 11.8624 34.7021 23.8519 34.7023C24.8012 34.7023 25.7498 34.653 26.694 34.5546L26.7834 34.5448C26.8531 34.5372 26.9228 34.5296 26.9922 34.5216C27.0932 34.5099 27.1917 34.4983 27.2907 34.4854L27.6947 34.4309C27.7603 34.4216 27.826 34.4122 27.8919 34.4024C27.9714 34.3908 28.0472 34.3786 28.1229 34.3668L28.1944 34.3552C28.293 34.3398 28.3918 34.3235 28.4908 34.3062L28.5226 34.3006C28.538 34.2976 28.5534 34.2948 28.5691 34.2925C28.6287 34.2819 28.6986 34.2696 28.7676 34.2567L28.8274 34.2456C28.8716 34.2375 28.9158 34.2297 28.9597 34.2203L29.0233 34.2082L29.0304 34.1951L29.2738 34.159C29.3521 34.1431 29.4352 34.1256 29.518 34.1085C29.5579 34.1004 29.5953 34.092 29.6326 34.0832L29.6942 34.0698C29.7399 34.0597 29.7872 34.0494 29.8346 34.0383L29.971 34.008L29.9935 34.0027C30.0412 33.9913 30.0886 33.9802 30.1366 33.9683L30.1619 33.9628C30.1732 33.9608 30.1843 33.9577 30.1965 33.9544L30.2139 33.9499C30.2674 33.9375 30.322 33.9246 30.376 33.9115C30.4048 33.9044 30.428 33.8991 30.4517 33.8921L30.4729 33.8868C30.5156 33.8767 30.5575 33.8666 30.5992 33.8547L30.7684 33.8115C30.8441 33.7911 30.9262 33.7699 31.0075 33.7476L31.1994 33.6951C31.3004 33.6666 31.4042 33.6373 31.5059 33.6078L31.5428 33.5964C31.6544 33.5648 31.7663 33.5312 31.8784 33.4954C31.9529 33.4727 32.0273 33.4492 32.1013 33.426L32.3218 33.3553C32.3955 33.33 32.469 33.307 32.5424 33.2823L32.6614 33.2416C32.7096 33.2257 32.755 33.2108 32.7995 33.1944L32.8247 33.1856C32.8358 33.1823 32.8465 33.179 32.8571 33.175L32.9616 33.1379C32.9755 33.1325 32.9901 33.1275 33.0048 33.1227C33.0404 33.1103 33.0805 33.0957 33.1207 33.0808L33.1383 33.0745C33.1568 33.0684 33.1749 33.0619 33.1931 33.0548L33.2525 33.0328C33.2722 33.0262 33.2919 33.0192 33.3108 33.0124C33.336 33.0038 33.358 32.9952 33.3802 32.9871L33.3949 32.9816C33.4312 32.9684 33.4666 32.9563 33.5014 32.9417L33.5355 32.929C33.5509 32.9235 33.5663 32.9177 33.5812 32.9116L33.6098 32.9008C33.6653 32.8806 33.7148 32.8611 33.7643 32.8417L33.8678 32.8003C33.9105 32.7838 33.9532 32.7669 33.9956 32.7498L34.0547 32.7263C34.0842 32.7142 34.1175 32.701 34.1501 32.6869L34.2087 32.6632C34.2544 32.6455 34.2998 32.6268 34.3453 32.6079L34.4579 32.5599C34.5273 32.5311 34.5907 32.5043 34.6533 32.4773C34.6917 32.4604 34.7316 32.443 34.7708 32.4268L34.869 32.3836L35.0993 32.2809L35.298 32.1685L35.3189 32.1799C35.4624 32.114 35.6036 32.0473 35.7426 31.9796C35.8482 31.9291 35.9527 31.8776 36.0562 31.8251C36.1143 31.7961 36.1714 31.7675 36.2282 31.738L36.2431 31.7304C36.259 31.7228 36.2754 31.7145 36.2911 31.7052L36.313 31.6943C36.3231 31.6893 36.333 31.6842 36.3431 31.6787L36.3554 31.6721C36.4077 31.6453 36.4595 31.6181 36.5112 31.591C36.5951 31.5474 36.6703 31.5075 36.7448 31.4671C36.8193 31.4267 36.8865 31.3913 36.9541 31.3534L36.9935 31.3327C37.0831 31.2822 37.167 31.2365 37.25 31.1888L37.3071 31.1567C37.3718 31.1199 37.4364 31.0835 37.501 31.0456C37.5483 31.0186 37.5899 30.9951 37.6318 30.9699C37.6811 30.9414 37.7245 30.9161 37.7674 30.8906L37.7952 30.8732C37.8765 30.8255 37.9573 30.777 38.0366 30.7275C38.2568 30.5942 38.4787 30.4545 38.7201 30.2982C38.9282 30.1626 39.0989 30.0483 39.2564 29.9387L39.3216 29.8937C39.3829 29.8513 39.4443 29.8091 39.5054 29.7675C39.522 29.7559 39.5306 29.7496 39.5405 29.7422L39.8076 29.5503C39.8874 29.4923 39.9637 29.437 40.0389 29.3814C40.0894 29.3461 40.1306 29.3135 40.1727 29.2804C40.2576 29.2175 40.3351 29.1577 40.4126 29.0981L40.4313 29.0842C40.4505 29.0706 40.4687 29.0562 40.4871 29.0413C40.549 28.9938 40.6015 28.9527 40.654 28.9115L40.7383 28.8446C40.8057 28.7917 40.873 28.7383 40.9403 28.6843L40.9504 28.6762C40.9636 28.6661 40.9772 28.6557 40.9896 28.6446L41.0865 28.5648C41.1537 28.5098 41.2206 28.4547 41.2885 28.3984C41.3173 28.3752 41.339 28.357 41.3608 28.3386C41.4421 28.2709 41.5153 28.2078 41.588 28.1447L41.6529 28.0886C41.6935 28.0538 41.7339 28.0194 41.7733 27.9841C41.8054 27.9563 41.8284 27.9361 41.8516 27.9149L41.8716 27.8977C41.887 27.8841 41.9021 27.871 41.9173 27.8571L41.944 27.8318C41.9693 27.8088 41.9958 27.7861 42.0213 27.7626C42.097 27.6952 42.1657 27.6323 42.2341 27.5692L42.2445 27.5599C42.2632 27.5437 42.2811 27.5273 42.2988 27.5094L42.3112 27.4978C42.372 27.443 42.4316 27.3864 42.4912 27.3298C42.5457 27.2793 42.597 27.2289 42.6485 27.1801L42.7965 27.038C42.8149 27.0208 42.826 27.0097 42.8374 26.9981L43.052 26.7862C43.1194 26.7191 43.1871 26.6519 43.254 26.5842L43.3171 26.5191C43.3611 26.4746 43.4017 26.4327 43.4419 26.3911L43.4966 26.334C43.5376 26.2911 43.5782 26.2486 43.6186 26.2052C43.6413 26.1817 43.6572 26.1641 43.6731 26.1469L43.685 26.134C43.7355 26.0805 43.781 26.033 43.8262 25.9825L43.8514 25.9603C43.8688 25.9414 43.8865 25.9222 43.9037 25.9025L43.9128 25.8919C43.9721 25.8272 44.0319 25.7618 44.091 25.6962L44.1345 25.6482C44.1769 25.6007 44.2223 25.549 44.2678 25.4967C44.2746 25.4889 44.2814 25.4815 44.2882 25.4742L44.3107 25.449C44.3241 25.4336 44.3375 25.4184 44.3501 25.403L44.3645 25.3864C44.3978 25.3495 44.4296 25.3106 44.4614 25.2745C44.4933 25.2384 44.5236 25.2028 44.5523 25.1682C44.5718 25.145 44.592 25.1207 44.6127 25.0983C44.615 25.095 44.622 25.0864 44.6296 25.0781C44.6996 24.9952 44.7766 24.9031 44.8526 24.8091C44.8839 24.772 44.9081 24.742 44.9324 24.7124L44.9508 24.69C44.9935 24.6372 45.0377 24.5826 45.0816 24.5271L45.1121 24.4887C45.1758 24.4099 45.2384 24.3302 45.3008 24.2499C45.3078 24.241 45.3144 24.2332 45.3202 24.2246L45.3508 24.1857C45.3603 24.1749 45.3689 24.1632 45.3775 24.1514L45.4747 24.0251C45.5038 23.9878 45.5328 23.9494 45.5606 23.911L45.577 23.8895C45.5972 23.8643 45.6164 23.839 45.6353 23.8138L45.6434 23.8029C45.6771 23.7568 45.7103 23.7115 45.7431 23.6671L45.7522 23.6547C45.7641 23.6396 45.7762 23.6239 45.7868 23.608L45.8676 23.4974C45.8957 23.459 45.9237 23.4217 45.9509 23.3818L46.03 23.2709C46.0593 23.2298 46.0886 23.1886 46.1173 23.1474L46.1742 23.0656L46.2108 23.0129C46.2287 22.9876 46.2408 22.9704 46.2529 22.9528C46.5393 22.5371 46.815 22.1114 47.0756 21.6834C47.2018 21.4784 47.3341 21.2542 47.4826 20.9944C47.5387 20.8934 47.5962 20.7924 47.6531 20.6891C47.7159 20.5762 47.777 20.4618 47.8376 20.3507C47.8904 20.2518 47.9437 20.1503 47.997 20.0477C48.5076 19.0639 48.9578 18.0499 49.3453 17.0114C49.4254 16.7986 49.5079 16.568 49.5978 16.3044C49.72 15.9459 49.8349 15.5848 49.9392 15.2321C49.9748 15.1124 50.0091 14.9919 50.0432 14.8715C50.1164 14.6102 50.1796 14.3726 50.2366 14.1446C50.2424 14.1218 50.246 14.1044 50.2498 14.087C50.2525 14.0739 50.2553 14.059 50.2573 14.0443C50.2863 13.876 50.2764 13.7032 50.2283 13.5393C50.1638 13.3288 50.0396 13.1416 49.8708 13.0002C49.741 12.8914 49.5902 12.8106 49.4276 12.7631C49.3345 12.7366 49.2383 12.7224 49.1415 12.721H49.1095C49.073 12.7213 49.0366 12.7238 49.0004 12.7285L48.9842 12.7306C48.9625 12.7326 48.9411 12.7364 48.9196 12.7404C48.7601 12.7723 48.6093 12.8379 48.4772 12.9328L48.2027 13.1247C48.0838 13.2073 47.9644 13.2873 47.8447 13.3661L47.6235 13.5125C47.5541 13.558 47.4859 13.6014 47.4175 13.6449L47.3364 13.6954C45.4999 14.8596 43.5337 15.8056 41.4779 16.514L41.4633 16.5188C41.3575 16.5549 41.2509 16.5915 41.1439 16.6261C41.0368 16.6607 40.9227 16.6991 40.8095 16.7344C40.702 16.7685 40.5916 16.8024 40.4813 16.8354C39.7942 17.0433 39.1001 17.2253 38.4128 17.3783C38.2866 17.4066 38.1603 17.4334 38.0325 17.4599C37.8972 17.4884 37.7621 17.5152 37.6285 17.5414L37.6056 17.546C37.4707 17.5712 37.3369 17.5965 37.2016 17.6202C37.0753 17.6427 36.9473 17.6642 36.8198 17.6859C36.5983 17.7215 36.3809 17.754 36.1633 17.7838C35.9934 17.8091 35.8224 17.8305 35.6507 17.8507C35.5878 17.8583 35.5245 17.8661 35.4629 17.873C35.3619 17.8846 35.2578 17.8959 35.1548 17.9055C35.1091 17.9103 35.0601 17.9156 35.0104 17.9204L34.9215 17.9288C34.8584 17.9346 34.7952 17.9406 34.7329 17.9457C33.1471 18.0834 31.5524 18.0847 29.9664 17.9495C23.2113 17.3735 16.8786 14.3569 12.1354 9.45462C9.22154 6.44381 7.06923 2.90704 5.73855 -1.05721L5.67972 -1.2327C5.65068 -1.32107 5.62215 -1.40945 5.59387 -1.49984C5.53958 -1.67129 5.48605 -1.84248 5.43505 -2.01519C5.39692 -2.14321 5.3593 -2.27426 5.32268 -2.40556C5.29036 -2.51969 5.25804 -2.63584 5.22724 -2.75325C5.21941 -2.78052 5.21234 -2.80804 5.20552 -2.83582C5.18356 -2.91839 5.16083 -3.0055 5.13886 -3.09362C5.12371 -3.15119 5.10831 -3.21331 5.09342 -3.27492C5.06816 -3.37036 5.04519 -3.47212 5.02145 -3.57388L5.01085 -3.61806C4.99065 -3.70316 4.97247 -3.78446 4.95429 -3.86577L4.92474 -3.99909C4.87626 -4.21826 4.8298 -4.44677 4.78511 -4.67528C4.76643 -4.76896 4.7485 -4.86415 4.73133 -4.9596C4.71466 -5.04822 4.69825 -5.14064 4.6831 -5.23331C4.59144 -5.75926 4.51368 -6.30012 4.45282 -6.83693C4.44197 -6.93288 4.43136 -7.02757 4.42202 -7.12302C4.40586 -7.27073 4.39121 -7.42602 4.37758 -7.57928C4.36975 -7.66791 4.36192 -7.75603 4.35561 -7.84567C4.344 -7.98379 4.33389 -8.12696 4.32531 -8.27063C4.32354 -8.29588 4.32127 -8.32441 4.31748 -8.35294C4.24022 -8.9496 3.76829 -9.27836 3.3345 -9.34072C3.2895 -9.34746 3.24414 -9.35142 3.19865 -9.35259L3.14336 -9.35108C2.92478 -9.34738 2.71246 -9.27757 2.53433 -9.15084L2.42348 -9.06146ZM29.3455 34.6246L29.34 34.6008L29.3455 34.6246ZM46.0181 23.2861L46.0138 23.2921L46.0181 23.2861Z" fill="#371A45"/>
<path d="M4.84209 4.52078C4.92668 3.77035 4.87997 2.92169 4.67923 2.04148C4.07677 -0.599924 2.31735 -2.52473 0.74907 -2.25759C-0.819208 -1.99044 -1.60221 0.368415 -0.999745 3.00881C-0.39728 5.6492 1.36214 7.57476 2.93042 7.30787L4.84209 4.52078Z" fill="#FFDA22"/>
<path d="M0.357896 -2.03596C-0.0342362 -1.76503 -0.321077 -1.36835 -0.517017 -0.934809C-0.712957 -0.501267 -0.825067 -0.025809 -0.889202 0.452426C-0.949716 0.9332 -0.966618 1.41846 -0.939702 1.90228C-0.926824 2.14392 -0.904855 2.38557 -0.869 2.62216C-0.85082 2.74033 -0.83062 2.85799 -0.802593 2.96935C-0.765728 3.08499 -0.733155 3.20114 -0.69528 3.31578C-0.394805 4.23008 0.0162642 5.11055 0.598277 5.85769C0.740768 6.0451 0.897262 6.22143 1.06641 6.38517C1.23152 6.54992 1.41251 6.69793 1.60676 6.82704C1.79839 6.95683 2.00664 7.06019 2.22589 7.13433C2.44866 7.20585 2.68217 7.23806 2.91598 7.22953H2.91774C2.93722 7.22824 2.95648 7.23425 2.97177 7.24639C2.98706 7.25853 2.99727 7.27593 3.00043 7.2952C3.00358 7.31447 2.99944 7.33421 2.98883 7.3506C2.97821 7.36698 2.96187 7.37882 2.94299 7.3838C2.68736 7.45278 2.41987 7.46587 2.15873 7.42218C1.8972 7.37665 1.64441 7.29043 1.40956 7.16665C1.17738 7.04385 0.959064 6.89647 0.758361 6.72705C0.561524 6.55711 0.378008 6.37233 0.209426 6.17433C-0.456669 5.37971 -0.889959 4.42147 -1.11973 3.43294C-1.15079 3.30972 -1.17301 3.18448 -1.19548 3.05949C-1.22301 2.9297 -1.24194 2.8027 -1.2576 2.67569C-1.28916 2.42193 -1.30507 2.16943 -1.31163 1.91642C-1.3256 1.41038 -1.29178 0.904143 -1.21063 0.404452C-1.12706 -0.0949931 -0.988685 -0.591157 -0.757647 -1.04995C-0.52661 -1.50874 -0.190281 -1.92537 0.250584 -2.19832C0.272097 -2.211 0.297666 -2.21492 0.321991 -2.20926C0.346315 -2.2036 0.367529 -2.1888 0.381232 -2.16792C0.394935 -2.14704 0.400075 -2.12169 0.395589 -2.09712C0.391104 -2.07255 0.377335 -2.05065 0.357138 -2.03596H0.357896Z" fill="#371A45"/>
<g opacity="0.35">
<path opacity="0.35" d="M0.0524398 2.04847C0.140057 2.85647 0.408716 3.62256 0.780143 4.22957C1.21621 4.94111 1.79318 5.43626 2.38554 5.52515C3.48366 5.69129 4.22021 4.4048 4.02982 2.65119C3.84878 0.977873 2.88903 -0.516169 1.8462 -0.793667C1.79699 -0.807333 1.74698 -0.817958 1.69647 -0.825482C0.598344 -0.99188 -0.137945 0.294608 0.0524398 2.04847Z" fill="#371A45"/>
</g>
<path d="M3.48635 6.02304C4.19429 5.66868 4.25271 4.35161 3.61685 3.08126C2.98099 1.81092 1.89162 1.06836 1.18369 1.42272C0.475751 1.77707 0.417324 3.09415 1.05319 4.36449C1.68905 5.63483 2.77842 6.37739 3.48635 6.02304Z" fill="#FFDA22"/>
<path d="M3.89937 3.80613C3.91943 3.24938 3.84786 2.69311 3.68752 2.15958C3.54013 1.631 3.30682 1.13026 2.99693 0.6774C2.84325 0.460834 2.66534 0.262516 2.46668 0.0862964C2.27049 -0.0828785 2.0493 -0.216703 1.82255 -0.277555C1.60699 -0.342913 1.37484 -0.325906 1.1711 -0.229832C0.972385 -0.135397 0.807 0.0431197 0.681255 0.257492C0.55551 0.471865 0.471679 0.723607 0.418149 0.981662C0.364884 1.24448 0.339493 1.51218 0.342399 1.78032C0.337349 1.91541 0.352752 2.05125 0.358307 2.1871C0.376992 2.32193 0.383558 2.45853 0.413353 2.59261C0.459417 2.86293 0.524555 3.12965 0.608282 3.39076C0.696631 3.65038 0.804156 3.90307 0.929967 4.14675C1.05733 4.38759 1.2084 4.61513 1.38093 4.82597C1.55259 5.03402 1.75815 5.21159 1.98895 5.35117C2.21797 5.48449 2.48006 5.56479 2.74645 5.53979H2.74797C2.76789 5.53761 2.78789 5.54315 2.80385 5.55527C2.81981 5.5674 2.83051 5.58518 2.83375 5.60496C2.83698 5.62474 2.83251 5.645 2.82125 5.66158C2.80999 5.67816 2.7928 5.68979 2.77322 5.69407C2.47173 5.76275 2.1498 5.70417 1.87381 5.5759C1.59783 5.44763 1.3529 5.25851 1.13979 5.04716C0.933084 4.83042 0.749771 4.59252 0.59288 4.33739C0.43901 4.08197 0.307473 3.81374 0.199736 3.5357C0.098736 3.25593 0.00329094 2.97263 -0.0497341 2.67846C-0.0848316 2.53353 -0.0989696 2.38405 -0.123462 2.23633C-0.134825 2.08685 -0.155277 1.93813 -0.155025 1.78689C-0.16737 1.48284 -0.143725 1.1784 -0.0845792 0.879904C-0.0254942 0.578924 0.0686884 0.277691 0.228016 -0.00384623C0.387343 -0.285384 0.623685 -0.546468 0.94335 -0.699231C1.26302 -0.851993 1.64 -0.869415 1.96244 -0.772707C2.28488 -0.676 2.55935 -0.49218 2.78988 -0.283868C3.01567 -0.0760603 3.21367 0.160045 3.37896 0.418587C3.53789 0.673027 3.67466 0.940651 3.78776 1.21851C3.89053 1.49828 3.98395 1.78057 4.04026 2.07095C4.16247 2.64791 4.19176 3.24785 4.09076 3.82734C4.08654 3.85167 4.07322 3.87348 4.05351 3.88835C4.03379 3.90322 4.00916 3.91003 3.9846 3.90739C3.96005 3.90476 3.93742 3.89288 3.92131 3.87416C3.9052 3.85545 3.89681 3.8313 3.89785 3.80663L3.89937 3.80613Z" fill="#371A45"/>
<g opacity="0.35">
<path opacity="0.35" d="M43.6453 36.5427C43.6294 38.0121 43.3162 39.4631 42.7248 40.8083C42.1334 42.1535 41.2759 43.3651 40.204 44.3702C39.7677 44.7799 39.2987 45.1534 38.8016 45.4868C37.148 46.594 35.2232 47.2284 33.2353 47.3215C31.2474 47.4146 29.2718 46.9628 27.5219 46.0149C25.772 45.0671 24.3143 43.6591 23.3062 41.9432C22.2982 40.2273 21.7781 38.2686 21.8021 36.2786C21.845 32.754 23.5529 29.6391 26.1688 27.6729C26.9382 31.3549 28.1734 35.76 29.7649 38.0878L27.5548 42.5555H37.3518L35.1414 38.0878C36.7811 35.689 38.0429 31.0845 38.8069 27.3389C41.7637 29.325 43.6913 32.7159 43.6453 36.5427Z" fill="#371A45"/>
</g>
<path d="M43.3067 39.1973C43.2471 39.1866 43.1941 39.1528 43.1594 39.1031C43.1247 39.0535 43.1111 38.9921 43.1216 38.9324L44.272 32.4525C44.2826 32.3928 44.3165 32.3398 44.3661 32.3051C44.4158 32.2704 44.4772 32.2568 44.5369 32.2674C44.8468 32.3225 45.1428 32.438 45.4081 32.6074C45.6733 32.7769 45.9026 32.9969 46.0828 33.255C46.263 33.513 46.3907 33.8041 46.4584 34.1114C46.5261 34.4188 46.5327 34.7365 46.4776 35.0464L46.0855 37.2561C45.9744 37.882 45.6192 38.4381 45.0981 38.8021C44.577 39.1662 43.9326 39.3083 43.3067 39.1973Z" fill="white"/>
<path d="M43.7308 39.3137C43.5839 39.3136 43.4374 39.3007 43.2927 39.2751C43.2125 39.2607 43.1412 39.2151 43.0945 39.1483C43.0478 39.0815 43.0296 38.9988 43.0438 38.9185L44.1941 32.4386C44.2084 32.3583 44.254 32.287 44.3209 32.2403C44.3877 32.1936 44.4704 32.1754 44.5507 32.1897C44.8709 32.2463 45.1768 32.3656 45.4509 32.5406C45.725 32.7156 45.9619 32.9428 46.1481 33.2095C46.3343 33.4761 46.4661 33.7768 46.536 34.0943C46.6059 34.4119 46.6126 34.7402 46.5555 35.0603L46.1634 37.27C46.0618 37.8417 45.7625 38.3596 45.3179 38.7332C44.8733 39.1067 44.3115 39.3122 43.7308 39.3137ZM43.3205 39.1195C43.9258 39.227 44.5489 39.0896 45.0529 38.7375C45.5569 38.3855 45.9004 37.8477 46.0078 37.2424L46.4002 35.0326C46.4534 34.7328 46.4471 34.4256 46.3815 34.1283C46.316 33.8311 46.1925 33.5496 46.0182 33.3001C45.8438 33.0505 45.6221 32.8378 45.3655 32.6739C45.1089 32.5101 44.8226 32.3984 44.5229 32.3452C44.4839 32.3384 44.4438 32.3473 44.4113 32.3699C44.3789 32.3926 44.3567 32.4272 44.3497 32.4662L43.1993 38.9461C43.1924 38.9851 43.2013 39.0254 43.224 39.0579C43.2467 39.0904 43.2814 39.1126 43.3205 39.1195Z" fill="#371A45"/>
<g opacity="0.35">
<path opacity="0.35" d="M46.2694 36.2201L46.0858 37.2553C45.9743 37.8812 45.6189 38.4371 45.0978 38.8011C44.5766 39.1651 43.9323 39.3073 43.3063 39.1966C43.2466 39.1859 43.1936 39.1519 43.159 39.1021C43.1243 39.0524 43.1108 38.9909 43.1215 38.9312L43.4265 37.2086C43.4372 37.2513 43.4599 37.29 43.4921 37.3201C43.5242 37.3502 43.5643 37.3704 43.6075 37.3783L43.7613 37.4053C44.2507 37.4925 44.755 37.4252 45.2044 37.2128C45.6538 37.0004 46.026 36.6535 46.2694 36.2201Z" fill="#371A45"/>
</g>
<path d="M43.7316 39.6746C43.5634 39.6746 43.3955 39.6597 43.2299 39.6302C43.0556 39.5989 42.9009 39.4998 42.7997 39.3545C42.6984 39.2093 42.659 39.0298 42.69 38.8555L43.8402 32.3756C43.8713 32.2012 43.9704 32.0462 44.1157 31.9448C44.261 31.8434 44.4406 31.8038 44.6151 31.8347C45.3559 31.9661 46.0141 32.3864 46.445 33.0032C46.8759 33.6199 47.0442 34.3825 46.9128 35.1233L46.5204 37.3329C46.4041 37.988 46.0613 38.5814 45.5519 39.0094C45.0425 39.4374 44.3989 39.6728 43.7336 39.6746H43.7316ZM43.5932 38.7909C44.0747 38.8233 44.5512 38.6768 44.9313 38.3795C45.3114 38.0822 45.5684 37.655 45.6529 37.1799L46.045 34.9703C46.1295 34.495 46.0354 34.0053 45.7809 33.5952C45.5263 33.1851 45.1292 32.8835 44.6658 32.7483L43.5932 38.7909Z" fill="#371A45"/>
<path d="M23.1485 28.4707C23.1781 28.4758 23.2064 28.4867 23.2317 28.5028C23.2571 28.5189 23.279 28.5399 23.2961 28.5645C23.3133 28.5892 23.3255 28.617 23.3318 28.6463C23.3382 28.6757 23.3387 28.706 23.3333 28.7355L22.1832 35.2152C22.1781 35.2448 22.1672 35.2731 22.1511 35.2985C22.135 35.3239 22.114 35.3458 22.0894 35.363C22.0647 35.3802 22.0369 35.3924 22.0076 35.3988C21.9782 35.4052 21.9479 35.4057 21.9183 35.4003C21.6084 35.3453 21.3123 35.2297 21.047 35.0603C20.7817 34.8909 20.5524 34.6709 20.3721 34.4128C20.1919 34.1547 20.0642 33.8637 19.9964 33.5563C19.9286 33.2489 19.9221 32.9312 19.9771 32.6212L20.3695 30.4116C20.4245 30.1017 20.54 29.8056 20.7094 29.5404C20.8789 29.2751 21.0989 29.0458 21.3569 28.8655C21.615 28.6853 21.906 28.5576 22.2134 28.4899C22.5208 28.4221 22.8386 28.4156 23.1485 28.4707Z" fill="white"/>
<path d="M21.9584 35.4828C21.9403 35.4828 21.9224 35.4812 21.9046 35.478C21.2584 35.3625 20.6844 34.9955 20.3085 34.4574C19.9326 33.9193 19.7855 33.254 19.8995 32.6075L20.2919 30.3979C20.3485 30.0777 20.4677 29.7718 20.6427 29.4977C20.8176 29.2236 21.0449 28.9866 21.3115 28.8004C21.5781 28.6142 21.8788 28.4823 22.1963 28.4124C22.5139 28.3425 22.8422 28.3358 23.1623 28.3928C23.2426 28.4071 23.3138 28.4527 23.3605 28.5196C23.4072 28.5864 23.4254 28.6691 23.4113 28.7493L22.2609 35.229C22.2483 35.3001 22.211 35.3644 22.1557 35.4108C22.1004 35.4572 22.0306 35.4827 21.9584 35.4828ZM22.7247 28.512C22.1811 28.5135 21.6552 28.706 21.239 29.0557C20.8228 29.4054 20.5426 29.8902 20.4474 30.4254L20.055 32.6351C19.9476 33.2403 20.085 33.8635 20.437 34.3675C20.789 34.8715 21.3268 35.215 21.9321 35.3224C21.9712 35.3293 22.0113 35.3205 22.0439 35.2978C22.0764 35.2751 22.0986 35.2405 22.1056 35.2015L23.2557 28.7216C23.2626 28.6826 23.2537 28.6424 23.231 28.61C23.2083 28.5775 23.1737 28.5554 23.1348 28.5483C22.9994 28.5241 22.8622 28.512 22.7247 28.512Z" fill="#371A45"/>
<g opacity="0.35">
<path opacity="0.35" d="M22.5028 33.4176L22.1834 35.2154C22.1727 35.2751 22.1387 35.3281 22.0889 35.3627C22.0392 35.3974 21.9777 35.4109 21.918 35.4002C21.6082 35.3453 21.3122 35.2299 21.047 35.0606C20.7818 34.8913 20.5525 34.6714 20.3723 34.4135C20.1921 34.1555 20.0645 33.8646 19.9967 33.5574C19.9289 33.2501 19.9223 32.9325 19.9773 32.6227L20.1417 31.692C20.2558 32.1383 20.496 32.5424 20.8336 32.8558C21.1712 33.1692 21.5919 33.3788 22.0455 33.4595L22.2821 33.5014C22.323 33.5085 22.3651 33.5045 22.4039 33.4898C22.4428 33.475 22.4769 33.4501 22.5028 33.4176Z" fill="#371A45"/>
</g>
<path d="M21.9598 35.8434C21.9205 35.8434 21.8813 35.8399 21.8426 35.833C21.1022 35.701 20.4444 35.2806 20.0136 34.664C19.5828 34.0475 19.4142 33.2852 19.5449 32.5445L19.937 30.3348C20.0686 29.5941 20.4889 28.9359 21.1057 28.505C21.7224 28.0741 22.485 27.9058 23.2258 28.0371C23.4002 28.0683 23.5551 28.1674 23.6565 28.3126C23.7579 28.4578 23.7977 28.6373 23.767 28.8118L22.6163 35.2922C22.5887 35.4464 22.5079 35.586 22.3879 35.6867C22.268 35.7874 22.1165 35.8429 21.9598 35.8434ZM22.7267 28.8729C22.2675 28.874 21.8233 29.0364 21.4718 29.3318C21.1203 29.6272 20.8838 30.0368 20.8036 30.4889L20.4112 32.6987C20.3274 33.1739 20.4218 33.6633 20.6762 34.0733C20.9307 34.4832 21.3274 34.785 21.7904 34.9207L22.863 28.8789C22.8163 28.8744 22.7706 28.8729 22.7254 28.8729H22.7267Z" fill="#371A45"/>
<path d="M41.1588 41.7642C45.5385 37.3845 45.5385 30.2837 41.1588 25.9041C36.7792 21.5244 29.6784 21.5244 25.2987 25.9041C20.9191 30.2837 20.9191 37.3845 25.2987 41.7642C29.6784 46.1438 36.7792 46.1438 41.1588 41.7642Z" fill="white"/>
<path d="M33.2487 45.1326C32.3121 45.132 31.3792 45.0156 30.4712 44.7859C27.546 44.0494 25.0826 42.2178 23.5348 39.6284C21.987 37.039 21.54 34.0017 22.2771 31.0764C23.7979 25.0374 29.9478 21.3615 35.9878 22.8823C38.9133 23.6189 41.3767 25.4507 42.9243 28.0401C44.4718 30.6295 44.919 33.6666 44.182 36.5921C43.4454 39.5173 41.6135 41.9807 39.0242 43.5285C37.28 44.5768 35.2837 45.1313 33.2487 45.1326ZM33.2298 22.697C28.2482 22.697 23.7007 26.0696 22.4301 31.1148C21.7037 33.9994 22.1443 36.994 23.6701 39.5483C25.196 42.1026 27.625 43.9077 30.5096 44.6342C33.3942 45.3606 36.3886 44.92 38.9418 43.3939C41.4951 41.8678 43.3012 39.439 44.0274 36.5547C44.7536 33.6704 44.3135 30.6755 42.7874 28.1212C41.2613 25.5669 38.8325 23.7618 35.9482 23.0353C35.0595 22.811 34.1464 22.6974 33.2298 22.697Z" fill="#371A45"/>
<g opacity="0.35">
<path opacity="0.35" d="M44.379 35.0409C44.3232 35.5573 44.2313 36.0692 44.104 36.5728C42.5907 42.5788 36.4959 46.2216 30.4899 44.7096C24.484 43.1977 20.8412 37.1018 22.3529 31.0956C22.3963 30.9229 22.4438 30.7509 22.495 30.5828C21.8951 36.062 25.4112 41.2812 30.9066 42.6651C36.7403 44.1337 42.6564 40.7398 44.379 35.0409Z" fill="#371A45"/>
</g>
<path d="M33.2496 45.4934C32.283 45.4927 31.3202 45.3726 30.383 45.1358C27.3644 44.3755 24.8222 42.4846 23.2251 39.8131C21.6281 37.1417 21.1673 34.0056 21.9273 30.9882C23.4966 24.7565 29.8432 20.964 36.0749 22.5325C39.0935 23.2925 41.6357 25.1838 43.2327 27.855C44.8298 30.5262 45.2906 33.6625 44.5306 36.6798C43.7705 39.6972 41.8793 42.2407 39.2081 43.838C37.377 44.9323 35.3287 45.4934 33.2496 45.4934ZM33.2299 23.0577C28.4097 23.0577 24.0094 26.3208 22.78 31.2029C21.3291 36.9644 24.8363 42.8323 30.5979 44.2824C33.3888 44.9851 36.2864 44.5601 38.7569 43.0825C41.2274 41.6049 42.9752 39.2556 43.6779 36.4645C44.3806 33.6733 43.9556 30.7759 42.478 28.3052C41.0004 25.8345 38.6501 24.0879 35.8602 23.3847C35.0003 23.1677 34.1168 23.0578 33.2299 23.0577Z" fill="#371A45"/>
<path d="M43.9989 36.843C43.4954 38.9789 42.3344 40.7984 40.7616 42.1597C39.5824 43.18 35.4202 44.471 30.8979 43.4474C26.7049 42.4985 23.4239 39.3698 22.8248 37.93C22.0258 36.011 21.8001 33.863 22.3038 31.7271C23.6368 26.0747 29.0456 24.8765 35.0369 26.2893C41.0282 27.702 45.3318 31.1908 43.9989 36.843Z" fill="#371A45"/>
<g opacity="0.5">
<path opacity="0.5" d="M41.9739 35.8199C42.4117 34.8151 42.1763 33.7433 41.448 33.426C40.7198 33.1088 39.7746 33.6662 39.3368 34.6711C38.8991 35.676 39.1345 36.7478 39.8627 37.065C40.591 37.3823 41.5362 36.8248 41.9739 35.8199Z" fill="white"/>
</g>
<g opacity="0.5">
<path opacity="0.5" d="M38.7039 39.0729C38.9666 38.6438 38.8811 38.1132 38.5129 37.8877C38.1447 37.6623 37.6333 37.8274 37.3705 38.2564C37.1078 38.6855 37.1933 39.2162 37.5615 39.4416C37.9297 39.6671 38.4411 39.502 38.7039 39.0729Z" fill="white"/>
</g>
<g opacity="0.35">
<path opacity="0.35" d="M43.1327 31.0724C44.1604 32.6505 44.5341 34.5725 43.999 36.8428C43.494 38.9792 42.334 40.7987 40.762 42.1599C39.5826 43.1803 35.4201 44.4711 30.8978 43.4477C29.301 43.0866 27.837 42.4091 26.6023 41.6284C32.1884 42.7677 37.2631 41.1752 38.7253 39.9094C40.7216 38.182 42.1949 35.8724 42.8337 33.1618C42.9981 32.4761 43.0982 31.7766 43.1327 31.0724Z" fill="#111A28"/>
</g>
<path d="M44.234 32.0454C44.1761 32.0455 44.119 32.0323 44.0671 32.0067C44.0152 31.9811 43.9699 31.9439 43.9348 31.898L43.9037 31.8576L43.8832 31.8088C42.6639 28.8253 39.4832 26.5288 35.1568 25.5087C30.807 24.4831 26.9284 25.1646 24.5152 27.3787L24.4781 27.4088C24.3987 27.4652 24.3006 27.4889 24.2042 27.4749C24.1077 27.4609 24.0204 27.4103 23.9604 27.3335C23.9003 27.2568 23.8721 27.1599 23.8817 27.0629C23.8913 26.9659 23.9379 26.8764 24.0117 26.8129C26.6125 24.4326 30.7378 23.6882 35.3308 24.7714C39.8945 25.8476 43.2654 28.3047 44.5809 31.5132C44.6061 31.5708 44.6165 31.6338 44.6112 31.6964C44.6059 31.7591 44.5851 31.8194 44.5507 31.872C44.5163 31.9247 44.4693 31.9679 44.414 31.9978C44.3587 32.0277 44.2968 32.0434 44.234 32.0434V32.0454Z" fill="#371A45"/>
<g opacity="0.5">
<path opacity="0.5" d="M23.9473 35.6643C23.9473 35.6643 23.5115 29.6755 27.0406 28.162C30.5698 26.6486 34.8911 27.677 34.7247 27.9305C34.7247 27.9305 29.6649 27.9606 26.8998 31.3029C24.7676 33.8804 23.9473 35.6643 23.9473 35.6643Z" fill="white"/>
</g>
<path d="M26.7689 16.9026C27.31 17.549 27.7847 19.6861 26.4699 20.483C24.6029 21.615 18.8191 19.946 18.556 17.095C18.3836 15.2237 19.5956 15.1831 20.7078 15.123C21.8201 15.0629 25.4422 15.3187 26.7689 16.9026Z" fill="#FFA92C"/>
<path d="M26.6965 16.3888C27.1394 17.063 27.353 19.1466 26.0162 19.7582C24.1164 20.627 18.8046 18.4005 18.8705 15.6618C18.9139 13.8646 20.0704 13.9602 21.1339 14.0261C22.1974 14.0921 25.6115 14.7367 26.6965 16.3888Z" fill="white"/>
<g opacity="0.35">
<path opacity="0.35" d="M18.8909 16.1334C19.3898 18.6493 24.206 20.5759 25.9952 19.7583C27.3335 19.146 27.1186 17.0631 26.6757 16.3885C26.6436 16.338 26.6085 16.2905 26.5712 16.2433C26.4827 16.5392 26.3082 16.802 26.07 16.9985C24.7479 18.0898 20.667 17.76 18.8909 16.1334Z" fill="#371A45"/>
</g>
<path d="M38.1751 16.1501C37.7812 16.8538 37.7148 18.9473 39.0925 19.4629C41.0488 20.1952 46.1897 17.5982 45.9299 14.8712C45.7595 13.0815 44.6129 13.2587 43.5564 13.3999C42.5 13.541 39.1407 14.4253 38.1751 16.1501Z" fill="white"/>
<g opacity="0.35">
<path opacity="0.35" d="M45.9219 15.3446C45.6019 17.8893 40.9342 20.152 39.0917 19.4629C37.7141 18.947 37.7805 16.8543 38.1744 16.1498C38.2029 16.0993 38.2345 16.0488 38.2683 15.9983C38.3775 16.2872 38.5702 16.5371 38.8218 16.7162C40.2186 17.7105 44.266 17.0927 45.9219 15.3446Z" fill="#371A45"/>
</g>
<path d="M39.8928 20.0283C39.5433 20.0283 39.2201 19.9803 38.9383 19.8748C38.3591 19.6579 37.9283 19.2014 37.6905 18.5537C37.3526 17.6316 37.4763 16.4983 37.7915 15.9355C38.9009 13.9534 42.5751 13.0876 43.498 12.9641L43.5384 12.9588C44.2454 12.8636 45.0496 12.7568 45.6568 13.2388C46.0636 13.562 46.2962 14.0822 46.3674 14.8296C46.4782 15.9954 45.7773 17.2213 44.3931 18.282C43.1379 19.2438 41.303 20.0283 39.8928 20.0283ZM44.4522 13.7567C44.2037 13.7567 43.9272 13.7938 43.6553 13.8302L43.6146 13.8357C42.564 13.9761 39.4143 14.8361 38.5588 16.365C38.3775 16.6887 38.2578 17.547 38.5159 18.2512C38.6644 18.6552 38.91 18.9254 39.2464 19.0511C40.2288 19.4188 42.3408 18.7481 43.8585 17.5841C44.9769 16.7271 45.5723 15.7535 45.4922 14.9129C45.4457 14.4231 45.317 14.0915 45.1102 13.9282C44.9483 13.7986 44.716 13.7567 44.4522 13.7567Z" fill="#371A45"/>
<path d="M24.9644 20.3888C23.5971 20.3888 21.8753 19.7667 20.6446 18.9551C19.1889 17.9956 18.4026 16.8218 18.4309 15.6512C18.4491 14.9008 18.644 14.3652 19.0271 14.0142C19.5987 13.49 20.4072 13.5403 21.1205 13.585L21.1612 13.5875C22.0909 13.6451 25.817 14.2491 27.0639 16.1473C27.4174 16.6867 27.6217 17.8083 27.35 18.7521C27.1591 19.4147 26.7611 19.9008 26.1988 20.1581C25.8499 20.3174 25.4274 20.3888 24.9644 20.3888ZM20.4926 14.4382C20.1358 14.4382 19.8161 14.4834 19.6215 14.6621C19.4268 14.8409 19.322 15.1805 19.3101 15.6721C19.2897 16.5163 19.9525 17.4452 21.1281 18.2209C22.7244 19.2736 24.8787 19.7942 25.8324 19.3571C26.1592 19.2076 26.3852 18.9218 26.5046 18.5075C26.7122 17.7866 26.5321 16.9392 26.3279 16.6289C25.3663 15.1644 22.1636 14.5296 21.1056 14.4637L21.0647 14.4612C20.8739 14.4503 20.6777 14.4382 20.4926 14.4382Z" fill="#371A45"/>
</g>
</svg>
