<svg width="52" height="52" viewBox="0 0 52 52" fill="none" xmlns="http://www.w3.org/2000/svg">
<mask id="mask0_2_14002" style="mask-type:alpha" maskUnits="userSpaceOnUse" x="0" y="0" width="52" height="52">
<circle cx="26" cy="26" r="26" fill="#C4C4C4"/>
</mask>
<g mask="url(#mask0_2_14002)">
<path d="M68 -10H-17V75H68V-10Z" fill="#95C4FC"/>
<path d="M2.18604 52.0149L2.2721 51.9692L7.05738 60.9679H6.94689L2.18604 52.0149Z" fill="#F14925"/>
<path d="M2.27222 51.9692L2.35828 51.9233L7.16801 60.9679H7.0575L2.27222 51.9692Z" fill="#F14A25"/>
<path d="M2.35815 51.9233L2.44422 51.8776L7.27817 60.9679H7.16788L2.35815 51.9233Z" fill="#F14B25"/>
<path d="M2.44434 51.8777L2.53061 51.8318L7.38878 60.968H7.27829L2.44434 51.8777Z" fill="#F14C25"/>
<path d="M2.53052 51.8317L2.61658 51.7861L7.49919 60.968H7.38869L2.53052 51.8317Z" fill="#F14D25"/>
<path d="M2.6167 51.786L2.70276 51.7401L7.6096 60.9679H7.49931L2.6167 51.786Z" fill="#F14E25"/>
<path d="M2.70264 51.7401L2.7887 51.6944L7.71997 60.9679H7.60947L2.70264 51.7401Z" fill="#F24F25"/>
<path d="M2.78882 51.6945L2.87488 51.6486L7.83059 60.968H7.72009L2.78882 51.6945Z" fill="#F25025"/>
<path d="M2.87476 51.6486L2.96082 51.6029L7.94076 60.968H7.83047L2.87476 51.6486Z" fill="#F25125"/>
<path d="M2.96094 51.6029L3.047 51.5572L8.05137 60.9679H7.94088L2.96094 51.6029Z" fill="#F25225"/>
<path d="M3.04688 51.5571L3.13294 51.5112L8.13795 60.9233L8.0538 60.9679H8.05125L3.04688 51.5571Z" fill="#F25325"/>
<path d="M3.2182 51.4668L3.13208 51.5126L8.13658 60.9247L8.2227 60.8789L3.2182 51.4668Z" fill="#F25425"/>
<path d="M3.30316 51.422L3.21704 51.4678L8.22154 60.8799L8.30766 60.8341L3.30316 51.422Z" fill="#F25525"/>
<path d="M3.39032 51.3753L3.3042 51.4211L8.3087 60.8332L8.39482 60.7874L3.39032 51.3753Z" fill="#F25625"/>
<path d="M3.47553 51.3305L3.3894 51.3763L8.3939 60.7883L8.48002 60.7425L3.47553 51.3305Z" fill="#F25725"/>
<path d="M3.56146 51.2848L3.47534 51.3306L8.47984 60.7427L8.56596 60.6969L3.56146 51.2848Z" fill="#F35825"/>
<path d="M3.64813 51.2385L3.56201 51.2843L8.56651 60.6964L8.65263 60.6506L3.64813 51.2385Z" fill="#F35925"/>
<path d="M3.73358 51.1932L3.64746 51.239L8.65196 60.6511L8.73808 60.6053L3.73358 51.1932Z" fill="#F35A25"/>
<path d="M3.82074 51.1464L3.73462 51.1922L8.73912 60.6043L8.82524 60.5585L3.82074 51.1464Z" fill="#F35C25"/>
<path d="M3.90595 51.1016L3.81982 51.1474L8.82432 60.5595L8.91044 60.5137L3.90595 51.1016Z" fill="#F35D25"/>
<path d="M3.99213 51.0557L3.90601 51.1015L8.9105 60.5136L8.99662 60.4678L3.99213 51.0557Z" fill="#F35E26"/>
<path d="M4.07904 51.009L3.99292 51.0548L8.99742 60.4669L9.08354 60.4211L4.07904 51.009Z" fill="#F35F26"/>
<path d="M4.16424 50.9642L4.07812 51.01L9.08262 60.4221L9.16874 60.3763L4.16424 50.9642Z" fill="#F36026"/>
<path d="M4.2514 50.9174L4.16528 50.9632L9.16978 60.3753L9.2559 60.3295L4.2514 50.9174Z" fill="#F46126"/>
<path d="M4.33637 50.8728L4.25024 50.9186L9.25474 60.3307L9.34086 60.2849L4.33637 50.8728Z" fill="#F46226"/>
<path d="M4.4223 50.8269L4.33618 50.8727L9.34068 60.2848L9.4268 60.239L4.4223 50.8269Z" fill="#F46426"/>
<path d="M4.50971 50.7801L4.42358 50.8259L9.42808 60.238L9.5142 60.1922L4.50971 50.7801Z" fill="#F46526"/>
<path d="M4.59466 50.7353L4.50854 50.7811L9.51304 60.1932L9.59916 60.1474L4.59466 50.7353Z" fill="#F46626"/>
<path d="M4.68182 50.6886L4.5957 50.7343L9.6002 60.1464L9.68632 60.1006L4.68182 50.6886Z" fill="#F46726"/>
<path d="M4.76678 50.6437L4.68066 50.6895L9.68516 60.1016L9.77128 60.0558L4.76678 50.6437Z" fill="#F46826"/>
<path d="M4.85297 50.598L4.76685 50.6438L9.77134 60.0559L9.85746 60.0101L4.85297 50.598Z" fill="#F46A26"/>
<path d="M4.93988 50.5513L4.85376 50.5971L9.85826 60.0092L9.94438 59.9634L4.93988 50.5513Z" fill="#F56B26"/>
<path d="M5.02508 50.5065L4.93896 50.5523L9.94346 59.9644L10.0296 59.9186L5.02508 50.5065Z" fill="#F56C26"/>
<path d="M5.11224 50.4597L5.02612 50.5055L10.0306 59.9176L10.1167 59.8718L5.11224 50.4597Z" fill="#F56D26"/>
<path d="M5.19745 50.4149L5.11133 50.4606L10.1158 59.8727L10.2019 59.8269L5.19745 50.4149Z" fill="#F56F26"/>
<path d="M5.28363 50.3692L5.19751 50.4149L10.202 59.827L10.2881 59.7812L5.28363 50.3692Z" fill="#F57026"/>
<path d="M5.3703 50.3223L5.28418 50.368L10.2887 59.7801L10.3748 59.7343L5.3703 50.3223Z" fill="#F57126"/>
<path d="M5.45575 50.2776L5.36963 50.3234L10.3741 59.7355L10.4602 59.6897L5.45575 50.2776Z" fill="#F57226"/>
<path d="M5.54242 50.2309L5.4563 50.2767L10.4608 59.6887L10.5469 59.643L5.54242 50.2309Z" fill="#F67426"/>
<path d="M5.62762 50.1861L5.5415 50.2318L10.546 59.6439L10.6321 59.5981L5.62762 50.1861Z" fill="#F67526"/>
<path d="M5.71381 50.1404L5.62769 50.1862L10.6322 59.5982L10.7183 59.5525L5.71381 50.1404Z" fill="#F67626"/>
<path d="M5.80072 50.0935L5.7146 50.1393L10.7191 59.5513L10.8052 59.5055L5.80072 50.0935Z" fill="#F67726"/>
<path d="M5.88592 50.0488L5.7998 50.0946L10.8043 59.5067L10.8904 59.4609L5.88592 50.0488Z" fill="#F67926"/>
<path d="M5.97309 50.0018L5.88696 50.0476L10.8915 59.4597L10.9776 59.4139L5.97309 50.0018Z" fill="#F67A26"/>
<path d="M6.05829 49.9572L5.97217 50.003L10.9767 59.415L11.0628 59.3693L6.05829 49.9572Z" fill="#F67B26"/>
<path d="M6.14423 49.9115L6.05811 49.9573L11.0626 59.3694L11.1487 59.3236L6.14423 49.9115Z" fill="#F77D26"/>
<path d="M6.23139 49.8646L6.14526 49.9104L11.1498 59.3225L11.2359 59.2767L6.23139 49.8646Z" fill="#F77E26"/>
<path d="M6.31634 49.8199L6.23022 49.8657L11.2347 59.2778L11.3208 59.232L6.31634 49.8199Z" fill="#F77F26"/>
<path d="M6.40326 49.773L6.31714 49.8188L11.3216 59.2309L11.4078 59.1851L6.40326 49.773Z" fill="#F78126"/>
<path d="M6.48871 49.7284L6.40259 49.7742L11.4071 59.1863L11.4932 59.1405L6.48871 49.7284Z" fill="#F78226"/>
<path d="M6.57465 49.6827L6.48853 49.7285L11.493 59.1406L11.5791 59.0948L6.57465 49.6827Z" fill="#F78426"/>
<path d="M6.6618 49.6357L6.57568 49.6815L11.5802 59.0936L11.6663 59.0478L6.6618 49.6357Z" fill="#F78526"/>
<path d="M6.74701 49.5911L6.66089 49.6368L11.6654 59.0489L11.7515 59.0031L6.74701 49.5911Z" fill="#F88626"/>
<path d="M6.83392 49.5441L6.7478 49.5899L11.7523 59.002L11.8384 58.9562L6.83392 49.5441Z" fill="#F88826"/>
<path d="M6.91937 49.4995L6.83325 49.5453L11.8377 58.9574L11.9239 58.9116L6.91937 49.4995Z" fill="#F88927"/>
<path d="M7.00507 49.4536L6.91895 49.4994L11.9234 58.9115L12.0096 58.8657L7.00507 49.4536Z" fill="#F88A27"/>
<path d="M7.09222 49.4069L7.0061 49.4527L12.0106 58.8648L12.0967 58.819L7.09222 49.4069Z" fill="#F88C27"/>
<path d="M7.17743 49.3623L7.09131 49.4081L12.0958 58.8201L12.1819 58.7743L7.17743 49.3623Z" fill="#F88D27"/>
<path d="M7.26434 49.3153L7.17822 49.3611L12.1827 58.7732L12.2688 58.7274L7.26434 49.3153Z" fill="#F98F27"/>
<path d="M7.34955 49.2706L7.26343 49.3164L12.2679 58.7285L12.354 58.6827L7.34955 49.2706Z" fill="#F99027"/>
<path d="M7.43573 49.2247L7.34961 49.2705L12.3541 58.6826L12.4402 58.6368L7.43573 49.2247Z" fill="#F99227"/>
<path d="M7.52264 49.178L7.43652 49.2238L12.441 58.6359L12.5271 58.5901L7.52264 49.178Z" fill="#F99327"/>
<path d="M7.60785 49.1332L7.52173 49.179L12.5262 58.5911L12.6123 58.5453L7.60785 49.1332Z" fill="#F99427"/>
<path d="M7.69501 49.0865L7.60889 49.1322L12.6134 58.5443L12.6995 58.4985L7.69501 49.0865Z" fill="#F99627"/>
<path d="M7.77997 49.0418L7.69385 49.0876L12.6983 58.4997L12.7845 58.4539L7.77997 49.0418Z" fill="#F99727"/>
<path d="M7.86688 48.9949L7.78076 49.0407L12.7853 58.4528L12.8714 58.407L7.86688 48.9949Z" fill="#FA9927"/>
<path d="M7.95209 48.9503L7.86597 48.9961L12.8705 58.4082L12.9566 58.3624L7.95209 48.9503Z" fill="#FA9A27"/>
<path d="M8.03827 48.9045L7.95215 48.9503L12.9566 58.3624L13.0428 58.3166L8.03827 48.9045Z" fill="#FA9C27"/>
<path d="M8.12518 48.8576L8.03906 48.9034L13.0436 58.3155L13.1297 58.2697L8.12518 48.8576Z" fill="#FA9D27"/>
<path d="M8.21039 48.8128L8.12427 48.8586L13.1288 58.2706L13.2149 58.2248L8.21039 48.8128Z" fill="#FA9F27"/>
<path d="M8.29755 48.766L8.21143 48.8118L13.2159 58.2239L13.302 58.1781L8.29755 48.766Z" fill="#FAA027"/>
<path d="M8.38275 48.7214L8.29663 48.7672L13.3011 58.1793L13.3872 58.1335L8.38275 48.7214Z" fill="#FBA227"/>
<path d="M8.46869 48.6755L8.38257 48.7213L13.3871 58.1334L13.4732 58.0876L8.46869 48.6755Z" fill="#FBA327"/>
<path d="M8.4707 48.6731L8.5285 48.6423H8.56484L13.5616 58.0393L13.4755 58.085L8.4707 48.6731Z" fill="#FBA527"/>
<path d="M8.67498 48.6423L13.6475 57.9936L13.5614 58.0393L8.5647 48.6423H8.67498Z" fill="#FBA627"/>
<path d="M8.78555 48.6423L13.7338 57.9477L13.6475 57.9936L8.67505 48.6423H8.78555Z" fill="#FBA827"/>
<path d="M8.8959 48.6423L13.8197 57.902L13.7337 57.9477L8.7854 48.6423H8.8959Z" fill="#FBAA27"/>
<path d="M9.00628 48.6423L13.9059 57.8561L13.8198 57.902L8.896 48.6423H9.00628Z" fill="#FCAB27"/>
<path d="M9.11685 48.6423L13.992 57.8104L13.906 57.8561L9.00635 48.6423H9.11685Z" fill="#FCAD27"/>
<path d="M9.2272 48.6423L14.0779 57.7645L13.9919 57.8104L9.1167 48.6423H9.2272Z" fill="#FCAE27"/>
<path d="M9.33758 48.6423L14.1641 57.7188L14.078 57.7645L9.22729 48.6423H9.33758Z" fill="#FCB027"/>
<path d="M9.44815 48.6423L14.2502 57.6729L14.1642 57.7188L9.33765 48.6423H9.44815Z" fill="#FCB127"/>
<path d="M9.5585 48.6423L14.2934 57.5465V57.65L14.2501 57.6729L9.448 48.6423H9.5585Z" fill="#FCB327"/>
<path d="M9.66888 48.6423L14.2935 57.3389V57.5465L9.55859 48.6423H9.66888Z" fill="#FDB528"/>
<path d="M9.77944 48.6423L14.2936 57.1313V57.3389L9.66895 48.6423H9.77944Z" fill="#FDB628"/>
<path d="M9.8898 48.6423L14.2934 56.9234V57.1313L9.7793 48.6423H9.8898Z" fill="#FDB828"/>
<path d="M10.0002 48.6423L14.2935 56.7158V56.9234L9.88989 48.6423H10.0002Z" fill="#FDB928"/>
<path d="M10.1107 48.6423L14.2936 56.5082V56.7158L10.0002 48.6423H10.1107Z" fill="#FDBB28"/>
<path d="M10.2211 48.6423L14.2934 56.3006V56.5082L10.1106 48.6423H10.2211Z" fill="#FEBD28"/>
<path d="M10.3315 48.6423L14.2935 56.0928V56.3006L10.2212 48.6423H10.3315Z" fill="#FEBE28"/>
<path d="M10.442 48.6423L14.2936 55.8852V56.0928L10.3315 48.6423H10.442Z" fill="#FEC028"/>
<path d="M10.5524 48.6423L14.2935 55.6776V55.8852L10.4419 48.6423H10.5524Z" fill="#FEC228"/>
<path d="M10.6628 48.6423L14.2936 55.4697V55.6776L10.5525 48.6423H10.6628Z" fill="#FEC328"/>
<path d="M10.7733 48.6423L14.2936 55.2621V55.4697L10.6628 48.6423H10.7733Z" fill="#FEC528"/>
<path d="M10.8837 48.6423L14.2935 55.0545V55.2621L10.7732 48.6423H10.8837Z" fill="#FFC728"/>
<path d="M10.9941 48.6423L14.2936 54.8469V55.0545L10.8838 48.6423H10.9941Z" fill="#FFC828"/>
<path d="M11.1046 48.6423L14.2936 54.6391V54.8469L10.9941 48.6423H11.1046Z" fill="#FFCA28"/>
<path d="M14.2935 54.6391L11.1045 48.6423H14.2935V54.6391Z" fill="#FFCA28"/>
<g opacity="0.5">
<path opacity="0.5" d="M0.544115 58.4269C3.53038 55.8368 3.08307 52.8108 6.35918 51.3891C10.4589 49.6099 13.21 53.6251 13.21 53.6251C13.21 53.6251 13.3058 54.0584 13.3273 54.712C13.4378 53.553 13.2395 52.6576 13.2395 52.6576C13.2395 52.6576 10.4883 48.6413 6.3885 50.4216C2.28874 52.202 4.02104 56.4928 -2.44385 59.2986C-1.32801 58.8143 -0.343073 58.547 0.544115 58.4269Z" fill="white"/>
</g>
<path d="M2.67529 57.1753C6.43931 55.5418 8.98654 58.146 11.3729 57.11C13.7593 56.0741 12.8972 52.7336 12.8972 52.7336C12.8972 52.7336 11.0465 49.8223 8.65951 50.8579C6.27249 51.8934 6.43888 55.5418 2.67529 57.1753Z" fill="#FFD553"/>
<path d="M8.13058 59.9779C7.12099 59.9779 6.17749 59.7053 5.2019 59.4233C3.22799 58.8529 0.990791 58.2065 -2.49315 59.7184C-2.53534 59.7377 -2.58096 59.7485 -2.62735 59.7499C-2.67373 59.7514 -2.71994 59.7436 -2.76327 59.727C-2.8066 59.7104 -2.84618 59.6853 -2.8797 59.6532C-2.91322 59.6211 -2.94 59.5826 -2.95847 59.5401C-2.97694 59.4975 -2.98674 59.4517 -2.98728 59.4053C-2.98783 59.3589 -2.97911 59.3128 -2.96164 59.2698C-2.94417 59.2268 -2.91831 59.1878 -2.88555 59.1549C-2.8528 59.122 -2.81381 59.096 -2.77088 59.0784C0.71794 57.5643 1.80615 55.5621 2.76772 53.7958C3.56693 52.3262 4.32194 50.9381 6.24953 50.1015C8.03857 49.3251 9.86862 49.4906 11.5408 50.5801C12.785 51.3899 13.4958 52.4169 13.5264 52.4605C13.5516 52.4972 13.5695 52.5385 13.5791 52.582C13.5906 52.6333 13.8553 53.8545 13.5965 55.3165C13.2493 57.2828 12.1203 58.7322 10.3314 59.5087C9.54625 59.8498 8.82269 59.9779 8.13058 59.9779ZM1.61214 58.0798C3.06585 58.0798 4.27115 58.4281 5.39464 58.753C6.98095 59.2114 8.35115 59.6073 10.0535 58.8686C13.5931 57.3327 13.0119 53.3575 12.9108 52.7984C12.5584 52.316 10.0977 49.1914 6.52663 50.7416C4.81919 51.4826 4.15215 52.7089 3.37972 54.129C2.6621 55.4485 1.87692 56.8915 0.166291 58.194C0.644533 58.1183 1.12795 58.0802 1.61214 58.0798Z" fill="#371A45"/>
<path d="M34.3613 31.7189C34.3613 31.7189 38.8933 33.6233 39.6615 34.8001C40.4297 35.9769 37.6126 36.0063 37.6126 36.0063" fill="white"/>
<path d="M37.6124 36.4101C37.5503 36.41 37.4891 36.3956 37.4335 36.368C37.3779 36.3404 37.3294 36.3003 37.2918 36.2509L34.0405 31.9629C33.987 31.8923 33.9583 31.8061 33.9587 31.7175C33.9592 31.629 33.9889 31.5431 34.0432 31.4731C34.0975 31.4032 34.1733 31.3531 34.259 31.3307C34.3446 31.3082 34.4353 31.3146 34.5169 31.349C34.9925 31.5487 39.1862 33.3371 39.9994 34.5817C40.2846 35.0188 40.2119 35.3595 40.0995 35.5684C39.6919 36.33 38.0971 36.4052 37.6182 36.4101H37.6124ZM35.633 32.7319L37.8077 35.6007C38.5608 35.565 39.2859 35.3818 39.3883 35.1899C39.3981 35.1716 39.3787 35.1068 39.3245 35.0227C38.9395 34.4315 37.1989 33.4744 35.6332 32.7311L35.633 32.7319Z" fill="#371A45"/>
<path d="M15.3363 21.7336C13.5759 23.053 11.9626 29.3356 12.3704 33.0811C12.7782 36.8266 19.3982 37.1061 23.1839 36.9837C26.9696 36.8613 26.9566 28.3022 26.9071 26.0093C26.8296 22.4295 17.9449 19.7786 15.3363 21.7336Z" fill="white"/>
<g opacity="0.25">
<path opacity="0.25" d="M23.1839 36.9838C19.398 37.1053 12.7784 36.8244 12.37 33.0795C12.316 32.5531 12.2959 32.0238 12.31 31.4949C13.3555 32.3171 14.8122 31.5854 14.9875 30.5811C16.0713 24.3761 18.3826 21.9961 19.5002 21.1808C22.9061 21.6581 26.8552 23.6279 26.906 26.0103C26.957 28.3031 26.9698 36.8633 23.1839 36.9838Z" fill="#371A45"/>
</g>
<path d="M21.8642 37.4088C17.2895 37.4088 12.3478 36.5913 11.9704 33.1241C11.576 29.501 13.0771 22.9241 15.0942 21.4118C16.8834 20.0707 21.011 20.7105 23.8094 22.0729C26.0343 23.1566 27.277 24.551 27.3085 26.0016C27.3992 30.2014 26.9859 37.2641 23.1959 37.3869C22.7588 37.4009 22.3126 37.4088 21.8642 37.4088ZM18.0224 21.4681C16.9812 21.4681 16.1076 21.6593 15.5787 22.0557C13.953 23.2739 12.3788 29.4317 12.7713 33.0372C13.1377 36.4005 19.4451 36.702 23.1721 36.5826C26.4752 36.4763 26.559 28.4702 26.5058 26.019C26.4816 24.9017 25.3711 23.7272 23.459 22.7964C21.6819 21.9318 19.6476 21.4681 18.0224 21.4681Z" fill="#371A45"/>
<path d="M15.7081 28.0173L14.0279 27.3475C13.9384 27.3118 13.8423 27.2955 13.746 27.2997C13.6498 27.304 13.5555 27.3286 13.4695 27.372C13.3835 27.4154 13.3077 27.4767 13.2471 27.5516C13.1865 27.6265 13.1426 27.7135 13.1181 27.8067C12.7652 29.1684 12.2216 31.9904 13.5916 32.5682C15.2521 33.2694 15.8407 31.3529 16.1325 28.7219C16.1484 28.5742 16.1155 28.4254 16.0389 28.2981C15.9623 28.1709 15.8461 28.0722 15.7081 28.0173Z" fill="white"/>
<g opacity="0.25">
<path opacity="0.25" d="M16.1288 28.7175C15.8432 31.3496 15.2588 33.267 13.597 32.57C12.9143 32.2848 12.7045 31.4409 12.7101 30.4983C12.8486 30.7682 13.0471 30.9771 13.325 31.0933C14.8125 31.7166 15.4377 30.2452 15.7558 28.0397C15.8802 28.1005 15.9828 28.1983 16.0496 28.3196C16.1163 28.4409 16.144 28.5799 16.1288 28.7175Z" fill="#371A45"/>
</g>
<path d="M14.2375 33.0864C13.9914 33.0864 13.7294 33.0286 13.4534 32.9128C11.9346 32.2766 12.234 29.7361 12.7521 27.7172C12.7894 27.5727 12.8569 27.4378 12.9503 27.3215C13.0437 27.2052 13.1607 27.11 13.2937 27.0424C13.4267 26.9748 13.5725 26.9363 13.7215 26.9294C13.8706 26.9224 14.0194 26.9473 14.158 27.0023L15.8397 27.6685C16.0533 27.7533 16.2334 27.9056 16.3523 28.1022C16.4712 28.2989 16.5226 28.529 16.4985 28.7576C16.2358 31.1758 15.7796 32.4107 14.9725 32.8867C14.7502 33.0188 14.4961 33.0878 14.2375 33.0864ZM13.77 27.6717C13.702 27.672 13.6359 27.6947 13.5821 27.7364C13.5283 27.778 13.4898 27.8363 13.4725 27.9021C13.0003 29.7408 12.8227 31.8424 13.7405 32.2269C14.0894 32.3731 14.3688 32.3792 14.5947 32.246C15.4247 31.7572 15.6763 29.4389 15.759 28.6773C15.7659 28.6105 15.7508 28.5434 15.7159 28.4861C15.681 28.4288 15.6283 28.3845 15.5658 28.36L13.8841 27.6938C13.8478 27.6793 13.8091 27.6718 13.77 27.6717Z" fill="#371A45"/>
<path d="M15.0901 21.742L17.0697 22.6557C17.7285 22.9653 18.3853 23.272 19.0396 23.6041C19.0858 23.6275 19.1213 23.6677 19.1385 23.7165C19.1558 23.7653 19.1536 23.8189 19.1324 23.8661C19.1112 23.9134 19.0726 23.9506 19.0247 23.9701C18.9767 23.9896 18.9231 23.9899 18.8749 23.9709L18.8715 23.9696C18.2047 23.7048 17.5202 23.4596 16.8396 23.2137L14.79 22.4887L14.7864 22.4874C14.6924 22.4469 14.6172 22.3721 14.5762 22.2782C14.5352 22.1843 14.5314 22.0784 14.5657 21.9818C14.5999 21.8853 14.6695 21.8053 14.7604 21.7582C14.8514 21.711 14.9568 21.7002 15.0555 21.7279C15.0663 21.7322 15.079 21.7371 15.0901 21.742Z" fill="#371A45"/>
<path d="M45.5042 20.531C44.8514 22.758 39.8942 26.882 32.7814 27.0881C32.0734 27.1092 31.3649 27.0911 30.6589 27.0337L30.0242 24.3231L29.5161 22.1534C29.5161 22.1534 30.6211 21.9522 32.1299 21.5508C33.3228 21.235 34.7683 20.7945 36.1232 20.2312C37.4005 19.6999 38.5986 19.0594 39.4252 18.31C39.4252 18.31 39.4705 16.0787 40.1033 15.8518C40.8757 15.574 41.448 17.1433 41.448 17.1433C41.448 17.1433 43.2043 15.3358 44.2292 15.5107C45.7537 15.7702 46.2214 18.0887 45.5042 20.531Z" fill="white"/>
<g opacity="0.35">
<path opacity="0.35" d="M45.8242 18.7102C45.7881 19.3274 45.6807 19.9384 45.5042 20.5309C44.7881 22.973 38.8954 27.6975 30.6589 27.0334L29.5161 22.1533C29.5161 22.1533 29.8591 22.0909 30.4233 21.9661L31.7588 24.5525C38.5616 26.6025 44.7067 21.2228 45.8242 18.7102Z" fill="#371A45"/>
</g>
<path d="M32.2216 27.4994C31.6999 27.4994 31.1687 27.4782 30.6278 27.4357C30.5749 27.4318 30.5232 27.4176 30.4758 27.3937C30.4285 27.3698 30.3863 27.3368 30.3517 27.2965C30.3171 27.2563 30.2908 27.2096 30.2744 27.1591C30.2579 27.1087 30.2516 27.0555 30.2558 27.0026C30.26 26.9497 30.2747 26.8981 30.2989 26.8509C30.3231 26.8037 30.3564 26.7617 30.3969 26.7274C30.4374 26.6932 30.4843 26.6672 30.5349 26.6511C30.5854 26.635 30.6387 26.6291 30.6916 26.6337C38.8144 27.288 44.4856 22.5735 45.1184 20.4179C45.5697 18.8791 45.5258 17.3472 45.0058 16.5149C44.7909 16.1708 44.5072 15.9666 44.1626 15.9078C43.6009 15.8121 42.406 16.7365 41.7373 17.4246L41.2911 17.884L41.0715 17.282C40.8945 16.8003 40.4878 16.1557 40.2468 16.2288C40.0475 16.3712 39.8486 17.3621 39.8284 18.3186L39.8248 18.4918L39.6962 18.6084C36.8305 21.2039 29.8836 22.4972 29.5893 22.5499C29.4843 22.569 29.3761 22.5457 29.2883 22.485C29.2005 22.4244 29.1405 22.3313 29.1213 22.2263C29.1021 22.1214 29.1254 22.0131 29.1861 21.9253C29.2468 21.8375 29.3398 21.7775 29.4448 21.7583C29.5137 21.7458 36.2491 20.4929 39.0286 18.1246C39.06 17.2992 39.2198 15.7446 39.9676 15.4749C40.7267 15.2012 41.2789 15.915 41.5777 16.463C42.2216 15.8789 43.3978 14.9626 44.2977 15.1158C44.8704 15.2131 45.3511 15.5499 45.6883 16.0897C46.3341 17.1237 46.4108 18.8694 45.8904 20.6454C45.1605 23.1315 39.78 27.499 32.2216 27.4994Z" fill="#371A45"/>
<path d="M38.1207 36.6758C38.1207 36.6758 28.1616 40.5272 24.6673 40.2516C21.1729 39.9759 17.411 39.4228 17.2049 32.7951C17.0774 28.6752 19.1151 24.6215 20.6761 22.1453C21.6266 20.6365 22.4001 19.7122 22.4001 19.7122L32.016 20.203C32.016 20.203 32.0534 20.7098 32.1307 21.5507C32.1789 22.0758 32.2433 22.7307 32.3249 23.473C32.4416 24.5391 32.5925 25.7854 32.7816 27.088C33.0712 29.0836 33.4503 31.2105 33.9291 33.0185C34.1344 33.8011 37.4175 34.0153 38.1207 36.6758Z" fill="white"/>
<path d="M32.5651 24.4048C32.9248 25.5778 33.1309 26.7635 33.3394 27.9484C33.5479 29.1333 33.7393 30.3182 33.9841 31.4908C34.0464 31.7836 34.1127 32.0752 34.1811 32.3661L34.2874 32.8006L34.3146 32.9092L34.3163 32.9158V32.9145V32.9118C34.3163 32.9101 34.3158 32.9084 34.315 32.9069C34.3139 32.9055 34.3126 32.9044 34.3112 32.9035C34.3124 32.9038 34.3134 32.9044 34.3144 32.9052C34.3163 32.9067 34.3144 32.908 34.3173 32.9114C34.3227 32.916 34.3276 32.9211 34.3322 32.9264C34.346 32.9408 34.3607 32.9542 34.3764 32.9664C34.4516 33.0274 34.5708 33.0939 34.6937 33.1576C34.8165 33.2214 34.9508 33.2824 35.087 33.3442C35.3592 33.4677 35.6423 33.5941 35.9223 33.7359C36.4821 34.0181 37.0424 34.3629 37.5116 34.8409C37.7489 35.08 37.9546 35.3485 38.1236 35.6399C38.2921 35.9334 38.4214 36.2478 38.5085 36.5749L38.6022 36.9244L38.2645 37.053C36.681 37.6558 35.0917 38.2149 33.4843 38.7402C31.877 39.2655 30.2562 39.7494 28.6004 40.1404C27.7717 40.3329 26.9355 40.5065 26.0717 40.6036C25.6403 40.6529 25.203 40.6855 24.7446 40.6593C24.6269 40.6563 24.5264 40.6453 24.4197 40.6381L24.1022 40.6104C23.8897 40.5911 23.6772 40.5705 23.4647 40.545C22.6147 40.4451 21.7486 40.2942 20.9118 39.9861C20.4891 39.8323 20.0842 39.6335 19.7039 39.3932C19.3197 39.1483 18.9681 38.8555 18.6576 38.522C18.3509 38.1882 18.0858 37.8185 17.8679 37.421C17.651 37.031 17.4731 36.6206 17.3367 36.1958L17.2835 36.0385L17.2391 35.8796L17.1512 35.5608L17.0791 35.2404L17.0436 35.0799L17.0154 34.9188L16.9593 34.5969C16.9425 34.4894 16.9306 34.3816 16.9168 34.2741C16.8855 34.0589 16.8675 33.8434 16.8494 33.6279C16.7751 32.7643 16.7827 31.8956 16.8721 31.0335C16.9645 30.1751 17.1257 29.3256 17.3541 28.4931C17.8037 26.8311 18.4829 25.2488 19.2823 23.7416C19.682 22.9878 20.0815 22.2309 20.5667 21.5275C21.0518 20.8241 21.589 20.1552 22.296 19.6278C22.3205 19.6094 22.3503 19.5997 22.3809 19.6002C22.4115 19.6007 22.441 19.6114 22.4648 19.6305C22.4887 19.6497 22.5055 19.6762 22.5126 19.706C22.5197 19.7357 22.5167 19.7669 22.504 19.7948L22.5017 19.7999C22.1485 20.5791 21.7171 21.2874 21.279 21.992C20.8482 22.7001 20.3833 23.3886 19.994 24.1213C19.2141 25.5831 18.5609 27.1152 18.1306 28.7039C17.9135 29.4948 17.7603 30.3018 17.6724 31.1172C17.588 31.9298 17.5809 32.7485 17.6512 33.5625C17.6684 33.7665 17.6852 33.9702 17.7149 34.1715C17.7285 34.2722 17.7396 34.3738 17.7553 34.4741L17.8078 34.7735L17.8337 34.9233L17.8666 35.071L17.9329 35.3662L18.0131 35.656L18.0534 35.8009L18.1015 35.9425C18.222 36.3193 18.3795 36.6833 18.5717 37.0292C18.7585 37.3704 18.9857 37.6878 19.2485 37.9746C19.7736 38.5426 20.4477 38.958 21.1916 39.2298C21.9356 39.5016 22.7408 39.6487 23.5587 39.7441C23.7631 39.7687 23.9692 39.7887 24.1762 39.8078L24.4875 39.8348C24.5904 39.8427 24.7 39.8542 24.792 39.8561C24.8889 39.8578 24.9833 39.8684 25.0825 39.8635L25.38 39.8565C25.5808 39.8414 25.781 39.8306 25.9839 39.804C26.7936 39.7135 27.6087 39.5452 28.4179 39.3578C30.0378 38.9753 31.6434 38.4937 33.2361 37.9765C34.8288 37.4593 36.4139 36.8985 37.9749 36.3039L37.7311 36.782C37.5928 36.2624 37.3198 35.7885 36.9396 35.4082C36.5592 35.0204 36.0779 34.7176 35.5605 34.4573C35.3014 34.326 35.0324 34.2057 34.754 34.0795C34.6153 34.0157 34.4739 33.952 34.329 33.8774C34.1841 33.8028 34.0351 33.7246 33.8736 33.5971C33.8299 33.5626 33.7887 33.5249 33.7504 33.4845L33.689 33.416C33.6677 33.3893 33.648 33.3578 33.6288 33.3281C33.5906 33.2777 33.5562 33.1772 33.5372 33.1181L33.5083 33.007L33.3927 32.5626C33.3188 32.2651 33.2472 31.9691 33.1802 31.6714C33.0445 31.0764 32.9144 30.4814 32.8001 29.883C32.6858 29.2846 32.5893 28.6845 32.5043 28.0827C32.3381 26.8789 32.2238 25.6677 32.2988 24.4396C32.3009 24.4078 32.314 24.3777 32.336 24.3546C32.3579 24.3314 32.3873 24.3167 32.4189 24.313C32.4506 24.3092 32.4826 24.3167 32.5093 24.3341C32.5361 24.3515 32.5559 24.3777 32.5653 24.4082L32.5651 24.4048Z" fill="#371A45"/>
<path d="M18.1702 56.9245L16.4475 57.1925C16.0647 57.252 15.673 57.2068 15.3139 57.0618C14.9547 56.9167 14.6415 56.6771 14.4075 56.3684C12.9888 54.4954 12.1096 52.27 11.8651 49.9331C11.8249 49.5479 11.8896 49.159 12.0526 48.8076C12.2155 48.4563 12.4705 48.1556 12.7906 47.9375L14.232 46.9553" fill="#00AAFF"/>
<g opacity="0.6">
<path opacity="0.6" d="M14.5381 47.9432L13.1112 48.9158C12.7573 49.157 12.4753 49.4894 12.2952 49.878C12.1151 50.2665 12.0437 50.6966 12.0884 51.1224C12.1232 51.4572 12.1701 51.7901 12.2289 52.1212C12.0562 51.4729 11.9346 50.8122 11.8651 50.1449C11.825 49.7598 11.8898 49.371 12.0527 49.0197C12.2157 48.6684 12.4706 48.3677 12.7905 48.1496L14.2321 47.1676L14.5381 47.9432Z" fill="white"/>
</g>
<g opacity="0.35">
<path opacity="0.35" d="M12.9507 53.5187C13.3034 54.2219 13.7198 54.8914 14.1947 55.5186C14.4285 55.8274 14.7417 56.0671 15.1009 56.2122C15.4601 56.3573 15.8519 56.4023 16.2347 56.3424L17.8418 56.0923L14.2323 46.9548L13.9246 47.1646L16.6008 53.9382L14.8768 54.2066C14.5238 54.2615 14.1628 54.2274 13.8264 54.1072C13.49 53.9871 13.189 53.7848 12.9507 53.5187ZM16.2714 53.1065L13.9239 47.1648L14.021 47.0985L16.3877 53.0884L16.2714 53.1065Z" fill="#371A45"/>
</g>
<path d="M18.4748 44.3072C17.5789 42.5519 14.5089 40.2293 8.47006 44.0611C8.4525 44.0723 8.43872 44.0885 8.43051 44.1076C8.4223 44.1267 8.42005 44.1479 8.42404 44.1683C8.42803 44.1887 8.43809 44.2074 8.45289 44.2221C8.4677 44.2367 8.48657 44.2465 8.50703 44.2502C9.51195 44.4294 14.2392 45.2347 15.1047 47.6927" fill="#EC1C24"/>
<g opacity="0.6">
<path opacity="0.6" d="M9.48712 44.3324C9.05362 44.2397 8.70661 44.1794 8.50728 44.1437C8.48685 44.14 8.468 44.1302 8.45319 44.1157C8.43839 44.1011 8.42833 44.0824 8.42431 44.062C8.4203 44.0417 8.42252 44.0205 8.43069 44.0015C8.43885 43.9824 8.45259 43.9662 8.4701 43.955C14.5091 40.123 17.5789 42.4462 18.475 44.2011L18.1099 44.5676C16.9516 43.0721 14.2291 41.708 9.48712 44.3324Z" fill="white"/>
</g>
<path d="M15.1049 48.0956C15.0216 48.0956 14.9403 48.0697 14.8723 48.0216C14.8044 47.9734 14.753 47.9054 14.7253 47.8268C14.4361 47.0048 13.2406 45.5001 8.4842 44.6546L8.4366 44.6463C8.33634 44.6284 8.24383 44.5805 8.1712 44.5091C8.09856 44.4377 8.04919 44.346 8.02953 44.2461C8.00987 44.1461 8.02085 44.0426 8.06103 43.949C8.1012 43.8554 8.16871 43.7761 8.2547 43.7215C11.1904 41.8585 13.75 41.2066 15.8622 41.7839C17.7258 42.2939 18.561 43.5902 18.8336 44.1244C18.8821 44.2195 18.8908 44.3299 18.8579 44.4314C18.825 44.5329 18.7531 44.6172 18.6581 44.6656C18.563 44.7141 18.4526 44.7229 18.3511 44.69C18.2496 44.6571 18.1653 44.5852 18.1168 44.4901C17.8929 44.0513 17.2031 42.9848 15.6501 42.5602C13.9446 42.094 11.776 42.5921 9.34525 44.0005C13.6783 44.8968 15.0828 46.4149 15.4846 47.5595C15.5059 47.6202 15.5124 47.6851 15.5035 47.7488C15.4945 47.8125 15.4705 47.8731 15.4333 47.9256C15.3962 47.9781 15.347 48.0209 15.2899 48.0505C15.2328 48.0801 15.1694 48.0955 15.1051 48.0956H15.1049Z" fill="#371A45"/>
<path d="M51.3904 37.9925C51.3904 37.9925 49.8114 48.0378 36.8006 54.243C25.7162 59.5287 18.0526 56.9246 18.0526 56.9246C15.5912 54.1783 14.1943 50.6415 14.1147 46.9545C14.1147 46.9545 15.8167 43.768 20.4375 40.5453C20.5964 40.4346 20.7594 40.323 20.9262 40.2123C22.7308 39.0074 24.9486 37.811 27.6442 36.791C28.28 36.5502 28.9429 36.3198 29.6328 36.1C29.66 36.0911 29.6872 36.083 29.7144 36.0749C32.4981 35.1969 35.0462 34.7561 37.3387 34.6087C37.412 34.6038 37.4844 34.5997 37.5569 34.5957C46.4035 34.1018 51.3904 37.9925 51.3904 37.9925Z" fill="white"/>
<path d="M44.7566 49.0195C43.8918 43.8494 41.9445 38.9203 39.0425 34.555C47.0325 34.5017 51.5071 37.9924 51.5071 37.9924C51.5071 37.9924 50.6261 43.5976 44.7566 49.0195Z" fill="#EC1C24"/>
<g opacity="0.6">
<path opacity="0.6" d="M51.3413 38.6158C51.4657 38.1483 51.5071 37.8862 51.5071 37.8862C51.5071 37.8862 47.0329 34.3955 39.0425 34.4488C39.2299 34.7306 39.4132 35.0148 39.5924 35.3014C46.3654 35.3943 50.4901 38.0182 51.3413 38.6158Z" fill="white"/>
</g>
<path d="M44.4825 49.8205L44.3597 49.0859C43.4988 43.9387 41.5972 39.1247 38.7072 34.7778L38.2949 34.1578L39.0387 34.1529C45.3724 34.1091 49.5553 36.2747 51.0602 37.2074C51.3352 37.3758 51.548 37.6292 51.6665 37.9291C51.785 38.2291 51.8028 38.5594 51.7173 38.8704C51.2557 40.5795 49.6798 45.0186 45.0286 49.3152L44.4825 49.8205ZM39.7877 34.9629C42.3667 39.0026 44.1438 43.501 45.022 48.2125C49.1035 44.2239 50.516 40.235 50.9412 38.6606C50.9807 38.5168 50.9724 38.364 50.9176 38.2252C50.8628 38.0865 50.7645 37.9692 50.6373 37.8912C49.251 37.0322 45.4929 35.0853 39.7877 34.9629Z" fill="#371A45"/>
<path d="M23.3146 57.9684C20.0291 57.9684 18.1203 57.3326 18.0401 57.3052L17.9405 57.2714L17.8699 57.193C15.3436 54.3758 13.91 50.7468 13.829 46.9636L13.8269 46.8584L13.8764 46.7656C13.9168 46.6904 14.8898 44.8956 17.3276 42.6269C19.5625 40.5468 23.5114 37.6595 29.6273 35.7173C32.8342 34.699 36.0009 34.1726 39.0398 34.1529L39.2572 34.1514L39.3775 34.3324C42.3234 38.7637 44.265 43.6701 45.1471 48.9159L45.227 49.1326L45.03 49.316C42.7987 51.3785 40.1265 53.1584 37.0895 54.6073C31.297 57.3698 26.4413 57.9599 23.3881 57.9688L23.3146 57.9684ZM18.3957 56.5731C18.8207 56.6989 20.6269 57.1794 23.4287 57.1634C26.391 57.1498 31.1055 56.5684 36.7431 53.8805C39.6344 52.5018 42.1831 50.8173 44.3234 48.8723C43.4585 43.8769 41.6104 39.1985 38.8275 34.9597C35.9358 35.0022 32.9239 35.5148 29.8709 36.4842C19.1526 39.8878 15.1198 46.2379 14.6363 47.0571C14.7375 50.5713 16.0678 53.9387 18.3957 56.5731Z" fill="#371A45"/>
<path d="M16.1152 57.6207C15.7221 57.6207 15.3342 57.5295 14.9822 57.3544C14.6302 57.1792 14.3236 56.9249 14.0865 56.6113C12.6233 54.6797 11.7166 52.3845 11.4647 49.9745C11.4165 49.517 11.4933 49.0551 11.6868 48.6378C11.8804 48.2205 12.1834 47.8634 12.5637 47.6047L14.0051 46.6225C14.0487 46.5914 14.0981 46.5693 14.1504 46.5576C14.2027 46.5458 14.2568 46.5446 14.3095 46.554C14.3623 46.5634 14.4126 46.5833 14.4576 46.6124C14.5025 46.6415 14.5412 46.6793 14.5714 46.7236C14.6016 46.7679 14.6226 46.8178 14.6332 46.8703C14.6439 46.9228 14.6439 46.9769 14.6334 47.0294C14.6228 47.082 14.6019 47.1319 14.5718 47.1762C14.5417 47.2205 14.5031 47.2584 14.4581 47.2876L13.017 48.2696C12.7568 48.4466 12.5494 48.6909 12.417 48.9764C12.2846 49.2619 12.232 49.578 12.2649 49.891C12.5017 52.1549 13.3534 54.3108 14.7278 56.1253C14.9176 56.3764 15.1721 56.5713 15.464 56.6893C15.7559 56.8072 16.0743 56.8437 16.3853 56.7949L18.1089 56.5269C18.2143 56.5105 18.322 56.5367 18.4081 56.5996C18.4943 56.6626 18.5519 56.7572 18.5683 56.8627C18.5847 56.9681 18.5586 57.0758 18.4956 57.1619C18.4326 57.2481 18.338 57.3057 18.2326 57.3221L16.5092 57.5901C16.3789 57.6104 16.2471 57.6206 16.1152 57.6207Z" fill="#371A45"/>
<g opacity="0.35">
<path opacity="0.35" d="M39.1059 48.9863C41.2672 46.825 41.2672 43.3208 39.1059 41.1595C36.9446 38.9982 33.4404 38.9982 31.2791 41.1595C29.1178 43.3208 29.1178 46.825 31.2791 48.9863C33.4404 51.1476 36.9446 51.1476 39.1059 48.9863Z" fill="#371A45"/>
</g>
<path d="M35.3146 49.3657C38.0632 49.3657 40.2914 47.1376 40.2914 44.389C40.2914 41.6404 38.0632 39.4122 35.3146 39.4122C32.5661 39.4122 30.3379 41.6404 30.3379 44.389C30.3379 47.1376 32.5661 49.3657 35.3146 49.3657Z" fill="#EC1C24"/>
<g opacity="0.6">
<path opacity="0.6" d="M40.2097 43.5925C40.1757 43.4846 40.1378 43.3775 40.0958 43.2712C39.0864 40.7151 36.195 39.4617 33.6388 40.4713C31.3852 41.3613 30.1442 43.713 30.5737 46.0091C29.7806 43.5343 31.0346 40.8358 33.4849 39.8678C36.042 38.8582 38.9326 40.1118 39.943 42.6686C40.0612 42.9674 40.1505 43.2768 40.2097 43.5925Z" fill="white"/>
</g>
<g opacity="0.35">
<path opacity="0.35" d="M37.1427 49.0174C34.5869 50.027 31.6957 48.7745 30.6856 46.2179C30.3782 45.4424 30.2715 44.6019 30.3756 43.7742C30.4324 44.1452 30.5306 44.5088 30.6684 44.8579C31.6782 47.4145 34.5693 48.6683 37.1259 47.6585C37.9572 47.3302 38.6848 46.7839 39.232 46.0772C39.7792 45.3704 40.1259 44.5293 40.2356 43.6422C40.5786 45.8854 39.3431 48.1481 37.1427 49.0174Z" fill="#371A45"/>
</g>
<path d="M35.3133 49.7711C33.9705 49.7734 32.6753 49.2747 31.6808 48.3725C30.6863 47.4703 30.0642 46.2296 29.936 44.893C29.8079 43.5564 30.1829 42.2201 30.9879 41.1454C31.7928 40.0707 32.9697 39.3349 34.2884 39.082C35.6071 38.8291 36.9727 39.0772 38.1182 39.7779C39.2636 40.4785 40.1065 41.5812 40.4819 42.8704C40.8574 44.1595 40.7384 45.5424 40.1483 46.7485C39.5581 47.9546 38.5393 48.8971 37.291 49.3918C36.6616 49.6418 35.9905 49.7705 35.3133 49.7711ZM35.3156 39.8121C34.6422 39.8121 33.9772 39.9607 33.3679 40.2474C32.7586 40.534 32.2201 40.9516 31.7908 41.4703C31.3615 41.9891 31.0519 42.5962 30.8843 43.2483C30.7166 43.9005 30.6949 44.5816 30.8208 45.2431C30.9467 45.9045 31.217 46.5301 31.6125 47.0751C32.008 47.62 32.5189 48.071 33.1087 48.3958C33.6986 48.7206 34.3528 48.9111 35.0248 48.9539C35.6968 48.9968 36.37 48.8907 36.9963 48.6434C37.9857 48.2513 38.8076 47.5265 39.3204 46.5939C39.8332 45.6613 40.005 44.5791 39.8061 43.5335C39.6072 42.4879 39.0502 41.5444 38.2307 40.8652C37.4113 40.186 36.3808 39.8136 35.3165 39.8121H35.3156Z" fill="#371A45"/>
<path d="M37.5867 46.551C38.8232 45.3145 38.8232 43.3098 37.5867 42.0733C36.3503 40.8368 34.3455 40.8368 33.109 42.0733C31.8725 43.3098 31.8725 45.3145 33.109 46.551C34.3455 47.7875 36.3503 47.7875 37.5867 46.551Z" fill="#6BD6F0"/>
<g opacity="0.3">
<path opacity="0.3" d="M36.511 47.2573C35.73 47.5657 34.8585 47.5512 34.0881 47.2171C33.3177 46.8829 32.7117 46.2564 32.4032 45.4754C32.2672 45.1336 32.1926 44.7705 32.1826 44.4027C32.1943 44.4359 32.2066 44.4686 32.2196 44.5024C32.4929 45.1956 33.0019 45.7701 33.6571 46.125C34.3123 46.4799 35.0716 46.5923 35.8015 46.4426C36.5314 46.2928 37.1851 45.8904 37.6476 45.3062C38.1101 44.722 38.3518 43.9934 38.33 43.2487C38.606 44.0223 38.5705 44.8728 38.2311 45.6208C37.8917 46.3687 37.2749 46.9555 36.511 47.2573Z" fill="white"/>
</g>
<g opacity="0.35">
<path opacity="0.35" d="M38.5475 44.4757C38.5296 44.4245 38.5116 44.3733 38.4912 44.3218C38.2224 43.6412 37.7262 43.0746 37.0869 42.7185C36.4476 42.3624 35.7046 42.2388 34.9844 42.3686C34.2643 42.4985 33.6113 42.8738 33.1366 43.4307C32.6618 43.9876 32.3947 44.6918 32.3805 45.4234C32.2335 44.9859 32.1839 44.5215 32.2352 44.0627C32.2865 43.604 32.4375 43.162 32.6777 42.7678C32.9178 42.3736 33.2412 42.0366 33.6252 41.7805C34.0092 41.5244 34.4446 41.3554 34.9009 41.2853C35.3571 41.2152 35.8232 41.2457 36.2664 41.3746C36.7096 41.5036 37.1193 41.7279 37.4667 42.0318C37.8141 42.3358 38.0908 42.712 38.2775 43.1341C38.4642 43.5563 38.5564 44.0142 38.5475 44.4757Z" fill="#371A45"/>
</g>
<path d="M35.347 47.8827C34.6314 47.8812 33.9327 47.6651 33.3412 47.2623C32.7497 46.8596 32.2927 46.2886 32.0291 45.6234C31.3066 43.7933 32.2067 41.7163 34.0368 40.9932C35.8668 40.2701 37.944 41.1708 38.6669 43.0011C39.3899 44.8314 38.4891 46.9081 36.659 47.6311C36.2414 47.7968 35.7963 47.8822 35.347 47.8827ZM35.3447 41.5482C34.9981 41.5483 34.6546 41.6139 34.3323 41.7416C32.915 42.3016 32.2176 43.9091 32.7775 45.3276C32.9108 45.6651 33.1094 45.9731 33.3617 46.234C33.6141 46.4948 33.9154 46.7034 34.2484 46.8478C34.5814 46.9922 34.9395 47.0696 35.3024 47.0756C35.6653 47.0815 36.0259 47.016 36.3634 46.8826C37.7808 46.3227 38.4782 44.7151 37.9185 43.2967C37.714 42.7809 37.3594 42.3385 36.9004 42.0267C36.4415 41.715 35.8995 41.5483 35.3447 41.5482Z" fill="#371A45"/>
<g opacity="0.2">
<path opacity="0.2" d="M45.6808 37.5237C45.6568 36.7679 44.0871 36.1756 43.198 36.1824C42.2778 36.1897 41.7241 36.3482 41.7202 36.7938C41.7145 37.4158 42.4313 37.6351 43.2834 37.6674C43.8858 37.6901 45.7106 38.4566 45.6808 37.5237Z" fill="white"/>
</g>
<g opacity="0.2">
<path opacity="0.2" d="M47.9872 38.4787C47.9376 37.8236 47.1457 37.2133 46.7145 37.1638C46.2682 37.1125 46.0071 37.215 46.0275 37.6C46.0557 38.1376 46.4147 38.3718 46.8301 38.453C47.1238 38.5104 48.0479 39.2873 47.9872 38.4787Z" fill="white"/>
</g>
<g opacity="0.35">
<path opacity="0.35" d="M17.9574 56.1806C17.9574 56.1806 25.6208 58.7848 36.7048 53.4997C47.9614 48.1315 50.6601 39.8904 51.1837 37.7645C51.2371 37.8001 51.2839 37.8319 51.324 37.8599C51.1608 37.7465 50.8898 37.5669 50.5135 37.348C48.9852 40.8213 45.3472 46.4095 36.9679 50.4055C31.7342 52.9011 27.2632 53.6379 24.0018 53.7205C19.8368 53.8268 16.0908 51.1524 14.911 47.156C14.9044 47.1347 14.8981 47.1118 14.8915 47.0899C14.8456 46.9311 14.8024 46.7715 14.7618 46.6111C14.7406 46.5448 14.7183 46.4791 14.6981 46.4122C14.6915 46.391 14.6851 46.368 14.6785 46.3461C14.672 46.3242 14.6658 46.2985 14.659 46.2749L14.6739 46.2537C14.3698 46.697 14.2314 46.9549 14.2314 46.9549C14.2571 48.1428 14.4199 49.3237 14.7168 50.4742C15.375 52.5868 16.4802 54.533 17.9574 56.1806Z" fill="#371A45"/>
</g>
<path d="M17.4138 53.4487C15.132 54.3494 12.1719 53.431 12.1719 53.431C12.1719 53.431 12.1776 53.4206 12.1889 53.4025C12.361 53.1104 13.8434 50.6825 15.9856 49.8351C18.0415 49.0223 20.2809 49.8563 20.6797 50.0191C20.7207 50.0359 20.7422 50.0455 20.7422 50.0455C20.7422 50.0455 19.6806 52.5547 17.4138 53.4487Z" fill="#EC1C24"/>
<g opacity="0.6">
<path opacity="0.6" d="M20.8486 50.1514C20.8486 50.1514 20.7848 50.3044 20.6529 50.5473C19.8898 50.2831 18.0013 49.7763 16.2456 50.4706C14.5229 51.1518 13.2268 52.8554 12.6954 53.6474C12.4314 53.585 12.2776 53.5374 12.2776 53.5374C12.2776 53.5374 12.284 53.5269 12.2948 53.5085C12.4671 53.2169 13.9498 50.7885 16.092 49.9416C18.1479 49.1286 20.3866 49.9629 20.7854 50.1255C20.8271 50.1422 20.8486 50.1514 20.8486 50.1514Z" fill="white"/>
</g>
<g opacity="0.35">
<path opacity="0.35" d="M17.4138 53.4487C15.132 54.3495 12.1719 53.4311 12.1719 53.4311C12.1719 53.4311 12.1776 53.4207 12.1889 53.4026L20.6797 50.0192C20.7207 50.036 20.7422 50.0455 20.7422 50.0455C20.7422 50.0455 19.6806 52.5547 17.4138 53.4487Z" fill="#371A45"/>
</g>
<path d="M15.0644 54.2487C13.4759 54.2487 12.1361 53.8412 12.0524 53.8152L11.5745 53.6665L11.822 53.2315C11.8875 53.1165 13.4525 50.4038 15.8383 49.4607C18.234 48.5136 20.7974 49.6294 20.9053 49.6774L21.2666 49.8379L21.1127 50.2017C21.0668 50.3105 19.9582 52.877 17.5617 53.8229C16.7539 54.1421 15.8765 54.2487 15.0644 54.2487ZM12.8095 53.1786C13.7284 53.3843 15.6923 53.696 17.2658 53.0749C18.8394 52.4537 19.8018 50.9677 20.1826 50.2669C19.4242 50.0164 17.7027 49.589 16.1339 50.2095C14.5563 50.833 13.3389 52.401 12.8095 53.1786Z" fill="#371A45"/>
<g opacity="0.25">
<path opacity="0.25" d="M28.7513 45.2407C29.0682 45.6952 31.2567 49.3878 29.4951 50.8553C27.9532 52.1407 25.1076 51.9295 23.6088 49.9089C22.6179 48.572 22.4169 47.031 22.4732 45.8522C22.5395 44.4752 22.786 43.1616 22.099 42.1305C21.7329 41.5793 21.1294 41.0893 20.4373 40.5453C20.5962 40.4345 20.7592 40.323 20.926 40.2123C22.7306 39.0074 24.9484 37.811 27.644 36.791C28.1701 37.0445 28.674 37.3703 29.0975 37.7898C30.7673 39.4473 30.8134 42.7716 29.6799 44.1195C29.2328 44.6501 28.7513 45.2407 28.7513 45.2407Z" fill="#371A45"/>
</g>
<path d="M29.7579 44.2347C30.0748 44.6894 32.2635 48.3818 30.5017 49.8493C28.9596 51.1348 26.114 50.9235 24.6144 48.9029C23.6237 47.566 23.4224 46.0252 23.4788 44.8462C23.5451 43.4692 23.7916 42.1556 23.1045 41.1247C22.323 39.9498 19.2734 39.5112 17.7566 37.7721C16.8624 36.7483 16.3836 34.8883 16.465 32.6101C16.493 31.8783 16.5711 31.1494 16.6987 30.4283C17.2619 27.2077 18.8371 23.5032 21.738 20.223C21.738 20.223 22.8908 24.8343 24.0988 28.9306C24.9405 31.7864 25.8097 34.3919 26.3318 35.0081C26.4011 35.0908 26.4646 35.1369 26.5209 35.145C27.212 35.2402 27.8856 35.4354 28.5205 35.7245C29.0917 35.9858 29.644 36.3299 30.1017 36.7825C31.7714 38.44 31.8177 41.7646 30.684 43.1125C30.2388 43.6443 29.7579 44.2347 29.7579 44.2347Z" fill="white"/>
<g opacity="0.25">
<path opacity="0.25" d="M31.0644 49.0073C30.9628 49.3367 30.7674 49.6292 30.5021 49.8493C28.96 51.1347 26.1144 50.9234 24.6148 48.9028C23.6242 47.567 23.4229 46.0251 23.4792 44.8462C23.5455 43.4692 23.791 42.1555 23.105 41.1255C22.3234 39.9508 19.2739 39.5105 17.756 37.7731C16.8635 36.7491 16.3841 34.8873 16.4655 32.6093C16.4655 32.5994 16.4665 32.5881 16.4665 32.5783C16.4695 32.5018 16.4735 32.4253 16.4776 32.348C16.4816 32.2774 16.4856 32.206 16.4905 32.1336C16.4927 32.1015 16.4946 32.0683 16.4975 32.035C16.5107 31.865 16.5258 31.693 16.5449 31.519C16.5541 31.4366 16.5641 31.353 16.574 31.2687C16.5811 31.2102 16.5891 31.151 16.5972 31.0917C16.6032 31.0424 16.6104 30.9931 16.6185 30.9429C16.6295 30.8654 16.6416 30.788 16.6535 30.7092C16.6678 30.6206 16.6828 30.5311 16.6979 30.4416C16.6979 30.4365 16.6998 30.4314 16.7009 30.4263C16.7491 30.3714 16.8 30.3191 16.8537 30.2695C16.8537 30.2695 17.1576 30.4074 17.8063 30.5753C18.8374 30.8428 20.7388 31.1888 23.6775 31.1847L23.6312 29.6609C23.6265 29.5057 23.6689 29.3527 23.7527 29.222C23.8366 29.0914 23.958 28.9891 24.101 28.9286C24.1705 28.8989 24.2441 28.8799 24.3192 28.8723L26.1448 28.6772L28.7841 35.0673L26.334 35.007L24.4912 34.9617C24.2998 34.9495 24.1198 34.8664 23.9864 34.7286C23.853 34.5908 23.7758 34.4082 23.7699 34.2165L23.7468 33.4515C22.1345 33.8127 19.466 33.9071 17.739 33.3378C17.8677 34.929 18.3112 36.2146 18.9993 37.0032C20.5161 38.7423 22.7903 37.8088 24.3292 39.6031C25.2908 40.7258 24.7878 42.7003 24.7215 44.0773C24.6652 45.2561 24.2096 46.9852 25.1992 48.321C26.5078 50.0887 29.3404 49.9317 31.0644 49.0073Z" fill="#371A45"/>
</g>
<g opacity="0.25">
<path opacity="0.25" d="M36.1249 20.2311C35.1318 21.5961 33.83 22.707 32.3258 23.473C30.8817 24.2035 29.2905 24.5962 27.6723 24.6216C26.0542 24.6469 24.4514 24.3041 22.9852 23.6192C21.6388 22.987 20.0286 23.5901 19.4152 24.9452C18.5326 26.8951 18.0148 28.8261 17.8061 30.5764C17.1573 30.4086 16.8535 30.2706 16.8535 30.2706C16.7998 30.3202 16.7488 30.3725 16.7007 30.4275C17.2638 27.2068 18.8391 23.5023 21.7399 20.2222L21.7701 20.5309C22.1553 20.005 22.4008 19.7113 22.4008 19.7113L32.0166 20.2022C32.0166 20.2022 32.054 20.709 32.1314 21.5499C33.3235 21.2349 34.7689 20.7944 36.1249 20.2311Z" fill="#371A45"/>
</g>
<path d="M26.7148 35.0394C27.2371 35.0326 27.762 35.1172 28.2682 35.2706C28.7744 35.424 29.2669 35.6416 29.72 35.9438C29.9486 36.0962 30.1646 36.2667 30.3658 36.4538C30.5686 36.6475 30.7521 36.8605 30.9136 37.0898C31.2347 37.5467 31.4578 38.0552 31.6125 38.5752C31.7615 39.0945 31.8457 39.6302 31.8633 40.1702C31.8879 40.7114 31.8404 41.2534 31.7222 41.782C31.5989 42.3133 31.4053 42.8479 31.036 43.3182L30.0687 44.4886L30.0868 44.0043C30.1677 44.1229 30.2302 44.227 30.2959 44.3369C30.3615 44.4468 30.4215 44.5547 30.4807 44.6646C30.6002 44.8846 30.7125 45.1078 30.8178 45.3342C31.0328 45.7904 31.212 46.2626 31.3537 46.7467C31.4912 47.2373 31.5921 47.7509 31.5794 48.2951C31.5721 48.5661 31.539 48.8453 31.4493 49.1203C31.3606 49.4017 31.2173 49.6628 31.0275 49.8887L30.9553 49.9737C30.9302 50.0009 30.9021 50.0251 30.8758 50.0508C30.8218 50.0993 30.7676 50.1571 30.713 50.1934C30.6027 50.2731 30.4958 50.3592 30.3813 50.4314C30.2636 50.4979 30.1475 50.5676 30.0275 50.6299L29.6571 50.789C29.1561 50.9691 28.6269 51.0583 28.0946 51.0525C27.5667 51.0484 27.0429 50.9593 26.5433 50.7888C26.0425 50.6227 25.5769 50.3564 25.1621 50.0315C25.0582 49.9499 24.9526 49.8702 24.8614 49.7741C24.7702 49.6781 24.6684 49.5931 24.582 49.4936L24.3312 49.1885C24.2483 49.0861 24.1801 48.9773 24.1043 48.8717C23.822 48.4373 23.5949 47.9694 23.4283 47.4789C23.2664 46.9915 23.1595 46.4875 23.1095 45.9763C23.0833 45.7228 23.0704 45.468 23.0709 45.213C23.0709 45.0855 23.0747 44.958 23.0792 44.8305L23.1004 44.4621C23.1316 43.9733 23.1744 43.4988 23.1752 43.0409C23.1761 42.5829 23.1327 42.1433 22.984 41.762C22.9675 41.7137 22.9476 41.6666 22.9242 41.6212C22.9009 41.5763 22.8832 41.5281 22.856 41.4856L22.778 41.3555C22.7534 41.3187 22.7267 41.2832 22.6981 41.2493C22.5802 41.1118 22.4164 40.9811 22.2334 40.8627C21.8637 40.626 21.4331 40.4278 20.9981 40.2297C20.1269 39.834 19.2057 39.4449 18.367 38.8485C17.9503 38.5473 17.555 38.1978 17.236 37.7562C16.922 37.3212 16.7033 36.8435 16.5378 36.3592C16.378 35.8776 16.2595 35.3832 16.1835 34.8815C16.1134 34.3861 16.0724 33.887 16.0607 33.3868C16.0424 32.3906 16.1315 31.4003 16.2945 30.4258C16.6328 28.4782 17.2758 26.5957 18.1506 24.8334C18.5969 23.9573 19.0519 23.0807 19.6141 22.2711C20.1804 21.4672 20.8224 20.7073 21.6412 20.1321C21.6664 20.1144 21.6969 20.1056 21.7277 20.1073C21.7586 20.1089 21.788 20.1208 21.8112 20.1412C21.8344 20.1615 21.8502 20.189 21.8559 20.2193C21.8617 20.2497 21.857 20.2811 21.8428 20.3085V20.3097C21.3851 21.1848 20.8413 21.9549 20.3264 22.752C19.8077 23.5431 19.2867 24.3381 18.8719 25.1915C18.0291 26.8885 17.4114 28.7007 17.0884 30.5614C16.9328 31.4917 16.8487 32.4339 16.8659 33.3698C16.8767 33.8355 16.9148 34.3002 16.98 34.7614C17.0484 35.2152 17.155 35.6623 17.2987 36.0981C17.4443 36.5265 17.6353 36.9362 17.8882 37.2851C18.1353 37.6293 18.4702 37.9315 18.8355 38.1944C19.575 38.7222 20.4459 39.0977 21.3301 39.4968C21.7731 39.6995 22.2247 39.9031 22.6701 40.1872C22.8915 40.3315 23.1138 40.4996 23.3114 40.7284C23.361 40.787 23.4072 40.8482 23.45 40.9118L23.5586 41.0925C23.5953 41.1524 23.6223 41.2174 23.6533 41.2799C23.6845 41.3422 23.7118 41.4065 23.7349 41.4722C23.8325 41.7268 23.8989 41.9923 23.9328 42.2629C23.9669 42.5207 23.9829 42.7806 23.9806 43.0407C23.9791 43.5492 23.934 44.0371 23.9041 44.5126L23.8828 44.8675C23.879 44.9818 23.8745 45.0962 23.8756 45.2103C23.8751 45.4384 23.8866 45.6665 23.91 45.8935C23.9542 46.3446 24.0485 46.7894 24.1912 47.2197C24.4838 48.0667 24.97 48.8666 25.6623 49.3972C26.0059 49.6658 26.391 49.8885 26.8098 50.0262C27.226 50.1676 27.6621 50.2417 28.1016 50.2455C28.5374 50.2511 28.9708 50.1792 29.3815 50.033L29.6766 49.9055C29.7708 49.8557 29.8613 49.8007 29.9546 49.7495C30.0438 49.693 30.1246 49.6256 30.2111 49.5653C30.2578 49.5353 30.284 49.5015 30.3205 49.4696C30.3373 49.4535 30.3558 49.4386 30.3715 49.4214L30.4161 49.3678C30.658 49.0871 30.7721 48.6978 30.7774 48.2733C30.7887 47.85 30.706 47.4033 30.5823 46.966C30.452 46.5226 30.2877 46.0899 30.0908 45.6718C29.9924 45.4608 29.8874 45.2521 29.7763 45.0475C29.7211 44.9449 29.6635 44.8441 29.6052 44.7443C29.547 44.6444 29.4845 44.5441 29.4293 44.4633L29.2565 44.21L29.4478 43.9788L30.4093 42.8141C30.6671 42.4882 30.839 42.0538 30.9372 41.6029C31.1325 40.6953 31.0679 39.7097 30.7914 38.8202C30.6507 38.3759 30.4597 37.9502 30.2056 37.576C30.0798 37.3897 29.9376 37.215 29.7806 37.0541C29.6192 36.8893 29.4447 36.7379 29.2589 36.6013C28.8747 36.3196 28.4659 36.0732 28.0374 35.8652C27.6031 35.6527 27.1479 35.4712 26.6738 35.3018H26.6727C26.6427 35.291 26.6175 35.2701 26.6014 35.2425C26.5853 35.215 26.5793 35.1828 26.5845 35.1513C26.5898 35.1199 26.6059 35.0913 26.63 35.0705C26.6542 35.0497 26.6849 35.038 26.7167 35.0375L26.7148 35.0394Z" fill="#371A45"/>
<path d="M23.5156 42.5058C23.4429 42.5055 23.3727 42.4788 23.318 42.4308C23.2633 42.3827 23.2278 42.3166 23.2181 42.2444C22.7487 38.7722 24.8049 37.1306 25.7108 36.586C27.2125 35.6833 29.0222 35.5989 30.1116 36.3811C30.1443 36.404 30.1721 36.4332 30.1935 36.4669C30.2148 36.5006 30.2292 36.5383 30.2359 36.5776C30.2426 36.617 30.2414 36.6573 30.2324 36.6961C30.2235 36.735 30.2069 36.7717 30.1836 36.8042C30.1603 36.8366 30.1308 36.8641 30.0969 36.885C30.0629 36.906 30.0251 36.92 29.9857 36.9262C29.9463 36.9325 29.906 36.9309 29.8672 36.9214C29.8284 36.912 29.7919 36.895 29.7597 36.8714C28.8745 36.2358 27.3026 36.3333 26.0217 37.1034C25.2182 37.5864 23.3947 39.0465 23.8161 42.1637C23.8215 42.203 23.8191 42.243 23.809 42.2813C23.7989 42.3197 23.7814 42.3557 23.7573 42.3873C23.7333 42.4189 23.7033 42.4454 23.669 42.4654C23.6347 42.4853 23.5968 42.4984 23.5575 42.5037C23.5436 42.5054 23.5296 42.5061 23.5156 42.5058Z" fill="#371A45"/>
<path d="M30.3114 44.1841C30.2689 44.2245 30.2402 44.2479 30.2051 44.2787C30.17 44.3095 30.1369 44.3333 30.1025 44.3597C30.034 44.4128 29.9626 44.4602 29.89 44.5067C29.7451 44.5987 29.5941 44.6807 29.438 44.7519C29.1216 44.8965 28.7846 44.991 28.4392 45.0322C28.0922 45.07 27.7308 45.0554 27.3995 44.9406C27.0688 44.8301 26.7734 44.6342 26.5669 44.373C26.8967 44.4304 27.1914 44.4746 27.4806 44.4604C27.6212 44.4579 27.7615 44.4457 27.9003 44.4238C28.0378 44.4054 28.1735 44.3755 28.306 44.3346C28.5737 44.2538 28.8322 44.1453 29.0774 44.0109C29.203 43.9472 29.3234 43.8726 29.4446 43.7999L29.622 43.6856L29.785 43.5757L29.8099 43.5592C29.8935 43.5031 29.9952 43.4804 30.0947 43.4956C30.1943 43.5108 30.2845 43.5628 30.3476 43.6413C30.4106 43.7199 30.442 43.8192 30.4353 43.9197C30.4287 44.0202 30.3846 44.1146 30.3118 44.1841H30.3114Z" fill="#371A45"/>
<path d="M38.0122 15.442C37.9838 15.4438 37.9553 15.44 37.9283 15.4308C37.9013 15.4216 37.8764 15.4071 37.855 15.3883C37.8337 15.3695 37.8162 15.3466 37.8036 15.3211C37.7911 15.2955 37.7837 15.2677 37.7819 15.2392L37.383 9.0011C37.3794 8.94368 37.3987 8.88718 37.4367 8.84399C37.4747 8.8008 37.5283 8.77446 37.5857 8.77075C38.1883 8.73226 38.7815 8.93469 39.2348 9.33351C39.6881 9.73233 39.9645 10.2949 40.0031 10.8974L40.1391 13.0248C40.1776 13.6274 39.9751 14.2206 39.5763 14.6739C39.1774 15.1272 38.6148 15.4035 38.0122 15.442Z" fill="white"/>
<path d="M37.9984 15.4855C37.9324 15.4854 37.8688 15.4602 37.8206 15.415C37.7724 15.3698 37.7431 15.3079 37.7388 15.242L37.3401 9.00385C37.3358 8.93503 37.3589 8.86728 37.4044 8.81548C37.45 8.76369 37.5142 8.73208 37.583 8.7276C38.1969 8.689 38.8011 8.89555 39.2629 9.30191C39.7246 9.70828 40.0063 10.2813 40.0461 10.8951L40.1821 13.0222C40.2016 13.3263 40.161 13.6312 40.0626 13.9196C39.9642 14.2079 39.8099 14.4741 39.6086 14.7028C39.4074 14.9316 39.163 15.1184 38.8895 15.2527C38.616 15.3869 38.3187 15.466 38.0146 15.4853L37.9984 15.4855ZM37.7343 8.81027C37.6859 8.81027 37.6374 8.81175 37.5885 8.81494C37.5426 8.81789 37.4996 8.83898 37.4692 8.87356C37.4387 8.90815 37.4233 8.95341 37.4262 8.99939L37.825 15.2365C37.8264 15.2593 37.8323 15.2816 37.8423 15.3021C37.8524 15.3227 37.8663 15.341 37.8835 15.3561C37.9006 15.3712 37.9206 15.3828 37.9422 15.3901C37.9638 15.3975 37.9867 15.4005 38.0095 15.399C38.6007 15.3612 39.1526 15.0902 39.5439 14.6454C39.9352 14.2007 40.1338 13.6187 40.096 13.0275L39.96 10.9002C39.9238 10.3342 39.6737 9.80322 39.2604 9.41491C38.847 9.02659 38.3014 8.81004 37.7343 8.80921V8.81027Z" fill="#371A45"/>
<g opacity="0.35">
<path opacity="0.35" d="M40.0755 12.0273L40.1392 13.0261C40.1775 13.6287 39.975 14.2218 39.5761 14.6752C39.1772 15.1285 38.6147 15.4048 38.0121 15.4435C37.9546 15.4471 37.898 15.4277 37.8548 15.3896C37.8115 15.3515 37.7852 15.2978 37.7815 15.2403L37.6753 13.5828C37.6947 13.6199 37.7244 13.6505 37.7608 13.6711C37.7972 13.6917 37.8388 13.7013 37.8806 13.6989L38.0293 13.6889C38.5007 13.6586 38.9509 13.4824 39.3176 13.1847C39.6842 12.8869 39.9491 12.4824 40.0755 12.0273Z" fill="#371A45"/>
</g>
<path d="M37.9981 15.8449C37.8408 15.8445 37.6895 15.7845 37.5748 15.6768C37.4601 15.5691 37.3906 15.4219 37.3803 15.265L36.9817 9.02684C36.9714 8.86296 37.0265 8.70168 37.135 8.57842C37.2435 8.45515 37.3965 8.37996 37.5603 8.36937C37.9114 8.34688 38.2635 8.39379 38.5965 8.50739C38.9294 8.621 39.2368 8.79909 39.5009 9.03149C39.765 9.26388 39.9808 9.54604 40.1358 9.86183C40.2909 10.1776 40.3822 10.5209 40.4046 10.872L40.5406 12.9991C40.5631 13.3502 40.5162 13.7024 40.4025 14.0353C40.2889 14.3683 40.1108 14.6757 39.8783 14.9398C39.6459 15.204 39.3637 15.4197 39.0479 15.5748C38.732 15.7299 38.3887 15.8212 38.0376 15.8436C38.0246 15.8445 38.0113 15.8449 37.9981 15.8449ZM37.7971 9.16858L38.1711 15.0187C38.6297 14.9428 39.0438 14.6994 39.3332 14.3356C39.6226 13.9719 39.7667 13.5136 39.7376 13.0497L39.6016 10.9223C39.5719 10.4583 39.3707 10.0218 39.0372 9.69776C38.7038 9.37367 38.2618 9.18507 37.7971 9.16858Z" fill="#371A45"/>
<path d="M16.9953 10.087C17.0238 10.0852 17.0523 10.089 17.0792 10.0982C17.1062 10.1074 17.1311 10.1218 17.1525 10.1406C17.1739 10.1595 17.1913 10.1823 17.2039 10.2079C17.2165 10.2335 17.2239 10.2613 17.2257 10.2897L17.6245 16.5279C17.6263 16.5563 17.6225 16.5848 17.6133 16.6118C17.6041 16.6387 17.5897 16.6636 17.5709 16.685C17.5521 16.7064 17.5292 16.7239 17.5036 16.7364C17.478 16.749 17.4502 16.7564 17.4218 16.7582C16.8192 16.7968 16.226 16.5943 15.7727 16.1955C15.3193 15.7967 15.043 15.2341 15.0044 14.6315L14.8684 12.5044C14.8299 11.9018 15.0324 11.3086 15.4312 10.8552C15.8301 10.4019 16.3927 10.1255 16.9953 10.087Z" fill="white"/>
<path d="M17.2733 16.8063C16.6843 16.8053 16.1176 16.5803 15.6883 16.177C15.259 15.7737 14.9992 15.2221 14.9615 14.6343L14.8255 12.507C14.8061 12.2029 14.8467 11.898 14.9451 11.6097C15.0435 11.3213 15.1978 11.0552 15.3991 10.8265C15.6003 10.5978 15.8447 10.411 16.1182 10.2767C16.3917 10.1425 16.689 10.0634 16.993 10.0441C17.0618 10.0398 17.1295 10.063 17.1813 10.1085C17.2331 10.154 17.2647 10.2182 17.2693 10.287L17.6679 16.5251C17.6723 16.5939 17.6492 16.6617 17.6036 16.7135C17.5581 16.7653 17.4939 16.7969 17.425 16.8014C17.374 16.8046 17.3235 16.8063 17.2733 16.8063ZM16.9971 10.1301C16.7044 10.1489 16.4182 10.225 16.1549 10.3543C15.8917 10.4837 15.6565 10.6636 15.4627 10.8838C15.269 11.104 15.1205 11.3602 15.0258 11.6378C14.9311 11.9154 14.892 12.2089 14.9107 12.5016L15.0467 14.6288C15.0654 14.9215 15.1416 15.2077 15.2709 15.471C15.4002 15.7342 15.5801 15.9695 15.8003 16.1632C16.0205 16.357 16.2768 16.5055 16.5544 16.6002C16.832 16.6949 17.1255 16.734 17.4182 16.7153C17.441 16.7138 17.4633 16.7079 17.4838 16.6978C17.5043 16.6878 17.5226 16.6738 17.5377 16.6566C17.5528 16.6395 17.5643 16.6195 17.5717 16.5979C17.579 16.5763 17.5821 16.5534 17.5806 16.5306L17.1817 10.2925C17.1803 10.2697 17.1744 10.2474 17.1644 10.2269C17.1543 10.2063 17.1403 10.188 17.1232 10.1729C17.106 10.1578 17.086 10.1463 17.0644 10.1389C17.0427 10.1316 17.0199 10.1286 16.9971 10.1301Z" fill="#371A45"/>
<g opacity="0.35">
<path opacity="0.35" d="M17.5143 14.7972L17.6248 16.5278C17.6283 16.5853 17.609 16.6419 17.5709 16.6851C17.5328 16.7283 17.4791 16.7547 17.4216 16.7584C17.1233 16.7775 16.8241 16.7377 16.5412 16.6412C16.2582 16.5447 15.9971 16.3934 15.7726 16.1959C15.5482 15.9984 15.3648 15.7587 15.2331 15.4903C15.1013 15.222 15.0237 14.9303 15.0047 14.6319L14.9475 13.7356C15.1532 14.1218 15.4659 14.4406 15.8481 14.6538C16.2302 14.867 16.6657 14.9656 17.1025 14.9377L17.3301 14.923C17.3692 14.9205 17.4069 14.9074 17.4393 14.8853C17.4718 14.8632 17.4976 14.8328 17.5143 14.7972Z" fill="#371A45"/>
</g>
<path d="M17.2746 17.1653C16.5944 17.1641 15.9399 16.9044 15.4439 16.4389C14.9479 15.9733 14.6472 15.3367 14.6029 14.6578L14.4669 12.5305C14.4216 11.8215 14.6598 11.1235 15.1291 10.5901C15.5985 10.0566 16.2605 9.73152 16.9695 9.68619C17.1334 9.67576 17.2947 9.73084 17.418 9.8393C17.5412 9.94777 17.6164 10.1007 17.627 10.2646L18.0258 16.5028C18.0363 16.6667 17.9812 16.8281 17.8727 16.9514C17.7642 17.0748 17.6111 17.15 17.4472 17.1604C17.3898 17.1637 17.3323 17.1653 17.2746 17.1653ZM16.8365 10.5094C16.3778 10.5853 15.9637 10.8288 15.6743 11.1926C15.3849 11.5564 15.2408 12.0147 15.2699 12.4786L15.4059 14.6058C15.4356 15.0699 15.6367 15.5064 15.9702 15.8305C16.3037 16.1546 16.7457 16.3431 17.2105 16.3595L16.8365 10.5094Z" fill="#371A45"/>
<path d="M35.0372 20.2965C39.1971 16.1366 39.1971 9.39217 35.0372 5.23231C30.8773 1.07245 24.1329 1.07245 19.973 5.23231C15.8132 9.39217 15.8132 16.1366 19.973 20.2965C24.1329 24.4564 30.8773 24.4564 35.0372 20.2965Z" fill="white"/>
<path d="M27.5063 23.4596H27.4287C21.5314 23.4171 16.7683 18.5855 16.8103 12.6884C16.8528 6.8175 21.6426 2.06982 27.504 2.06982H27.5815C30.4384 2.09107 33.1161 3.22179 35.1217 5.25732C37.1272 7.29286 38.2203 9.98524 38.1999 12.8421C38.1579 18.7118 33.3677 23.4596 27.5063 23.4596ZM27.5029 2.15504C24.6979 2.15504 22.057 3.23879 20.0573 5.20887C18.0386 7.19809 16.9168 9.85434 16.8966 12.6889C16.8764 15.5234 17.9608 18.1945 19.9502 20.2114C21.9397 22.2282 24.5957 23.3519 27.4302 23.3721C30.2648 23.3923 32.9357 22.3081 34.9538 20.3187C36.9719 18.3293 38.0943 15.6732 38.1145 12.8387C38.1347 10.0041 37.0503 7.33302 35.0611 5.31619C33.0719 3.29935 30.4146 2.17629 27.5809 2.15504H27.5029Z" fill="#371A45"/>
<g opacity="0.35">
<path opacity="0.35" d="M38.065 11.3654C38.1299 11.8544 38.1606 12.3474 38.1568 12.8407C38.1143 18.7234 33.3118 23.4581 27.4285 23.4164C21.5452 23.3748 16.8114 18.5714 16.8528 12.6884C16.8539 12.5184 16.8592 12.3499 16.8683 12.1833C17.5483 17.3734 21.9698 21.3973 27.3524 21.4359C33.0649 21.4765 37.7598 17.0117 38.065 11.3654Z" fill="#371A45"/>
</g>
<path d="M27.5074 23.8187H27.4262C24.4735 23.7975 21.7059 22.6287 19.633 20.525C17.56 18.4212 16.43 15.6375 16.4512 12.6854C16.4725 9.73336 17.6412 6.96513 19.745 4.89219C21.8487 2.81925 24.6335 1.68748 27.5841 1.71043C30.5347 1.73338 33.3046 2.90043 35.3773 5.00418C37.45 7.10793 38.5803 9.88998 38.5591 12.8437C38.5378 15.7975 37.3691 18.564 35.2653 20.6369C33.1822 22.6905 30.4301 23.8187 27.5074 23.8187ZM27.5031 2.51495C24.7933 2.51495 22.2414 3.56088 20.3096 5.4653C18.3601 7.38715 17.2764 9.95372 17.2551 12.6911C17.2339 15.4286 18.2834 18.0102 20.2052 19.9599C22.1271 21.9096 24.6935 22.9942 27.4302 23.0138C30.1715 23.0299 32.7493 21.9857 34.699 20.0636C36.6487 18.1416 37.7333 15.5754 37.7529 12.8386C37.7724 10.1018 36.7246 7.51933 34.8027 5.56964C32.8809 3.61995 30.3145 2.53556 27.5777 2.51601L27.5031 2.51495Z" fill="#371A45"/>
<path d="M38.1207 13.114C38.1373 15.1982 37.476 17.1388 36.3317 18.7491C35.4736 19.9563 31.924 22.0854 27.5206 22.1602C23.4378 22.2292 19.7055 20.0819 18.8283 18.8877C17.6595 17.2958 16.9663 15.3661 16.9498 13.2817C16.906 7.76582 21.6267 5.44044 27.4732 5.39496C33.3197 5.34949 38.0767 7.59816 38.1207 13.114Z" fill="#371A45"/>
<path d="M27.3233 22.4019C23.1879 22.4019 19.5376 20.2586 18.6351 19.0305C17.3922 17.3393 16.7264 15.3522 16.71 13.2843C16.6888 10.5917 17.7513 8.50712 19.8693 7.08868C21.7199 5.84896 24.3488 5.18065 27.4715 5.15493C30.5941 5.12922 33.2332 5.75652 35.1034 6.96671C37.2435 8.35136 38.3393 10.4186 38.3608 13.1114C38.3774 15.1792 37.7433 17.1765 36.5274 18.8873C35.6848 20.0731 32.179 22.3205 27.525 22.3993C27.4576 22.4014 27.3913 22.4019 27.3233 22.4019ZM27.6325 5.63561C27.579 5.63561 27.5263 5.63561 27.4753 5.63561C24.3647 5.66026 17.1357 6.4548 17.1903 13.2803C17.206 15.2466 17.8395 17.1365 19.022 18.746C19.8493 19.8723 23.4061 21.9214 27.3276 21.9216C27.3913 21.9216 27.4536 21.9216 27.5171 21.9199C31.9448 21.8449 35.3675 19.6918 36.1364 18.61C37.2934 16.9818 37.8967 15.0825 37.881 13.1158C37.8274 6.40337 30.823 5.63519 27.6325 5.63519V5.63561Z" fill="#371A45"/>
<g opacity="0.7">
<path opacity="0.7" d="M36.0163 12.6221C36.1937 11.5962 35.7349 10.6603 34.9915 10.5318C34.2482 10.4033 33.5017 11.1307 33.3244 12.1566C33.147 13.1825 33.6058 14.1183 34.3492 14.2468C35.0925 14.3754 35.8389 13.6479 36.0163 12.6221Z" fill="white"/>
</g>
<g opacity="0.7">
<path opacity="0.7" d="M33.7401 16.3678C33.8859 15.9127 33.6875 15.4423 33.297 15.3172C32.9065 15.1922 32.4717 15.4597 32.326 15.9148C32.1802 16.3699 32.3786 16.8403 32.7691 16.9654C33.1596 17.0904 33.5944 16.8229 33.7401 16.3678Z" fill="white"/>
</g>
<g opacity="0.35">
<path opacity="0.35" d="M36.0209 7.9845C37.3248 9.20913 38.1034 10.8983 38.1206 13.1136C38.1372 15.1984 37.4757 17.1388 36.332 18.7491C35.4737 19.9563 31.9239 22.0854 27.5205 22.1604C25.9658 22.1871 24.4624 21.892 23.1472 21.45C28.5581 21.2424 32.8818 18.6295 33.9456 17.132C35.3983 15.0884 36.2374 12.6251 36.216 9.9803C36.2131 9.31041 36.1478 8.64225 36.0209 7.9845Z" fill="#111A28"/>
</g>
<path d="M18.0275 8.81965L17.3959 8.32134L17.6934 8.5587L17.3774 8.34769C19.2474 5.54779 22.9024 3.92132 27.4026 3.88519C31.875 3.85162 35.5458 5.36377 37.491 8.03957C37.5514 8.11849 37.5805 8.21701 37.5726 8.31612C37.5647 8.41522 37.5204 8.50789 37.4482 8.57625C37.376 8.64461 37.2811 8.68381 37.1817 8.6863C37.0823 8.68879 36.9855 8.65439 36.91 8.58973C36.8857 8.56874 36.8638 8.54507 36.8448 8.51918C35.0555 6.05227 31.6152 4.65465 27.4083 4.69014C23.1781 4.72372 19.7655 6.22014 18.0458 8.79458C18.04 8.80329 18.0339 8.81158 18.0275 8.81965Z" fill="#371A45"/>
<g opacity="0.7">
<path opacity="0.7" d="M19.3531 16.5449C19.3531 16.5449 17.6015 11.117 20.5168 8.92529C23.4321 6.73356 27.6512 6.70891 27.5548 6.98027C27.5548 6.98027 22.8929 8.14902 21.0948 11.8552C19.7082 14.7138 19.3531 16.5449 19.3531 16.5449Z" fill="white"/>
</g>
<path d="M34.2263 28.3758L34.5145 30.6001L34.7391 32.33C34.7687 32.5566 34.7112 32.786 34.5783 32.9719C34.4454 33.1578 34.247 33.2864 34.023 33.3317C33.7238 33.3929 33.3519 33.4643 32.9242 33.5383C31.4016 33.8009 29.1616 34.0946 26.9104 34.0602C26.6773 34.056 26.4549 33.962 26.2895 33.7978C26.1241 33.6336 26.0286 33.4118 26.0228 33.1787L25.9065 28.5864C25.9034 28.4639 25.9252 28.342 25.9706 28.2281C26.0161 28.1143 26.0842 28.0109 26.1709 27.9242C26.2575 27.8375 26.3609 27.7693 26.4748 27.7239C26.5886 27.6784 26.7105 27.6566 26.833 27.6597C28.397 27.6999 31.514 27.7515 33.2505 27.5917C33.4831 27.5706 33.7147 27.6406 33.8967 27.7868C34.0787 27.9331 34.1969 28.1442 34.2263 28.3758Z" fill="white"/>
<path d="M26.7631 27.6608L24.9373 27.8554C24.7443 27.8761 24.5663 27.9688 24.4388 28.1151C24.3113 28.2614 24.2437 28.4505 24.2496 28.6444L24.3886 33.2004C24.3944 33.3923 24.4718 33.5751 24.6055 33.7129C24.7391 33.8507 24.9195 33.9336 25.1111 33.9452L26.7979 34.0515" fill="white"/>
<g opacity="0.25">
<path opacity="0.25" d="M26.7631 27.6608L24.9373 27.8554C24.7443 27.8761 24.5663 27.9688 24.4388 28.1151C24.3113 28.2614 24.2437 28.4505 24.2496 28.6444L24.3886 33.2004C24.3944 33.3923 24.4718 33.5751 24.6055 33.7129C24.7391 33.8507 24.9195 33.9336 25.1111 33.9452L26.7979 34.0515" fill="#371A45"/>
</g>
<path d="M27.2805 34.4185C27.1551 34.4185 27.0296 34.4176 26.9039 34.4157C26.5788 34.4114 26.2681 34.2809 26.0374 34.0518C25.8066 33.8227 25.6739 33.513 25.6672 33.1879L25.551 28.5951C25.5466 28.4245 25.577 28.2547 25.6403 28.0961C25.7036 27.9376 25.7985 27.7936 25.9192 27.6728C26.0399 27.5521 26.1839 27.4572 26.3425 27.3939C26.501 27.3306 26.6708 27.3002 26.8415 27.3046C28.4939 27.3471 31.5194 27.3941 33.2165 27.2377C33.5408 27.2072 33.8643 27.3042 34.1184 27.508C34.3724 27.7119 34.5372 28.0067 34.5777 28.3299L35.0903 32.2841C35.1302 32.5995 35.0497 32.9184 34.8649 33.1771C34.6801 33.4358 34.4045 33.6153 34.0932 33.6798C32.7126 33.9612 30.0404 34.4185 27.2805 34.4185ZM26.809 28.0146C26.7358 28.0146 26.6633 28.0293 26.5959 28.0578C26.5285 28.0863 26.4675 28.128 26.4164 28.1804C26.3654 28.2329 26.3253 28.295 26.2987 28.3632C26.272 28.4313 26.2592 28.5041 26.2611 28.5773L26.3772 33.17C26.3801 33.3115 26.4377 33.4464 26.538 33.5462C26.6383 33.6461 26.7735 33.7031 26.915 33.7053C29.7381 33.7478 32.5363 33.272 33.9524 32.9839C34.0881 32.9557 34.2082 32.8774 34.2887 32.7646C34.3692 32.6518 34.4042 32.5128 34.3867 32.3753L33.8742 28.4213C33.8568 28.2806 33.7853 28.1521 33.6748 28.0632C33.5643 27.9743 33.4235 27.9319 33.2823 27.9451C31.5483 28.1047 28.4913 28.0573 26.8234 28.0148H26.809V28.0146Z" fill="#371A45"/>
<path d="M26.7972 34.4061C26.7895 34.4061 26.7821 34.4061 26.7745 34.4061L25.0876 34.2999C24.8075 34.2836 24.5437 34.1627 24.3485 33.9611C24.1533 33.7595 24.0409 33.492 24.0336 33.2115L23.8944 28.6555C23.8869 28.3723 23.9861 28.0966 24.1722 27.8831C24.3584 27.6696 24.618 27.5338 24.8996 27.5026L26.7254 27.3078C26.7717 27.3028 26.8186 27.3071 26.8634 27.3203C26.9081 27.3335 26.9498 27.3553 26.9861 27.3846C27.0224 27.4139 27.0526 27.4501 27.0749 27.4911C27.0972 27.532 27.1112 27.577 27.1162 27.6233C27.1211 27.6697 27.1168 27.7166 27.1037 27.7614C27.0905 27.8061 27.0686 27.8478 27.0393 27.8841C27.01 27.9204 26.9738 27.9505 26.9329 27.9729C26.8919 27.9952 26.847 28.0092 26.8006 28.0141L24.975 28.2088C24.8712 28.2203 24.7756 28.2704 24.707 28.3491C24.6384 28.4278 24.6018 28.5294 24.6046 28.6338L24.7436 33.1898C24.7463 33.2932 24.7878 33.3917 24.8597 33.466C24.9316 33.5403 25.0288 33.5849 25.132 33.591L26.8189 33.6972C26.9105 33.7035 26.9961 33.7451 27.0578 33.8131C27.1195 33.8812 27.1524 33.9705 27.1496 34.0623C27.1469 34.1541 27.1087 34.2413 27.0431 34.3056C26.9774 34.3698 26.8895 34.4062 26.7976 34.407L26.7972 34.4061Z" fill="#371A45"/>
<path d="M30.6476 34.2501C30.557 34.2501 30.4699 34.2154 30.404 34.1532C30.3382 34.091 30.2986 34.0061 30.2933 33.9157L30.1575 31.5886L28.9792 30.7938C28.9344 30.7636 28.8972 30.7235 28.8702 30.6767C28.8432 30.6299 28.8272 30.5776 28.8235 30.5237L28.6307 27.7211C28.6243 27.6271 28.6554 27.5344 28.7173 27.4634C28.7792 27.3924 28.8668 27.3488 28.9607 27.3424C29.0547 27.3359 29.1474 27.3671 29.2184 27.429C29.2894 27.4909 29.3329 27.5784 29.3394 27.6724L29.5202 30.3019L30.7005 31.0981C30.7458 31.1286 30.7835 31.1692 30.8105 31.2167C30.8376 31.2642 30.8533 31.3173 30.8564 31.3718L31.0024 33.8742C31.0052 33.9208 30.9987 33.9674 30.9834 34.0115C30.9681 34.0555 30.9443 34.0962 30.9133 34.131C30.8823 34.1659 30.8447 34.1943 30.8027 34.2146C30.7607 34.2349 30.7152 34.2468 30.6686 34.2495C30.6616 34.2499 30.6546 34.2501 30.6476 34.2501Z" fill="#371A45"/>
<path d="M33.9608 30.4999C33.9755 30.6408 33.8956 31.7992 33.8956 31.7992L33.0928 31.8827C32.5403 31.9401 32.0322 31.4152 31.9586 30.7082C31.8851 30.0012 32.2738 29.383 32.8267 29.3255L33.6297 29.2419C33.6297 29.2419 33.9362 30.2704 33.9608 30.4999Z" fill="#22A7F0"/>
<path d="M33.9608 30.4999C33.9756 30.6407 33.897 31.7991 33.897 31.7991L33.8705 31.8016C33.8917 31.4674 33.913 31.0704 33.9038 30.9918C33.8804 30.7621 33.5732 29.734 33.5732 29.734L32.7703 29.8175C32.384 29.8573 32.0774 30.1724 31.9524 30.5993C31.9265 29.9393 32.3035 29.3798 32.8279 29.3256L33.631 29.2421C33.631 29.2421 33.9363 30.2704 33.9608 30.4999Z" fill="white"/>
<path d="M33.0114 32.1887C32.3391 32.1887 31.7447 31.5641 31.6588 30.7394C31.5683 29.8682 32.0783 29.1 32.7957 29.0254L33.3563 28.9672C33.4948 28.9525 33.6341 28.987 33.7497 29.0647C33.8653 29.1424 33.9498 29.2584 33.9885 29.3922C34.2392 30.2579 34.2558 30.4162 34.2611 30.4683C34.2656 30.5108 34.2756 30.6081 34.2133 31.5722C34.2046 31.7123 34.1464 31.8448 34.0491 31.946C33.9518 32.0471 33.8217 32.1105 33.6821 32.1247L33.1245 32.1827C33.0869 32.1867 33.0492 32.1887 33.0114 32.1887ZM33.4111 29.5675L32.8586 29.6251C32.4787 29.6646 32.2043 30.1459 32.2594 30.6763C32.3144 31.2067 32.6829 31.62 33.0622 31.582L33.6119 31.5246C33.6544 30.8818 33.6644 30.5869 33.661 30.5284C33.6517 30.4504 33.5818 30.1578 33.4111 29.5675Z" fill="#371A45"/>
<path d="M33.8969 31.7972C34.4498 31.7397 34.8384 31.1207 34.7649 30.4146C34.6914 29.7085 34.1837 29.1827 33.6309 29.2402C33.078 29.2977 32.6894 29.9168 32.7629 30.6229C32.8364 31.329 33.3441 31.8548 33.8969 31.7972Z" fill="#22A7F0"/>
<path d="M34.7636 30.4176C34.7723 30.5011 34.7745 30.5853 34.7699 30.6692C34.6174 30.0931 34.1679 29.6944 33.6824 29.7446C33.1968 29.7947 32.837 30.2799 32.8077 30.8761C32.7858 30.7939 32.7704 30.7101 32.7616 30.6254C32.6881 29.9195 33.0772 29.3005 33.6301 29.2441C34.183 29.1878 34.69 29.7106 34.7636 30.4176Z" fill="white"/>
<path d="M33.8109 32.1054C33.4902 32.1054 33.1819 31.9669 32.9317 31.7079C32.671 31.4378 32.504 31.0642 32.4615 30.656C32.419 30.2478 32.5057 29.8485 32.7052 29.5297C32.9196 29.1882 33.2365 28.9796 33.5977 28.942C33.959 28.9043 34.3128 29.0433 34.5926 29.3334C34.8536 29.6035 35.0206 29.977 35.0629 30.3855C35.1054 30.7937 35.0189 31.193 34.8192 31.5117C34.605 31.8532 34.2879 32.0619 33.9267 32.0995C33.8882 32.1035 33.8495 32.1055 33.8109 32.1054ZM33.7118 29.5395C33.6949 29.5395 33.6779 29.5404 33.661 29.5423C33.4879 29.5601 33.33 29.6698 33.2165 29.8506C33.089 30.055 33.0331 30.3181 33.0618 30.5944C33.0905 30.8706 33.1984 31.116 33.3659 31.2894C33.5146 31.4433 33.6916 31.5183 33.8644 31.4998C34.0372 31.4813 34.1955 31.3723 34.309 31.1915C34.4365 30.9873 34.4921 30.724 34.4637 30.4477C34.435 30.173 34.327 29.926 34.1594 29.7526C34.0255 29.6139 33.8684 29.5395 33.7118 29.5395Z" fill="#371A45"/>
<path d="M16.8527 29.2657C16.8527 29.2657 19.254 30.3527 24.9673 30.1565C24.9673 30.1565 26.0138 31.1595 24.9673 31.9881C23.9207 32.8166 18.0304 33.2935 16.4568 31.5956C15.4606 30.5206 16.8527 29.2657 16.8527 29.2657Z" fill="white"/>
<g opacity="0.25">
<path opacity="0.25" d="M24.967 31.9885C23.9208 32.8172 18.0305 33.293 16.4563 31.5952C15.9827 31.0852 16.049 30.5327 16.2502 30.0945C16.3074 30.196 16.3766 30.2902 16.4563 30.3752C18.0305 32.0731 23.9208 31.5962 24.967 30.7683C25.0668 30.6909 25.156 30.6006 25.2324 30.4999C25.4517 30.865 25.6319 31.4615 24.967 31.9885Z" fill="#371A45"/>
</g>
<path d="M20.8201 33.0949C19.486 33.0949 17.2035 32.925 16.1963 31.8372C15.8775 31.4923 15.7245 31.097 15.7441 30.6625C15.7847 29.7604 16.5809 29.0326 16.6153 29.002L16.7879 28.8464L16.9989 28.9421C17.0352 28.958 19.4348 29.9916 24.9553 29.8016L25.1051 29.7965L25.2133 29.9002C25.2754 29.9599 25.8198 30.5027 25.7871 31.2062C25.7739 31.4842 25.6596 31.8939 25.1887 32.2666C24.4874 32.8223 22.4801 33.0854 20.9127 33.0954L20.8201 33.0949ZM16.9439 29.6828C16.7611 29.8907 16.4713 30.2831 16.4536 30.6967C16.4434 30.9368 16.5297 31.1518 16.7173 31.3544C18.1585 32.9096 23.8633 32.409 24.7467 31.7097C24.9592 31.5412 25.0673 31.3656 25.0765 31.1727C25.0884 30.9228 24.9315 30.6659 24.8138 30.5169C20.121 30.6599 17.677 29.9466 16.9439 29.6826V29.6828Z" fill="#371A45"/>
<g opacity="0.25">
<path opacity="0.25" d="M37.4174 37.7008C36.5574 38.7399 33.7994 39.7427 32.3146 38.8121C31.0745 38.0357 31.0352 36.9232 30.156 36.2834C30.1048 36.2462 29.9499 36.1786 29.7136 36.0751C32.4974 35.1971 35.0455 34.7564 37.3379 34.6089C38.3256 35.8259 38.1295 36.8397 37.4174 37.7008Z" fill="#371A45"/>
</g>
<path d="M25.4324 24.5525C28.543 28.4336 33.6753 30.813 36.7412 33.5793C38.4217 35.0955 38.1571 35.825 37.319 36.839C36.4597 37.8784 34.4409 38.8814 32.9564 37.951C31.7163 37.1739 31.6389 36.4355 30.7602 35.7954C30.4134 35.5428 24.8364 34.0629 21.7402 29.2375" fill="white"/>
<g opacity="0.25">
<path opacity="0.25" d="M37.3188 36.8397C36.4599 37.8788 34.4411 38.8816 32.9564 37.9513C31.7163 37.1746 31.6389 36.4364 30.7596 35.7957C30.4136 35.5432 24.8361 34.0636 21.7402 29.2375L21.804 29.157C25.2571 32.7871 28.8564 33.0045 31.2471 34.8443C32.1085 35.5073 32.1833 35.7273 33.4237 36.5037C34.9082 37.4343 36.927 36.4313 37.7859 35.3924C37.8414 35.3258 37.8938 35.2604 37.9429 35.1962C38.0842 35.7825 37.7935 36.2653 37.3188 36.8397Z" fill="#371A45"/>
</g>
<path d="M25.5369 24.469C26.1974 24.9352 26.7422 25.465 27.3251 25.9727C27.8972 26.4867 28.4852 26.988 29.0787 27.4867C29.6826 27.9755 30.308 28.437 30.9487 28.8837C31.5862 29.3344 32.236 29.7726 32.885 30.2144C33.5339 30.6562 34.188 31.0973 34.8308 31.5621C34.9928 31.6755 35.153 31.793 35.3117 31.9129C35.4705 32.0327 35.6305 32.1492 35.789 32.2707C36.1014 32.5198 36.418 32.7623 36.7189 33.03C37.0344 33.2921 37.3319 33.5751 37.6095 33.877C37.6785 33.9584 37.7485 34.0377 37.816 34.1212C37.8798 34.2104 37.9474 34.2959 38.0088 34.3892L38.097 34.5356L38.1405 34.6091C38.1539 34.6348 38.166 34.6626 38.1788 34.6894L38.2527 34.8518C38.274 34.9085 38.2914 34.9697 38.3101 35.0288C38.3781 35.267 38.4049 35.543 38.3488 35.7965C38.2987 36.0343 38.2086 36.2618 38.0823 36.4693C37.9703 36.6533 37.8457 36.8293 37.7091 36.9959C37.6477 37.0758 37.574 37.1582 37.4994 37.2405C37.4248 37.3227 37.346 37.3956 37.2682 37.4717C36.9523 37.7612 36.5998 38.008 36.2197 38.2059C35.8385 38.4079 35.4308 38.5552 35.0085 38.6436C34.5816 38.7303 34.1277 38.7499 33.6801 38.66L33.5133 38.6213C33.4572 38.6103 33.4021 38.5943 33.3489 38.5735C33.2426 38.531 33.1313 38.4987 33.0301 38.446C32.929 38.3933 32.825 38.3385 32.7286 38.2822C32.6406 38.2229 32.5509 38.1676 32.4649 38.1043C32.2901 37.9796 32.124 37.8432 31.9676 37.6961C31.8133 37.549 31.6684 37.3925 31.5335 37.2275C31.2683 36.9039 31.0568 36.5941 30.8084 36.3603C30.7787 36.3289 30.7447 36.3025 30.7134 36.2738C30.6821 36.2448 30.6492 36.2173 30.615 36.1916L30.5643 36.1523L30.539 36.1325L30.5264 36.1225C30.5207 36.1178 30.5264 36.1236 30.5264 36.1225C30.5284 36.1247 30.5309 36.1262 30.5337 36.127L30.5124 36.1176C30.4954 36.1102 30.4827 36.1034 30.4599 36.0945C30.2948 36.0265 30.105 35.9559 29.9221 35.8849C29.5523 35.7419 29.1817 35.5917 28.8158 35.4313C27.3519 34.7901 25.9451 33.992 24.6772 32.9979C24.3584 32.7521 24.053 32.4879 23.7526 32.2195C23.4574 31.9448 23.1533 31.6779 22.8737 31.3848C22.7312 31.2407 22.5971 31.0885 22.472 30.929C22.4083 30.8508 22.3445 30.7718 22.2876 30.6874C22.2306 30.603 22.1707 30.5217 22.1153 30.4367C22.0053 30.2649 21.9079 30.0856 21.8237 29.8999C21.7399 29.7096 21.6745 29.5117 21.6284 29.3089C21.6225 29.2811 21.6249 29.2522 21.6355 29.2258C21.6461 29.1994 21.6643 29.1768 21.6878 29.1609C21.7113 29.1449 21.739 29.1363 21.7674 29.1362C21.7958 29.136 21.8237 29.1444 21.8473 29.1602L21.8541 29.1646C22.0298 29.2826 22.1728 29.4173 22.3193 29.5493C22.4657 29.6812 22.597 29.8204 22.7321 29.9568C22.7989 30.0255 22.8633 30.0958 22.9266 30.1668C22.9899 30.2378 23.0573 30.3058 23.1206 30.3767C23.1839 30.4477 23.2481 30.5168 23.3118 30.5892C23.3756 30.6617 23.4406 30.7293 23.5031 30.8017C23.7531 31.09 24.0178 31.3652 24.2961 31.6262C24.5798 31.8823 24.8699 32.1316 25.1733 32.3657C26.3793 33.3114 27.7267 34.0774 29.139 34.6958C29.4926 34.8507 29.85 34.9956 30.2128 35.1361C30.396 35.2073 30.574 35.2732 30.7727 35.3545C30.7957 35.3635 30.8271 35.3781 30.855 35.3907C30.8705 35.3981 30.8805 35.4019 30.9006 35.4119C30.9247 35.4249 30.9485 35.4387 30.9716 35.4531C30.9816 35.4595 30.9986 35.4699 31.0022 35.4731L31.0188 35.4859L31.0515 35.5114L31.1172 35.5624C31.2042 35.6309 31.2876 35.7037 31.3673 35.7806C31.6905 36.0892 31.9221 36.4349 32.1559 36.7167C32.3811 36.9953 32.643 37.2422 32.9345 37.4504C33.0065 37.5038 33.0847 37.5512 33.1593 37.6019L33.3754 37.719C33.4477 37.7571 33.5276 37.7773 33.6026 37.8087C33.6405 37.8245 33.68 37.836 33.7205 37.8429L33.8406 37.8708C34.164 37.9345 34.5097 37.9243 34.851 37.8548C35.5334 37.7135 36.2027 37.3574 36.724 36.8805C36.786 36.8189 36.8547 36.7613 36.9091 36.6954C36.9635 36.6295 37.0245 36.5679 37.0827 36.4929C37.1954 36.3559 37.2985 36.2113 37.3912 36.06C37.4708 35.9323 37.5283 35.7921 37.5612 35.6452C37.5921 35.5135 37.5759 35.3862 37.54 35.2489C37.4607 34.9746 37.2572 34.6811 37.0134 34.413C36.7588 34.137 36.486 33.8783 36.1968 33.6388C35.911 33.3838 35.6033 33.1486 35.3017 32.908C35.1485 32.7899 34.9913 32.6756 34.8364 32.5591C34.6814 32.4427 34.525 32.3275 34.3655 32.2155C33.7352 31.7597 33.0845 31.323 32.437 30.8799C31.7895 30.4369 31.1348 29.9981 30.4892 29.5412C29.8407 29.0903 29.2072 28.6126 28.5682 28.1387C27.939 27.6518 27.31 27.1563 26.7531 26.5772C26.1793 26.0192 25.6787 25.3734 25.3312 24.6354C25.3183 24.6079 25.3149 24.5769 25.3214 24.5472C25.328 24.5175 25.3441 24.4909 25.3674 24.4713C25.3906 24.4518 25.4197 24.4404 25.45 24.4391C25.4804 24.4378 25.5103 24.4465 25.5352 24.4639L25.5369 24.469Z" fill="#371A45"/>
<path d="M25.674 33.5922C25.6203 33.5921 25.5672 33.5798 25.5189 33.5562C25.4706 33.5326 25.4282 33.4984 25.395 33.4561C25.3617 33.4139 25.3385 33.3646 25.327 33.3121C25.3156 33.2595 25.3161 33.2051 25.3287 33.1528C25.377 32.9545 26.5442 28.3237 29.77 28.3237H29.8225C29.9166 28.3252 30.0064 28.364 30.0719 28.4316C30.1375 28.4993 30.1735 28.5902 30.172 28.6843C30.1706 28.7785 30.1317 28.8683 30.0641 28.9338C29.9965 28.9994 29.9056 29.0354 29.8114 29.0339H29.7713C27.0948 29.0339 26.0289 33.2777 26.0183 33.3209C25.9995 33.3981 25.9554 33.4668 25.893 33.516C25.8306 33.5652 25.7535 33.592 25.674 33.5922Z" fill="#371A45"/>
<path d="M38.8266 26.2526C38.7658 26.2526 38.706 26.2369 38.653 26.2071C36.862 25.2011 36.7314 20.3601 36.7222 19.8108C36.7206 19.7166 36.7565 19.6257 36.822 19.5579C36.8875 19.4902 36.9772 19.4512 37.0714 19.4496H37.0775C37.1706 19.4496 37.26 19.4862 37.3264 19.5515C37.3928 19.6169 37.4308 19.7056 37.4324 19.7987C37.4556 21.1766 37.7822 24.9025 39.0009 25.5868C39.0693 25.6253 39.123 25.6854 39.1537 25.7578C39.1843 25.8301 39.1902 25.9105 39.1703 25.9865C39.1503 26.0625 39.1058 26.1297 39.0436 26.1777C38.9815 26.2257 38.9051 26.2517 38.8266 26.2517V26.2526Z" fill="#371A45"/>
<path d="M41.7669 17.167C41.7705 17.1883 41.7722 17.2308 41.7746 17.2646L41.7814 17.3734C41.7875 17.4467 41.7901 17.5208 41.7975 17.5948C41.8073 17.7435 41.826 17.8923 41.8473 18.0423C41.8685 18.1923 41.8993 18.3422 41.9286 18.4983C41.952 18.6588 41.9924 18.8152 42.0119 19.0062C41.8452 18.927 41.6984 18.8115 41.5821 18.6681C41.524 18.5982 41.4718 18.5237 41.4259 18.4452C41.3818 18.366 41.3419 18.2846 41.3062 18.2013C41.2344 18.0343 41.1819 17.8596 41.15 17.6806C41.1346 17.5907 41.1246 17.5 41.1201 17.4089C41.1182 17.363 41.1165 17.3171 41.1188 17.2703C41.12 17.22 41.1241 17.1699 41.1311 17.1201C41.1411 17.0447 41.1778 16.9754 41.2347 16.9248C41.2915 16.8743 41.3646 16.8459 41.4406 16.8448C41.5167 16.8437 41.5906 16.8699 41.6488 16.9188C41.7071 16.9677 41.7459 17.0359 41.758 17.1109L41.7669 17.167Z" fill="#371A45"/>
</g>
</svg>
