<svg width="52" height="52" viewBox="0 0 52 52" fill="none" xmlns="http://www.w3.org/2000/svg">
<mask id="mask0_2_13862" style="mask-type:alpha" maskUnits="userSpaceOnUse" x="0" y="0" width="52" height="52">
<circle cx="26" cy="26" r="26" fill="#C4C4C4"/>
</mask>
<g mask="url(#mask0_2_13862)">
<path d="M67 -4H-15V78H67V-4Z" fill="#FEEBCD"/>
<path d="M34.7587 65.5001C31.6782 65.8076 29.9336 65.3456 28.9539 64.7892C28.1571 64.3357 28.1134 63.4192 28.0989 62.5026C28.0614 59.9045 27.9794 57.4576 27.9084 55.6819C27.89 55.2395 27.8734 54.8387 27.8574 54.4879C27.8119 53.4773 27.7793 52.877 27.7793 52.877L30.4994 52.2085L36.5248 50.7268C36.4647 51.6464 36.35 52.5617 36.1812 53.4677C36.0984 53.9062 36.0065 54.3236 35.9055 54.7198C35.7434 55.3603 35.5479 55.9919 35.3198 56.6119C34.239 59.5354 32.8569 60.872 32.8569 60.872L33.132 61.1326C38.2058 60.5955 40.0348 64.9733 34.7587 65.5001Z" fill="#9CA9B9"/>
<path d="M32.8912 65.9181C31.1668 65.9181 29.7943 65.6331 28.7968 65.0661C27.8097 64.5052 27.7923 63.3504 27.7806 62.5075C27.7068 57.468 27.4632 52.9395 27.4608 52.8942C27.4559 52.851 27.4598 52.8073 27.4724 52.7657C27.485 52.7241 27.506 52.6856 27.534 52.6524C27.5621 52.6192 27.5966 52.5921 27.6355 52.5727C27.6744 52.5534 27.7169 52.5422 27.7603 52.5398C27.8037 52.5375 27.8471 52.544 27.8878 52.5591C27.9286 52.5741 27.9659 52.5973 27.9973 52.6273C28.0288 52.6572 28.0538 52.6933 28.0708 52.7333C28.0878 52.7733 28.0965 52.8163 28.0963 52.8598C28.099 52.9051 28.3423 57.4454 28.4171 62.498C28.4306 63.4232 28.4901 64.1585 29.1108 64.5118C29.9513 64.9896 31.6081 65.4939 34.726 65.1827C36.1952 65.0361 37.2143 64.5597 37.5216 63.8756C37.6878 63.5054 37.6241 63.086 37.3399 62.6948C36.8162 61.9722 35.4084 61.2121 33.1645 61.4497L33.0181 61.4652L32.396 60.8736L32.635 60.6424C32.6657 60.6127 35.7477 57.5366 36.2061 50.705C36.2161 50.6241 36.2568 50.5502 36.3196 50.4983C36.3825 50.4465 36.4628 50.4207 36.5441 50.4261C36.6254 50.4316 36.7015 50.468 36.7568 50.5278C36.8121 50.5876 36.8425 50.6664 36.8416 50.7478C36.4433 56.682 34.1727 59.8404 33.3613 60.7916C35.7219 60.6118 37.2258 61.4509 37.8559 62.3207C38.2729 62.8961 38.3629 63.5581 38.1019 64.1368C37.6919 65.048 36.5156 65.6448 34.7881 65.8178C34.1158 65.8846 33.4835 65.9181 32.8912 65.9181Z" fill="#371A45"/>
<path d="M25.6234 52.877C25.6234 52.877 25.59 53.4877 25.5445 54.5142C25.5287 54.8666 25.5119 55.2673 25.4934 55.7089C25.4225 57.483 25.3405 59.918 25.303 62.5026C25.2903 63.4192 25.2456 64.3357 24.4485 64.7892C23.4691 65.3456 21.7245 65.8078 18.644 65.5001C13.3679 64.9733 15.1965 60.5955 20.2706 61.1326L20.5458 60.872C20.5458 60.872 18.8959 59.2755 17.7912 55.7591C17.6924 55.4448 17.5989 55.1154 17.5107 54.7708C17.4082 54.3692 17.3131 53.9467 17.2293 53.5027C17.1354 53.0095 17.054 52.4898 16.9902 51.9431C16.9441 51.5517 16.9058 51.146 16.8779 50.7268L17.1409 50.7914L20.9617 51.7311L25.6234 52.877Z" fill="#9CA9B9"/>
<path d="M20.5114 65.9181C19.9196 65.9181 19.2866 65.8845 18.6123 65.8172C16.8847 65.6448 15.7078 65.0481 15.2987 64.1362C15.0387 63.5575 15.1287 62.8956 15.5447 62.3201C16.1748 61.4505 17.6797 60.611 20.0393 60.791C19.2281 59.8398 16.9575 56.6814 16.5592 50.7473C16.5544 50.7045 16.5584 50.6612 16.5708 50.62C16.5832 50.5788 16.6038 50.5405 16.6314 50.5075C16.659 50.4745 16.693 50.4474 16.7314 50.4279C16.7697 50.4084 16.8116 50.3968 16.8546 50.3939C16.8975 50.391 16.9406 50.3968 16.9812 50.411C17.0218 50.4252 17.0592 50.4475 17.0909 50.4765C17.1227 50.5056 17.1483 50.5407 17.1661 50.5799C17.184 50.619 17.1937 50.6614 17.1947 50.7044C17.6533 57.536 20.7353 60.6121 20.7662 60.6422L21.0038 60.8734L20.3831 61.4653L20.2367 61.4497C17.9926 61.2123 16.585 61.9722 16.0615 62.6949C15.7779 63.086 15.713 63.5054 15.8798 63.8757C16.1873 64.5598 17.206 65.0362 18.6752 65.1827C21.7933 65.4937 23.4499 64.9898 24.2904 64.5118C24.9111 64.1592 24.9708 63.4232 24.9843 62.4981C25.0581 57.4454 25.3025 52.9051 25.3049 52.8598C25.3065 52.8175 25.3164 52.7759 25.3342 52.7375C25.352 52.6991 25.3773 52.6647 25.4085 52.6361C25.4398 52.6076 25.4764 52.5856 25.5163 52.5713C25.5561 52.5571 25.5984 52.5509 25.6407 52.5532C25.683 52.5555 25.7243 52.5662 25.7624 52.5846C25.8005 52.6031 25.8346 52.6289 25.8625 52.6607C25.8905 52.6924 25.9119 52.7294 25.9255 52.7695C25.939 52.8096 25.9444 52.852 25.9414 52.8942C25.9392 52.9395 25.6954 57.468 25.6218 62.5075C25.6095 63.3505 25.5925 64.5052 24.6055 65.0661C23.6085 65.6331 22.2359 65.9181 20.5114 65.9181Z" fill="#371A45"/>
<path d="M38.7789 52.8634C37.8934 53.0922 37.0276 53.2936 36.1813 53.4676C34.332 53.8517 32.4628 54.133 30.5824 54.3101C29.6332 54.3993 28.7238 54.4567 27.8575 54.4879C27.0486 54.5174 26.2761 54.5246 25.5445 54.5141C22.967 54.479 20.882 54.2271 19.3945 53.969C18.3855 53.7935 17.652 53.6166 17.2282 53.5026C16.947 53.427 16.801 53.3796 16.801 53.3796L16.9892 51.9426L17.1399 50.7909L18.7067 38.8326L23.6283 38.4054L32.1012 37.6705L36.6698 37.2744L38.7789 52.8634Z" fill="white"/>
<path d="M26.1275 54.835C24.8932 54.835 23.7932 54.7852 22.8442 54.712C18.997 54.4172 16.7967 53.7122 16.7039 53.6825L16.4519 53.6005L18.3916 38.7905C18.3966 38.7486 18.4098 38.7082 18.4305 38.6715C18.4513 38.6348 18.4791 38.6026 18.5123 38.5767C18.5455 38.5508 18.5836 38.5317 18.6243 38.5206C18.6649 38.5095 18.7074 38.5066 18.7492 38.512C18.7909 38.5175 18.8312 38.5311 18.8677 38.5522C18.9042 38.5733 18.9361 38.6014 18.9617 38.6349C18.9872 38.6685 19.0059 38.7067 19.0165 38.7475C19.0272 38.7882 19.0297 38.8307 19.0238 38.8725L17.154 53.1495C17.8361 53.3397 19.8684 53.8465 22.9186 54.0773C26.4053 54.3424 31.9733 54.2928 38.6989 52.5529C38.7808 52.5317 38.8677 52.544 38.9405 52.5869C39.0134 52.6298 39.0662 52.6999 39.0874 52.7817C39.1086 52.8636 39.0964 52.9505 39.0535 53.0233C39.0105 53.0962 38.9405 53.149 38.8586 53.1702C33.8648 54.4639 29.4977 54.835 26.1275 54.835Z" fill="#371A45"/>
<path d="M4.13383 36.2594C4.22322 36.6333 4.39871 36.9811 4.64633 37.2752V37.2766C4.48889 37.9492 4.03769 38.4834 3.4108 38.6357C2.4555 38.8682 1.45592 38.1261 1.1763 36.9787C0.896678 35.8313 1.44464 34.7145 2.39994 34.482C3.02683 34.3295 3.67299 34.5968 4.12194 35.122C4.037 35.4969 4.04108 35.8864 4.13383 36.2594Z" fill="#FC913A"/>
<path d="M50.8501 24.8977C50.9985 25.5086 51.0192 26.0125 50.9753 26.4177C50.8915 27.1869 50.3242 27.8167 49.5715 27.9997L35.7246 31.3673C32.4345 32.1668 23.8868 33.3426 21.4865 33.7119C19.0861 34.0811 4.64553 37.2752 4.64553 37.2752C4.39974 36.9801 4.22476 36.6328 4.134 36.2597C4.04325 35.8865 4.03913 35.4976 4.12196 35.1227C4.12196 35.1227 18.4168 31.3302 20.7183 30.5538C23.0199 29.7775 31.1528 26.8979 34.4429 26.0977L48.2896 22.73C49.0424 22.5469 49.8355 22.8458 50.2634 23.4906C50.4884 23.8298 50.7025 24.287 50.8501 24.8977Z" fill="#FC913A"/>
<path d="M4.13383 36.2594C4.22322 36.6333 4.39871 36.9811 4.64633 37.2752V37.2766C4.48889 37.9492 4.03769 38.4834 3.4108 38.6357C2.4555 38.8682 1.45592 38.1261 1.1763 36.9787C0.896678 35.8313 1.44464 34.7145 2.39994 34.482C3.02683 34.3295 3.67299 34.5968 4.12194 35.122C4.037 35.4969 4.04108 35.8864 4.13383 36.2594Z" fill="#FC913A"/>
<path d="M50.8501 24.8977C50.9985 25.5086 51.0192 26.0125 50.9753 26.4177C50.8915 27.1869 50.3242 27.8167 49.5715 27.9997L35.7246 31.3673C32.4345 32.1668 23.8868 33.3426 21.4865 33.7119C19.0861 34.0811 4.64553 37.2752 4.64553 37.2752C4.39974 36.9801 4.22476 36.6328 4.134 36.2597C4.04325 35.8865 4.03913 35.4976 4.12196 35.1227C4.12196 35.1227 18.4168 31.3302 20.7183 30.5538C23.0199 29.7775 31.1528 26.8979 34.4429 26.0977L48.2896 22.73C49.0424 22.5469 49.8355 22.8458 50.2634 23.4906C50.4884 23.8298 50.7025 24.287 50.8501 24.8977Z" fill="#FC913A"/>
<g opacity="0.5">
<path opacity="0.5" d="M4.33313 36.9567C4.36593 37.0907 4.40946 37.2219 4.4633 37.3489C4.49684 37.2603 4.52457 37.1695 4.54633 37.0773V37.0758C4.44735 36.9584 4.35989 36.8318 4.28516 36.6976C4.29675 36.7847 4.31277 36.8712 4.33313 36.9567Z" fill="white"/>
<path opacity="0.5" d="M2.59938 35.1794C3.07395 35.064 3.55919 35.1894 3.96181 35.4848C3.95959 35.2957 3.97989 35.107 4.02228 34.9227C3.57354 34.3977 2.92738 34.1304 2.30028 34.2827C1.34498 34.5152 0.797838 35.6333 1.07664 36.7792C1.13081 37.0034 1.21544 37.2191 1.32817 37.4202C1.18242 36.368 1.71542 35.3944 2.59938 35.1794Z" fill="white"/>
</g>
<g opacity="0.3">
<path opacity="0.3" d="M4.64614 36.6615C4.48829 37.3341 4.03729 37.8682 3.40999 38.0205C2.4551 38.2532 1.45573 37.5111 1.17672 36.3635C1.1443 36.2299 1.12243 36.094 1.11133 35.9569C1.55782 36.6152 2.28454 36.9723 2.98831 36.8018C3.53361 36.6687 3.94566 36.247 4.14717 35.697C4.2394 36.0513 4.40959 36.3804 4.64532 36.6605L4.64614 36.6615Z" fill="#371A45"/>
<path opacity="0.3" d="M50.9756 25.8031C50.892 26.5721 50.3244 27.2018 49.5712 27.3843L35.7249 30.7524C32.4348 31.5519 23.8869 32.7274 21.4862 33.0964C19.0854 33.4654 4.64543 36.6599 4.64543 36.6599C4.4097 36.3799 4.23951 36.0507 4.14729 35.6964C4.14257 35.679 4.13765 35.6614 4.13375 35.6439C4.10093 35.5093 4.07906 35.3721 4.06836 35.2339C4.11637 35.3051 4.16825 35.3735 4.22375 35.4389C4.22375 35.4389 18.6633 32.2436 21.0647 31.8762C23.4661 31.5089 32.0117 30.3316 35.3024 29.5315L49.1497 26.1641C49.9021 25.9796 50.4695 25.3511 50.5531 24.5819C50.5931 24.2107 50.5794 23.757 50.4623 23.2152C50.6114 23.5036 50.746 23.8544 50.8504 24.2812C50.9986 24.8937 51.0195 25.397 50.9756 25.8031Z" fill="#371A45"/>
</g>
<g opacity="0.5">
<path opacity="0.5" d="M4.42075 36.0186C4.42075 36.0186 18.7154 32.2261 21.0171 31.4498C23.3189 30.6735 31.4516 27.7938 34.7417 26.9937L48.5884 23.626C49.3412 23.4429 50.1343 23.7418 50.5619 24.3865C50.675 24.5588 50.7736 24.7401 50.8567 24.9285C50.8543 24.9181 50.8524 24.908 50.85 24.8978C50.7013 24.2869 50.4884 23.8297 50.2631 23.4898C49.8354 22.8451 49.0423 22.5468 48.2895 22.7295L34.4428 26.097C31.1525 26.8965 23.02 29.7788 20.7183 30.5531C18.4165 31.3274 4.12186 35.122 4.12186 35.122C4.03692 35.4968 4.04099 35.8863 4.13375 36.2593C4.1879 36.4822 4.27218 36.6967 4.38426 36.8968C4.34276 36.6043 4.35512 36.3067 4.42075 36.0186Z" fill="white"/>
</g>
<g opacity="0.3">
<path opacity="0.3" d="M4.22375 36.0555V36.0569C4.2035 36.1434 4.17796 36.2286 4.14729 36.312C4.14257 36.2945 4.13765 36.2769 4.13375 36.2595C4.10093 36.1248 4.07906 35.9877 4.06836 35.8495C4.11634 35.921 4.16822 35.9897 4.22375 36.0555Z" fill="#6B184E"/>
</g>
<path d="M3.05874 38.9967C2.07822 38.9967 1.1465 38.2038 0.866876 37.0539C0.546871 35.7384 1.20103 34.4457 2.32484 34.1722C3.04234 33.9978 3.8238 34.2823 4.36438 34.9149L4.46914 35.0379L4.43265 35.1948C4.35919 35.521 4.36298 35.8598 4.44372 36.1843C4.52132 36.5097 4.67363 36.8127 4.88857 37.0691L4.93838 37.1279L4.97303 37.2755L4.95621 37.3495C4.76659 38.1597 4.20305 38.7714 3.48555 38.9459C3.34582 38.9798 3.20253 38.9969 3.05874 38.9967ZM2.75718 34.7581C2.66229 34.7581 2.56773 34.7694 2.47551 34.7917C1.69323 34.9822 1.24941 35.9293 1.48639 36.9032C1.72337 37.8772 2.55239 38.516 3.33508 38.3259C3.78382 38.2169 4.13458 37.8557 4.29632 37.3475C4.07369 37.0445 3.91328 36.7004 3.82433 36.335C3.73538 35.9697 3.71966 35.5904 3.77808 35.219C3.47981 34.9201 3.11778 34.7581 2.75718 34.7581Z" fill="#371A45"/>
<path d="M4.5271 37.628L4.40267 37.4816C4.12456 37.1485 3.92662 36.756 3.82412 36.3344C3.72162 35.9128 3.71728 35.4732 3.81145 35.0497L3.85512 34.8631L4.03962 34.8139C4.18312 34.776 18.3505 31.0149 20.6159 30.251C21.0569 30.1028 21.6979 29.882 22.5093 29.6022C25.9445 28.4185 31.6933 26.4374 34.3671 25.7874L48.2138 22.4196C49.1005 22.204 50.0305 22.5631 50.5283 23.3136C50.805 23.7314 51.0174 24.239 51.1591 24.8224C51.3007 25.4059 51.3456 25.9542 51.2917 26.4522C51.1941 27.3476 50.5332 28.0938 49.6462 28.3095L35.7994 31.677C33.1258 32.3273 27.1074 33.2079 23.5111 33.7342C22.6632 33.8572 21.9941 33.9562 21.5343 34.0269C19.1717 34.389 4.8588 37.5535 4.71448 37.5863L4.5271 37.628ZM4.39878 35.3785C4.32926 35.9211 4.46297 36.4702 4.77413 36.9201C6.58346 36.5203 19.1787 33.7426 21.4384 33.3968C21.8996 33.3258 22.5704 33.2276 23.4195 33.1034C27.0043 32.5786 33.0047 31.7008 35.6494 31.0575L49.4961 27.69C50.1228 27.5374 50.5898 27.0135 50.6585 26.3833C50.7044 25.9591 50.6646 25.4846 50.5404 24.9731C50.4162 24.4606 50.2329 24.0219 49.9977 23.666C49.648 23.1388 48.9916 22.887 48.3653 23.0391L34.5184 26.4069C31.8739 27.05 26.1425 29.0251 22.7178 30.2051C21.9052 30.4851 21.2623 30.7063 20.8201 30.8554C18.6541 31.5856 6.18966 34.9027 4.39878 35.3785Z" fill="#371A45"/>
<path d="M21.531 36.7678C21.531 36.7678 27.8639 37.9488 33.1916 36.7678L33.2224 38.7133C33.2224 38.7133 27.8493 40.1116 21.8307 38.751L21.531 36.7678Z" fill="white"/>
<path d="M27.3447 39.6599C25.6582 39.6599 23.7394 39.5095 21.7597 39.062L21.5473 39.014L21.1479 36.3724L21.5887 36.4544C21.6514 36.466 27.9214 37.6093 33.1218 36.4566L33.5035 36.3719L33.5445 38.9586L33.302 39.0218C33.2655 39.0312 30.7903 39.6599 27.3447 39.6599ZM22.1125 38.4869C27.1868 39.581 31.8071 38.7024 32.899 38.4613L32.8785 37.1594C28.4445 38.0433 23.406 37.3861 21.911 37.154L22.1125 38.4869Z" fill="#371A45"/>
<path d="M42.3723 26.0324C42.3312 26.0366 42.2897 26.0326 42.2501 26.0207C42.2106 26.0089 42.1737 25.9893 42.1418 25.9632C42.1098 25.9371 42.0833 25.9049 42.0637 25.8685C42.0442 25.8321 42.032 25.7923 42.0279 25.7512L41.1195 16.7384C41.1154 16.6973 41.1194 16.6557 41.1313 16.6162C41.1432 16.5766 41.1628 16.5398 41.1889 16.5078C41.215 16.4759 41.2472 16.4493 41.2836 16.4298C41.32 16.4103 41.3599 16.3981 41.401 16.394C41.8321 16.3505 42.2675 16.3924 42.6824 16.5172C43.0973 16.6421 43.4835 16.8474 43.8191 17.1215C44.1546 17.3957 44.4329 17.7332 44.6379 18.1149C44.843 18.4965 44.9709 18.9149 45.0143 19.346L45.324 22.4193C45.3675 22.8504 45.3256 23.2858 45.2007 23.7006C45.0759 24.1155 44.8706 24.5017 44.5965 24.8372C44.3224 25.1727 43.9849 25.451 43.6032 25.656C43.2216 25.8611 42.8033 25.989 42.3723 26.0324Z" fill="white"/>
<path d="M42.3402 26.1055C42.2444 26.1054 42.152 26.0697 42.0811 26.0053C42.0101 25.9409 41.9656 25.8524 41.9563 25.757L41.0471 16.7448C41.0369 16.6428 41.0676 16.541 41.1324 16.4616C41.1973 16.3822 41.291 16.3318 41.3929 16.3215C41.8334 16.277 42.2784 16.3198 42.7024 16.4473C43.1264 16.5748 43.5211 16.7846 43.864 17.0647C44.2069 17.3448 44.4913 17.6897 44.7009 18.0797C44.9105 18.4697 45.0412 18.8971 45.0856 19.3377L45.3955 22.411C45.5819 24.2607 44.2287 25.9165 42.3792 26.1037C42.3665 26.1049 42.3533 26.1055 42.3402 26.1055ZM41.7379 16.4484C41.6278 16.4484 41.5178 16.454 41.4083 16.465C41.3766 16.4682 41.3458 16.4777 41.3177 16.4928C41.2896 16.508 41.2648 16.5285 41.2446 16.5533C41.2245 16.578 41.2095 16.6065 41.2004 16.6371C41.1913 16.6677 41.1883 16.6998 41.1916 16.7315L42.1 25.7441C42.1064 25.8081 42.1379 25.8668 42.1877 25.9075C42.2374 25.9482 42.3013 25.9674 42.3652 25.961C44.1356 25.7824 45.4308 24.198 45.2525 22.4266L44.9421 19.3522C44.8619 18.5575 44.49 17.8208 43.8982 17.2844C43.3063 16.7481 42.5366 16.4502 41.7379 16.4484Z" fill="#371A45"/>
<g opacity="0.35">
<path opacity="0.35" d="M45.1787 20.9772L45.3244 22.4185C45.4119 23.2891 45.1501 24.1589 44.5966 24.8365C44.043 25.5142 43.243 25.9443 42.3724 26.0323C42.2894 26.0405 42.2064 26.0155 42.1418 25.9626C42.0772 25.9098 42.0362 25.8334 42.0278 25.7504L41.7849 23.3546C41.815 23.4071 41.8597 23.4499 41.9135 23.4777C41.9673 23.5055 42.028 23.5172 42.0883 23.5114L42.3021 23.4892C42.983 23.4209 43.6258 23.1423 44.1412 22.6922C44.6567 22.242 45.0193 21.6427 45.1787 20.9772Z" fill="#371A45"/>
</g>
<path d="M42.3396 26.4353C42.1624 26.4347 41.9916 26.3685 41.8602 26.2495C41.7289 26.1304 41.6463 25.967 41.6283 25.7906L40.7191 16.778C40.7003 16.589 40.7572 16.4002 40.8774 16.2531C40.9976 16.106 41.1712 16.0126 41.3601 15.9932C42.3368 15.8949 43.3125 16.1885 44.0726 16.8095C44.8328 17.4305 45.3151 18.328 45.4136 19.3046L45.7234 22.378C45.9284 24.4075 44.4425 26.2271 42.412 26.4316C42.3879 26.4341 42.3638 26.4353 42.3396 26.4353ZM41.5284 16.7856L42.4192 25.6211C43.9638 25.4189 45.0817 24.0184 44.9243 22.4579L44.6141 19.3852C44.5386 18.6357 44.1742 17.9451 43.5981 17.4598C43.0219 16.9745 42.2794 16.7326 41.528 16.7856H41.5284Z" fill="#371A45"/>
<path d="M11.6518 19.3915C11.6929 19.3873 11.7344 19.3913 11.7739 19.4032C11.8135 19.4151 11.8503 19.4346 11.8823 19.4607C11.9143 19.4869 11.9408 19.519 11.9603 19.5554C11.9799 19.5918 11.9921 19.6317 11.9962 19.6728L12.9047 28.6856C12.9089 28.7267 12.9049 28.7682 12.893 28.8077C12.8811 28.8473 12.8615 28.8841 12.8354 28.9161C12.8092 28.9481 12.777 28.9746 12.7407 28.9941C12.7043 29.0137 12.6644 29.0259 12.6233 29.03C12.1922 29.0734 11.7568 29.0315 11.3419 28.9067C10.927 28.7819 10.5407 28.5765 10.2052 28.3024C9.86965 28.0283 9.5914 27.6907 9.38632 27.3091C9.18124 26.9274 9.05335 26.5091 9.00995 26.078L8.7002 23.0044C8.61256 22.1339 8.87428 21.2643 9.4278 20.5867C9.98132 19.9092 10.7813 19.4792 11.6518 19.3915Z" fill="white"/>
<path d="M12.2854 29.1191C11.4508 29.1174 10.6465 28.8062 10.028 28.2458C9.40952 27.6854 9.02085 26.9155 8.93713 26.0851L8.62738 23.0118C8.58293 22.5712 8.6257 22.1263 8.75324 21.7023C8.88079 21.2783 9.0906 20.8836 9.37071 20.5407C9.65081 20.1978 9.99572 19.9135 10.3857 19.7039C10.7757 19.4943 11.2032 19.3636 11.6437 19.3193C11.7457 19.3091 11.8476 19.3398 11.927 19.4046C12.0064 19.4695 12.0569 19.5632 12.0673 19.6651L12.9756 28.678C12.9859 28.78 12.9552 28.8819 12.8903 28.9614C12.8254 29.0408 12.7316 29.0912 12.6296 29.1015C12.5149 29.1132 12.4002 29.1191 12.2854 29.1191ZM11.6499 19.3915L11.6573 19.4632C10.8059 19.5495 10.0236 19.9704 9.48255 20.6333C8.94146 21.2963 8.68584 22.147 8.7719 22.9984L9.08166 26.0718C9.16749 26.9234 9.58808 27.7059 10.2509 28.2474C10.9137 28.7889 11.7645 29.0448 12.6161 28.959C12.6477 28.9559 12.6785 28.9465 12.7065 28.9315C12.7345 28.9164 12.7593 28.896 12.7794 28.8713C12.7996 28.8467 12.8146 28.8183 12.8238 28.7879C12.8329 28.7574 12.836 28.7254 12.8327 28.6937L11.9244 19.6809C11.9177 19.6171 11.886 19.5585 11.8364 19.5179C11.7867 19.4773 11.723 19.458 11.6591 19.464L11.6499 19.3915Z" fill="#371A45"/>
<g opacity="0.35">
<path opacity="0.35" d="M12.6545 26.1852L12.9062 28.6862C12.9143 28.7693 12.8892 28.8522 12.8363 28.9168C12.7835 28.9813 12.7072 29.0224 12.6241 29.0308C12.193 29.0744 11.7576 29.0325 11.3427 28.9077C10.9278 28.7829 10.5415 28.5776 10.206 28.3034C9.87053 28.0293 9.59233 27.6917 9.38735 27.31C9.18237 26.9283 9.05462 26.5099 9.01141 26.0788L8.88062 24.7838C9.1991 25.3323 9.66886 25.7773 10.2337 26.0658C10.7985 26.3542 11.4345 26.4738 12.0655 26.4103L12.3935 26.3773C12.4502 26.3715 12.5043 26.3507 12.5502 26.3169C12.5961 26.2831 12.6321 26.2376 12.6545 26.1852Z" fill="#371A45"/>
</g>
<path d="M12.2856 29.449C11.3694 29.4472 10.4864 29.1056 9.80743 28.4905C9.12848 27.8753 8.70179 27.0301 8.60991 26.1186L8.30015 23.0452C8.20174 22.0685 8.49533 21.0928 9.11633 20.3326C9.73732 19.5724 10.6349 19.09 11.6115 18.9915C11.8005 18.9728 11.9892 19.0298 12.1363 19.1499C12.2833 19.2701 12.3767 19.4436 12.3961 19.6326L13.3044 28.6454C13.3139 28.739 13.3048 28.8335 13.2777 28.9236C13.2506 29.0137 13.2061 29.0976 13.1466 29.1704C13.087 29.2433 13.0138 29.3037 12.9309 29.3482C12.848 29.3928 12.7572 29.4205 12.6636 29.4299C12.538 29.4426 12.4118 29.449 12.2856 29.449ZM11.6054 19.8005C10.8585 19.8987 10.1793 20.2839 9.71158 20.8744C9.2439 21.4649 9.02457 22.2143 9.10006 22.9638L9.40982 26.0372C9.56705 27.5976 10.9418 28.7467 12.4959 28.6368L11.6054 19.8005Z" fill="#371A45"/>
<path d="M27.0139 38.1477C35.5392 38.1477 42.4502 31.2367 42.4502 22.7114C42.4502 14.1862 35.5392 7.27515 27.0139 7.27515C18.4887 7.27515 11.5776 14.1862 11.5776 22.7114C11.5776 31.2367 18.4887 38.1477 27.0139 38.1477Z" fill="white"/>
<path d="M27.0077 38.2199C18.6654 38.2199 11.7594 31.5615 11.5121 23.1682C11.3891 19.0272 12.8879 15.0871 15.7294 12.073C18.5709 9.05887 22.4165 7.33174 26.5571 7.20956C35.1056 6.95577 42.2638 13.7068 42.5157 22.2545C42.7677 30.8022 36.0185 37.9612 27.4708 38.2132C27.3162 38.2177 27.1612 38.2199 27.0077 38.2199ZM27.02 7.34691C26.8675 7.34691 26.7149 7.34917 26.5614 7.35368C22.4593 7.47463 18.6498 9.18576 15.8346 12.1712C13.0193 15.1566 11.5355 19.0625 11.6565 23.1639C11.9061 31.632 18.9975 38.3167 27.4665 38.0688C35.9354 37.821 42.6209 30.727 42.3714 22.2588C42.1264 13.9442 35.2839 7.34712 27.02 7.34712V7.34691Z" fill="#371A45"/>
<g opacity="0.35">
<path opacity="0.35" d="M42.2327 20.1253C42.3527 20.8301 42.4233 21.5425 42.4439 22.2573C42.6938 30.7787 35.9896 37.8902 27.4686 38.1421C18.9476 38.394 11.8357 31.6879 11.5838 23.1666C11.5764 22.9206 11.575 22.6761 11.5795 22.4344C12.841 29.9146 19.4562 35.5074 27.2532 35.278C35.5292 35.0331 42.0902 28.3185 42.2327 20.1253Z" fill="black"/>
<path opacity="0.35" d="M27.0098 38.2205C18.6663 38.2205 11.7598 31.5611 11.5118 23.1682C11.5044 22.9204 11.5029 22.6727 11.5074 22.4325C11.5079 22.4145 11.5149 22.3973 11.5273 22.3842C11.5396 22.3712 11.5564 22.3632 11.5743 22.3617C11.5922 22.3608 11.6098 22.3663 11.6239 22.3774C11.638 22.3884 11.6476 22.4042 11.6509 22.4218C12.8928 29.7856 19.362 35.2118 26.8004 35.212C26.9505 35.212 27.1004 35.2099 27.2514 35.2054C35.4689 34.9627 42.018 28.3379 42.1609 20.124C42.1614 20.1061 42.1686 20.0891 42.1809 20.0762C42.1933 20.0633 42.21 20.0554 42.2278 20.054C42.2456 20.0527 42.2633 20.058 42.2774 20.0689C42.2915 20.0798 42.3012 20.0955 42.3044 20.1131C42.4246 20.8212 42.4954 21.5368 42.5164 22.2547C42.7671 30.8018 36.0179 37.961 27.471 38.2138C27.3166 38.2183 27.1627 38.2205 27.0098 38.2205ZM11.6573 23.2113C11.9322 31.6573 19.0141 38.3198 27.4663 38.0695C35.9328 37.8189 42.6201 30.7266 42.3716 22.259C42.3581 21.8044 42.3249 21.3509 42.272 20.904C42.0238 24.604 40.468 28.0691 37.844 30.7329C35.0279 33.5914 31.2674 35.2312 27.2547 35.3497C23.6491 35.4554 20.1193 34.3013 17.2726 32.0859C14.4258 29.8706 12.4401 26.7324 11.6569 23.2113H11.6573Z" fill="#371A45"/>
</g>
<path d="M42.4059 22.6546C42.5406 25.6722 41.6859 28.5176 40.114 30.9101C38.9354 32.7041 33.908 35.9757 27.535 36.3172C21.6261 36.6339 16.1069 33.7221 14.7735 32.0403C12.9947 29.797 11.8902 27.0383 11.7557 24.0215C11.3996 16.0357 18.1128 12.4185 26.5772 12.0419C35.0417 11.6654 42.0498 14.669 42.4059 22.6546Z" fill="#371A45"/>
<path d="M26.62 36.7435C20.8728 36.7435 15.7872 33.9658 14.4584 32.2899C12.5617 29.8976 11.4881 27.0446 11.3541 24.0393C11.1794 20.1217 12.6156 17.0309 15.623 14.853C18.247 12.9533 22.0276 11.8424 26.5591 11.6403C31.0906 11.4381 34.9559 12.2081 37.7378 13.8668C40.9269 15.7685 42.6327 18.7191 42.8074 22.6365C42.9413 25.642 42.1262 28.5792 40.4499 31.1308C39.2874 32.9006 34.3118 36.3565 27.5568 36.7185C27.243 36.7353 26.9302 36.7433 26.62 36.7435ZM27.9605 12.4125C27.5128 12.4125 27.0576 12.4227 26.595 12.4432C22.2209 12.6384 18.5899 13.6968 16.0945 15.5041C13.3198 17.5131 11.9945 20.3731 12.157 24.0034C12.2835 26.8388 13.2972 29.5314 15.0885 31.7905C16.2952 33.3127 21.2096 35.9389 26.6345 35.9393C26.9267 35.9393 27.2192 35.9317 27.5138 35.916C33.903 35.5734 38.7273 32.2893 39.7781 30.6895C41.3611 28.2799 42.1309 25.5077 42.0046 22.6723C41.8425 19.042 40.2679 16.3116 37.3261 14.5572C34.9598 13.1462 31.7419 12.4125 27.9605 12.4125Z" fill="#371A45"/>
<path d="M27.0078 38.5499C18.4882 38.5499 11.4354 31.7498 11.1818 23.1779C11.0574 18.9494 12.5869 14.9252 15.4889 11.847C18.3909 8.76868 22.3181 7.00486 26.5468 6.88022C35.2765 6.62377 42.5872 13.5157 42.8443 22.245C43.1014 30.9743 36.2089 38.2856 27.4793 38.5425C27.3229 38.5474 27.1645 38.5499 27.0078 38.5499ZM27.0201 7.67685C26.8707 7.67685 26.7215 7.6789 26.5712 7.68341C22.5571 7.8017 18.8294 9.47614 16.0752 12.3984C13.321 15.3207 11.8686 19.1405 11.9869 23.1546C12.231 31.4409 19.1709 37.9847 27.4574 37.7395C35.7439 37.4943 42.2867 30.5553 42.0425 22.269C41.8023 14.1325 35.1066 7.67706 27.0201 7.67706V7.67685Z" fill="#371A45"/>
<g opacity="0.5">
<path opacity="0.5" d="M39.3408 22.0594C39.5435 20.5643 38.8296 19.2333 37.7463 19.0864C36.6629 18.9395 35.6204 20.0325 35.4178 21.5276C35.2151 23.0226 35.929 24.3537 37.0123 24.5005C38.0956 24.6474 39.1382 23.5545 39.3408 22.0594Z" fill="white"/>
</g>
<g opacity="0.5">
<path opacity="0.5" d="M36.2319 27.5968C36.4188 26.9301 36.1065 26.2595 35.5343 26.0991C34.962 25.9387 34.3466 26.3492 34.1597 27.0159C33.9728 27.6827 34.2852 28.3532 34.8574 28.5136C35.4296 28.674 36.045 28.2636 36.2319 27.5968Z" fill="white"/>
</g>
<path d="M39.0931 15.3376C41.0462 17.0418 42.2622 19.4467 42.4057 22.6541C42.5404 25.6723 41.6851 28.5171 40.1144 30.9101C38.9355 32.704 33.9076 35.9754 27.5348 36.3178C25.2847 36.4389 23.0916 36.0923 21.1638 35.5207C28.9885 34.933 35.1114 30.9197 36.5728 28.6942C38.5681 25.6576 39.6526 22.0459 39.4814 18.2167C39.4416 17.247 39.3116 16.2832 39.0931 15.3376Z" fill="#220F2D"/>
<path d="M12.6062 17.5623C12.5335 17.5623 12.4621 17.5424 12.3997 17.505C12.3373 17.4676 12.2863 17.4139 12.252 17.3497C12.2177 17.2855 12.2015 17.2133 12.2051 17.1406C12.2086 17.0679 12.2319 16.9976 12.2723 16.9371C14.7091 12.9925 19.7566 10.6551 26.4872 10.3547C33.0853 10.0599 38.2646 11.8674 41.0758 15.443C41.1423 15.5178 41.1786 15.6148 41.1774 15.7149C41.1762 15.815 41.1377 15.9111 41.0694 15.9844C41.0012 16.0576 40.908 16.1027 40.8082 16.1109C40.7084 16.119 40.6092 16.0897 40.5299 16.0285C40.5021 16.0083 40.4775 15.9841 40.4569 15.9566C37.8136 12.5794 32.8649 10.8748 26.5231 11.1577C20.061 11.4461 15.2409 13.6519 12.9504 17.3692C12.9449 17.378 12.9393 17.3864 12.9332 17.3948L12.9246 17.4063C12.887 17.455 12.8388 17.4943 12.7836 17.5214C12.7284 17.5484 12.6677 17.5624 12.6062 17.5623ZM12.5857 17.1445L12.6062 17.1605L12.5857 17.1445Z" fill="#371A45"/>
<g opacity="0.5">
<path opacity="0.5" d="M15.4092 28.6183C15.4092 28.6183 12.5847 20.8509 16.6902 17.5223C20.7958 14.1937 26.9045 13.9348 26.7793 14.3321C26.7793 14.3321 20.0899 16.2706 17.6826 21.7346C15.8261 25.948 15.4092 28.6183 15.4092 28.6183Z" fill="white"/>
</g>
<g opacity="0.3">
<path opacity="0.3" d="M25.5444 54.5141C25.5286 54.8665 25.5118 55.2672 25.4934 55.7088C22.9391 55.6713 20.8725 55.4204 19.3955 55.1645C19.1716 55.1263 18.9615 55.0877 18.7651 55.0489C18.5047 55.3631 18.1699 55.6072 17.7911 55.759C17.6923 55.4447 17.5988 55.1153 17.5107 54.7707C17.4082 54.3691 17.3131 53.9466 17.2292 53.5026C17.1138 53.4716 17.0214 53.4454 16.9527 53.4253C16.853 53.3966 16.802 53.38 16.802 53.38L16.9902 51.943C16.9441 51.5516 16.9057 51.1459 16.8779 50.7267L17.1409 50.7913L18.7077 38.833L23.0684 38.4941C23.3378 38.9382 23.6199 39.0817 23.9881 40.0907C24.3882 41.1858 25.0258 42.4385 24.9206 44.0908C24.6927 47.6663 22.7464 49.5176 20.9619 51.731C20.4049 52.4204 19.8637 53.1455 19.3957 53.969C20.8819 54.2265 22.967 54.479 25.5444 54.5141Z" fill="#371A45"/>
</g>
<path d="M24.0436 43.2935C23.7281 48.2436 20.1184 49.8904 18.2031 53.7653C17.4811 55.2247 15.5699 55.5992 14.3346 54.5386C14.053 54.2945 13.7582 54.0662 13.4514 53.8547C11.5369 52.5556 9.94593 52.7786 7.56301 51.9021C7.51688 51.8853 7.47219 51.8646 7.42771 51.8438C6.62267 51.4771 6.21616 50.7305 6.19771 49.9708C6.17721 49.1444 6.61529 48.301 7.49679 47.9138C9.8711 46.8697 13.0919 45.2558 14.6134 43.6178C15.0014 43.2002 15.2796 42.7818 15.4047 42.3706C16.1714 39.8464 15.0562 36.9852 14.5918 35.9658C14.5772 35.9334 14.5722 35.8975 14.5774 35.8624C14.5826 35.8272 14.5979 35.7944 14.6214 35.7677C14.6448 35.741 14.6755 35.7217 14.7097 35.712C14.7439 35.7024 14.7801 35.7028 14.8141 35.7132C16.6935 36.2757 18.5098 36.1706 19.7015 35.9848C20.226 35.9029 20.7631 35.97 21.2514 36.1785C21.7397 36.387 22.1596 36.7284 22.4632 37.164C22.9446 37.8557 23.4427 38.7954 23.7535 39.9998C23.7957 40.1623 23.8355 40.3296 23.8691 40.5026C24.0341 41.3214 24.1098 42.2507 24.0436 43.2935Z" fill="#5F5272"/>
<g opacity="0.3">
<path opacity="0.3" d="M23.8692 40.5021C23.4508 40.8463 22.6314 41.3149 21.0516 41.723C19.9104 42.018 19.8331 42.6455 19.8331 42.6455C19.8331 42.6455 19.3821 41.4604 20.1265 41.2476C21.043 40.9846 22.2704 40.8817 22.821 40.4975C23.0547 40.3335 23.418 40.1517 23.7536 39.9988C23.7958 40.1618 23.8349 40.329 23.8692 40.5021Z" fill="white"/>
</g>
<g opacity="0.3">
<path opacity="0.3" d="M16.5432 43.5481C16.5432 43.5481 15.3564 46.0237 10.3304 47.809C8.00553 48.6346 6.74478 49.2883 6.19722 49.9712C6.17672 49.1448 6.61481 48.3014 7.49631 47.9142C9.87062 46.8701 13.0914 45.2562 14.6129 43.6182L16.5432 43.5481Z" fill="#371A45"/>
</g>
<g opacity="0.3">
<path opacity="0.3" d="M22.7375 37.584C22.4044 37.2418 21.9942 36.9844 21.5413 36.8333C21.0883 36.6822 20.6057 36.6417 20.134 36.7154C18.8771 36.9122 16.9601 37.0229 14.978 36.4284C14.9485 36.4192 14.9172 36.4171 14.8867 36.4224C14.8562 36.4276 14.8274 36.4401 14.8027 36.4588C14.7254 36.2658 14.6529 36.1 14.5924 35.9668C14.5777 35.9344 14.5727 35.8985 14.5779 35.8634C14.5832 35.8282 14.5984 35.7953 14.6219 35.7687C14.6454 35.742 14.676 35.7227 14.7102 35.713C14.7444 35.7033 14.7807 35.7038 14.8146 35.7142C16.6941 36.2767 18.5104 36.1715 19.702 35.9858C20.2264 35.9038 20.7633 35.9708 21.2516 36.1791C21.7398 36.3874 22.1596 36.7287 22.4634 37.164C22.5551 37.295 22.6464 37.435 22.7375 37.584Z" fill="white"/>
</g>
<path d="M15.9645 55.4654C15.2897 55.4653 14.6374 55.2225 14.1267 54.7813C13.8544 54.545 13.5691 54.3239 13.2723 54.1192C12.1558 53.3607 11.1515 53.1448 9.98857 52.8937C9.24544 52.7334 8.40351 52.5518 7.45333 52.2022C7.40249 52.1836 7.35309 52.1612 7.30348 52.1387C6.41439 51.7336 5.87114 50.8769 5.8775 49.8991C5.88426 48.8958 6.45519 48.0235 7.36764 47.6223C11.9133 45.6232 14.6591 43.7255 15.0986 42.2788C15.827 39.8821 14.7835 37.1583 14.3009 36.0985C14.2608 36.0103 14.247 35.9125 14.261 35.8167C14.2751 35.7208 14.3165 35.6311 14.3803 35.5582C14.4441 35.4853 14.5276 35.4324 14.6207 35.4058C14.7138 35.3791 14.8126 35.3799 14.9053 35.408C16.7388 35.9572 18.5157 35.8512 19.6834 35.6653C20.8398 35.4808 22.0258 35.9869 22.7049 36.9529C23.5676 38.1798 24.555 40.2794 24.3617 43.3143C24.1567 46.5371 22.6313 48.3669 21.017 50.3048C20.115 51.388 19.1808 52.5079 18.4889 53.9076C18.3006 54.2907 18.0267 54.6252 17.6883 54.8854C17.35 55.1456 16.9563 55.3244 16.5377 55.408C16.3491 55.4464 16.157 55.4657 15.9645 55.4654ZM14.542 54.2969C14.7953 54.5158 15.0955 54.6734 15.4195 54.7575C15.7435 54.8417 16.0824 54.8501 16.4102 54.7822C16.7334 54.7177 17.0375 54.5797 17.2989 54.3788C17.5602 54.178 17.7718 53.9197 17.9174 53.6239C18.6426 52.1565 19.6006 51.0069 20.527 49.8954C22.0731 48.0403 23.5333 46.2874 23.725 43.2739C23.9066 40.4244 22.987 38.4631 22.1828 37.3196C21.6428 36.5513 20.7002 36.1495 19.7843 36.2946C18.609 36.4816 16.847 36.5915 14.9977 36.0964C15.5404 37.3652 16.4455 40.042 15.7093 42.4639C15.0754 44.5498 10.9631 46.7376 7.62492 48.2056C6.94575 48.5042 6.52079 49.1545 6.51587 49.903C6.51095 50.6369 6.90147 51.2541 7.56014 51.5542C7.6038 51.5747 7.63824 51.5903 7.67412 51.6034C8.58206 51.9374 9.36578 52.1065 10.1237 52.2701C11.3006 52.5241 12.4121 52.7639 13.631 53.5913C13.9478 53.8095 14.2521 54.0452 14.5426 54.2973L14.542 54.2969Z" fill="#371A45"/>
<path d="M16.471 43.6055C8.95628 44.7094 6.0791 36.9668 6.0791 36.9668L13.5067 35.3446C13.5067 35.3446 14.6588 37.247 17.0579 37.9094" fill="#5F5272"/>
<g opacity="0.3">
<path opacity="0.3" d="M17.0578 37.9094L16.9963 38.4934C14.2754 37.9085 12.6708 36.0777 12.2971 35.6082L13.5054 35.3446C13.5054 35.3446 14.6589 37.247 17.0578 37.9094Z" fill="white"/>
</g>
<g opacity="0.3">
<path opacity="0.3" d="M16.4714 43.6056C8.95628 44.7095 6.0791 36.9665 6.0791 36.9665L7.80397 36.5895C8.58523 38.1985 10.9983 42.2348 15.6842 42.6448C16.1682 42.687 16.5212 43.1224 16.4714 43.6056Z" fill="#371A45"/>
</g>
<path d="M16.4864 43.7107C16.3541 43.7707 16.2179 43.8217 16.0788 43.8634C15.9422 43.9102 15.8018 43.9451 15.6592 43.9675C15.5173 43.9901 15.3747 44.01 15.2314 44.0237C15.1599 44.0325 15.0879 44.0366 15.0159 44.036L14.7996 44.0393C14.2219 44.0543 13.6455 43.9573 13.084 43.8261L12.6643 43.7185C12.5258 43.6775 12.3892 43.6307 12.2513 43.5883C12.1828 43.5655 12.1127 43.5473 12.0463 43.5206L11.8446 43.4417C11.7111 43.3868 11.5733 43.3417 11.4444 43.2767L11.0526 43.0922L10.673 42.8854C10.5444 42.8195 10.427 42.7367 10.304 42.6623L10.1211 42.5477L9.94482 42.4247C8.99731 41.7699 8.1851 40.9438 7.49158 40.0408C7.14595 39.5879 6.82895 39.1139 6.54243 38.6216C6.40098 38.3745 6.26302 38.1255 6.13694 37.8694C6.07339 37.7417 6.01169 37.613 5.95244 37.4822C5.8932 37.3514 5.83744 37.2239 5.78147 37.0779L5.64966 36.7347L6.0123 36.6554L13.4399 35.0332L13.6561 34.9861L13.7808 35.1796C13.8193 35.2395 13.8716 35.3165 13.9243 35.3846C13.977 35.4527 14.0315 35.5232 14.0862 35.5921C14.1992 35.7278 14.3175 35.8598 14.4417 35.9865C14.6889 36.2413 14.9589 36.473 15.2484 36.6786C15.5395 36.8819 15.8548 37.042 16.1635 37.2116C16.471 37.3897 16.7836 37.5424 17.0882 37.8081L17.0936 37.8126C17.1103 37.8272 17.1225 37.8463 17.1286 37.8676C17.1347 37.8889 17.1345 37.9116 17.128 37.9328C17.1215 37.954 17.1089 37.9728 17.0919 37.9871C17.0749 38.0013 17.0541 38.0103 17.0321 38.0129C16.6247 38.0611 16.2291 37.9742 15.8712 37.8141C15.6867 37.7415 15.5192 37.6392 15.3511 37.5381C15.2691 37.4856 15.1895 37.4268 15.1088 37.3715L14.9882 37.2876L14.872 37.1982C14.7137 37.0834 14.5631 36.9594 14.4128 36.8348L14.1959 36.6382C14.1242 36.5722 14.0565 36.5016 13.9868 36.4332C13.8501 36.2941 13.7192 36.1489 13.594 35.9978C13.5325 35.9207 13.471 35.845 13.4122 35.7647C13.3534 35.6843 13.2982 35.6076 13.2365 35.5105L13.5772 35.6568L6.14965 37.279L6.38048 36.8565C6.42415 36.9703 6.47991 37.0992 6.53464 37.2202C6.58938 37.3411 6.64862 37.4647 6.70889 37.5859C6.82841 37.829 6.96022 38.0664 7.09491 38.302C7.36781 38.7714 7.66982 39.2233 7.99916 39.655C8.65844 40.5135 9.42596 41.2925 10.3105 41.9032C11.1896 42.5182 12.1805 42.9735 13.2279 43.1908C13.7533 43.2886 14.285 43.3492 14.8189 43.3722C15.0854 43.3989 15.3544 43.3899 15.6262 43.4132C15.898 43.4366 16.1715 43.4401 16.4581 43.5018L16.4657 43.5034C16.4884 43.5083 16.5089 43.5202 16.5245 43.5374C16.5401 43.5547 16.5498 43.5764 16.5524 43.5994C16.5549 43.6225 16.5502 43.6458 16.5388 43.666C16.5274 43.6862 16.5099 43.7024 16.4888 43.7121L16.4864 43.7107Z" fill="#371A45"/>
<path d="M19.6041 51.8671C19.5714 51.867 19.5389 51.862 19.5077 51.8521C19.4678 51.8395 19.4308 51.8191 19.3987 51.7922C19.3667 51.7652 19.3403 51.7322 19.321 51.6951C19.3017 51.6579 19.2899 51.6173 19.2863 51.5756C19.2827 51.5339 19.2874 51.4919 19.3 51.452C20.6965 47.0412 20.0104 44.5138 19.6004 43.0037C19.3925 42.238 19.2551 41.7327 19.5141 41.3346C19.6811 41.0784 19.9733 40.9312 20.4612 40.8572C22.9312 40.4824 23.406 39.6464 23.4105 39.6382C23.428 39.6005 23.4528 39.5666 23.4835 39.5385C23.5142 39.5104 23.5502 39.4886 23.5894 39.4745C23.6285 39.4604 23.6701 39.4542 23.7116 39.4562C23.7532 39.4582 23.794 39.4685 23.8316 39.4863C23.9083 39.523 23.9675 39.5884 23.9963 39.6684C24.0251 39.7485 24.0211 39.8366 23.9853 39.9138C23.932 40.0296 23.3814 41.0589 20.5567 41.4875C20.2799 41.5285 20.1043 41.597 20.0483 41.6827C19.9458 41.8408 20.0706 42.3022 20.2158 42.8366C20.6159 44.3108 21.3609 47.0549 19.9083 51.6445C19.8878 51.7091 19.8473 51.7655 19.7926 51.8056C19.7379 51.8456 19.6718 51.8672 19.6041 51.8671Z" fill="#371A45"/>
<path d="M16.0231 46.9697C15.3285 47.4207 13.8798 48.2251 11.5584 48.9016C11.4861 48.923 11.4189 48.9588 11.3608 49.0069C11.3028 49.055 11.2551 49.1145 11.2207 49.1816C11.1863 49.2487 11.1659 49.322 11.1607 49.3973C11.1556 49.4725 11.1657 49.548 11.1906 49.6191L11.4442 50.3514C11.489 50.4816 11.5804 50.5906 11.7009 50.6572C11.8213 50.7239 11.9622 50.7436 12.0963 50.7124C12.8355 50.5382 14.4247 50.0521 17.0061 48.7258C17.0723 48.6919 17.1311 48.6451 17.179 48.5882C17.2269 48.5313 17.2629 48.4655 17.285 48.3944C17.3071 48.3234 17.3147 48.2487 17.3075 48.1747C17.3003 48.1006 17.2784 48.0288 17.243 47.9634L16.816 47.1731C16.7796 47.1054 16.7295 47.0459 16.6689 46.9985C16.6083 46.9511 16.5386 46.9168 16.4641 46.8977C16.3896 46.8786 16.312 46.8751 16.236 46.8875C16.1601 46.8999 16.0876 46.9279 16.0231 46.9697Z" fill="white"/>
<g opacity="0.3">
<path opacity="0.3" d="M17.0062 48.726C14.4246 50.0521 12.8354 50.5384 12.0966 50.712C11.9624 50.7433 11.8214 50.7237 11.7008 50.6571C11.5802 50.5904 11.4886 50.4813 11.4437 50.351L11.1903 49.6194C11.1655 49.5481 11.1555 49.4726 11.1608 49.3973C11.1661 49.3221 11.1866 49.2487 11.2211 49.1816C11.2556 49.1145 11.3034 49.0551 11.3615 49.007C11.4197 48.9589 11.4869 48.9232 11.5593 48.9019C11.6501 48.8756 11.7403 48.8484 11.8287 48.8213L12.0542 49.474C12.0991 49.6041 12.1905 49.7129 12.3109 49.7794C12.4313 49.846 12.5721 49.8656 12.7061 49.8344C13.4115 49.6686 14.8922 49.2176 17.2712 48.0228C17.3227 48.152 17.324 48.2957 17.2749 48.4258C17.2259 48.5558 17.1301 48.6629 17.0062 48.726Z" fill="#371A45"/>
</g>
<path d="M11.9678 51.0457C11.7859 51.0454 11.6087 50.9883 11.4608 50.8825C11.313 50.7766 11.2018 50.6273 11.1428 50.4553L10.8893 49.723C10.8506 49.6106 10.835 49.4914 10.8436 49.3728C10.8522 49.2542 10.8846 49.1385 10.9391 49.0328C10.9928 48.9275 11.0676 48.8344 11.1588 48.7592C11.25 48.6841 11.3556 48.6284 11.4692 48.5957C13.7769 47.9233 15.2043 47.121 15.8498 46.7024C15.9512 46.6368 16.0651 46.5929 16.1843 46.5734C16.3034 46.554 16.4253 46.5594 16.5423 46.5894C16.6593 46.6193 16.7688 46.6732 16.864 46.7475C16.9591 46.8219 17.0378 46.9151 17.0952 47.0213L17.5233 47.811C17.5789 47.9138 17.6134 48.0266 17.6248 48.1429C17.6362 48.2592 17.6242 48.3766 17.5896 48.4882C17.5549 48.5998 17.4984 48.7034 17.4231 48.7928C17.3479 48.8823 17.2556 48.9558 17.1516 49.009C14.5262 50.3579 12.9032 50.8493 12.1701 51.0221C12.1038 51.0378 12.0359 51.0458 11.9678 51.0457ZM16.1965 47.2374C15.5216 47.6749 14.0333 48.5127 11.6478 49.2079C11.6172 49.2167 11.5889 49.2317 11.5644 49.2519C11.5399 49.2722 11.5199 49.2972 11.5055 49.3255C11.4904 49.3544 11.4814 49.386 11.479 49.4185C11.4767 49.451 11.481 49.4836 11.4918 49.5143L11.7453 50.2466C11.7642 50.3023 11.8031 50.3489 11.8544 50.3776C11.9057 50.4062 11.9658 50.4147 12.0231 50.4016C12.7285 50.2353 14.2951 49.7597 16.8611 48.4418C16.8898 48.4272 16.9153 48.407 16.936 48.3823C16.9567 48.3577 16.9722 48.3291 16.9816 48.2983C16.9912 48.2679 16.9946 48.2359 16.9915 48.2042C16.9884 48.1725 16.9789 48.1417 16.9636 48.1138L16.5356 47.3241C16.52 47.2949 16.4984 47.2693 16.4723 47.2489C16.4462 47.2286 16.4162 47.2139 16.3841 47.2058C16.3525 47.1977 16.3196 47.1962 16.2875 47.2014C16.2553 47.2067 16.2246 47.2186 16.1973 47.2364L16.1965 47.2374Z" fill="#371A45"/>
<g opacity="0.3">
<path opacity="0.3" d="M38.7788 52.8635C38.7269 52.877 38.6744 52.8907 38.6226 52.9045C37.7914 53.1173 36.9776 53.3053 36.1812 53.4686C36.0984 53.9072 36.0065 54.3246 35.9055 54.7208C35.7434 55.3613 35.5479 55.9928 35.3198 56.6129L34.2948 56.7868C33.0253 57.001 31.8348 56.4313 31.1268 55.4524C30.944 55.4717 30.7625 55.4898 30.5823 55.5067C29.6514 55.5943 28.7596 55.6502 27.9085 55.6828C27.89 55.2404 27.8734 54.8397 27.8574 54.4889C28.7238 54.4578 29.6331 54.4003 30.5823 54.3112C30.4813 53.9356 30.4415 53.5461 30.4644 53.1578C30.4819 52.8606 30.4936 52.5445 30.4995 52.2095C30.529 50.5748 30.4175 48.481 30.0485 45.8158C29.3742 40.9247 30.9181 39.3919 31.8092 38.0578C31.8987 37.9233 31.9963 37.7945 32.1015 37.6719L36.6702 37.2759L38.7788 52.8635Z" fill="#371A45"/>
</g>
<path d="M40.3149 54.9725L35.2514 55.8292C33.1665 56.1816 31.2949 54.4177 31.4209 52.2007C31.5206 50.452 31.4482 48.0705 31.0058 44.8586C30.3316 39.9673 31.6665 38.4011 32.5575 37.067C33.1895 36.1209 34.276 35.6277 35.3606 35.8093C36.5921 36.0143 38.4873 36.1373 40.4487 35.5192C40.6066 35.469 40.7476 35.6365 40.6792 35.7941C40.4018 36.4349 40.1625 37.7031 40.0104 39.2125C39.8995 40.3164 39.8358 41.5495 39.8382 42.7625C39.8454 46.3705 40.9979 49.6685 41.9862 51.8347C42.0333 51.9373 42.0722 52.0434 42.1025 52.1521C42.4629 53.4087 41.6523 54.7462 40.3149 54.9725Z" fill="#5F5272"/>
<g opacity="0.3">
<path opacity="0.3" d="M31.2126 39.5706C31.2126 39.5706 31.394 40.3988 33.1129 40.9117C34.8318 41.4246 35.1974 41.047 35.0268 41.918C34.8562 42.7891 34.4602 43.2765 34.4602 43.2765C34.4602 43.2765 34.6242 42.0466 34.1982 41.8815C33.7722 41.7165 31.7819 41.6402 31.0275 40.5695C30.7593 40.188 31.2126 39.5706 31.2126 39.5706Z" fill="white"/>
</g>
<g opacity="0.3">
<path opacity="0.3" d="M40.4368 36.5491C38.4299 37.0983 36.5213 36.9683 35.2554 36.7563C34.0703 36.5579 32.8836 37.0975 32.1942 38.1298C31.8602 38.6294 31.4689 39.1604 31.1282 39.857C31.4843 38.5513 32.0829 37.7766 32.557 37.0673C33.189 36.1212 34.2755 35.628 35.3602 35.8096C36.5916 36.0146 38.4869 36.1376 40.4483 35.5196C40.6061 35.4693 40.7472 35.6368 40.6787 35.7945C40.5938 35.9903 40.5125 36.2461 40.4368 36.5491Z" fill="white"/>
</g>
<path d="M34.7224 56.1921C33.863 56.1921 33.0268 55.8732 32.3628 55.2791C31.4942 54.5013 31.0348 53.3726 31.1027 52.1823C31.2173 50.1733 31.0783 47.7232 30.6896 44.902C30.041 40.1941 31.2431 38.4291 32.1226 37.1403C32.1804 37.0552 32.2372 36.972 32.2923 36.8898C32.9922 35.8422 34.2177 35.2949 35.413 35.4958C36.6203 35.6977 38.4573 35.8131 40.3525 35.2159C40.4451 35.1863 40.5443 35.1842 40.638 35.2099C40.7318 35.2355 40.816 35.2879 40.8806 35.3607C40.9477 35.4357 40.992 35.5285 41.0081 35.6279C41.0242 35.7274 41.0114 35.8293 40.9714 35.9217C40.5095 36.989 40.1514 39.9941 40.1571 42.7632C40.1641 46.3286 41.3133 49.593 42.2762 51.7039C42.4379 52.0611 42.5154 52.4508 42.5028 52.8427C42.4901 53.2347 42.3876 53.6185 42.2032 53.9646C42.0188 54.3107 41.7574 54.6098 41.4391 54.8389C41.1208 55.068 40.7542 55.221 40.3675 55.286L35.304 56.1425C35.1118 56.1753 34.9173 56.1919 34.7224 56.1921ZM34.9212 36.0915C34.1012 36.0915 33.3073 36.5185 32.8224 37.244C32.7663 37.3278 32.7086 37.4128 32.6494 37.4992C31.7837 38.7702 30.7062 40.3504 31.3212 44.8151C31.7154 47.6769 31.8561 50.1678 31.7392 52.2186C31.6824 53.2141 32.0647 54.1565 32.7882 54.8039C33.4559 55.4017 34.3343 55.6606 35.198 55.5146L40.2615 54.6581C40.5521 54.6095 40.8276 54.4947 41.0668 54.3227C41.306 54.1507 41.5026 53.926 41.6412 53.666C41.7799 53.406 41.857 53.1177 41.8665 52.8232C41.8761 52.5287 41.8179 52.236 41.6965 51.9675C40.7073 49.7994 39.5267 46.4428 39.5198 42.763C39.5144 40.047 39.8431 37.1901 40.2971 35.8971C38.3701 36.448 36.5317 36.3276 35.3081 36.1226C35.1802 36.1017 35.0508 36.0913 34.9212 36.0915Z" fill="#371A45"/>
<path d="M38.1359 46.9292C38.3739 47.7451 39.0738 49.9033 40.1804 51.3141C40.2155 51.3584 40.2391 51.4108 40.2489 51.4665C40.2587 51.5222 40.2544 51.5795 40.2365 51.6332C40.2185 51.6868 40.1875 51.7351 40.1462 51.7737C40.1048 51.8123 40.0545 51.84 39.9998 51.8543L38.5615 52.2276C38.5109 52.241 38.4579 52.2424 38.4066 52.2317C38.3554 52.221 38.3073 52.1986 38.2663 52.1661C37.8534 51.8356 36.6482 50.6229 36.181 47.449C36.1688 47.3673 36.1866 47.2839 36.2311 47.2142C36.2756 47.1446 36.3438 47.0934 36.4231 47.0702L37.7146 46.6969C37.8013 46.6719 37.8943 46.6824 37.9733 46.7259C38.0523 46.7695 38.1108 46.8426 38.1359 46.9292Z" fill="white"/>
<g opacity="0.3">
<path opacity="0.3" d="M42.1022 52.1519C41.2224 52.4184 40.1137 52.4699 38.7669 52.2386L37.6494 48.2161C37.6494 48.2161 40.2189 47.4199 39.0887 45.1883L39.586 38.7158C39.586 38.7158 39.7464 38.8944 40.0102 39.2123C39.8993 40.3163 39.8355 41.5493 39.838 42.7623C39.8452 46.3703 40.9977 49.6684 41.986 51.8346C42.0331 51.9371 42.0719 52.0432 42.1022 52.1519Z" fill="#371A45"/>
</g>
<path d="M38.8021 44.3543C39.932 46.5859 37.6492 47.26 37.6492 47.26L39.5054 51.5607C43.5685 51.1187 45.475 49.1048 44.409 45.6919C43.1819 41.7641 39.5872 37.7584 39.5872 37.7584L38.8021 44.3543Z" fill="#5F5272"/>
<g opacity="0.3">
<path opacity="0.3" d="M39.5058 51.5606L38.7678 49.8494C42.7059 49.1592 44.4873 46.9483 43.3697 43.3737C43.3299 43.2453 43.2877 43.1178 43.243 42.9895C43.71 43.8605 44.1245 44.7779 44.409 45.6922C45.475 49.1049 43.5685 51.119 39.5058 51.5606Z" fill="#371A45"/>
</g>
<path d="M38.897 44.3064C39.1225 44.5425 39.2822 44.8394 39.3714 45.1741C39.4614 45.5273 39.4399 45.8997 39.3099 46.2401C39.1771 46.5886 38.936 46.8807 38.6605 47.0939C38.524 47.1997 38.3781 47.2927 38.2246 47.3717C38.1486 47.4103 38.0719 47.4472 37.993 47.4798L37.8731 47.5271C37.8302 47.5431 37.7958 47.5556 37.7404 47.5724L37.9469 47.1319C38.0972 47.4923 38.25 47.8514 38.4052 48.2094L38.8691 49.2846L39.7974 51.435L39.4694 51.2444C40.2152 51.1595 40.9554 51.0232 41.6508 50.779C42.3462 50.5349 42.9991 50.1882 43.4944 49.6868C43.739 49.4379 43.9399 49.1496 44.0889 48.834C44.2373 48.5201 44.3211 48.178 44.3582 47.826C44.43 47.1204 44.2992 46.389 44.0673 45.6866L43.8828 45.1557C43.8213 44.9786 43.7414 44.8072 43.6717 44.6325L43.5639 44.3716L43.4437 44.1151C43.3617 43.9447 43.2842 43.7727 43.2 43.6026C42.8568 42.9279 42.4769 42.2701 42.0725 41.6262C41.6613 40.9864 41.232 40.3572 40.7724 39.7492C40.6541 39.6 40.536 39.4505 40.413 39.305C40.29 39.1594 40.1775 39.0061 40.0645 38.8529C39.8433 38.5424 39.6356 38.2216 39.5061 37.8298L39.5051 37.8265C39.4981 37.8051 39.4975 37.7821 39.5035 37.7604C39.5095 37.7387 39.5218 37.7192 39.5388 37.7044C39.5558 37.6896 39.5767 37.6802 39.5991 37.6772C39.6214 37.6743 39.6441 37.678 39.6643 37.6879C40.0428 37.8737 40.3273 38.1443 40.5856 38.4352C40.8439 38.7261 41.0629 39.0487 41.2881 39.3652C41.7478 39.9911 42.1924 40.6287 42.6112 41.2847C43.0247 41.9439 43.415 42.6194 43.7695 43.3162C43.8566 43.4913 43.9378 43.6696 44.0222 43.8463L44.1467 44.1128L44.2594 44.3849C44.3324 44.5673 44.4144 44.7457 44.4798 44.9316L44.6743 45.4904C44.9218 46.2442 45.0761 47.0607 44.9923 47.8908C44.949 48.3037 44.8488 48.7186 44.6674 49.1003C44.4879 49.4821 44.2454 49.8309 43.9499 50.1321C43.3584 50.7292 42.6155 51.116 41.8617 51.3795C41.1032 51.646 40.3205 51.7874 39.5393 51.8766L39.3058 51.9033L39.2119 51.6859L38.2839 49.5357L37.8198 48.4605C37.6664 48.1016 37.5098 47.744 37.3499 47.3877L37.2043 47.063L37.5563 46.9472C37.5735 46.9416 37.6107 46.9279 37.6383 46.9166C37.666 46.9054 37.6998 46.8912 37.7296 46.8773C37.7911 46.8494 37.8495 46.8176 37.9079 46.785C38.0224 46.7192 38.131 46.6438 38.2326 46.5595C38.4315 46.3937 38.5891 46.2012 38.6863 45.9839C38.7375 45.8744 38.7721 45.7579 38.7888 45.6382C38.8097 45.5121 38.8175 45.3841 38.812 45.2563C38.8093 44.9898 38.7568 44.7067 38.7066 44.4009V44.4005C38.7042 44.3861 38.7047 44.3714 38.708 44.3572C38.7113 44.343 38.7174 44.3296 38.7259 44.3178C38.7344 44.3059 38.7451 44.2959 38.7575 44.2882C38.7699 44.2805 38.7836 44.2753 38.798 44.2729C38.816 44.2701 38.8344 44.2716 38.8516 44.2774C38.8689 44.2833 38.8845 44.2932 38.897 44.3064Z" fill="#371A45"/>
<path d="M38.1359 46.9292C38.3739 47.7451 39.0738 49.9033 40.1804 51.3141C40.2155 51.3584 40.2391 51.4108 40.2489 51.4665C40.2587 51.5222 40.2544 51.5795 40.2365 51.6332C40.2185 51.6868 40.1875 51.7351 40.1462 51.7737C40.1048 51.8123 40.0545 51.84 39.9998 51.8543L38.5615 52.2276C38.5109 52.241 38.4579 52.2424 38.4066 52.2317C38.3554 52.221 38.3073 52.1986 38.2663 52.1661C37.8534 51.8356 36.6482 50.6229 36.181 47.449C36.1688 47.3673 36.1866 47.2839 36.2311 47.2142C36.2756 47.1446 36.3438 47.0934 36.4231 47.0702L37.7146 46.6969C37.8013 46.6719 37.8943 46.6824 37.9733 46.7259C38.0523 46.7695 38.1108 46.8426 38.1359 46.9292Z" fill="white"/>
<g opacity="0.3">
<path opacity="0.3" d="M39.9999 51.8545L38.5614 52.2276C38.5107 52.2408 38.4576 52.2422 38.4063 52.2315C38.355 52.2208 38.3068 52.1985 38.2656 52.1661C37.8527 51.8352 36.6477 50.6223 36.1807 47.4484C36.1686 47.3668 36.1864 47.2835 36.2309 47.2139C36.2754 47.1443 36.3436 47.0932 36.4228 47.07L36.473 47.0557C37.0048 49.6825 38.0515 50.7299 38.4306 51.0327C38.4715 51.0653 38.5195 51.0878 38.5708 51.0985C38.622 51.1092 38.675 51.1077 38.7256 51.0942L39.8205 50.8096C39.9353 50.9851 40.0548 51.154 40.1801 51.3133C40.2154 51.3576 40.2391 51.4101 40.249 51.4659C40.259 51.5217 40.2548 51.579 40.2369 51.6328C40.219 51.6866 40.1879 51.735 40.1465 51.7738C40.1051 51.8125 40.0547 51.8402 39.9999 51.8545Z" fill="#371A45"/>
</g>
<path d="M38.4759 52.5572C38.327 52.5576 38.1825 52.5074 38.0659 52.4149C37.5624 52.0119 36.34 50.7259 35.8646 47.4949C35.8416 47.3369 35.8763 47.176 35.9625 47.0416C36.0486 46.9073 36.1803 46.8085 36.3334 46.7634L37.6249 46.3901C37.7927 46.3421 37.9726 46.3624 38.1254 46.4466C38.2783 46.5308 38.3916 46.672 38.4406 46.8395C38.6838 47.673 39.3644 49.7585 40.4291 51.1168C40.497 51.2028 40.5423 51.3043 40.561 51.4122C40.5797 51.52 40.5713 51.6309 40.5364 51.7347C40.5015 51.8385 40.4413 51.9319 40.3612 52.0066C40.2812 52.0813 40.1837 52.1348 40.0778 52.1623L38.6395 52.5356C38.5861 52.5496 38.5311 52.5569 38.4759 52.5572ZM37.8088 47.0017C37.8068 47.0015 37.8049 47.0015 37.8029 47.0017L36.5114 47.375C36.5062 47.3768 36.5018 47.3804 36.499 47.3852C36.4963 47.39 36.4954 47.3956 36.4964 47.401C36.9513 50.492 38.1186 51.6379 38.4644 51.9157C38.4668 51.9171 38.4695 51.918 38.4723 51.9183C38.4751 51.9186 38.4779 51.9184 38.4806 51.9176L39.9189 51.5442C39.9222 51.5437 39.9253 51.5422 39.9278 51.5399C39.9303 51.5377 39.9321 51.5348 39.933 51.5315C39.9344 51.5278 39.9347 51.5238 39.9339 51.5199C39.9332 51.516 39.9314 51.5124 39.9287 51.5094C38.7947 50.0637 38.0825 47.886 37.8289 47.017C37.8274 47.0127 37.8246 47.0089 37.8209 47.0062C37.8171 47.0036 37.8126 47.0022 37.808 47.0023L37.8088 47.0017Z" fill="#371A45"/>
<path d="M31.4363 52.2234C31.4226 52.2235 31.4089 52.2226 31.3953 52.221C31.3537 52.2157 31.3136 52.2024 31.2773 52.1816C31.2409 52.1609 31.209 52.1332 31.1833 52.1001C31.1576 52.067 31.1388 52.0292 31.1277 51.9888C31.1167 51.9484 31.1137 51.9062 31.1189 51.8647C31.5699 48.2909 32.9623 45.6241 33.8832 43.8594C34.3907 42.8863 34.8702 41.9671 34.7208 41.6725C34.6654 41.5634 34.4629 41.5116 34.3028 41.488C31.48 41.0598 30.9252 40.0454 30.8713 39.9312C30.8529 39.8936 30.8421 39.8528 30.8395 39.811C30.8369 39.7692 30.8425 39.7273 30.8561 39.6877C30.8697 39.6481 30.8909 39.6115 30.9186 39.5801C30.9463 39.5488 30.98 39.5231 31.0176 39.5047C31.0552 39.4863 31.096 39.4755 31.1378 39.4729C31.1796 39.4703 31.2215 39.4759 31.2611 39.4895C31.3007 39.5031 31.3373 39.5244 31.3687 39.5521C31.4 39.5798 31.4257 39.6134 31.4441 39.651C31.4619 39.6815 31.9621 40.488 34.3985 40.8576C34.853 40.9265 35.1443 41.0989 35.2893 41.3847C35.5873 41.9718 35.1587 42.7934 34.4488 44.1551C33.549 45.8793 32.1895 48.4851 31.752 51.9451C31.7422 52.0219 31.7047 52.0925 31.6466 52.1438C31.5885 52.195 31.5137 52.2233 31.4363 52.2234Z" fill="#371A45"/>
<path d="M11.5506 33.7138C11.7511 34.1603 12.215 35.5767 11.6941 36.1499C11.1732 36.723 8.4633 37.9744 7.19968 37.0724C6.34052 36.4594 5.82618 35.3331 6.20645 34.3621C6.81858 32.7987 10.6908 31.7987 11.5506 33.7138Z" fill="white"/>
<g opacity="0.3">
<path opacity="0.3" d="M11.6941 36.1494C11.173 36.7234 8.46308 37.9739 7.19987 37.0719C6.38684 36.4918 5.88151 35.4524 6.15252 34.5184C6.30627 35.1002 6.69291 35.6406 7.19987 36.0016C8.46308 36.9036 11.173 35.6531 11.6941 35.0791C11.7761 34.9856 11.8362 34.875 11.8702 34.7554C11.969 35.2751 11.978 35.837 11.6941 36.1494Z" fill="#371A45"/>
</g>
<path d="M8.36471 37.7044C7.86 37.7044 7.38788 37.5982 7.01437 37.3319C6.11565 36.6906 5.44756 35.4254 5.90942 34.2456C6.35222 33.1148 8.08755 32.3801 9.44116 32.3463C10.6004 32.3188 11.4758 32.7688 11.8415 33.5833C11.8501 33.6025 12.6976 35.5197 11.9299 36.3643C11.4889 36.8493 9.79622 37.7044 8.36471 37.7044ZM9.54162 32.982C9.5123 32.982 9.48401 32.982 9.45674 32.982C8.18287 33.0129 6.80282 33.7114 6.50311 34.4764C6.16035 35.3518 6.68761 36.3134 7.38461 36.811C8.45512 37.5748 10.9621 36.4793 11.458 35.9338C11.8083 35.5484 11.5018 34.3817 11.2597 33.8428C10.9284 33.1062 10.0752 32.982 9.54162 32.982Z" fill="#371A45"/>
<path d="M8.14868 35.3869C8.20239 35.5378 8.26635 35.6926 8.33318 35.8408C8.40001 35.989 8.47504 36.1352 8.55376 36.2758C8.63225 36.4137 8.71799 36.5475 8.81062 36.6764C8.89996 36.7972 8.99926 36.9105 9.10746 37.0148C9.16898 37.0734 9.20471 37.154 9.20678 37.2389C9.20886 37.3239 9.17712 37.4061 9.11853 37.4677C9.05995 37.5292 8.97933 37.5649 8.8944 37.567C8.80948 37.5691 8.72721 37.5373 8.66569 37.4787C8.65116 37.465 8.63798 37.4499 8.62633 37.4336L8.6251 37.4318C8.40144 37.1169 8.2604 36.786 8.14827 36.4539C8.0936 36.2873 8.04625 36.1201 8.0062 35.9523C7.9652 35.7834 7.9324 35.6173 7.90616 35.4431C7.90157 35.4125 7.90854 35.3813 7.92569 35.3556C7.94284 35.3299 7.96895 35.3114 7.99894 35.3039C8.02893 35.2964 8.06065 35.3003 8.08792 35.3149C8.11518 35.3295 8.13604 35.3537 8.14642 35.3828L8.14868 35.3869Z" fill="#371A45"/>
<path d="M10.4025 34.6972C10.4955 34.8409 10.581 34.9894 10.6587 35.1419C10.7364 35.2932 10.8092 35.4475 10.8746 35.6056C11.0083 35.9246 11.1154 36.2541 11.1946 36.5908C11.2049 36.6319 11.207 36.6747 11.2006 36.7166C11.1943 36.7586 11.1797 36.7988 11.1577 36.8351C11.1357 36.8713 11.1067 36.9028 11.0724 36.9278C11.0381 36.9527 10.9992 36.9706 10.9579 36.9805C10.9167 36.9903 10.8739 36.9918 10.832 36.9849C10.7902 36.9781 10.7501 36.963 10.7141 36.9405C10.6782 36.9181 10.647 36.8887 10.6225 36.8541C10.5979 36.8195 10.5805 36.7804 10.5712 36.739C10.5665 36.7183 10.5637 36.6973 10.5628 36.6761C10.5518 36.3605 10.5147 36.0464 10.4517 35.737C10.4207 35.5804 10.3822 35.4248 10.3381 35.2702C10.2941 35.1156 10.2426 34.9602 10.1854 34.8169L10.1829 34.8112C10.1713 34.7825 10.1708 34.7505 10.1815 34.7215C10.1922 34.6925 10.2134 34.6685 10.2408 34.6542C10.2683 34.64 10.3001 34.6365 10.33 34.6444C10.3599 34.6524 10.3857 34.6712 10.4025 34.6972Z" fill="#371A45"/>
<g opacity="0.3">
<path opacity="0.3" d="M19.932 43.0146C19.932 43.0146 18.8455 43.2094 18.8455 43.9576C18.8455 44.7059 20.5041 48.3168 19.0261 52.3508C19.0261 52.3508 20.7636 49.0519 20.444 46.8795C20.1245 44.7071 19.932 43.0146 19.932 43.0146Z" fill="#371A45"/>
</g>
<g opacity="0.3">
<path opacity="0.3" d="M34.5396 43.0146C34.5396 43.0146 35.8427 43.9107 35.8427 44.66C35.8427 45.4093 32.8559 47.8184 31.4209 52.6224C31.4209 52.6224 31.53 49.2585 32.8723 46.6835C33.9401 44.6354 34.5396 43.0146 34.5396 43.0146Z" fill="#371A45"/>
</g>
<g opacity="0.3">
<path opacity="0.3" d="M34.1737 44.2025C34.1737 44.2025 32.855 45.9508 31.8406 45.7314C30.8263 45.5121 30.9425 44.5069 30.9425 44.5069L31.3935 48.6561L31.3115 51.1776L32.5569 48.1805L34.1737 44.2025Z" fill="#371A45"/>
</g>
<g opacity="0.3">
<path opacity="0.3" d="M20.0408 45.5425C20.0408 45.5425 20.401 47.6663 21.3231 47.1267C22.8491 46.2339 24.0176 43.6191 24.0176 43.6191C24.0176 43.6191 22.0451 50.0932 19.7788 50.9643C19.7788 50.9643 20.5404 46.6328 20.0408 45.5425Z" fill="#371A45"/>
</g>
</g>
</svg>
