<svg width="52" height="52" viewBox="0 0 52 52" fill="none" xmlns="http://www.w3.org/2000/svg">
<mask id="mask0_2_14314" style="mask-type:alpha" maskUnits="userSpaceOnUse" x="0" y="0" width="52" height="52">
<circle cx="26" cy="26" r="26" fill="#C4C4C4"/>
</mask>
<g mask="url(#mask0_2_14314)">
<path d="M-8 -3V64H59V-3H-8Z" fill="#FFD87D"/>
<path d="M48.6905 38.0237C48.4156 37.9666 47.8325 37.8577 47.187 37.8255C46.4959 37.792 45.7322 37.8441 45.1992 38.1396C44.6589 38.4387 44.3978 38.9111 43.869 39.3121C43.6242 39.4982 43.3222 39.6684 42.9087 39.8C42.5402 39.9173 42.2075 39.9568 41.8833 39.9761C41.0174 40.0283 40.2124 39.9395 38.9309 40.8261C38.7868 40.923 38.6346 41.0071 38.4758 41.0774C38.4279 41.1003 38.3778 41.1218 38.3271 41.1432C38.3242 41.1447 38.3212 41.146 38.3192 41.1469C37.1212 41.6527 35.2673 41.9526 35.2673 41.9526L25.7275 27.059L46.7612 34.803L48.7641 37.9165C48.7718 37.9282 48.7757 37.9418 48.7756 37.9558C48.7754 37.9697 48.7711 37.9833 48.7632 37.9947C48.7553 38.0062 48.7442 38.0151 48.7312 38.0203C48.7183 38.0254 48.7041 38.0266 48.6905 38.0237Z" fill="#F91C1C"/>
<g opacity="0.2">
<path opacity="0.2" d="M48.6905 38.0237C48.4156 37.9666 47.8325 37.8577 47.187 37.8255C46.4959 37.792 45.7322 37.8441 45.1992 38.1396C44.6589 38.4387 44.3978 38.9111 43.869 39.3121C43.6242 39.4982 43.3222 39.6684 42.9087 39.8C42.5402 39.9173 42.2075 39.9568 41.8833 39.9761C41.0174 40.0283 40.2124 39.9395 38.9309 40.8261C38.7868 40.923 38.6346 41.0071 38.4758 41.0774C38.4279 41.1003 38.3778 41.1218 38.3271 41.1432C38.3242 41.1447 38.3212 41.146 38.3192 41.1469C37.1212 41.6527 35.2673 41.9526 35.2673 41.9526L25.7275 27.059L46.7612 34.803L48.7641 37.9165C48.7718 37.9282 48.7757 37.9418 48.7756 37.9558C48.7754 37.9697 48.7711 37.9833 48.7632 37.9947C48.7553 38.0062 48.7442 38.0151 48.7312 38.0203C48.7183 38.0254 48.7041 38.0266 48.6905 38.0237Z" fill="#371A45"/>
</g>
<g opacity="0.35">
<path opacity="0.35" d="M47.187 37.8257C46.4959 37.7922 45.7323 37.8442 45.1993 38.1397C44.6589 38.4389 44.3978 38.9112 43.869 39.3122C44.0315 38.9422 44.1873 38.3072 43.7002 37.7752C42.7814 36.7727 40.8837 36.0979 40.8965 35.9234C40.9374 35.3743 44.9281 37.0278 47.187 37.8257Z" fill="#371A45"/>
</g>
<g opacity="0.35">
<path opacity="0.35" d="M41.8832 39.9758C41.0174 40.028 40.2124 39.9392 38.9308 40.8258C38.7868 40.9227 38.6345 41.0068 38.4757 41.0771C38.425 41.0962 38.3753 41.1182 38.327 41.1429C38.3241 41.1444 38.3211 41.1458 38.3191 41.1466C38.5402 40.8081 39.1863 40.5047 38.8372 39.4585C38.4071 38.1688 36.4852 36.7745 36.5265 36.6048C36.6388 36.1469 39.693 38.5512 41.8832 39.9758Z" fill="#371A45"/>
</g>
<path d="M35.1271 42.2655L25.0269 26.4963L46.9499 34.5673L49.0045 37.7615C49.0427 37.8207 49.0625 37.8899 49.0615 37.9603C49.0605 38.0307 49.0387 38.0992 48.9988 38.1573C48.9589 38.2153 48.9027 38.2602 48.8373 38.2864C48.7719 38.3125 48.7002 38.3188 48.6313 38.3042C47.5315 38.0726 46.0886 37.9736 45.3376 38.39C45.0676 38.5396 44.8754 38.7403 44.6527 38.9726C44.2825 39.3592 43.8627 39.7972 42.9944 40.0727C42.4643 40.2402 42.0088 40.2593 41.5683 40.2767C40.8363 40.306 40.1446 40.3335 39.0928 41.0615C38.0411 41.7894 35.4231 42.2172 35.312 42.2356L35.1271 42.2655ZM26.4275 27.6219L35.4055 41.6383C36.015 41.528 37.9724 41.141 38.7677 40.5908C39.957 39.7682 40.7647 39.7365 41.5462 39.7049C41.9675 39.6881 42.3653 39.6714 42.8219 39.5272C43.5505 39.2957 43.8852 38.9464 44.2396 38.5766C44.4729 38.3329 44.7145 38.081 45.0604 37.8899C45.9536 37.3946 47.3643 37.5088 48.2536 37.6525L46.5724 35.0395L26.4275 27.6219ZM48.5226 38.0709V38.0718V38.0709Z" fill="#371A45"/>
<path d="M28.4659 28.5364C28.4659 28.5364 39.8586 32.3738 48.8572 38.0615C48.8572 38.0615 50.3022 35.6111 48.1419 33.5281C48.1419 33.5281 44.0144 33.1038 38.1698 30.7585C32.4953 28.4805 28.084 25.8817 28.084 25.8817L28.4659 28.5364Z" fill="#F91C1C"/>
<g opacity="0.35">
<path opacity="0.35" d="M48.9965 37.7748C49.0043 37.7424 49.0119 37.7095 49.0194 37.676C49.3966 35.9621 48.2501 34.2809 46.5237 33.9622C44.8405 33.6511 41.7608 32.9386 37.9517 31.4098C33.2034 29.5037 29.3393 27.3731 28.2044 26.728L28.0828 25.8815C28.0828 25.8815 32.4942 28.4811 38.1693 30.7587C44.0132 33.1037 48.1412 33.528 48.1412 33.528C49.8581 35.1822 49.2992 37.0685 48.9965 37.7748Z" fill="white"/>
</g>
<path d="M48.8319 38.3184C48.7643 38.3184 48.6981 38.2993 48.6409 38.2632C39.7857 32.6818 28.4878 28.8457 28.3748 28.8082L28.2073 28.7519L27.7153 25.3333L28.2289 25.6358C28.2728 25.6616 32.6884 28.2511 38.276 30.4933C44.0099 32.7942 48.1299 33.2403 48.1708 33.2438L48.2689 33.254L48.3401 33.3225C50.4325 35.3402 49.3794 37.6785 49.1471 38.1267C49.1172 38.1847 49.0719 38.2333 49.0162 38.2672C48.9604 38.3011 48.8964 38.319 48.8312 38.3189L48.8319 38.3184ZM28.7245 28.3225C30.1558 28.8188 40.451 32.4718 48.7394 37.6492C49.0171 36.9959 49.5067 35.3055 48.0111 33.8007C47.3364 33.717 43.3769 33.1562 38.0635 31.0241C33.5401 29.2087 29.7778 27.1667 28.451 26.4207L28.7245 28.3225Z" fill="#371A45"/>
<path d="M21.1516 38.6088C21.7546 40.8841 22.3735 41.957 22.3735 41.957C22.3735 41.957 23.374 44.1464 25.5135 45.2309C26.8895 45.9284 28.6439 45.7853 28.6439 45.7853C28.6439 45.7853 29.5407 48.636 30.7361 49.2134C31.9316 49.7908 33.9377 48.9925 33.616 46.9019C33.4017 45.5116 32.5264 43.4395 31.9436 42.7678C31.2145 41.9275 28.2084 38.4607 27.8474 37.1162" fill="white"/>
<g opacity="0.35">
<path opacity="0.35" d="M21.1516 38.6088C21.7546 40.8841 22.3735 41.957 22.3735 41.957C22.3735 41.957 23.374 44.1464 25.5135 45.2309C26.8895 45.9284 28.6439 45.7853 28.6439 45.7853C28.6439 45.7853 29.5407 48.636 30.7361 49.2134C31.9316 49.7908 33.9377 48.9925 33.616 46.9019C33.4017 45.5116 32.5264 43.4395 31.9436 42.7678C31.2145 41.9275 28.2084 38.4607 27.8474 37.1162" fill="#371A45"/>
</g>
<path d="M31.5739 49.6837C31.2413 49.686 30.9125 49.6134 30.6118 49.4713C29.4971 48.933 28.6867 46.8012 28.4403 46.0818C27.9055 46.0962 26.5338 46.069 25.3841 45.4863C23.2401 44.3992 22.2116 42.2871 22.1188 42.0881C22.0455 41.9573 21.455 40.868 20.875 38.6823C20.8593 38.6103 20.8719 38.535 20.9103 38.4721C20.9487 38.4092 21.0099 38.3636 21.0811 38.3446C21.1524 38.3257 21.2281 38.335 21.2927 38.3705C21.3573 38.406 21.4056 38.4651 21.4277 38.5354C22.0123 40.7382 22.6153 41.804 22.6213 41.8145L22.6334 41.8382C22.6429 41.8589 23.6217 43.9515 25.6425 44.9756C26.9323 45.6289 28.6034 45.5014 28.6202 45.5002L28.8478 45.4816L28.9165 45.6994C29.156 46.4597 29.9717 48.5268 30.8595 48.9556C31.4122 49.2222 32.1647 49.1366 32.6908 48.7475C33.2226 48.3542 33.4502 47.7144 33.3318 46.9459C33.1201 45.5696 32.2576 43.5681 31.7263 42.9559C29.2193 40.0658 27.821 38.1262 27.57 37.1909C27.5525 37.1183 27.564 37.0418 27.6021 36.9776C27.6402 36.9134 27.7019 36.8667 27.774 36.8473C27.8461 36.828 27.9229 36.8375 27.9881 36.874C28.0532 36.9104 28.1015 36.9709 28.1227 37.0425C28.2512 37.5215 28.9465 38.8778 32.1595 42.5807C32.81 43.3306 33.6876 45.4897 33.8983 46.8588C34.1038 48.1931 33.4437 48.9033 33.0318 49.2078C32.6086 49.517 32.098 49.6836 31.5739 49.6837Z" fill="#371A45"/>
<path d="M21.4443 27.8266L7.89979 14.7255C7.89979 14.7255 5.94674 12.0455 3.45384 14.0083C1.007 15.9346 2.34599 17.8724 3.2051 18.7834L15.8936 29.0959C15.8936 29.0959 16.9091 38.0325 22.2624 41.2158C25.9003 43.3791 29.4195 41.6443 29.4195 41.6443C29.4195 41.6443 30.42 43.8335 32.5595 44.9181C33.9357 45.6157 35.6899 45.4727 35.6899 45.4727C35.6899 45.4727 36.5867 48.3234 37.7821 48.9006C38.9776 49.4778 40.9837 48.6798 40.662 46.5891C40.4477 45.1988 39.5732 43.1267 38.9896 42.455C38.2607 41.6147 35.2544 38.1481 34.8934 36.8034C32.9407 29.528 27.5157 26.2923 27.5157 26.2923L21.4443 27.8266Z" fill="white"/>
<path d="M40.696 47.0077C40.7074 48.7843 38.8935 49.4378 37.7815 48.9004C36.5866 48.3237 35.6893 45.473 35.6893 45.473C35.6893 45.473 33.9354 45.6161 32.5594 44.9184C30.4199 43.833 29.4194 41.6447 29.4194 41.6447C29.4194 41.6447 25.9002 43.3791 22.2625 41.216C22.208 41.1837 22.1536 41.1502 22.1 41.1165C18.611 38.9305 17.0124 34.285 16.3362 31.453C16.0012 30.0533 15.8933 29.0959 15.8933 29.0959L13.9977 27.5549L12.1637 26.0641L3.20566 18.7833C3.19343 18.7704 3.18137 18.7575 3.16915 18.7439C2.30903 17.818 1.0419 15.9074 3.4539 14.0083C5.94697 12.0456 7.90035 14.7254 7.90035 14.7254L12.4321 19.1089L21.4444 27.8264L27.5159 26.2931C27.5159 26.2931 28.2065 26.7052 29.1832 27.5661C29.4866 27.8331 29.8179 28.1437 30.1643 28.4984C31.9434 30.3193 33.3354 32.4816 34.2565 34.8549C34.5034 35.493 34.7158 36.1439 34.893 36.8047C35.2544 38.1493 38.2597 41.616 38.9897 42.4562C39.5721 43.128 40.4479 45.1997 40.6618 46.5906C40.6838 46.7286 40.6952 46.868 40.696 47.0077Z" fill="white"/>
<g opacity="0.35">
<path opacity="0.35" d="M40.6961 47.0076C40.7075 48.7842 38.8936 49.4377 37.7816 48.9003C36.5867 48.3236 35.6894 45.4729 35.6894 45.4729C35.6894 45.4729 33.9355 45.616 32.5595 44.9183C30.42 43.8329 29.4195 41.6445 29.4195 41.6445C29.4195 41.6445 25.9003 43.379 22.2626 41.2159C22.2081 41.1836 22.1537 41.1501 22.1001 41.1164C23.3228 41.4047 25.1318 41.6645 26.7154 41.2273C29.4145 40.4831 29.4145 39.5987 30.4377 39.7618C31.461 39.925 30.5014 41.963 32.7995 43.5658C35.2775 45.2945 37.7175 43.6896 38.1153 44.1125C38.5131 44.5354 36.891 45.2558 37.0686 46.8116C37.225 48.1747 40.0099 48.9017 40.6961 47.0076Z" fill="#371A45"/>
</g>
<g opacity="0.35">
<path opacity="0.35" d="M13.9979 27.5552L3.2057 18.7832C3.19348 18.7703 3.18142 18.7574 3.16919 18.7439L5.4018 15.5781C5.4018 15.5781 6.85369 21.2482 9.49265 22.1776C11.5934 22.9181 11.8797 19.3397 11.8797 19.3397L13.9979 27.5552Z" fill="#371A45"/>
</g>
<path d="M38.6195 49.3709C38.2869 49.3733 37.958 49.3006 37.6574 49.1584C36.5427 48.62 35.7323 46.4882 35.4859 45.769C34.9516 45.7839 33.5794 45.7561 32.4297 45.1734C30.6375 44.2648 29.6249 42.6396 29.2866 42.0147C28.3866 42.3788 25.3168 43.3649 22.1161 41.4619C19.2768 39.7735 17.6582 36.5031 16.8003 34.0567C15.9856 31.7337 15.6893 29.7443 15.6236 29.2455L3.00984 18.9928L2.99678 18.9791C2.13315 18.0632 1.71188 17.1015 1.77888 16.1986C1.84337 15.3276 2.34721 14.5148 3.27667 13.7834C4.05638 13.1695 4.87026 12.9162 5.69537 13.0296C7.06468 13.2184 7.9804 14.3586 8.11507 14.5354L21.5286 27.5098L27.5603 25.9856L27.662 26.0462C27.7189 26.0797 29.0718 26.8959 30.6815 28.6244C32.1637 30.2156 34.1456 32.914 35.1705 36.729C35.299 37.2082 35.9944 38.565 39.2064 42.2672C39.857 43.0171 40.7345 45.1762 40.9454 46.5454C41.1508 47.8798 40.4906 48.5899 40.0788 48.8945C39.6552 49.2041 39.1441 49.3709 38.6195 49.3709ZM35.8938 45.1692L35.9626 45.3869C36.2021 46.1472 37.0179 48.2143 37.9056 48.6433C38.4584 48.91 39.2108 48.8244 39.7369 48.4353C40.2687 48.042 40.4963 47.4021 40.3781 46.6335C40.1662 45.2571 39.3037 43.2558 38.7724 42.6434C36.2656 39.7539 34.8673 37.8143 34.6161 36.8784C32.8612 30.3404 28.1993 27.0797 27.4655 26.6008L21.3591 28.1435L7.68292 14.914L7.66835 14.8941C7.66031 14.8832 6.82415 13.7613 5.61329 13.5964C4.94949 13.5058 4.28234 13.7202 3.63076 14.2329C2.83279 14.8611 2.40182 15.5366 2.34972 16.2406C2.28122 17.1665 2.88003 18.0178 3.40045 18.573L16.164 28.9471L16.1772 29.0632C16.1872 29.1512 17.2403 37.8965 22.4082 40.9695C25.863 43.0237 29.2589 41.4036 29.2924 41.387L29.5564 41.2577L29.6789 41.5249C29.6884 41.5457 30.6671 43.6384 32.688 44.6625C33.9729 45.3137 35.6491 45.1883 35.6658 45.1869L35.8938 45.1692Z" fill="#371A45"/>
<path d="M27.9341 38.2285C27.9429 38.9211 27.5824 39.5774 27.0003 39.8077C25.5431 40.3859 23.0921 41.0549 20.4631 40.4661C19.8519 40.3294 19.2988 39.9469 18.8975 39.3742C18.4118 38.6801 17.7625 37.5416 17.2431 35.8786C17.0542 35.2733 17.457 34.6371 17.9902 34.6944C19.3104 34.8374 21.7589 34.821 25.1134 33.6075C25.7654 33.3713 26.4601 33.7613 26.7285 34.5177L27.404 36.4196L27.8248 37.6052C27.8957 37.8054 27.9327 38.0161 27.9341 38.2285Z" fill="white"/>
<g opacity="0.35">
<path opacity="0.35" d="M27.934 38.2285C27.9427 38.9212 27.5822 39.5774 27.0002 39.8077C25.5429 40.3859 23.0919 41.0549 20.463 40.4662C19.8518 40.3295 19.2987 39.9469 18.8974 39.3742C18.8679 39.3327 18.8386 39.2905 18.8086 39.2446C19.0208 39.3691 19.2511 39.4599 19.4912 39.5138C22.1209 40.1025 24.5716 39.4335 26.0292 38.8553C26.2804 38.756 26.4901 38.5771 26.6474 38.351C26.3727 38.2801 26.1302 38.0425 26.0277 37.7205L26.0084 37.6597C25.8409 37.1331 26.1128 36.6045 26.5779 36.5477C26.6538 36.5384 26.7297 36.5284 26.8055 36.5177L25.7587 33.5697C26.1794 33.6702 26.5493 34.0127 26.7282 34.5179L27.4037 36.4199L27.8244 37.6054C27.8337 37.6312 27.8412 37.6557 27.8494 37.682C27.8559 37.7028 27.8623 37.7235 27.8673 37.7443C27.8796 37.7865 27.8888 37.8294 27.8973 37.8716C27.901 37.8895 27.9045 37.9081 27.9074 37.9267C27.9117 37.949 27.9146 37.9711 27.9174 37.9937C27.9209 38.0195 27.9239 38.046 27.926 38.0718C27.928 38.0976 27.9303 38.1239 27.9318 38.1505C27.9333 38.1771 27.934 38.2027 27.934 38.2285Z" fill="#371A45"/>
</g>
<path d="M22.5802 40.9826C21.847 40.9841 21.116 40.9046 20.4003 40.7454C19.7181 40.5927 19.101 40.1639 18.663 39.5381C18.1878 38.8589 17.5073 37.6877 16.9701 35.9642C16.8403 35.5484 16.9239 35.0901 17.1879 34.7684C17.4029 34.5067 17.7071 34.3763 18.0202 34.4099C19.437 34.5634 21.801 34.5017 25.0158 33.3379C25.1923 33.2737 25.3799 33.2454 25.5675 33.2545C25.7551 33.2636 25.9391 33.3099 26.1086 33.3909C26.5141 33.5825 26.83 33.9483 26.9978 34.4211L28.0943 37.5093C28.4606 38.5416 28.008 39.716 27.106 40.0738C25.959 40.5292 24.3667 40.9826 22.5802 40.9826ZM17.9237 34.9772C17.7805 34.9772 17.68 35.0721 17.6309 35.1317C17.4897 35.3035 17.445 35.5633 17.5168 35.7936C18.0331 37.4469 18.6803 38.5639 19.1324 39.2098C19.4883 39.7183 19.9833 40.0654 20.5258 40.1868C23.0314 40.7481 25.3726 40.146 26.8955 39.5421C27.5089 39.2989 27.8167 38.4386 27.5556 37.7015L26.4593 34.6133C26.3421 34.2851 26.1317 34.0349 25.865 33.9098C25.7639 33.8608 25.6539 33.8326 25.5417 33.8271C25.4294 33.8216 25.3172 33.8388 25.2118 33.8776C21.8939 35.0782 19.4367 35.1396 17.959 34.9799C17.9472 34.9784 17.9353 34.9775 17.9233 34.9772H17.9237Z" fill="#371A45"/>
<g opacity="0.35">
<path opacity="0.35" d="M33.7303 34.1496C32.4176 34.8124 29.3996 36.2035 26.5781 36.5475C26.1132 36.6042 25.8421 37.1326 26.0086 37.6596L26.0278 37.7207C26.1581 38.1318 26.5166 38.4049 26.8806 38.3691C29.8237 38.0793 33.1663 36.8041 34.5757 36.2204C34.9531 36.0641 35.1154 35.5672 34.9355 35.1199L34.7423 34.6387C34.5618 34.185 34.1008 33.9623 33.7303 34.1496Z" fill="#371A45"/>
</g>
<path d="M33.8019 33.4341C32.4892 34.0969 29.4712 35.488 26.6497 35.832C26.1847 35.8886 25.9135 36.4171 26.0802 36.944L26.0994 37.0052C26.2298 37.4162 26.5882 37.6894 26.9523 37.6536C29.8955 37.3638 33.2381 36.0886 34.6473 35.5049C35.0247 35.3486 35.187 34.8516 35.0071 34.4044L34.814 33.9232C34.6326 33.4694 34.1724 33.247 33.8019 33.4341Z" fill="white"/>
<path d="M26.8902 37.9431C26.4258 37.9431 25.9884 37.5982 25.828 37.0917L25.8087 37.0305C25.6948 36.6712 25.7394 36.2818 25.9275 35.989C26.0881 35.7391 26.3326 35.5825 26.6159 35.548C29.4299 35.2048 32.4889 33.7767 33.6735 33.1785C33.7886 33.121 33.9144 33.0884 34.043 33.0826C34.1715 33.0768 34.2998 33.0981 34.4195 33.145C34.7127 33.2557 34.9539 33.5008 35.081 33.8174L35.2741 34.2986C35.513 34.8934 35.2815 35.5535 34.7582 35.7703C33.4217 36.323 29.9885 37.6432 26.9817 37.9394C26.9505 37.9416 26.9199 37.9431 26.8902 37.9431ZM33.9314 33.6896C32.7201 34.3013 29.589 35.7621 26.6852 36.1161C26.5427 36.1329 26.4564 36.225 26.409 36.2986C26.3119 36.4493 26.2918 36.6588 26.3544 36.8577L26.3737 36.9188C26.4621 37.1975 26.6986 37.3913 26.9264 37.3689C29.8577 37.0803 33.2271 35.7843 34.54 35.2405C34.7708 35.145 34.8641 34.8108 34.7438 34.511L34.5505 34.0299C34.4835 33.8624 34.3619 33.734 34.2182 33.6799C34.1725 33.6613 34.1235 33.6525 34.0742 33.6542C34.0249 33.6558 33.9766 33.6679 33.9323 33.6896H33.9314Z" fill="#371A45"/>
<g opacity="0.35">
<path opacity="0.35" d="M26.0809 36.9435L26.1001 37.0048C26.2308 37.4156 26.5891 37.6893 26.9531 37.6537C29.8962 37.3632 33.2392 36.0882 34.6483 35.5051C35.0255 35.3484 35.1875 34.8519 35.0075 34.4048L34.8143 33.9228C34.8095 33.9099 34.8036 33.8973 34.7976 33.8857C34.7808 34.1861 34.6234 34.4522 34.3658 34.5601C32.9568 35.1433 29.614 36.4193 26.6705 36.7088C26.442 36.7314 26.2154 36.6316 26.0467 36.452C26.0175 36.6161 26.0292 36.785 26.0809 36.9435Z" fill="#371A45"/>
</g>
<path d="M2.60547 18.0318C2.60547 18.0318 3.21634 18.8023 4.08634 18.6683C5.53236 18.4464 7.54638 16.899 7.13216 15.8103C6.78828 14.9058 5.80154 14.9048 6.15111 14.1991" fill="white"/>
<g opacity="0.35">
<path opacity="0.35" d="M4.086 18.6689C3.21584 18.8029 2.60547 18.0324 2.60547 18.0324L2.60698 18.031C2.84014 18.1454 3.12623 18.22 3.44984 18.1705C4.89603 17.9479 6.91022 16.4017 6.49599 15.3127C6.34859 14.9247 6.08243 14.703 5.85413 14.5205L6.15111 14.2C5.8012 14.9061 6.78761 14.9076 7.13216 15.8113C7.54638 16.899 5.5322 18.4462 4.086 18.6689Z" fill="#371A45"/>
</g>
<path d="M2.82982 17.8537L2.8598 17.8872C2.87152 17.9005 2.88409 17.9135 2.89715 17.9266C2.92228 17.953 2.95008 17.9785 2.97738 18.0036C3.03269 18.0536 3.0911 18.0999 3.15225 18.1425C3.26975 18.2268 3.39914 18.2932 3.53616 18.3395C3.66639 18.3824 3.80336 18.4012 3.94034 18.3951L4.04084 18.3859L4.15491 18.3654C4.23112 18.3487 4.30767 18.3319 4.38388 18.3092C4.69409 18.2177 4.99305 18.0918 5.27515 17.9336C5.5609 17.7766 5.83024 17.5915 6.07915 17.3809C6.32403 17.172 6.55049 16.9377 6.70342 16.6784C6.77705 16.5579 6.83099 16.4264 6.86321 16.2889C6.89001 16.1747 6.88661 16.0555 6.85333 15.9431C6.84423 15.9122 6.83356 15.8818 6.82134 15.8521C6.80677 15.8213 6.79404 15.7893 6.77729 15.7595C6.74608 15.6973 6.70983 15.6377 6.66892 15.5814C6.586 15.466 6.48131 15.3575 6.36189 15.2392C6.30242 15.1796 6.23643 15.122 6.17211 15.0496C6.10779 14.9772 6.0371 14.902 5.98417 14.7942C5.95623 14.7392 5.93632 14.6806 5.92505 14.62C5.91581 14.5591 5.91694 14.4972 5.9284 14.4367C5.95 14.3205 6.00612 14.2317 6.06508 14.1565C6.07849 14.139 6.09747 14.1265 6.1189 14.1212C6.14033 14.1158 6.16293 14.118 6.183 14.1272C6.20307 14.1364 6.2194 14.1521 6.22933 14.1719C6.23925 14.1916 6.24217 14.2141 6.2376 14.2357L6.23643 14.2418C6.22085 14.321 6.21432 14.3974 6.22789 14.4541C6.23984 14.5053 6.26755 14.5515 6.30712 14.5861C6.38802 14.6652 6.53324 14.7478 6.6798 14.8464C6.84221 14.9497 6.98984 15.0746 7.11865 15.2176C7.18708 15.2947 7.24799 15.3782 7.30056 15.4668C7.32786 15.5111 7.35081 15.558 7.37392 15.6044C7.39737 15.6531 7.41735 15.7035 7.43372 15.7551C7.504 15.9737 7.50941 16.2079 7.4493 16.4295C7.39469 16.638 7.30207 16.8194 7.19805 16.9841C6.98733 17.3122 6.72905 17.5804 6.45016 17.818C6.17211 18.0532 5.87124 18.26 5.55203 18.4353C5.23205 18.6145 4.8929 18.757 4.541 18.8602C4.45172 18.8862 4.36026 18.9076 4.26797 18.9272L4.12761 18.9524L3.97133 18.9671C3.76324 18.9771 3.55509 18.9487 3.35727 18.8833C3.16683 18.8199 2.98687 18.7285 2.82328 18.6122C2.74305 18.556 2.66635 18.495 2.59364 18.4294C2.55746 18.3959 2.52178 18.3634 2.48745 18.3274C2.4707 18.3107 2.45277 18.2921 2.43569 18.273C2.4186 18.2539 2.40353 18.2373 2.38092 18.2097C2.33308 18.1517 2.30995 18.0773 2.31653 18.0025C2.32311 17.9277 2.35887 17.8585 2.41608 17.8098C2.47329 17.7611 2.54735 17.7369 2.62227 17.7424C2.69718 17.7479 2.76692 17.7827 2.81642 17.8391L2.82982 17.8537Z" fill="#371A45"/>
<path d="M8.73652 16.1137C7.89902 14.7254 6.94595 14.6455 5.82587 15.2787C5.00864 15.7407 4.5924 16.5517 4.85873 17.0259C5.17899 17.5954 6.75031 16.6502 6.80173 16.6952C6.85315 16.7403 6.45718 17.5111 6.66622 18.186" fill="white"/>
<path d="M8.69547 16.1383C8.62077 16.0713 8.55092 16.0043 8.48392 15.9363L8.37722 15.841C8.34255 15.8092 8.31022 15.7757 8.27438 15.746C8.13016 15.6288 7.99248 15.5128 7.84307 15.4301C7.77221 15.3815 7.69433 15.3527 7.62247 15.3149C7.54592 15.2897 7.47356 15.2556 7.39651 15.2425C7.24536 15.2043 7.08838 15.1947 6.93371 15.2144C6.85565 15.2186 6.77492 15.239 6.69502 15.2532C6.61496 15.278 6.53372 15.2936 6.45298 15.3261C6.29068 15.3795 6.12904 15.4577 5.96924 15.5391C5.66959 15.7018 5.39857 15.9353 5.23074 16.2153C5.14582 16.3529 5.09171 16.5031 5.07798 16.6358C5.07513 16.7004 5.0763 16.7626 5.09473 16.8095C5.09875 16.8361 5.1155 16.8535 5.12287 16.8765C5.12756 16.8823 5.12756 16.8796 5.1304 16.8815C5.16446 16.8935 5.20053 16.8988 5.2366 16.8971C5.3096 16.8959 5.38226 16.8869 5.45334 16.8703C5.6128 16.8368 5.78265 16.7781 5.95333 16.7147C6.12401 16.6512 6.29503 16.577 6.47576 16.5034C6.52183 16.4845 6.56621 16.4658 6.62233 16.4448C6.63707 16.4395 6.65197 16.4339 6.67358 16.4271L6.69033 16.4219L6.7163 16.4153C6.73138 16.4119 6.74664 16.4094 6.76202 16.4078C6.78264 16.4059 6.80338 16.4059 6.824 16.4078C6.84572 16.4098 6.86714 16.4144 6.88781 16.4214C6.92066 16.4324 6.95137 16.449 6.9786 16.4704C6.9946 16.483 7.0091 16.4974 7.02181 16.5133C7.0336 16.5278 7.04408 16.5434 7.05314 16.5597C7.06704 16.5848 7.07726 16.6117 7.08345 16.6396C7.08878 16.6643 7.09153 16.6894 7.09166 16.7147L7.08948 16.7467C7.08873 16.7555 7.0875 16.7643 7.0858 16.7729C7.08199 16.7936 7.07707 16.8141 7.07106 16.8343C7.05247 16.8949 7.03589 16.9384 7.0188 16.985L6.96855 17.1158C6.83823 17.4582 6.72333 17.7836 6.7106 18.1727V18.1744C6.71008 18.1848 6.70632 18.1949 6.69985 18.203C6.69339 18.2112 6.68453 18.2172 6.67451 18.2201C6.66449 18.2231 6.65381 18.2228 6.64395 18.2194C6.63409 18.216 6.62553 18.2096 6.61948 18.2011C6.49955 18.027 6.44143 17.8116 6.42166 17.6001C6.40624 17.3906 6.41965 17.18 6.46153 16.9741L6.52065 16.6982C6.52149 16.6919 6.52199 16.6853 6.52065 16.6887C6.51991 16.6914 6.5194 16.6942 6.51915 16.6971C6.51853 16.7017 6.51826 16.7064 6.51831 16.7111C6.51778 16.7302 6.51975 16.7492 6.52417 16.7678L6.53121 16.7929C6.54177 16.8254 6.55848 16.8556 6.58045 16.8818C6.59275 16.8962 6.60638 16.9094 6.62115 16.9212C6.64698 16.942 6.6763 16.958 6.70775 16.9684C6.7271 16.9746 6.74702 16.9789 6.76721 16.9812C6.78481 16.9831 6.80255 16.9831 6.82014 16.9812C6.82954 16.9803 6.83888 16.9789 6.84812 16.977L6.85649 16.9751L6.83974 16.983L6.72149 17.0416C6.55148 17.1299 6.36974 17.2177 6.18247 17.2957C5.98775 17.3789 5.78548 17.4432 5.57847 17.4877C5.46061 17.5122 5.34038 17.5234 5.22002 17.5212C5.09087 17.516 4.93141 17.4919 4.77614 17.383C4.69996 17.3278 4.63702 17.2563 4.59189 17.1738C4.56208 17.1076 4.52807 17.041 4.51417 16.9728C4.47464 16.8344 4.47732 16.6993 4.49022 16.5726C4.52372 16.3214 4.62221 16.1065 4.73879 15.9157C4.97949 15.5378 5.30712 15.2467 5.67478 15.0239C5.85484 14.9224 6.03658 14.8206 6.23976 14.747C6.34126 14.7077 6.44522 14.6749 6.55097 14.6491C6.60491 14.6368 6.66068 14.6284 6.71562 14.6184C6.74343 14.614 6.7704 14.6078 6.79937 14.6053L6.8848 14.6005C6.99786 14.5901 7.11427 14.599 7.22918 14.6089C7.34342 14.6313 7.45832 14.6506 7.56619 14.6926C7.62123 14.7098 7.67452 14.7323 7.72531 14.7596C7.77556 14.7861 7.82732 14.8109 7.87607 14.8398C7.96785 14.9043 8.06249 14.9648 8.13904 15.0423C8.30319 15.1869 8.42681 15.3593 8.53468 15.5341C8.58627 15.6231 8.63082 15.715 8.67437 15.8061C8.71206 15.9004 8.74707 15.9952 8.77705 16.0909C8.78021 16.1011 8.77994 16.1121 8.77628 16.1222C8.77262 16.1322 8.76577 16.1408 8.75677 16.1466C8.74778 16.1524 8.73714 16.1551 8.72646 16.1543C8.71579 16.1535 8.70567 16.1492 8.69765 16.1421L8.69547 16.1383Z" fill="#371A45"/>
<path d="M28.6293 45.5345C28.702 45.5146 28.7945 45.4969 28.8781 45.4784L29.1353 45.423C29.3064 45.3833 29.478 45.3449 29.6464 45.2913C29.8158 45.2379 29.9803 45.1699 30.138 45.0882C30.3 45.0073 30.4462 44.9002 30.5995 44.7821L30.6016 44.7805C30.6081 44.7755 30.616 44.7728 30.6242 44.7728C30.6323 44.7729 30.6402 44.7756 30.6467 44.7806C30.6531 44.7857 30.6576 44.7927 30.6596 44.8006C30.6616 44.8085 30.6609 44.8169 30.6576 44.8243C30.5757 45.01 30.4615 45.1797 30.3202 45.3255C30.176 45.4726 30.0126 45.5997 29.8345 45.7034C29.6579 45.8082 29.4693 45.8911 29.2727 45.9504C29.1748 45.9799 29.0748 46.0023 28.9737 46.0174C28.8694 46.0346 28.7637 46.041 28.6581 46.0365C28.5975 46.035 28.5396 46.0116 28.4949 45.9706C28.4502 45.9297 28.4218 45.874 28.4149 45.8138C28.4081 45.7536 28.4232 45.6929 28.4576 45.643C28.4919 45.593 28.5432 45.5572 28.6019 45.5421L28.6293 45.5345Z" fill="#371A45"/>
<path d="M35.6751 45.2217C35.7478 45.202 35.8403 45.1841 35.9239 45.1656L36.1813 45.1102C36.3522 45.0707 36.5238 45.0323 36.6923 44.9787C36.8617 44.9252 37.0261 44.8572 37.1838 44.7754C37.3459 44.6945 37.492 44.5874 37.6453 44.4695L37.6474 44.4678C37.6539 44.4629 37.6618 44.4602 37.67 44.4602C37.6781 44.4602 37.6861 44.463 37.6925 44.468C37.6989 44.4731 37.7034 44.4801 37.7054 44.488C37.7074 44.4959 37.7067 44.5043 37.7034 44.5117C37.6214 44.6974 37.5072 44.8671 37.366 45.0129C37.2218 45.16 37.0584 45.287 36.8803 45.3906C36.7038 45.4955 36.5151 45.5784 36.3185 45.6377C36.2206 45.6673 36.1207 45.6896 36.0195 45.7047C35.9152 45.7218 35.8095 45.7282 35.7039 45.7237C35.6435 45.7221 35.5856 45.6986 35.5411 45.6577C35.4965 45.6168 35.4682 45.5611 35.4613 45.501C35.4545 45.4409 35.4696 45.3803 35.5038 45.3305C35.538 45.2806 35.5891 45.2447 35.6477 45.2295L35.6751 45.2217Z" fill="#371A45"/>
<path d="M39.8068 36.9841C38.7993 37.2776 37.5556 37.0478 37.5556 37.0478C37.5556 37.0478 37.502 38.5298 36.6678 38.2442C36.3988 38.1519 36.1749 37.603 36.0188 37.0779C35.7843 36.2929 35.3097 35.5989 34.6443 35.1215C34.5155 35.0293 34.386 34.94 34.2557 34.8535C32.0689 33.4067 29.7527 32.8291 29.7527 32.8291L29.3943 29.5197L29.1824 27.5648L29.1724 27.4731C29.5538 27.5462 30.0089 27.71 30.5077 27.937C33.0163 29.076 36.6164 31.7938 37.412 32.5022C38.3668 33.3522 41.2094 33.0152 41.5258 34.7562C41.7459 35.9652 41.1412 36.597 39.8068 36.9841Z" fill="white"/>
<g opacity="0.35">
<path opacity="0.35" d="M39.8067 36.9841C38.7992 37.2775 37.5555 37.0477 37.5555 37.0477C37.5555 37.0477 37.5019 38.5298 36.6678 38.2442C36.3988 38.1519 36.1748 37.603 36.0187 37.0779C35.7842 36.2928 35.3097 35.5989 34.6442 35.1215C34.5154 35.0292 34.3859 34.9399 34.2556 34.8535C32.0689 33.4066 29.7527 32.8291 29.7527 32.8291C29.9918 32.661 30.2658 32.5491 30.5542 32.5015C30.8426 32.4539 31.138 32.472 31.4185 32.5544C32.0307 32.7344 32.8598 33.0601 33.9645 33.7915C34.0946 33.8775 34.2241 33.9669 34.3531 34.0595C35.0184 34.5367 35.4936 35.2309 35.7276 36.0158C35.8835 36.541 36.1075 37.0898 36.3766 37.1822C36.8579 37.3471 37.0299 36.9173 37.0884 36.5245C37.1094 36.3813 37.1841 36.2515 37.2973 36.1615C37.4106 36.0714 37.5538 36.0278 37.6981 36.0396C38.1955 36.0804 38.922 36.0947 39.5151 35.9223C40.6628 35.5888 41.2703 35.0758 41.2789 34.1698C41.4045 34.3439 41.4887 34.5444 41.5251 34.756C41.7459 35.9652 41.1412 36.597 39.8067 36.9841Z" fill="#371A45"/>
</g>
<path d="M29.7759 32.7372C30.0165 32.7429 30.2471 32.7782 30.4773 32.8218C30.706 32.8672 30.9321 32.9247 31.1548 32.994C31.5987 33.1351 32.0329 33.3052 32.4546 33.503C32.6672 33.5987 32.8734 33.7084 33.08 33.8156L33.3857 33.9861L33.5383 34.0717L33.6891 34.1618L33.9897 34.3412L34.2842 34.5316L34.4314 34.6266L34.5758 34.7271L34.8641 34.9281C35.2666 35.2189 35.6077 35.5864 35.8678 36.0095C35.998 36.2206 36.1064 36.4444 36.1914 36.6775C36.2125 36.7358 36.2332 36.7947 36.2508 36.8537L36.3011 37.0203C36.333 37.1256 36.3672 37.2293 36.4036 37.3314C36.4766 37.5316 36.5637 37.7334 36.6652 37.8748C36.6765 37.8909 36.6888 37.9062 36.7021 37.9208L36.7197 37.9409C36.7251 37.9452 36.7304 37.9497 36.7354 37.9545C36.7465 37.9671 36.7521 37.9652 36.7585 37.9727C36.7629 37.9712 36.7552 37.9739 36.7791 37.9793C36.8488 37.9992 36.8964 37.9997 36.9299 37.9845C36.9652 37.9731 37.0093 37.9356 37.0526 37.8719C37.1001 37.7975 37.1373 37.7171 37.1634 37.6327C37.1942 37.5372 37.2181 37.4396 37.2347 37.3406C37.2521 37.2409 37.2638 37.1402 37.2696 37.0391L37.2863 36.7137L37.6079 36.7681C37.7932 36.7992 38.0002 36.8219 38.198 36.8351C38.3973 36.8488 38.5971 36.8524 38.7967 36.8458C38.9931 36.8392 39.1888 36.8204 39.3829 36.7895C39.5742 36.7577 39.7531 36.7058 39.9464 36.6433C40.3194 36.5165 40.6758 36.3497 40.9278 36.1086C41.0487 35.9919 41.1425 35.8501 41.2025 35.6931C41.2611 35.5376 41.285 35.3646 41.2844 35.1839C41.278 35.0923 41.2763 35.0011 41.2592 34.9073C41.2489 34.8197 41.2303 34.7333 41.2036 34.6492C41.1522 34.4898 41.0654 34.344 40.9497 34.2229C40.7152 33.974 40.3623 33.8072 39.9883 33.6817C39.6117 33.5556 39.2094 33.4662 38.799 33.3665C38.5938 33.3162 38.3859 33.264 38.1759 33.199C37.9659 33.134 37.753 33.0558 37.5422 32.9399L37.4635 32.8955L37.3858 32.8439C37.3331 32.8083 37.2824 32.7697 37.234 32.7283L37.118 32.6278L37.0007 32.5295C36.8428 32.3989 36.6803 32.2702 36.5175 32.1422C36.1905 31.8874 35.859 31.6371 35.5229 31.3913C34.8529 30.8997 34.1696 30.423 33.4748 29.9676C32.7801 29.5122 32.0761 29.0706 31.3458 28.6865C30.9786 28.4983 30.6047 28.3296 30.2423 28.1452C29.8748 27.9663 29.522 27.7847 29.1547 27.5695L29.1507 27.567C29.1328 27.5563 29.1187 27.5402 29.1105 27.5211C29.1022 27.502 29.1001 27.4808 29.1046 27.4604C29.109 27.4401 29.1197 27.4216 29.1352 27.4077C29.1507 27.3937 29.1702 27.385 29.1909 27.3827C29.302 27.3696 29.4142 27.3673 29.5259 27.376C29.581 27.3811 29.6368 27.3842 29.6919 27.3913C29.747 27.3983 29.7999 27.4094 29.854 27.4192C30.067 27.4618 30.2758 27.5234 30.4778 27.6035C30.8821 27.7542 31.2551 27.9633 31.6235 28.173C31.9918 28.3827 32.3596 28.5917 32.7199 28.8118C33.0802 29.0319 33.4362 29.2577 33.7884 29.4885C34.4927 29.9505 35.1836 30.4307 35.8611 30.929C36.2004 31.1782 36.5365 31.432 36.8694 31.6905C37.0356 31.821 37.201 31.952 37.3654 32.088L37.4886 32.1913L37.6101 32.2962C37.6745 32.3506 37.7445 32.3982 37.8188 32.438C38.1342 32.6104 38.5345 32.7109 38.9338 32.8094C39.3358 32.9077 39.7524 32.999 40.1697 33.1384C40.384 33.2082 40.592 33.296 40.7914 33.401C40.9949 33.5104 41.1946 33.6486 41.3651 33.8295C41.5389 34.0124 41.6694 34.2319 41.747 34.472C41.7838 34.5872 41.8098 34.7056 41.8247 34.8256C41.8447 34.9382 41.8488 35.0564 41.8555 35.1735C41.8574 35.4107 41.8259 35.6592 41.7366 35.8949C41.6469 36.1301 41.5068 36.3427 41.3261 36.5178C40.968 36.8572 40.5417 37.042 40.1273 37.1852C40.0209 37.2168 39.9223 37.2537 39.809 37.2805C39.6985 37.3115 39.5878 37.3321 39.4769 37.3532C39.2577 37.3883 39.0366 37.4096 38.8147 37.417C38.3757 37.4302 37.9364 37.4013 37.5029 37.3306L37.8409 37.0594C37.8342 37.1866 37.8198 37.3133 37.7979 37.4388C37.7765 37.5655 37.7458 37.6904 37.7061 37.8126C37.6637 37.947 37.6031 38.0749 37.5258 38.1927C37.4421 38.3165 37.3163 38.4505 37.1352 38.5186C37.0481 38.5526 36.9552 38.5693 36.8617 38.5675C36.8183 38.5674 36.7751 38.5634 36.7324 38.5556C36.6921 38.5496 36.6524 38.5403 36.6136 38.5278C36.5656 38.5138 36.5192 38.4948 36.4751 38.4712C36.4344 38.4468 36.3959 38.4188 36.3602 38.3875L36.3121 38.3438L36.2724 38.3C36.2474 38.2722 36.2239 38.2429 36.2021 38.2124C36.1251 38.1039 36.0587 37.9883 36.0038 37.8671C35.9507 37.753 35.9049 37.6393 35.8639 37.5257C35.8229 37.4121 35.786 37.2984 35.7517 37.1848L35.7029 37.0229C35.6882 36.9726 35.6706 36.9224 35.6527 36.874C35.5809 36.6767 35.4892 36.4872 35.3788 36.3086C35.1585 35.9497 34.8695 35.6379 34.5283 35.3911C33.8038 34.8666 33.0122 34.435 32.1946 34.0635C31.3823 33.6767 30.5449 33.3576 29.7307 32.9233L29.7285 32.9221C29.709 32.9118 29.6936 32.8952 29.6847 32.875C29.6759 32.8548 29.6741 32.8322 29.6797 32.8109C29.6852 32.7895 29.6979 32.7707 29.7155 32.7575C29.7331 32.7442 29.7547 32.7373 29.7768 32.7379L29.7759 32.7372Z" fill="#371A45"/>
<g opacity="0.35">
<path opacity="0.35" d="M30.5082 27.9372C30.4488 28.041 30.3874 28.144 30.324 28.2463C30.2717 28.33 30.2181 28.4151 30.1637 28.4975C29.9292 28.8541 29.6723 29.1953 29.3945 29.5193C27.348 31.9078 24.3419 33.1493 21.3158 33.0227C21.1233 33.0142 20.9308 33.0004 20.7383 32.9812C20.2058 32.9279 19.6784 32.832 19.1613 32.6942C18.2066 32.439 17.2944 32.0456 16.4536 31.5264C16.4143 31.5021 16.3756 31.477 16.3364 31.4521C16.0014 30.0524 15.8935 29.095 15.8935 29.095L13.9979 27.554L12.164 26.0632C11.4412 23.8355 11.4956 21.3677 12.432 19.1073L21.4443 27.8248L27.5158 26.2915C27.5158 26.2915 28.2064 26.7036 29.1831 27.5645L29.1731 27.4729C29.5535 27.5466 30.0092 27.7104 30.5082 27.9372Z" fill="#371A45"/>
</g>
<g opacity="0.7">
<path opacity="0.7" d="M12.5136 18.7955C12.3552 19.1931 12.221 19.5999 12.1116 20.0136C12.1992 19.5937 12.334 19.1851 12.5136 18.7955Z" fill="white"/>
</g>
<path d="M11.5726 24.7585C12.0909 26.3979 13.0225 27.8763 14.2776 29.0514C14.5415 29.2985 14.8183 29.5313 15.107 29.7489C15.2484 29.8561 15.395 29.9599 15.5444 30.0617C15.9887 30.3616 16.4563 30.6254 16.9427 30.8508C17.8379 31.267 18.7898 31.5487 19.7674 31.6867C19.9591 31.7131 20.1511 31.7344 20.3433 31.7505C23.8591 32.0384 27.4228 30.4704 29.534 27.3369C32.6451 22.7214 31.4247 16.4581 26.8101 13.3473C25.9452 12.7632 24.9947 12.3174 23.9927 12.0257C23.8788 11.9922 23.7634 11.9604 23.6477 11.9319C23.3384 11.8537 23.0274 11.7904 22.7147 11.7419C21.2779 11.5229 19.8107 11.6155 18.4128 12.0135C18.1924 12.0761 17.9739 12.1464 17.7574 12.2243C15.7447 12.9499 14.0154 14.2976 12.8203 16.0721C11.0308 18.727 10.6748 21.9268 11.5726 24.7585Z" fill="white"/>
<g opacity="0.35">
<path opacity="0.35" d="M29.534 27.3366C27.4235 30.4706 23.8587 32.0386 20.3431 31.7502C20.151 31.7343 19.9592 31.7131 19.7675 31.6865C18.2549 31.4714 16.8108 30.9159 15.544 30.0618C15.3951 29.9594 15.2487 29.8561 15.1067 29.7491C14.8182 29.5311 14.5415 29.2981 14.2776 29.0511C13.0222 27.8761 12.0906 26.3977 11.5723 24.7582C11.292 23.8749 11.1342 22.9573 11.1033 22.0312C11.7547 23.9312 12.9603 25.5926 14.5647 26.8011C14.7059 26.9083 14.8524 27.0116 15.002 27.1138C16.2678 27.9694 17.712 28.5251 19.2248 28.7385C19.4169 28.765 19.6089 28.7862 19.8009 28.8022C23.3167 29.0906 26.8803 27.5226 28.9919 24.3886C30.1793 22.6328 30.7799 20.546 30.7076 18.4277C31.6974 21.3139 31.3704 24.6125 29.534 27.3366Z" fill="#371A45"/>
</g>
<path d="M21.1669 32.0705C20.8855 32.0705 20.6031 32.059 20.3198 32.0358C20.1228 32.0191 19.924 31.9973 19.7284 31.9704C18.7224 31.8285 17.743 31.5387 16.8217 31.1104C16.3219 30.8785 15.8413 30.6072 15.3844 30.2992C15.2153 30.1838 15.0684 30.0788 14.9342 29.9771C14.6376 29.7535 14.3532 29.5143 14.0819 29.2605C12.7923 28.0508 11.8344 26.5307 11.2996 24.8452C10.3363 21.8071 10.804 18.5511 12.583 15.9123C13.812 14.0871 15.5907 12.701 17.6609 11.9553C17.8787 11.8764 18.1063 11.8034 18.3354 11.7375C19.7729 11.3283 21.2816 11.2331 22.7591 11.4585C23.0794 11.5079 23.4022 11.5735 23.7189 11.6539C23.845 11.6849 23.9624 11.7169 24.0758 11.7509C25.1055 12.0507 26.0821 12.509 26.9707 13.1094C31.7095 16.3037 32.9662 22.7574 29.7723 27.4963C27.8376 30.3672 24.5973 32.0705 21.1669 32.0705ZM11.8453 24.6722C12.3503 26.2643 13.2551 27.7003 14.4732 28.843C14.7297 29.083 14.9987 29.3092 15.2792 29.5207C15.4065 29.617 15.5457 29.7166 15.7055 29.8257C16.9353 30.6562 18.3381 31.1959 19.8074 31.4037C19.9917 31.4292 20.1808 31.4501 20.3672 31.4657C23.8976 31.7554 27.3198 30.1116 29.2966 27.1777C32.3143 22.7009 31.1269 16.6034 26.6501 13.5854C25.81 13.0179 24.8865 12.5847 23.913 12.3013C23.8063 12.2692 23.698 12.2399 23.5792 12.2105C23.2777 12.1342 22.9734 12.0722 22.6712 12.0263C21.2751 11.8135 19.8496 11.9035 18.4914 12.2901C18.2748 12.3517 18.0604 12.4208 17.8549 12.495C15.8995 13.2 14.2194 14.5095 13.0582 16.2336C11.3775 18.7266 10.9356 21.8029 11.8458 24.6736L11.8453 24.6722Z" fill="#371A45"/>
<path d="M21.1669 32.0705C20.8855 32.0705 20.6031 32.059 20.3198 32.0358C20.1228 32.0191 19.924 31.9973 19.7284 31.9704C18.7224 31.8285 17.743 31.5387 16.8217 31.1104C16.3219 30.8785 15.8413 30.6072 15.3844 30.2992C15.2153 30.1838 15.0684 30.0788 14.9342 29.9771C14.6376 29.7535 14.3532 29.5143 14.0819 29.2605C12.7923 28.0508 11.8344 26.5307 11.2996 24.8452C10.3363 21.8071 10.804 18.5511 12.583 15.9123C13.812 14.0871 15.5907 12.701 17.6609 11.9553C17.8787 11.8764 18.1063 11.8034 18.3354 11.7375C19.7729 11.3283 21.2816 11.2331 22.7591 11.4585C23.0794 11.5079 23.4022 11.5735 23.7189 11.6539C23.845 11.6849 23.9624 11.7169 24.0758 11.7509C25.1055 12.0507 26.0821 12.509 26.9707 13.1094C31.7095 16.3037 32.9662 22.7574 29.7723 27.4963C27.8376 30.3672 24.5973 32.0705 21.1669 32.0705ZM11.8453 24.6722C12.3503 26.2643 13.2551 27.7003 14.4732 28.843C14.7297 29.083 14.9987 29.3092 15.2792 29.5207C15.4065 29.617 15.5457 29.7166 15.7055 29.8257C16.9353 30.6562 18.3381 31.1959 19.8074 31.4037C19.9917 31.4292 20.1808 31.4501 20.3672 31.4657C23.8976 31.7554 27.3198 30.1116 29.2966 27.1777C32.3143 22.7009 31.1269 16.6034 26.6501 13.5854C25.81 13.0179 24.8865 12.5847 23.913 12.3013C23.8063 12.2692 23.698 12.2399 23.5792 12.2105C23.2777 12.1342 22.9734 12.0722 22.6712 12.0263C21.2751 11.8135 19.8496 11.9035 18.4914 12.2901C18.2748 12.3517 18.0604 12.4208 17.8549 12.495C15.8995 13.2 14.2194 14.5095 13.0582 16.2336C11.3775 18.7266 10.9356 21.8029 11.8458 24.6736L11.8453 24.6722Z" fill="#371A45"/>
<path d="M12.6622 27.0997C17.6842 32.2629 26.126 30.8852 27.8826 23.9713C29.0777 19.2673 25.3947 14.4652 20.8031 13.6066C17.4613 12.9818 13.9255 13.8337 11.5378 18.7551C11.5378 18.7551 10.8175 21.097 11.1604 22.8139C11.5033 24.5308 12.1271 26.1425 12.1271 26.1425L12.6622 27.0997Z" fill="#371A45"/>
<g opacity="0.35">
<path opacity="0.35" d="M27.8826 23.9718C26.126 30.886 17.6841 32.263 12.6622 27.1003L12.554 26.9062C18.7161 29.2679 25.8061 26.6662 27.7127 19.7084C28.1559 21.0593 28.2511 22.52 27.8826 23.9718Z" fill="#111A28"/>
</g>
<path d="M19.8394 31.5417C18.8335 31.5408 17.8325 31.401 16.8648 31.1263L16.8224 31.1106C16.3223 30.8787 15.8415 30.6074 15.3844 30.2992C15.2153 30.1838 15.0684 30.0788 14.9342 29.9771C14.6376 29.7535 14.3532 29.5143 14.0819 29.2605C12.7924 28.0508 11.8344 26.5306 11.2996 24.8452C10.3363 21.8071 10.804 18.5511 12.583 15.9123C13.6087 14.388 15.022 13.1645 16.6775 12.3677L16.7043 12.3549L16.7333 12.3477C18.0301 12.0295 19.4676 12.0141 21.0057 12.3017C23.746 12.8141 26.3215 14.5904 27.895 17.0531C29.3415 19.3171 29.8007 21.892 29.1879 24.3039C28.5218 26.9243 27.0039 28.9815 24.7981 30.2533C23.3209 31.1051 21.6029 31.5417 19.8394 31.5417ZM17.0422 30.5816C19.624 31.3066 22.3456 31.0066 24.5127 29.7575C26.5815 28.5646 28.0064 26.63 28.6332 24.163C29.2067 21.9063 28.7734 19.4908 27.4128 17.3615C25.922 15.0296 23.4884 13.3484 20.9007 12.8645C19.4547 12.5941 18.1083 12.605 16.8986 12.8968C15.3463 13.65 14.0211 14.8009 13.0579 16.2324C11.3772 18.7255 10.9353 21.8018 11.8455 24.6724C12.3505 26.2644 13.2552 27.7004 14.4734 28.8431C14.7298 29.0832 14.9989 29.3094 15.2794 29.5208C15.4067 29.6171 15.5459 29.7168 15.7057 29.8259C16.1309 30.1123 16.5779 30.365 17.0425 30.5816H17.0422Z" fill="#371A45"/>
<path d="M19.8164 30.5102C17.1493 30.5102 14.4749 29.3739 12.4572 27.2995L12.4309 27.2726L11.8604 26.2455C11.8346 26.1785 11.2239 24.5907 10.8798 22.8697C10.5266 21.102 11.2341 18.7691 11.2651 18.6706L11.2818 18.6299C13.3756 14.3133 16.5979 12.5285 20.8573 13.325C23.3038 13.7824 25.6029 15.3685 27.0074 17.5661C28.2991 19.5875 28.709 21.8876 28.1618 24.0415C27.3717 27.1513 25.1944 29.396 22.1881 30.2001C21.4145 30.4067 20.6171 30.5109 19.8164 30.5102ZM12.8937 26.9272C15.3681 29.4532 18.8687 30.4949 22.0392 29.6477C24.8394 28.8988 26.8684 26.8042 27.6059 23.9013C28.1139 21.9018 27.7296 19.7617 26.524 17.875C25.2031 15.8075 23.045 14.3173 20.7513 13.8885C16.7832 13.1466 13.7739 14.8193 11.8068 18.8599C11.7398 19.0893 11.1342 21.2156 11.4424 22.7583C11.7573 24.3328 12.3196 25.8403 12.3887 26.0215L12.8937 26.9272Z" fill="#371A45"/>
<path d="M32.3174 24.6359C32.675 22.6778 31.8114 20.8798 30.3886 20.62C28.9658 20.3601 27.5225 21.7368 27.1648 23.6949C26.8072 25.653 27.6708 27.451 29.0936 27.7109C30.5164 27.9707 31.9597 26.594 32.3174 24.6359Z" fill="white"/>
<path d="M29.4363 28.0263C29.3765 28.0263 29.3163 28.0238 29.2562 28.019C28.6185 27.9669 28.0477 27.6505 27.6055 27.1044C26.9601 26.3073 26.6811 25.1447 26.8397 23.9132C27.1127 21.7952 28.6301 20.1779 30.2232 20.3083C30.8609 20.3604 31.4317 20.6768 31.8739 21.2228C32.5193 22.0198 32.7983 23.1826 32.6397 24.414C32.3769 26.452 30.9615 28.0263 29.4363 28.0263ZM30.0393 20.8731C28.7974 20.8731 27.6343 22.232 27.4084 23.9864C27.2715 25.047 27.5119 26.078 28.0512 26.7441C28.3926 27.1659 28.8256 27.4093 29.3038 27.4476C30.5966 27.5528 31.8384 26.159 32.0727 24.34C32.2096 23.2792 31.9692 22.2482 31.4299 21.5821C31.0885 21.1605 30.6555 20.917 30.1773 20.8786C30.1305 20.8749 30.0842 20.8731 30.0383 20.8731H30.0393Z" fill="#371A45"/>
<path d="M32.6677 24.82C32.9798 23.3897 32.2994 22.0266 31.1481 21.7753C29.9967 21.5241 28.8103 22.4799 28.4982 23.9101C28.1861 25.3404 28.8665 26.7036 30.0178 26.9548C31.1692 27.2061 32.3556 26.2503 32.6677 24.82Z" fill="white"/>
<g opacity="0.35">
<path opacity="0.35" d="M28.3842 25.5136C28.3203 24.9754 28.4039 24.4178 28.5977 23.9091C28.8466 25.124 29.8437 25.7349 30.9152 25.2836C31.6079 24.9922 32.1715 24.3237 32.4715 23.5363C32.4882 23.6128 32.5001 23.6927 32.51 23.7743C32.672 25.1448 31.8797 26.6451 30.7402 27.1253C29.6007 27.6055 28.5461 26.8832 28.3842 25.5136Z" fill="#371A45"/>
</g>
<path d="M30.2765 27.6963C30.2348 27.6963 30.1931 27.6948 30.1513 27.6916C29.6746 27.6565 29.2457 27.4203 28.911 27.0086C28.3884 26.3657 28.1593 25.3582 28.2981 24.3135C28.5348 22.532 29.7081 21.2096 30.9664 21.3022C31.4431 21.3374 31.8721 21.5737 32.2067 21.9854C32.7293 22.6283 32.9583 23.6358 32.8196 24.6805C32.5908 26.4027 31.4876 27.6963 30.2765 27.6963ZM30.846 21.8703C29.946 21.8703 29.0505 22.9975 28.8656 24.3889C28.7473 25.2803 28.9303 26.1247 29.3554 26.6474C29.5882 26.9339 29.878 27.0975 30.1929 27.1208C31.117 27.1891 32.0613 26.0371 32.2516 24.6051C32.37 23.7137 32.187 22.8693 31.762 22.3466C31.5292 22.0601 31.2394 21.8965 30.9245 21.8732C30.898 21.8712 30.8719 21.8703 30.8458 21.8703H30.846Z" fill="#371A45"/>
<g opacity="0.7">
<path opacity="0.7" d="M22.8367 15.791C22.8367 15.791 18.2918 15.2383 15.3379 17.3613L15.3285 17.368C14.7077 17.8167 14.2175 18.4226 13.9084 19.1234C13.4986 20.0494 13.3518 20.7482 13.2463 21.3679C12.9264 23.2525 13.1291 24.1953 13.1291 24.1953C12.2262 23.0176 11.8142 21.7847 12.0651 20.2125C12.0902 20.0576 12.1219 19.8986 12.1596 19.7367C12.1681 19.6993 12.1773 19.6624 12.1874 19.6256C12.1874 19.6256 12.1874 19.6243 12.1874 19.6234C12.3135 19.2144 12.4639 18.8133 12.638 18.4223C13.2547 17.0374 14.3967 15.2884 16.3623 14.7205C20.0364 13.6574 23.0246 15.6205 22.8367 15.791Z" fill="white"/>
</g>
<g opacity="0.7">
<path opacity="0.7" d="M25.5462 22.5633C26.2869 22.4941 26.822 21.7382 26.7413 20.875C26.6606 20.0118 25.9947 19.3681 25.254 19.4374C24.5133 19.5066 23.9783 20.2625 24.0589 21.1257C24.1396 21.9889 24.8055 22.6326 25.5462 22.5633Z" fill="white"/>
</g>
<g opacity="0.7">
<path opacity="0.7" d="M25.7796 24.4792C26.082 24.4249 26.2758 24.0953 26.2125 23.7429C26.1492 23.3905 25.8528 23.1489 25.5504 23.2032C25.2481 23.2575 25.0542 23.5872 25.1175 23.9395C25.1808 24.2919 25.4772 24.5335 25.7796 24.4792Z" fill="white"/>
</g>
<path d="M22.8257 37.3578C22.8514 37.473 23.2209 38.3666 23.2209 38.3666L23.8771 38.2202C24.3294 38.1197 24.5909 37.5696 24.4621 36.9924C24.3333 36.4152 23.8626 36.0293 23.4107 36.1301L22.7544 36.2765C22.7544 36.2765 22.7839 37.1702 22.8257 37.3578Z" fill="#22A7F0"/>
<g opacity="0.35">
<path opacity="0.35" d="M22.8257 37.3578C22.8514 37.473 23.2209 38.3666 23.2209 38.3666L23.8771 38.2202C24.3294 38.1197 24.5909 37.5696 24.4621 36.9924C24.3333 36.4152 23.8626 36.0293 23.4107 36.1301L22.7544 36.2765C22.7544 36.2765 22.7839 37.1702 22.8257 37.3578Z" fill="#371A45"/>
</g>
<path d="M23.2211 38.534C23.1879 38.534 23.1555 38.5242 23.128 38.5058C23.1004 38.4873 23.079 38.4611 23.0663 38.4305C22.9784 38.2178 22.6893 37.5141 22.6625 37.3942C22.6184 37.1969 22.5903 36.3751 22.5873 36.282C22.586 36.243 22.5983 36.2048 22.6222 36.1739C22.6461 36.1431 22.68 36.1215 22.7181 36.113L23.3743 35.9666C23.9157 35.8458 24.477 36.2897 24.6257 36.956C24.6961 37.2714 24.6653 37.5915 24.5388 37.8568C24.4056 38.1362 24.1837 38.3233 23.9139 38.3836L23.2576 38.53C23.2456 38.5327 23.2334 38.534 23.2211 38.534ZM22.9893 37.321C23.0047 37.3845 23.1623 37.7821 23.3222 38.1724L23.8415 38.0565C24.009 38.0193 24.1492 37.8972 24.237 37.7128C24.3314 37.5146 24.3542 37.2717 24.2994 37.0289C24.1909 36.5431 23.809 36.2128 23.448 36.2935L22.9276 36.4096C22.9403 36.7505 22.9648 37.2108 22.9893 37.321Z" fill="#371A45"/>
<path d="M23.2197 38.3681C23.6715 38.2673 23.9335 37.7177 23.8047 37.1406C23.6759 36.5635 23.2052 36.1774 22.7533 36.2782C22.3014 36.3791 22.0395 36.9287 22.1683 37.5058C22.297 38.0829 22.7678 38.469 23.2197 38.3681Z" fill="#22A7F0"/>
<g opacity="0.35">
<path opacity="0.35" d="M23.8058 37.1392C23.9348 37.7159 23.673 38.266 23.2212 38.3668C22.7695 38.4677 22.2981 38.0821 22.1695 37.504C22.1523 37.4277 22.1419 37.3501 22.1387 37.2719C22.3434 37.6424 22.7057 37.8581 23.0566 37.7793C23.4467 37.6922 23.6958 37.2702 23.6723 36.7843C23.7334 36.8957 23.7783 37.0152 23.8058 37.1392Z" fill="#371A45"/>
</g>
<path d="M23.8059 37.1392C23.8147 37.1779 23.8215 37.2171 23.8263 37.2565C23.6357 36.8243 23.2401 36.5617 22.8584 36.6471C22.4374 36.7414 22.1807 37.2253 22.2533 37.758C22.2172 37.6762 22.1891 37.5911 22.1696 37.5039C22.0406 36.927 22.3026 36.3771 22.7543 36.2762C23.2061 36.1754 23.6768 36.5618 23.8059 37.1392Z" fill="white"/>
<path d="M23.074 38.5505C22.8633 38.5505 22.6533 38.4712 22.468 38.3193C22.2407 38.1327 22.0766 37.8563 22.0062 37.5408C21.8575 36.8744 22.1769 36.2343 22.7181 36.1132C23.2593 35.9921 23.8208 36.4363 23.9695 37.1026C24.04 37.4182 24.009 37.7381 23.8826 38.0036C23.7486 38.283 23.5275 38.4699 23.2576 38.5302C23.1974 38.5436 23.1358 38.5504 23.074 38.5505ZM22.9012 36.4281C22.8642 36.4281 22.8273 36.4321 22.7911 36.4401C22.4302 36.5209 22.2246 36.9818 22.3332 37.4679C22.3875 37.7106 22.5107 37.921 22.6806 38.0604C22.8384 38.1898 23.0174 38.2406 23.1846 38.2032C23.3518 38.1659 23.4923 38.0438 23.5801 37.8595C23.6745 37.6612 23.6973 37.4183 23.6425 37.1756C23.545 36.7388 23.2268 36.4281 22.9012 36.4281Z" fill="#371A45"/>
<path d="M21.9016 40.7694C21.8552 40.7693 21.81 40.7541 21.7731 40.726C21.7361 40.698 21.7093 40.6586 21.6967 40.6139L21.1416 38.6361C21.1275 38.5835 21.1007 38.5352 21.0636 38.4954C21.0266 38.4555 20.9803 38.4253 20.9289 38.4074L20.153 38.1562C20.0649 38.1273 19.9855 38.0765 19.9223 38.0085C19.8591 37.9406 19.8141 37.8578 19.7916 37.7678L19.0693 34.9802C19.0551 34.9256 19.0633 34.8675 19.0919 34.8188C19.1205 34.7702 19.1673 34.7349 19.222 34.7207C19.2767 34.7065 19.3347 34.7146 19.3834 34.7433C19.4321 34.7719 19.4674 34.8187 19.4815 34.8734L20.2038 37.6609C20.2086 37.6814 20.2185 37.7004 20.2326 37.7161C20.2466 37.7319 20.2644 37.7439 20.2842 37.751L21.0601 38.0023C21.1785 38.0414 21.2854 38.1094 21.3712 38.2C21.457 38.2906 21.519 38.4011 21.5517 38.5215L22.1068 40.4993C22.1156 40.531 22.1169 40.5643 22.1107 40.5966C22.1046 40.6288 22.091 40.6592 22.0712 40.6854C22.0513 40.7116 22.0257 40.7329 21.9963 40.7475C21.9668 40.7621 21.9344 40.7698 21.9016 40.7699V40.7694Z" fill="#371A45"/>
</g>
</svg>
